<svg width="1366" height="790" viewBox="0 0 1366 790" fill="none" xmlns="http://www.w3.org/2000/svg">
<rect width="1366" height="755" fill="#FBFBFB"/>
<path d="M1286.57 664.407C1286.35 665.18 1286.33 666.001 1286.52 666.784C1286.73 667.255 1288.11 668.831 1290.91 669.4C1293.71 669.97 1297.57 669.4 1299.22 669.293C1302.08 669.398 1304.93 669.663 1307.75 670.085C1310.33 670.45 1312.36 669.863 1313.33 668.884C1313.49 668.689 1313.61 668.461 1313.67 668.215C1313.74 667.97 1313.75 667.712 1313.72 667.46C1313.71 666.809 1313.62 666.162 1313.44 665.538L1286.57 664.407Z" fill="#37474F"/>
<path d="M1313.01 662.707C1313.06 662.93 1313.11 663.161 1313.15 663.384C1313.4 664.532 1313.49 665.716 1313.39 666.89C1313.18 667.283 1312.9 667.626 1312.55 667.896C1312.21 668.166 1311.81 668.357 1311.39 668.457C1309.56 669.035 1307.62 669.075 1305.77 668.572C1303.59 668.243 1301.38 668.103 1299.17 668.154C1297.26 668.39 1295.33 668.488 1293.4 668.448C1291.95 668.386 1290.52 668.086 1289.16 667.558C1288.02 667.05 1286.85 666.401 1286.59 665.19C1286.24 662.627 1287.28 661.488 1288.46 660.74C1289.63 659.993 1291.29 660.082 1293.07 659.957C1294.69 659.841 1295.86 659.841 1297.29 659.726C1298.52 659.604 1299.74 659.363 1300.92 659.005C1302 658.658 1303.16 657.421 1303.62 657.367C1303.62 657.367 1310.79 657.305 1311.48 657.367C1312.16 657.43 1312.51 659.975 1312.61 660.527C1312.71 661.079 1312.7 661.417 1312.81 661.844C1312.88 662.147 1312.94 662.431 1313.01 662.707Z" fill="#455A64"/>
<path d="M1315.62 623.521C1315.52 625.301 1315.29 627.081 1315.08 628.861C1314.73 631.851 1314.36 634.832 1313.99 637.823C1313.58 641.074 1313.16 644.338 1312.73 647.613C1312.39 650.212 1312.04 652.802 1311.68 655.391C1311.58 656.13 1311.48 656.878 1311.36 657.625C1311.25 658.249 1310.98 658.829 1310.57 659.301C1310.17 659.773 1309.64 660.117 1309.06 660.295C1308.13 660.559 1307.18 660.709 1306.23 660.74C1305.15 660.774 1304.09 661.028 1303.1 661.488C1303.57 660.046 1305.31 659.566 1304.62 658.747C1304.16 658.186 1303.35 658.337 1303.3 657.501C1303.25 656.664 1303.22 656.184 1303.19 655.454C1303.05 653.077 1300.8 621.963 1300.76 621.26C1302.62 620.308 1315.62 623.521 1315.62 623.521Z" fill="#FFA8A7"/>
<path d="M1316.3 640.689C1316.07 641.995 1316.16 643.339 1316.54 644.605C1317.28 646.67 1318.84 647.613 1319.76 648.432C1320.73 649.419 1321.62 650.485 1322.42 651.618C1323.28 652.748 1323.51 653.487 1324.91 654.68C1325.62 655.15 1326.41 655.456 1327.24 655.576C1328.07 655.696 1328.91 655.627 1329.71 655.374C1330.88 654.866 1331.29 654.484 1331.22 652.588C1331.15 650.692 1325.43 650.087 1325.43 650.087L1316.3 640.689Z" fill="#37474F"/>
<path d="M1330.47 647.07C1330.96 647.257 1331.09 648.174 1331.16 649.998C1331.22 651.378 1331.8 653.389 1329.88 654.261C1329.02 654.599 1328.09 654.678 1327.19 654.491C1326.29 654.304 1325.46 653.857 1324.79 653.202C1323.48 651.574 1322.6 650.15 1320.73 648.165C1319.1 646.447 1316.87 645.628 1316.19 642.184C1316.08 641.824 1316.05 641.444 1316.09 641.07C1316.13 640.695 1316.24 640.332 1316.42 640.004C1316.6 639.676 1316.84 639.389 1317.13 639.161C1317.42 638.933 1317.75 638.769 1318.1 638.677C1320.3 638.135 1321.44 638.784 1325.05 641.098C1326.28 641.855 1329.96 646.857 1330.47 647.07Z" fill="#455A64"/>
<path d="M1332.99 614.38C1333.26 626.013 1331.49 637.689 1330.68 647.755C1330.53 648.734 1325.58 649.589 1323.99 646.696C1323.89 646.483 1319.7 614.914 1319.7 614.914L1332.99 614.38Z" fill="#FFA8A7"/>
<path d="M1333.01 599.695C1333.01 599.695 1332.82 588.214 1333.01 579.457C1333.13 573.957 1332.85 570.895 1332.63 567.059C1332.25 562.154 1331.47 557.29 1330.31 552.516C1330.31 552.516 1299.64 548.85 1299.28 559.788C1298.86 572.889 1299.45 601.564 1299.57 604.991C1299.84 613.001 1300.09 617.834 1300.76 625.39C1305.44 626.573 1312.36 625.844 1316.05 624.411C1316.18 620.735 1316.26 618.643 1316.26 618.643L1317.07 599.695C1317.07 599.695 1317.35 603.122 1317.71 607.812C1317.98 611.699 1318.48 615.564 1319.23 619.382C1322.17 620.797 1330.91 620.717 1333.26 618.038C1333.26 611.194 1333.01 599.695 1333.01 599.695Z" fill="#37474F"/>
<path d="M1299.13 583.675C1303.28 584.699 1311.69 584.565 1311.69 584.565C1311.69 584.565 1311.6 603.469 1310.83 605.489C1310.07 607.509 1300.19 607.056 1299.13 605.373C1298.67 598.149 1298.67 590.9 1299.13 583.675Z" fill="#263238"/>
<path d="M1327.86 571.073C1327.86 571.073 1326.06 576.333 1319.4 578.576L1317.09 599.695L1317.73 584.895L1318.2 576.929C1321.92 576.044 1325.29 574.001 1327.86 571.073Z" fill="#263238"/>
<path d="M1320.52 513.873L1303.2 518.02C1303.2 518.02 1295.35 505.24 1294.27 502.303C1293.18 499.366 1293.01 497.506 1291.69 495.058C1290.37 492.611 1285.18 491.632 1285.18 491.632C1285.18 491.632 1282.68 496.509 1282.44 499.072C1282.44 499.072 1284.01 503.816 1285.49 505.836C1286.96 507.856 1287.78 508.008 1288.82 510.286C1289.86 512.564 1293.68 521.918 1296.07 526.947C1298.14 531.299 1300.49 530.952 1304.56 529.617C1308.64 528.282 1321.67 524.277 1321.67 524.277L1320.52 513.873Z" fill="#F28F8F"/>
<path d="M1275.05 493.99L1274.94 493.928C1274.57 493.768 1274.17 493.709 1273.78 493.758C1273.38 493.806 1273 493.96 1272.68 494.204C1271.72 494.85 1270.93 495.722 1270.36 496.747C1269.78 497.772 1269.45 498.922 1269.39 500.104C1269.39 500.466 1269.44 500.826 1269.54 501.172C1269.64 501.547 1269.85 501.883 1270.13 502.142C1270.19 502.2 1270.26 502.251 1270.34 502.294H1270.4L1270.9 502.605L1270.65 502.4C1270.41 502.134 1270.23 501.82 1270.11 501.477C1269.99 501.134 1269.94 500.77 1269.97 500.407C1270.03 499.225 1270.36 498.075 1270.93 497.049C1271.5 496.024 1272.3 495.153 1273.25 494.506C1273.54 494.304 1273.87 494.165 1274.22 494.1C1274.56 494.034 1274.92 494.042 1275.26 494.123C1275.35 494.153 1275.44 494.192 1275.53 494.239L1275.05 493.99Z" fill="#FFC100"/>
<path d="M1269.5 501.208C1269.4 500.862 1269.35 500.501 1269.36 500.14C1269.42 498.958 1269.75 497.808 1270.32 496.782C1270.89 495.757 1271.69 494.886 1272.64 494.239C1272.97 493.995 1273.34 493.842 1273.74 493.793C1274.14 493.745 1274.54 493.804 1274.91 493.963L1273.78 493.287C1273.51 493.133 1273.22 493.053 1272.92 493.055C1272.4 493.075 1271.89 493.238 1271.45 493.527C1270.5 494.174 1269.7 495.045 1269.13 496.07C1268.56 497.096 1268.23 498.246 1268.16 499.428C1268.12 499.848 1268.19 500.272 1268.35 500.657C1268.52 501.041 1268.79 501.373 1269.12 501.617L1270.28 502.311C1270.21 502.268 1270.14 502.218 1270.08 502.16C1269.81 501.904 1269.61 501.574 1269.5 501.208ZM1279.15 496.5L1275.62 494.39L1275.53 494.337C1275.44 494.289 1275.35 494.251 1275.26 494.221C1274.92 494.14 1274.56 494.132 1274.22 494.197C1273.87 494.263 1273.54 494.402 1273.25 494.604C1272.3 495.251 1271.5 496.122 1270.93 497.147C1270.36 498.172 1270.03 499.323 1269.97 500.505C1269.94 500.868 1269.99 501.232 1270.11 501.575C1270.23 501.918 1270.41 502.232 1270.65 502.498L1270.9 502.703H1270.95L1274.51 504.83C1274.77 504.987 1275.07 505.067 1275.37 505.062C1275.89 505.041 1276.4 504.878 1276.84 504.59C1277.8 503.943 1278.59 503.072 1279.16 502.047C1279.73 501.022 1280.06 499.871 1280.13 498.689C1280.16 498.267 1280.09 497.842 1279.92 497.457C1279.75 497.072 1279.48 496.742 1279.15 496.5Z" fill="#455A64"/>
<path d="M1278.18 503.442C1277.79 503.903 1277.34 504.297 1276.83 504.608C1276.39 504.893 1275.88 505.053 1275.36 505.071C1275.06 505.079 1274.77 505.002 1274.51 504.848L1270.94 502.721H1270.9C1270.81 502.66 1270.72 502.592 1270.64 502.516C1270.41 502.25 1270.22 501.936 1270.1 501.593C1269.98 501.25 1269.94 500.886 1269.96 500.523C1269.97 499.918 1270.07 499.318 1270.25 498.743L1278.18 503.442Z" fill="#37474F"/>
<path d="M1270.29 502.329L1269.13 501.635C1268.8 501.388 1268.54 501.055 1268.37 500.669C1268.21 500.283 1268.14 499.858 1268.18 499.437C1268.19 498.831 1268.29 498.23 1268.48 497.657L1269.67 498.369C1269.49 498.943 1269.39 499.543 1269.37 500.149C1269.37 500.51 1269.42 500.871 1269.52 501.217C1269.62 501.593 1269.83 501.929 1270.11 502.187L1270.29 502.329Z" fill="#37474F"/>
<path d="M1278.18 510.215C1277.8 510.368 1277.4 510.437 1277 510.419C1276.6 510.401 1276.21 510.295 1275.85 510.108L1273.62 508.773C1273.25 508.521 1272.94 508.184 1272.72 507.786C1272.5 507.389 1272.37 506.944 1272.34 506.486V500.256C1272.35 500.094 1272.37 499.933 1272.4 499.775C1272.4 499.713 1272.4 499.659 1272.45 499.606C1272.44 499.556 1272.44 499.505 1272.45 499.455L1272.52 499.268C1272.55 499.225 1272.57 499.18 1272.58 499.134C1272.61 499.092 1272.63 499.047 1272.65 499.001L1277.43 501.867C1277.2 502.259 1277.07 502.706 1277.05 503.166V509.396C1277.12 510.099 1277.62 510.446 1278.18 510.215Z" fill="#263238"/>
<path d="M1290.27 495.227V501.457C1290.24 501.916 1290.12 502.363 1289.89 502.761C1289.67 503.159 1289.36 503.496 1288.99 503.744L1278.4 510.09H1278.33H1278.26H1278.2C1277.6 510.322 1277.15 509.974 1277.15 509.2V502.97C1277.17 502.512 1277.3 502.066 1277.53 501.669C1277.75 501.272 1278.06 500.934 1278.43 500.683C1279.03 500.31 1279.54 499.804 1279.93 499.2C1280.32 498.597 1280.57 497.912 1280.67 497.194C1280.72 496.964 1280.8 496.744 1280.91 496.544C1281.03 496.348 1281.18 496.181 1281.37 496.055L1283.69 494.675C1283.76 494.632 1283.84 494.61 1283.92 494.61C1284 494.61 1284.09 494.632 1284.16 494.675H1284.2C1284.33 494.771 1284.42 494.9 1284.48 495.049C1284.58 495.25 1284.72 495.428 1284.88 495.572C1285.05 495.717 1285.24 495.824 1285.45 495.889C1285.66 495.954 1285.88 495.975 1286.09 495.95C1286.31 495.925 1286.52 495.854 1286.71 495.743L1289.01 494.355C1289.69 493.954 1290.24 494.248 1290.29 495.005L1290.27 495.227Z" fill="#37474F"/>
<path opacity="0.3" d="M1277.5 501.795C1277.71 501.391 1278.02 501.051 1278.4 500.807C1279 500.435 1279.51 499.928 1279.9 499.325C1280.29 498.722 1280.55 498.036 1280.65 497.319C1280.69 497.089 1280.77 496.869 1280.89 496.669C1281 496.473 1281.16 496.306 1281.34 496.179L1283.66 494.8C1283.66 494.8 1281.68 496.073 1281.4 496.277C1281.07 496.561 1280.85 496.959 1280.78 497.399C1280.67 498.122 1280.41 498.811 1280.02 499.415C1279.62 500.019 1279.1 500.523 1278.49 500.888C1278.1 501.111 1277.76 501.421 1277.5 501.795Z" fill="white"/>
<path d="M1278.32 495.129L1276.11 493.812C1275.99 494.011 1275.91 494.232 1275.87 494.462C1275.77 495.178 1275.51 495.862 1275.12 496.464C1274.73 497.065 1274.22 497.57 1273.62 497.942C1273.26 498.191 1272.96 498.53 1272.76 498.93L1277.54 501.795C1277.76 501.391 1278.07 501.051 1278.44 500.807C1279.04 500.435 1279.56 499.928 1279.95 499.325C1280.33 498.722 1280.59 498.036 1280.69 497.319C1280.73 497.089 1280.82 496.869 1280.93 496.669L1278.32 495.129Z" fill="#455A64"/>
<path d="M1278.32 495.129L1276.11 493.812C1275.99 494.011 1275.91 494.232 1275.87 494.462C1275.85 494.621 1275.82 494.779 1275.78 494.933C1275.78 494.933 1275.78 494.987 1275.78 495.022C1275.74 495.153 1275.7 495.28 1275.65 495.405C1275.63 495.466 1275.61 495.525 1275.59 495.583L1275.46 495.886L1275.33 496.126C1275.23 496.295 1275.13 496.455 1275.03 496.616C1274.66 497.15 1274.19 497.599 1273.64 497.933C1273.28 498.182 1272.98 498.522 1272.78 498.921C1273.05 498.557 1273.38 498.254 1273.77 498.031C1274.35 497.71 1274.86 497.267 1275.26 496.731L1279.85 499.472C1280.3 498.833 1280.59 498.092 1280.71 497.31C1280.75 497.08 1280.83 496.86 1280.95 496.66L1278.32 495.129Z" fill="#37474F"/>
<path d="M1288.99 492.94L1286.76 491.605C1286.36 491.388 1285.92 491.275 1285.47 491.275C1285.02 491.275 1284.58 491.388 1284.18 491.605L1281.87 492.984C1281.73 493.066 1281.58 493.126 1281.43 493.162L1281.5 493.207L1284.07 494.755H1284.12C1284.24 494.851 1284.34 494.98 1284.4 495.129C1284.5 495.33 1284.63 495.508 1284.8 495.652C1284.97 495.797 1285.16 495.905 1285.37 495.969C1285.57 496.034 1285.79 496.055 1286.01 496.03C1286.22 496.005 1286.43 495.934 1286.62 495.823L1288.93 494.435C1289.61 494.035 1290.16 494.328 1290.21 495.085C1290.17 494.656 1290.04 494.242 1289.83 493.872C1289.62 493.501 1289.33 493.183 1288.99 492.94Z" fill="#455A64"/>
<path d="M1281.54 493.207L1281.47 493.162L1279.4 491.916C1279.32 491.872 1279.24 491.848 1279.16 491.848C1279.08 491.848 1279 491.872 1278.92 491.916L1276.61 493.296C1276.42 493.426 1276.27 493.596 1276.15 493.794L1278.37 495.111L1280.94 496.651C1281.06 496.455 1281.21 496.288 1281.4 496.162L1283.71 494.782C1283.78 494.739 1283.86 494.717 1283.95 494.717C1284.03 494.717 1284.11 494.739 1284.18 494.782L1281.54 493.207Z" fill="#455A64"/>
<path d="M1281.78 496.66L1283.5 495.619C1283.67 495.512 1283.81 495.619 1283.81 495.806V496.829C1283.81 496.943 1283.78 497.055 1283.72 497.154C1283.67 497.253 1283.59 497.337 1283.5 497.399L1281.78 498.449C1281.61 498.556 1281.46 498.449 1281.46 498.262V497.239C1281.47 497.123 1281.5 497.011 1281.56 496.911C1281.61 496.81 1281.69 496.724 1281.78 496.66Z" fill="#FFC100"/>
<path d="M1285.69 494.373L1285.46 494.31L1284.94 493.99C1284.83 493.936 1284.7 493.908 1284.58 493.908C1284.45 493.908 1284.33 493.936 1284.22 493.99H1284.1V494.213C1284.1 494.264 1284.12 494.313 1284.15 494.355C1284.18 494.397 1284.22 494.431 1284.27 494.453L1284.85 494.8C1284.96 494.859 1285.09 494.889 1285.21 494.889C1285.34 494.889 1285.46 494.859 1285.57 494.8C1285.61 494.784 1285.64 494.758 1285.66 494.725C1285.69 494.692 1285.7 494.653 1285.7 494.613V494.399L1285.69 494.373Z" fill="#FFC100"/>
<path opacity="0.2" d="M1285.69 494.373L1285.46 494.31L1284.94 493.99C1284.83 493.936 1284.7 493.908 1284.58 493.908C1284.45 493.908 1284.33 493.936 1284.22 493.99H1284.1V494.213C1284.1 494.264 1284.12 494.313 1284.15 494.355C1284.18 494.397 1284.22 494.431 1284.27 494.453L1284.85 494.8C1284.96 494.859 1285.09 494.889 1285.21 494.889C1285.34 494.889 1285.46 494.859 1285.57 494.8C1285.61 494.784 1285.64 494.758 1285.66 494.725C1285.69 494.692 1285.7 494.653 1285.7 494.613V494.399L1285.69 494.373Z" fill="black"/>
<path d="M1284.22 493.75C1284.03 493.865 1284.05 494.061 1284.26 494.186L1284.84 494.533C1284.96 494.594 1285.08 494.626 1285.2 494.626C1285.33 494.626 1285.45 494.594 1285.57 494.533C1285.75 494.426 1285.73 494.23 1285.52 494.106L1284.94 493.759C1284.83 493.699 1284.7 493.667 1284.58 493.665C1284.45 493.663 1284.33 493.692 1284.22 493.75Z" fill="#FFC100"/>
<path d="M1277.7 499.143L1277.35 499.054L1276.57 498.582C1276.41 498.495 1276.22 498.449 1276.04 498.449C1275.85 498.449 1275.67 498.495 1275.5 498.582L1275.33 498.529V498.858C1275.34 498.936 1275.37 499.01 1275.41 499.073C1275.46 499.136 1275.52 499.184 1275.59 499.214L1276.44 499.73C1276.61 499.827 1276.79 499.882 1276.98 499.889C1277.16 499.897 1277.35 499.858 1277.52 499.775C1277.57 499.75 1277.62 499.711 1277.65 499.66C1277.68 499.61 1277.7 499.551 1277.71 499.49V499.17L1277.7 499.143Z" fill="#FFC100"/>
<path opacity="0.2" d="M1277.7 499.143L1277.35 499.054L1276.57 498.582C1276.41 498.495 1276.22 498.449 1276.04 498.449C1275.85 498.449 1275.67 498.495 1275.5 498.582L1275.33 498.529V498.858C1275.34 498.936 1275.37 499.01 1275.41 499.073C1275.46 499.136 1275.52 499.184 1275.59 499.214L1276.44 499.73C1276.61 499.827 1276.79 499.882 1276.98 499.889C1277.16 499.897 1277.35 499.858 1277.52 499.775C1277.57 499.75 1277.62 499.711 1277.65 499.66C1277.68 499.61 1277.7 499.551 1277.71 499.49V499.17L1277.7 499.143Z" fill="black"/>
<path d="M1275.5 498.226C1275.23 498.396 1275.25 498.68 1275.57 498.876L1276.43 499.392C1276.59 499.484 1276.77 499.536 1276.96 499.544C1277.14 499.551 1277.33 499.515 1277.5 499.437C1277.77 499.268 1277.75 498.983 1277.43 498.787L1276.57 498.271C1276.41 498.179 1276.23 498.127 1276.04 498.12C1275.86 498.112 1275.67 498.148 1275.5 498.226Z" fill="#FFC100"/>
<path d="M1287.74 492.557C1287.41 492.386 1287.05 492.297 1286.68 492.297C1286.31 492.297 1285.95 492.386 1285.63 492.557H1285.18V493.198C1285.19 493.335 1285.24 493.467 1285.31 493.579C1285.39 493.692 1285.5 493.781 1285.62 493.839C1285.95 494.01 1286.31 494.1 1286.68 494.1C1287.05 494.1 1287.41 494.01 1287.74 493.839C1287.87 493.781 1287.97 493.692 1288.05 493.579C1288.12 493.467 1288.17 493.335 1288.18 493.198V492.557H1287.74Z" fill="#FFC100"/>
<path opacity="0.4" d="M1287.74 492.557C1287.41 492.386 1287.05 492.297 1286.68 492.297C1286.31 492.297 1285.95 492.386 1285.63 492.557H1285.18V493.198C1285.19 493.335 1285.24 493.467 1285.31 493.579C1285.39 493.692 1285.5 493.781 1285.62 493.839C1285.95 494.01 1286.31 494.1 1286.68 494.1C1287.05 494.1 1287.41 494.01 1287.74 493.839C1287.87 493.781 1287.97 493.692 1288.05 493.579C1288.12 493.467 1288.17 493.335 1288.18 493.198V492.557H1287.74Z" fill="black"/>
<path d="M1285.62 491.926C1285.49 491.973 1285.38 492.06 1285.3 492.174C1285.23 492.287 1285.19 492.423 1285.19 492.562C1285.19 492.702 1285.23 492.837 1285.3 492.951C1285.38 493.065 1285.49 493.152 1285.62 493.199C1285.95 493.37 1286.31 493.46 1286.68 493.46C1287.05 493.46 1287.41 493.37 1287.74 493.199C1287.87 493.152 1287.98 493.065 1288.06 492.951C1288.13 492.837 1288.18 492.702 1288.18 492.562C1288.18 492.423 1288.13 492.287 1288.06 492.174C1287.98 492.06 1287.87 491.973 1287.74 491.926C1287.42 491.75 1287.05 491.659 1286.68 491.659C1286.31 491.659 1285.95 491.75 1285.62 491.926Z" fill="#FFC100"/>
<path opacity="0.2" d="M1285.62 491.926C1285.49 491.973 1285.38 492.06 1285.3 492.174C1285.23 492.287 1285.19 492.423 1285.19 492.562C1285.19 492.702 1285.23 492.837 1285.3 492.951C1285.38 493.065 1285.49 493.152 1285.62 493.199C1285.95 493.37 1286.31 493.46 1286.68 493.46C1287.05 493.46 1287.41 493.37 1287.74 493.199C1287.87 493.152 1287.98 493.065 1288.06 492.951C1288.13 492.837 1288.18 492.702 1288.18 492.562C1288.18 492.423 1288.13 492.287 1288.06 492.174C1287.98 492.06 1287.87 491.973 1287.74 491.926C1287.42 491.75 1287.05 491.659 1286.68 491.659C1286.31 491.659 1285.95 491.75 1285.62 491.926Z" fill="black"/>
<path d="M1283.39 493.34C1283.3 493.297 1283.2 493.274 1283.1 493.274C1283 493.274 1282.9 493.297 1282.81 493.34H1282.67V493.527C1282.67 493.589 1282.72 493.652 1282.8 493.705C1282.89 493.754 1283 493.779 1283.1 493.779C1283.2 493.779 1283.3 493.754 1283.39 493.705C1283.48 493.652 1283.52 493.589 1283.52 493.527V493.34H1283.39Z" fill="#FFC100"/>
<path opacity="0.2" d="M1283.39 493.34C1283.3 493.297 1283.2 493.274 1283.1 493.274C1283 493.274 1282.9 493.297 1282.81 493.34H1282.67V493.527C1282.67 493.589 1282.72 493.652 1282.8 493.705C1282.89 493.754 1283 493.779 1283.1 493.779C1283.2 493.779 1283.3 493.754 1283.39 493.705C1283.48 493.652 1283.52 493.589 1283.52 493.527V493.34H1283.39Z" fill="black"/>
<path d="M1284.72 492.806V492.628H1284.58C1284.49 492.585 1284.39 492.562 1284.29 492.562C1284.19 492.562 1284.09 492.585 1284 492.628H1283.87V492.806C1283.88 492.846 1283.89 492.885 1283.91 492.918C1283.93 492.951 1283.96 492.977 1283.99 492.993C1284.09 493.042 1284.19 493.067 1284.3 493.067C1284.4 493.067 1284.5 493.042 1284.6 492.993C1284.63 492.975 1284.66 492.949 1284.68 492.916C1284.7 492.883 1284.71 492.846 1284.72 492.806Z" fill="#FFC100"/>
<path opacity="0.2" d="M1284.72 492.806V492.628H1284.58C1284.49 492.585 1284.39 492.562 1284.29 492.562C1284.19 492.562 1284.09 492.585 1284 492.628H1283.87V492.806C1283.88 492.846 1283.89 492.885 1283.91 492.918C1283.93 492.951 1283.96 492.977 1283.99 492.993C1284.09 493.042 1284.19 493.067 1284.3 493.067C1284.4 493.067 1284.5 493.042 1284.6 492.993C1284.63 492.975 1284.66 492.949 1284.68 492.916C1284.7 492.883 1284.71 492.846 1284.72 492.806Z" fill="black"/>
<path d="M1282.77 493.162C1282.73 493.174 1282.7 493.198 1282.68 493.23C1282.65 493.262 1282.64 493.301 1282.64 493.34C1282.64 493.38 1282.65 493.419 1282.68 493.451C1282.7 493.483 1282.73 493.506 1282.77 493.518C1282.86 493.567 1282.96 493.592 1283.06 493.592C1283.17 493.592 1283.27 493.567 1283.36 493.518C1283.53 493.42 1283.53 493.26 1283.36 493.162C1283.27 493.114 1283.17 493.089 1283.06 493.089C1282.96 493.089 1282.86 493.114 1282.77 493.162Z" fill="#FFC100"/>
<path d="M1283.99 492.45C1283.96 492.462 1283.93 492.486 1283.9 492.518C1283.88 492.55 1283.87 492.589 1283.87 492.628C1283.87 492.668 1283.88 492.706 1283.9 492.738C1283.93 492.77 1283.96 492.794 1283.99 492.806C1284.09 492.855 1284.19 492.88 1284.3 492.88C1284.4 492.88 1284.5 492.855 1284.6 492.806C1284.63 492.794 1284.66 492.77 1284.69 492.738C1284.71 492.706 1284.72 492.668 1284.72 492.628C1284.72 492.589 1284.71 492.55 1284.69 492.518C1284.66 492.486 1284.63 492.462 1284.6 492.45C1284.5 492.402 1284.4 492.376 1284.3 492.376C1284.19 492.376 1284.09 492.402 1283.99 492.45Z" fill="#FFC100"/>
<path d="M1288.66 499.926C1288.78 499.714 1288.84 499.475 1288.84 499.232C1288.85 499.142 1288.84 499.051 1288.81 498.966C1288.78 498.881 1288.73 498.805 1288.66 498.743L1289.14 497.853C1289.26 497.962 1289.36 498.1 1289.42 498.255C1289.48 498.409 1289.5 498.577 1289.49 498.743C1289.47 499.244 1289.34 499.734 1289.09 500.167L1288.66 499.926Z" fill="#263238"/>
<path d="M1287.4 501.582C1287.3 501.584 1287.2 501.563 1287.11 501.519L1287.6 500.629C1287.65 500.64 1287.7 500.64 1287.75 500.629C1287.88 500.625 1288 500.588 1288.1 500.523C1288.3 500.398 1288.47 500.224 1288.59 500.015L1289.02 500.273C1288.78 500.704 1288.44 501.068 1288.03 501.333C1287.84 501.473 1287.63 501.559 1287.4 501.582Z" fill="#263238"/>
<path d="M1286.98 501.448C1286.86 501.336 1286.77 501.198 1286.71 501.044C1286.66 500.889 1286.63 500.723 1286.65 500.558C1286.66 500.057 1286.8 499.567 1287.04 499.134L1287.47 499.392C1287.36 499.605 1287.29 499.843 1287.29 500.087C1287.28 500.178 1287.29 500.271 1287.33 500.357C1287.36 500.443 1287.41 500.521 1287.47 500.585L1286.98 501.448Z" fill="#263238"/>
<path d="M1288.71 499.277C1288.7 499.506 1288.63 499.73 1288.52 499.926C1288.41 500.129 1288.25 500.3 1288.06 500.425C1288 500.471 1287.92 500.5 1287.84 500.508C1287.77 500.516 1287.69 500.502 1287.62 500.469C1287.55 500.422 1287.5 500.357 1287.47 500.282C1287.43 500.207 1287.42 500.124 1287.43 500.042C1287.43 499.809 1287.5 499.582 1287.62 499.383C1287.72 499.184 1287.88 499.016 1288.06 498.894C1288.12 498.84 1288.2 498.807 1288.28 498.799C1288.36 498.791 1288.44 498.81 1288.51 498.852C1288.58 498.893 1288.64 498.957 1288.67 499.033C1288.71 499.109 1288.72 499.194 1288.71 499.277Z" fill="#263238"/>
<path d="M1287.11 499.001C1287.35 498.563 1287.69 498.196 1288.1 497.933C1288.29 497.811 1288.51 497.743 1288.73 497.737C1288.83 497.736 1288.92 497.754 1289.01 497.79L1288.53 498.68C1288.48 498.672 1288.43 498.672 1288.38 498.68C1288.26 498.684 1288.13 498.72 1288.03 498.787C1287.83 498.92 1287.66 499.096 1287.54 499.303L1287.11 499.001Z" fill="#263238"/>
<path d="M1286.7 502.89L1287.04 502.685C1287.11 502.685 1287.17 502.685 1287.17 502.765V503.175C1287.17 503.22 1287.15 503.263 1287.13 503.302C1287.11 503.341 1287.08 503.373 1287.04 503.397L1286.7 503.611C1286.68 503.619 1286.67 503.623 1286.65 503.623C1286.64 503.623 1286.62 503.618 1286.61 503.61C1286.6 503.602 1286.59 503.59 1286.58 503.576C1286.57 503.562 1286.57 503.547 1286.57 503.531V503.121C1286.57 503.075 1286.58 503.03 1286.61 502.99C1286.63 502.95 1286.66 502.916 1286.7 502.89Z" fill="#263238"/>
<path d="M1289.09 501.422L1289.43 501.217C1289.5 501.217 1289.55 501.217 1289.55 501.297V501.706C1289.55 501.752 1289.54 501.796 1289.52 501.836C1289.5 501.876 1289.47 501.911 1289.43 501.938L1289.09 502.142C1289.01 502.187 1288.96 502.142 1288.96 502.062V501.653C1288.96 501.606 1288.98 501.561 1289 501.521C1289.02 501.48 1289.05 501.446 1289.09 501.422Z" fill="#263238"/>
<path d="M1286.7 497.132L1287.04 496.927C1287.11 496.927 1287.17 496.927 1287.17 497.007V497.417C1287.17 497.463 1287.15 497.507 1287.13 497.547C1287.11 497.587 1287.08 497.622 1287.04 497.648L1286.7 497.853C1286.63 497.853 1286.57 497.853 1286.57 497.773V497.363C1286.57 497.317 1286.59 497.272 1286.61 497.232C1286.63 497.192 1286.66 497.158 1286.7 497.132Z" fill="#263238"/>
<path d="M1289.09 495.708L1289.43 495.494C1289.5 495.494 1289.55 495.494 1289.55 495.574V495.984C1289.55 496.029 1289.54 496.074 1289.52 496.114C1289.5 496.154 1289.47 496.189 1289.43 496.215L1289.09 496.42C1289.01 496.464 1288.96 496.42 1288.96 496.34V495.93C1288.96 495.885 1288.98 495.84 1289 495.801C1289.02 495.762 1289.05 495.73 1289.09 495.708Z" fill="#263238"/>
<path d="M1285.49 498.44V503.967C1285.48 504.104 1285.44 504.237 1285.38 504.355C1285.31 504.474 1285.22 504.576 1285.11 504.652L1278.7 508.488C1278.5 508.613 1278.32 508.488 1278.32 508.257V502.73C1278.33 502.593 1278.37 502.46 1278.44 502.341C1278.5 502.223 1278.59 502.121 1278.7 502.045L1285.11 498.209C1285.34 498.093 1285.49 498.2 1285.49 498.44Z" fill="#FFC100"/>
<path d="M1278.92 503.433C1278.9 503.431 1278.88 503.423 1278.87 503.41C1278.86 503.397 1278.85 503.38 1278.85 503.362V502.641C1278.84 502.631 1278.84 502.621 1278.84 502.61C1278.84 502.599 1278.84 502.588 1278.85 502.578L1279.45 502.222C1279.45 502.215 1279.46 502.209 1279.47 502.205C1279.48 502.201 1279.49 502.199 1279.49 502.199C1279.5 502.199 1279.51 502.201 1279.52 502.205C1279.53 502.209 1279.54 502.215 1279.54 502.222C1279.55 502.228 1279.55 502.236 1279.56 502.244C1279.56 502.253 1279.56 502.262 1279.56 502.271C1279.56 502.281 1279.56 502.29 1279.56 502.299C1279.55 502.307 1279.55 502.315 1279.54 502.32L1278.98 502.659V503.335C1278.99 503.346 1278.99 503.358 1278.98 503.369C1278.98 503.38 1278.98 503.391 1278.97 503.4C1278.96 503.409 1278.96 503.417 1278.95 503.423C1278.94 503.428 1278.93 503.432 1278.92 503.433Z" fill="#FAFAFA"/>
<path d="M1278.92 507.723C1278.91 507.713 1278.91 507.702 1278.91 507.692C1278.91 507.681 1278.91 507.67 1278.92 507.66V506.939C1278.92 506.921 1278.93 506.904 1278.94 506.891C1278.95 506.878 1278.97 506.87 1278.98 506.868C1279 506.868 1279.02 506.875 1279.04 506.889C1279.05 506.902 1279.06 506.92 1279.06 506.939V507.527L1279.55 507.233C1279.56 507.221 1279.58 507.214 1279.6 507.214C1279.62 507.214 1279.63 507.221 1279.64 507.233C1279.65 507.24 1279.66 507.248 1279.66 507.257C1279.67 507.266 1279.67 507.276 1279.67 507.287C1279.67 507.297 1279.67 507.307 1279.66 507.316C1279.66 507.325 1279.65 507.333 1279.64 507.34L1279.05 507.696L1278.92 507.723Z" fill="#FAFAFA"/>
<path d="M1284.89 499.855C1284.87 499.853 1284.85 499.845 1284.84 499.832C1284.83 499.819 1284.82 499.802 1284.82 499.784V499.197L1284.33 499.49C1284.31 499.502 1284.3 499.508 1284.28 499.508C1284.26 499.508 1284.24 499.502 1284.23 499.49C1284.21 499.476 1284.21 499.456 1284.21 499.437C1284.21 499.417 1284.21 499.398 1284.23 499.383L1284.82 499.027C1284.83 499.018 1284.84 499.013 1284.86 499.013C1284.87 499.013 1284.89 499.018 1284.9 499.027C1284.9 499.037 1284.9 499.048 1284.9 499.059C1284.9 499.069 1284.9 499.08 1284.9 499.09V499.811C1284.9 499.826 1284.89 499.841 1284.89 499.855Z" fill="#FAFAFA"/>
<path d="M1284.3 504.51C1284.28 504.515 1284.27 504.517 1284.26 504.517C1284.25 504.517 1284.24 504.515 1284.23 504.51C1284.21 504.497 1284.21 504.479 1284.21 504.461C1284.21 504.443 1284.21 504.425 1284.23 504.412L1284.78 504.074V503.406C1284.78 503.386 1284.79 503.367 1284.8 503.353C1284.82 503.338 1284.83 503.328 1284.85 503.326C1284.87 503.326 1284.89 503.335 1284.91 503.35C1284.92 503.365 1284.93 503.385 1284.93 503.406V504.118C1284.93 504.128 1284.94 504.139 1284.94 504.149C1284.94 504.16 1284.93 504.171 1284.93 504.181L1284.33 504.545L1284.3 504.51Z" fill="#FAFAFA"/>
<path d="M1288.77 499.998C1288.89 499.785 1288.95 499.546 1288.95 499.303C1288.96 499.212 1288.95 499.12 1288.91 499.034C1288.88 498.949 1288.84 498.87 1288.77 498.805L1289.25 497.915C1289.38 498.025 1289.47 498.163 1289.53 498.317C1289.59 498.472 1289.61 498.639 1289.6 498.805C1289.58 499.306 1289.45 499.796 1289.2 500.229L1288.77 499.998Z" fill="#FFC100"/>
<path d="M1287.51 501.653C1287.41 501.651 1287.31 501.63 1287.22 501.591L1287.71 500.701C1287.76 500.711 1287.81 500.711 1287.86 500.701C1287.99 500.696 1288.11 500.66 1288.22 500.594C1288.41 500.464 1288.58 500.291 1288.7 500.087L1289.13 500.345C1288.89 500.776 1288.55 501.139 1288.14 501.404C1287.96 501.544 1287.74 501.63 1287.51 501.653Z" fill="#FFC100"/>
<path d="M1287.06 501.511C1286.94 501.399 1286.85 501.26 1286.79 501.106C1286.73 500.952 1286.71 500.786 1286.72 500.621C1286.74 500.119 1286.87 499.629 1287.12 499.197L1287.55 499.455C1287.43 499.667 1287.37 499.906 1287.37 500.149C1287.36 500.24 1287.37 500.332 1287.4 500.418C1287.44 500.504 1287.48 500.582 1287.55 500.647L1287.06 501.511Z" fill="#FFC100"/>
<path d="M1288.82 499.33C1288.81 499.562 1288.74 499.788 1288.63 499.989C1288.52 500.188 1288.36 500.357 1288.17 500.478C1288.11 500.535 1288.04 500.57 1287.96 500.578C1287.87 500.587 1287.79 500.568 1287.72 500.526C1287.65 500.484 1287.6 500.419 1287.56 500.342C1287.53 500.264 1287.52 500.178 1287.54 500.095C1287.55 499.867 1287.62 499.646 1287.73 499.448C1287.84 499.25 1287.99 499.082 1288.17 498.956C1288.24 498.906 1288.31 498.875 1288.39 498.866C1288.47 498.857 1288.55 498.869 1288.63 498.903C1288.69 498.951 1288.74 499.016 1288.78 499.091C1288.81 499.166 1288.82 499.248 1288.82 499.33Z" fill="#FFC100"/>
<path d="M1287.22 499.063C1287.46 498.63 1287.81 498.266 1288.22 498.004C1288.4 497.879 1288.62 497.809 1288.84 497.799C1288.94 497.796 1289.04 497.818 1289.13 497.861L1288.65 498.752C1288.59 498.743 1288.54 498.743 1288.49 498.752C1288.37 498.755 1288.25 498.791 1288.14 498.858C1287.94 498.985 1287.77 499.159 1287.65 499.366L1287.22 499.063Z" fill="#FFC100"/>
<path d="M1286.81 502.89L1287.15 502.685C1287.22 502.641 1287.28 502.685 1287.28 502.756V503.166C1287.28 503.212 1287.26 503.257 1287.24 503.297C1287.22 503.337 1287.19 503.372 1287.15 503.397L1286.81 503.602C1286.74 503.602 1286.68 503.602 1286.68 503.531V503.121C1286.68 503.075 1286.7 503.03 1286.72 502.99C1286.74 502.95 1286.77 502.916 1286.81 502.89Z" fill="#FFC100"/>
<path d="M1289.2 501.493L1289.54 501.288C1289.61 501.288 1289.67 501.288 1289.67 501.368V501.778C1289.67 501.823 1289.65 501.868 1289.63 501.907C1289.61 501.946 1289.58 501.978 1289.54 502L1289.2 502.205C1289.13 502.249 1289.07 502.205 1289.07 502.134V501.724C1289.08 501.677 1289.09 501.632 1289.11 501.591C1289.13 501.551 1289.16 501.517 1289.2 501.493Z" fill="#FFC100"/>
<path d="M1286.81 497.203L1287.15 496.998C1287.22 496.998 1287.28 496.998 1287.28 497.069V497.488C1287.28 497.533 1287.26 497.576 1287.24 497.615C1287.22 497.654 1287.19 497.686 1287.15 497.71L1286.81 497.915C1286.74 497.959 1286.68 497.915 1286.68 497.844V497.434C1286.68 497.388 1286.7 497.343 1286.72 497.303C1286.74 497.263 1286.77 497.229 1286.81 497.203Z" fill="#FFC100"/>
<path d="M1289.2 495.77L1289.54 495.565C1289.61 495.521 1289.67 495.565 1289.67 495.645V496.055C1289.66 496.101 1289.65 496.147 1289.63 496.187C1289.61 496.228 1289.58 496.262 1289.54 496.286L1289.2 496.491C1289.13 496.491 1289.07 496.491 1289.07 496.411V496.001C1289.08 495.955 1289.09 495.909 1289.11 495.869C1289.13 495.828 1289.16 495.794 1289.2 495.77Z" fill="#FFC100"/>
<path d="M1325.93 513.054C1329.81 513.17 1332.28 513.89 1333.83 515.724C1335.37 517.557 1337.3 522.693 1333.41 529.554L1325.93 513.054Z" fill="#455A64"/>
<path d="M1312.25 508.301L1312.31 518.581L1322.33 518.474L1322.49 506.539L1312.25 508.301Z" fill="#FFA8A7"/>
<path d="M1332.73 518.02C1331.93 515.297 1328.55 513.054 1325.01 512.947C1324.23 512.947 1322.43 512.947 1322.43 512.947C1322.03 514.629 1316.51 515.448 1312.27 514.416C1311 514.763 1305.65 515.368 1304.55 515.733C1301.5 516.783 1299.88 520.548 1299.4 530.863C1299.4 530.863 1298.55 552.107 1298.86 566.027C1304.22 568.955 1313.72 568.697 1319.62 568.109C1328.89 567.139 1332.26 563.214 1332.26 563.214C1331.87 557.554 1331.94 550.754 1332.09 545.147C1332.21 540.955 1332.87 536.701 1333.23 531.949C1333.8 524.873 1333.28 519.907 1332.73 518.02Z" fill="#FFC100"/>
<path opacity="0.3" d="M1332.73 518.02C1331.93 515.297 1328.55 513.054 1325.01 512.947C1324.23 512.947 1322.43 512.947 1322.43 512.947C1322.03 514.629 1316.51 515.448 1312.27 514.416C1311 514.763 1305.65 515.368 1304.55 515.733C1301.5 516.783 1299.88 520.548 1299.4 530.863C1299.4 530.863 1298.55 552.107 1298.86 566.027C1304.22 568.955 1313.72 568.697 1319.62 568.109C1328.89 567.139 1332.26 563.214 1332.26 563.214C1331.87 557.554 1331.94 550.754 1332.09 545.147C1332.21 540.955 1332.87 536.701 1333.23 531.949C1333.8 524.873 1333.28 519.907 1332.73 518.02Z" fill="black"/>
<path d="M1304.76 495.103C1304.76 495.103 1302.1 499.268 1302.35 499.642C1302.6 500.015 1304.68 500.282 1304.68 500.282L1304.76 495.103Z" fill="#F28F8F"/>
<path d="M1311.94 481.833C1307.17 482.66 1305.41 485.624 1304.7 494.23C1304.55 496.999 1304.55 499.774 1304.7 502.543C1305 506.29 1305.68 507.233 1306.41 508.07C1307.15 508.906 1311.56 509.165 1313.49 508.693C1315.96 508.097 1321.57 506.308 1324.32 502.32C1327.56 497.639 1327.95 491.774 1325.46 488.321C1319.66 480.231 1313.9 481.53 1311.94 481.833Z" fill="#FFA8A7"/>
<path d="M1306.4 508.07C1306.94 508.702 1310.21 509.04 1312.25 508.871V507.66C1310.34 508.188 1308.36 508.327 1306.4 508.07Z" fill="#F28F8F"/>
<path d="M1308.59 489.46C1308.45 490.455 1308.64 491.468 1309.13 492.334C1309.63 493.2 1310.38 493.868 1311.29 494.23C1311.02 494.924 1310.88 495.664 1310.88 496.411C1310.83 496.78 1310.89 497.156 1311.06 497.488C1311.11 497.607 1311.19 497.708 1311.3 497.779C1311.41 497.85 1311.53 497.888 1311.66 497.888C1311.78 497.888 1311.91 497.85 1312.01 497.779C1312.12 497.708 1312.2 497.607 1312.26 497.488C1312.55 496.869 1312.91 496.289 1313.33 495.761C1313.86 495.16 1314.59 494.783 1315.37 494.702C1318.35 494.488 1318.56 498.538 1317.3 500.158C1315.25 502.828 1313.67 500.888 1313.67 500.888C1313.67 500.888 1313.17 504.225 1316.56 507.536C1317.33 508.125 1318.26 508.471 1319.22 508.533C1320.29 508.75 1321.41 508.664 1322.44 508.283C1324.11 505.489 1327.64 500.799 1328.9 498.324C1330.16 495.85 1331.55 493.189 1330.93 490.421C1330.81 489.816 1330.57 489.243 1330.22 488.738C1329.88 488.232 1329.44 487.806 1328.93 487.484C1329.3 486.713 1329.51 485.865 1329.53 485.001C1329.53 484.63 1329.44 484.265 1329.28 483.936C1329.11 483.608 1328.87 483.326 1328.58 483.115C1328.29 482.904 1327.95 482.77 1327.59 482.725C1327.24 482.68 1326.88 482.725 1326.54 482.856C1326.75 482.292 1326.77 481.671 1326.59 481.096C1326.41 480.521 1326.05 480.025 1325.57 479.689C1325.08 479.354 1324.5 479.198 1323.92 479.248C1323.34 479.298 1322.8 479.55 1322.37 479.964C1322.39 479.344 1322.21 478.737 1321.84 478.245C1321.48 477.754 1320.96 477.409 1320.38 477.271C1319.8 477.132 1319.18 477.207 1318.65 477.484C1318.12 477.761 1317.69 478.222 1317.45 478.789C1317.11 478.234 1316.64 477.786 1316.07 477.493C1315.51 477.2 1314.88 477.075 1314.25 477.13C1313.62 477.185 1313.02 477.419 1312.51 477.806C1312 478.193 1311.61 478.718 1311.37 479.323C1310.35 478.645 1309.13 478.373 1307.93 478.557C1307.34 478.653 1306.79 478.901 1306.32 479.279C1305.85 479.657 1305.48 480.153 1305.24 480.72C1305.02 481.294 1304.99 481.926 1305.14 482.523C1305.29 483.119 1305.63 483.648 1306.1 484.031C1305.01 484.093 1304.16 485.597 1304.16 486.701C1304.22 487.591 1304.76 490.51 1308.59 489.46Z" fill="#263238"/>
<path d="M1275.67 505.302C1275.67 504.661 1275.72 504.029 1275.75 503.397C1275.78 502.789 1275.9 502.188 1276.1 501.617C1276.35 500.923 1276.82 500.345 1277.03 499.633C1277.13 499.346 1277.13 499.03 1277.03 498.743C1276.99 498.644 1276.94 498.555 1276.86 498.485C1276.79 498.415 1276.7 498.365 1276.6 498.341C1276.5 498.317 1276.4 498.32 1276.3 498.348C1276.2 498.376 1276.11 498.429 1276.04 498.502C1275.33 499.185 1274.66 499.903 1274.03 500.656C1273.51 501.487 1273.21 502.445 1273.17 503.433C1273.08 504.167 1272.81 504.865 1272.39 505.462C1271.99 505.841 1271.62 506.245 1271.28 506.672C1271.13 506.98 1270.96 507.278 1270.77 507.562C1270.56 507.779 1270.33 507.973 1270.09 508.141C1269.47 508.621 1269.03 509.296 1268.83 510.063C1268.69 511.043 1268.76 512.043 1269.03 512.991C1269.21 514.071 1269.45 515.138 1269.75 516.187C1270 517.077 1270.28 517.967 1270.57 518.803C1271.09 520.352 1276.99 537.128 1279.01 539.843C1280.46 541.774 1282.52 542.584 1285.78 540.982C1291.65 538.107 1301.94 531.584 1301.94 531.584C1308.68 527.587 1308.3 518.687 1305.95 515.368C1301.28 516.133 1299.46 516.133 1296.07 519.346C1289.46 525.576 1284.06 530.311 1284.06 530.311C1282.85 528.015 1281.75 526.172 1280.47 523.574C1279.45 521.5 1277.71 519.213 1277.99 516.765C1278.26 515.497 1278.65 514.257 1279.14 513.063C1279.62 511.478 1280.07 509.894 1280.57 508.31C1280.71 508.005 1280.73 507.658 1280.62 507.34C1280.48 507.138 1280.27 507.001 1280.03 506.956C1279.8 506.911 1279.55 506.963 1279.35 507.1C1278.9 507.407 1278.52 507.829 1278.26 508.328L1277.29 509.876C1277.13 510.117 1276.93 510.393 1276.64 510.357C1275.87 510.259 1275.92 508.915 1275.85 508.346C1275.73 507.336 1275.67 506.319 1275.67 505.302Z" fill="#FFA8A7"/>
<path d="M1283.96 530.329C1282.16 531.842 1280.74 535.161 1280.74 535.161C1281.02 532.928 1281.91 530.826 1283.32 529.109L1283.96 530.329Z" fill="#F28F8F"/>
<path d="M1307.33 515.234C1304.41 515.475 1300.35 515.67 1297.76 517.566C1295.17 519.462 1286.33 527.757 1286.33 527.757C1285.78 528.738 1285.42 529.822 1285.27 530.948C1285.12 532.073 1285.19 533.218 1285.47 534.316C1286.41 538.517 1289.14 540.315 1290.25 539.754L1303.36 531.37C1303.36 531.37 1310.52 526.03 1307.33 515.234Z" fill="#455A64"/>
<path d="M1217.3 591.341C1219.23 592.48 1221.15 592.444 1223.49 591.492L1224.97 578.356L1216.81 576.469L1217.3 591.341Z" fill="#B16668"/>
<path d="M1240.95 584.043C1242.52 587.79 1244.77 586.553 1248.19 584.256L1248.34 571.298L1239.45 570.719L1240.95 584.043Z" fill="#B16668"/>
<path d="M1232.19 602.368C1232.43 603.089 1232.45 603.869 1232.24 604.602C1232 605.029 1230.71 606.382 1228.08 606.738C1225.44 607.094 1223.29 606.836 1221.76 605.937C1221.1 605.628 1220.52 605.155 1220.08 604.56C1219.64 603.966 1219.35 603.268 1219.23 602.528C1219.02 601.042 1219.1 599.591 1218.38 598.479C1217.65 597.366 1216.8 596.467 1216.54 595.906C1216.2 594.882 1216.09 593.796 1216.2 592.72L1232.19 602.368Z" fill="#263238"/>
<path d="M1224.77 590.468C1224.83 591.032 1224.97 591.585 1225.16 592.115C1225.61 593.248 1226.18 594.321 1226.88 595.31C1227.22 595.832 1227.6 596.329 1228.01 596.796C1228.87 597.686 1229.81 598.416 1230.66 599.271C1231.57 600.077 1232.17 601.184 1232.38 602.403C1232.59 604.45 1230.48 605.269 1228.84 605.661C1227.07 606.079 1225.23 606.079 1223.45 605.661C1222.52 605.463 1221.66 604.989 1220.98 604.298C1220.3 603.606 1219.83 602.726 1219.62 601.763C1219.5 601.202 1219.5 600.614 1219.4 600.045C1219.12 598.746 1218.53 597.541 1217.69 596.538C1217.2 595.957 1216.77 595.321 1216.41 594.643C1215.83 593.405 1216.16 591.973 1216.41 590.664C1216.64 589.552 1216.8 588.217 1217.18 588.297V589.018C1217.31 589.249 1217.6 589.392 1217.7 589.667C1217.79 589.952 1217.9 590.229 1218.04 590.495C1218.25 590.904 1218.58 591.236 1218.98 591.447L1218.92 589.116C1218.9 588.878 1218.95 588.638 1219.06 588.43C1219.23 588.254 1219.44 588.141 1219.68 588.11C1221.05 587.689 1222.47 587.485 1223.9 587.505C1224.01 587.5 1224.11 587.518 1224.22 587.558C1224.32 587.598 1224.41 587.658 1224.48 587.736C1224.57 587.892 1224.62 588.072 1224.6 588.252C1224.62 588.994 1224.67 589.734 1224.77 590.468Z" fill="#37474F"/>
<path d="M1227.17 595.729C1226.4 595.195 1224.75 595.275 1223.85 595.426C1222.94 595.562 1222.07 595.932 1221.33 596.503C1221.22 596.597 1221.09 596.649 1220.95 596.649C1220.81 596.649 1220.68 596.597 1220.57 596.503C1220.51 596.45 1220.46 596.382 1220.42 596.305C1220.38 596.228 1220.37 596.143 1220.37 596.058C1220.37 595.972 1220.38 595.888 1220.42 595.811C1220.46 595.734 1220.51 595.666 1220.57 595.613C1221.38 594.918 1222.36 594.477 1223.4 594.34C1225.62 594.055 1226.29 594.411 1226.29 594.411C1226.29 594.411 1227.35 595.061 1227.17 595.729Z" fill="#F5F5F5"/>
<path d="M1228.97 597.731C1228.01 597.215 1226.2 597.393 1225.3 597.544C1224.4 597.688 1223.56 598.075 1222.85 598.665C1222.75 598.76 1222.62 598.812 1222.48 598.812C1222.34 598.812 1222.2 598.76 1222.1 598.665C1222.03 598.612 1221.98 598.544 1221.95 598.467C1221.91 598.39 1221.89 598.306 1221.89 598.22C1221.89 598.135 1221.91 598.051 1221.95 597.974C1221.98 597.897 1222.03 597.829 1222.1 597.775C1222.92 597.049 1223.92 596.577 1224.99 596.414C1227.2 596.12 1227.8 596.565 1227.8 596.565C1228.07 596.654 1228.32 596.805 1228.52 597.007C1228.72 597.209 1228.88 597.457 1228.97 597.731Z" fill="#F5F5F5"/>
<path d="M1222.42 592.177C1223.34 591.956 1224.31 591.986 1225.22 592.266C1225.63 592.471 1225.92 593.103 1225.67 593.281C1224.87 592.995 1224.01 592.921 1223.18 593.067C1222.35 593.194 1221.54 593.471 1220.8 593.886C1220.62 593.984 1220.4 594.118 1220.21 594.242C1220.15 594.282 1220.08 594.308 1220.01 594.32C1219.94 594.332 1219.87 594.328 1219.8 594.31C1219.73 594.292 1219.66 594.259 1219.61 594.214C1219.55 594.168 1219.5 594.111 1219.46 594.046C1219.41 593.934 1219.39 593.803 1219.42 593.68C1219.45 593.556 1219.52 593.448 1219.63 593.379C1220.46 592.774 1221.41 592.364 1222.42 592.177Z" fill="#F5F5F5"/>
<path d="M1262.68 591.554C1262.91 592.144 1262.91 592.799 1262.68 593.388C1262.46 593.931 1259.85 595.657 1256.2 595.595C1253.5 595.546 1250.86 594.747 1248.55 593.281C1247.11 592.501 1245.48 592.159 1243.86 592.293C1242.06 592.293 1239.64 591.474 1239.21 590.629C1238.96 589.857 1238.94 589.028 1239.15 588.244L1262.68 591.554Z" fill="#263238"/>
<path d="M1247.47 581.248L1248.4 580.839C1248.56 580.738 1248.75 580.704 1248.93 580.741C1249.17 580.821 1249.27 581.097 1249.35 581.346C1249.46 581.897 1249.61 582.437 1249.82 582.957C1250.11 583.378 1250.48 583.737 1250.9 584.016C1251.84 584.718 1252.85 585.315 1253.9 585.796C1255.12 586.392 1256.32 586.846 1257.57 587.354C1258.82 587.861 1260.53 588.128 1261.54 588.76C1261.91 588.992 1262.21 589.313 1262.43 589.695C1262.64 590.077 1262.77 590.508 1262.79 590.951C1262.81 591.394 1262.72 591.835 1262.54 592.236C1262.36 592.638 1262.09 592.987 1261.75 593.254C1260.39 594.144 1256.75 595.31 1252.82 594.385C1250.69 593.877 1248.23 591.67 1245.45 591.59C1243.69 591.546 1240.31 591.207 1239.14 589.89C1238.68 589.294 1239.14 587.318 1239.52 585.609C1239.75 584.528 1239.92 583.435 1240.02 582.334C1240.12 581.444 1240.22 580.919 1240.6 580.928C1240.77 581.889 1241.17 581.934 1241.51 582.423C1241.77 582.882 1242 583.357 1242.21 583.847C1242.41 584.344 1242.75 584.766 1243.19 585.057C1243.41 585.196 1243.67 585.255 1243.93 585.226C1244.18 585.197 1244.42 585.082 1244.61 584.897C1245.1 584.31 1244.74 583.358 1245.08 582.672C1245.38 582.246 1245.8 581.933 1246.29 581.782L1247.47 581.248Z" fill="#37474F"/>
<path d="M1252.21 584.897C1252.07 584.653 1251.88 584.45 1251.64 584.306C1251.41 584.161 1251.14 584.08 1250.87 584.069C1249.73 584.133 1248.66 584.62 1247.84 585.44C1247.76 585.515 1247.7 585.61 1247.66 585.715C1247.63 585.82 1247.61 585.932 1247.63 586.043C1247.65 586.154 1247.69 586.259 1247.75 586.349C1247.81 586.439 1247.9 586.512 1247.99 586.561C1248.11 586.622 1248.25 586.642 1248.38 586.62C1248.51 586.597 1248.64 586.533 1248.73 586.437C1249.65 585.472 1250.9 584.92 1252.21 584.897Z" fill="#F5F5F5"/>
<path d="M1254.76 586.206C1254.58 585.96 1254.34 585.765 1254.06 585.636C1253.79 585.508 1253.49 585.45 1253.18 585.467C1251.96 585.591 1250.8 586.114 1249.87 586.962C1249.8 587.034 1249.74 587.125 1249.7 587.226C1249.67 587.327 1249.65 587.435 1249.67 587.542C1249.68 587.649 1249.72 587.75 1249.78 587.838C1249.84 587.926 1249.92 587.998 1250.01 588.048C1250.13 588.105 1250.26 588.124 1250.39 588.102C1250.52 588.08 1250.64 588.017 1250.73 587.923C1251.24 587.342 1251.86 586.887 1252.56 586.589C1253.26 586.292 1254.01 586.161 1254.76 586.206Z" fill="#F5F5F5"/>
<path d="M1257.53 587.362C1257.32 587.137 1257.07 586.961 1256.79 586.847C1256.51 586.733 1256.21 586.685 1255.9 586.704C1254.72 586.84 1253.61 587.364 1252.73 588.199C1252.65 588.271 1252.59 588.362 1252.56 588.463C1252.52 588.564 1252.51 588.672 1252.52 588.779C1252.54 588.886 1252.58 588.987 1252.64 589.075C1252.7 589.163 1252.77 589.235 1252.87 589.285C1252.98 589.345 1253.12 589.365 1253.25 589.343C1253.38 589.32 1253.49 589.257 1253.59 589.16C1254.06 588.562 1254.67 588.088 1255.36 587.775C1256.04 587.463 1256.79 587.322 1257.53 587.362Z" fill="#F5F5F5"/>
<path d="M1219.4 490.041C1218.62 504.432 1217.43 540.442 1217.43 540.442C1217.24 542.222 1216.64 547.562 1216.37 553.97C1215.96 563.324 1216.8 583.963 1216.8 583.963C1217.99 584.601 1219.28 584.981 1220.61 585.081C1221.94 585.18 1223.27 584.996 1224.53 584.541C1224.53 584.541 1229.47 554.085 1231.05 544.892C1232.45 536.81 1235.13 517.302 1235.13 517.302L1236.59 541.225C1236.36 545.526 1236.48 549.84 1236.94 554.121C1237.48 558.384 1239.95 576.887 1239.95 576.887C1242.71 577.629 1245.62 577.582 1248.35 576.754C1248.35 576.754 1249.38 545.693 1249.55 541.759C1249.73 537.309 1250.32 486.962 1250.32 486.962L1219.4 490.041Z" fill="#455A64"/>
<path d="M1235.11 517.337L1237.43 505.58C1237.43 505.58 1243.14 505.207 1246.35 502.02C1246.35 502.02 1245.73 505.233 1238.52 506.995L1236.2 518.886L1236.03 529.931L1235.11 517.337Z" fill="#263238"/>
<path d="M1275.44 433.179C1276.8 432.066 1278.68 430.224 1280.35 430.251C1282.02 430.277 1282.38 430.696 1282.38 430.696L1281.63 433.677L1275.44 433.179Z" fill="#9A4A4D"/>
<path d="M1277.77 432.859C1277.77 432.859 1274.34 436.089 1273.8 438.421C1273.43 440.041 1266.94 455.892 1266.94 455.892C1255.94 451.646 1252.56 448.353 1246.11 447.882C1242.36 455.073 1248.6 461.232 1248.6 461.232C1248.6 461.232 1262.42 465.059 1267.08 466.287C1271.5 467.444 1272.9 467.488 1274.36 463.911C1275.56 460.739 1276.49 457.463 1277.14 454.121C1278.47 448.158 1278.65 445.737 1279.67 443.806C1282.32 442.916 1282.43 441.251 1283.86 440.521L1277.77 432.859Z" fill="#B16668"/>
<path d="M1245.52 447.579C1248.31 447.766 1249.81 448.069 1254.04 449.902C1258.27 451.735 1266.76 455.518 1266.76 455.518L1270.27 447.579C1270.27 447.579 1271 449.261 1273.84 450.445C1276.69 451.629 1277.75 450.934 1277.75 450.934C1277.75 450.934 1276.57 456.96 1275.41 461.428C1274.14 466.323 1273.3 468.076 1269.65 467.399C1265.99 466.723 1247.82 461.428 1247.82 461.428C1247.82 461.428 1243.63 454.512 1245.52 447.579Z" fill="#FFC100"/>
<path opacity="0.1" d="M1245.52 447.579C1248.31 447.766 1249.81 448.069 1254.04 449.902C1258.27 451.735 1266.76 455.518 1266.76 455.518L1270.27 447.579C1270.27 447.579 1271 449.261 1273.84 450.445C1276.69 451.629 1277.75 450.934 1277.75 450.934C1277.75 450.934 1276.57 456.96 1275.41 461.428C1274.14 466.323 1273.3 468.076 1269.65 467.399C1265.99 466.723 1247.82 461.428 1247.82 461.428C1247.82 461.428 1243.63 454.512 1245.52 447.579Z" fill="black"/>
<path opacity="0.1" d="M1266.78 455.518C1265.99 457.4 1265.46 459.39 1265.2 461.427C1265.2 461.427 1264.63 457.761 1265.74 455.046L1266.78 455.518Z" fill="black"/>
<path d="M1269.99 448.264C1269.99 448.264 1271.36 452.447 1277.55 452.047L1278.34 448.14C1278.34 448.14 1273.88 448.353 1271.48 444.687L1269.99 448.264Z" fill="#FFC100"/>
<path opacity="0.7" d="M1269.99 448.264C1269.99 448.264 1271.36 452.447 1277.55 452.047L1278.34 448.14C1278.34 448.14 1273.88 448.353 1271.48 444.687L1269.99 448.264Z" fill="white"/>
<path d="M1280.3 397.543L1299.58 386L1293.67 396.6L1299.58 400.133L1280.3 411.685V397.543Z" fill="#FFC100"/>
<path d="M1280.19 450.445C1280.05 450.444 1279.91 450.413 1279.77 450.355C1279.64 450.296 1279.52 450.212 1279.42 450.105C1279.32 449.998 1279.24 449.872 1279.18 449.733C1279.13 449.595 1279.1 449.446 1279.1 449.297L1279.3 394.117C1279.3 393.378 1281.5 393.396 1281.5 394.117L1281.29 449.297C1281.29 449.447 1281.27 449.596 1281.21 449.736C1281.16 449.875 1281.08 450.001 1280.97 450.108C1280.87 450.215 1280.75 450.3 1280.62 450.357C1280.48 450.415 1280.34 450.445 1280.19 450.445Z" fill="black"/>
<path d="M1281.25 433.971C1281.37 433.658 1281.41 433.318 1281.38 432.983L1281.44 430.313C1281.84 430.368 1282.22 430.537 1282.54 430.803C1282.99 431.244 1283.35 431.769 1283.62 432.351C1284.52 434.078 1285.86 437.246 1285.23 438.733" fill="#9A4A4D"/>
<path d="M1272.51 441.981C1273.28 439.881 1273.37 436.41 1274.08 434.763C1274.78 433.117 1276.45 432.485 1278.54 432.093C1279.77 431.917 1280.95 431.494 1282.02 430.847C1282.2 431.144 1282.3 431.488 1282.3 431.839C1282.3 432.19 1282.2 432.534 1282.02 432.832C1281.32 433.61 1280.47 434.218 1279.52 434.612C1277.41 435.698 1280.37 437.469 1278.62 441.055C1278.5 443.022 1272.51 441.981 1272.51 441.981Z" fill="#B16668"/>
<path d="M1285.23 438.759C1284.86 439.49 1284.32 440.115 1283.66 440.581C1283 441.046 1282.24 441.337 1281.45 441.429C1281.02 441.395 1280.62 441.241 1280.27 440.984C1279.94 440.717 1279.77 440.299 1279.41 440.032C1279.24 439.898 1279.04 439.792 1278.88 439.64C1278.71 439.503 1278.59 439.303 1278.56 439.08C1278.56 438.83 1278.67 438.572 1278.61 438.332C1278.57 438.191 1278.48 438.069 1278.37 437.985C1278.19 437.825 1277.97 437.718 1277.8 437.558C1277.7 437.488 1277.63 437.392 1277.58 437.28C1277.54 437.168 1277.52 437.046 1277.54 436.926C1277.62 436.732 1277.75 436.572 1277.93 436.472C1278.55 436.061 1279.2 435.69 1279.87 435.359C1280.44 435.059 1280.92 434.584 1281.23 433.998" fill="#9A4A4D"/>
<path d="M1279.21 438.421C1279.12 440.548 1277.05 441.474 1275.78 441.759C1276.27 441.845 1276.78 441.823 1277.27 441.694C1277.77 441.565 1278.22 441.333 1278.62 441.011L1279.13 444.945L1279.21 438.421Z" fill="#9A4A4D"/>
<path d="M1219.12 448.763C1218.42 448.932 1216.55 450.783 1215.93 453.587C1215.65 455.582 1215.65 457.608 1215.93 459.603L1219.06 476.442L1218.99 494.384C1223.38 499.333 1240.92 500.926 1250.51 493.663C1250.51 493.663 1250.4 462.291 1249.96 457.253C1249.55 452.643 1248.51 448.656 1245.92 447.704C1243.33 446.751 1240.46 446.128 1238.55 445.461L1228.86 445.052L1219.12 448.763Z" fill="#FFC100"/>
<path d="M1234.76 463.03L1242.69 461.445C1242.85 461.41 1243.01 461.412 1243.17 461.449C1243.33 461.487 1243.48 461.56 1243.61 461.663C1243.74 461.766 1243.85 461.898 1243.92 462.047C1244 462.197 1244.04 462.362 1244.05 462.531L1244.35 466.883C1244.37 467.25 1244.26 467.611 1244.04 467.902C1243.83 468.193 1243.52 468.393 1243.17 468.467L1235.23 470.052C1235.07 470.088 1234.9 470.088 1234.74 470.052C1234.58 470.015 1234.44 469.943 1234.31 469.841C1234.18 469.738 1234.07 469.607 1234 469.458C1233.92 469.308 1233.88 469.143 1233.87 468.975L1233.57 464.614C1233.55 464.245 1233.66 463.883 1233.88 463.592C1234.1 463.301 1234.41 463.102 1234.76 463.03Z" fill="#FAFAFA"/>
<path d="M1228 445.541V446.511C1228 446.511 1233 455.518 1239.16 460.751L1238.04 461.045C1233.48 457.06 1229.78 452.119 1227.2 446.547C1227.2 446.547 1227.17 445.452 1228 445.541Z" fill="#455A64"/>
<path d="M1237.8 445.87C1238.24 447.392 1239.64 455.714 1238.06 461L1239.17 460.707C1240.27 456.889 1239.5 448.247 1238.56 445.434C1238.56 445.434 1238.29 444.713 1237.7 444.66L1237.8 445.87Z" fill="#37474F"/>
<path d="M1238.08 461.196L1239.2 460.902L1239.48 462.878L1238.35 463.172L1238.08 461.196Z" fill="#455A64"/>
<path d="M1235.47 466.1L1242.12 464.765C1242.48 464.703 1242.74 464.445 1242.73 464.195C1242.71 463.946 1242.41 463.813 1242.06 463.875L1235.39 465.21C1235.04 465.281 1234.77 465.539 1234.8 465.78C1234.82 466.02 1235.11 466.171 1235.47 466.1Z" fill="#E0E0E0"/>
<path d="M1235.67 467.889L1242.34 466.563C1242.68 466.492 1242.95 466.234 1242.93 465.993C1242.91 465.753 1242.61 465.602 1242.26 465.673L1235.6 466.999C1235.25 467.07 1234.99 467.328 1235 467.569C1235.02 467.809 1235.32 467.96 1235.67 467.889Z" fill="#E0E0E0"/>
<path d="M1229.73 425.071C1229.83 426.826 1230.43 428.51 1231.46 429.91C1232.49 431.309 1233.89 432.363 1235.49 432.936C1237.09 433.509 1238.83 433.577 1240.47 433.132C1242.11 432.686 1243.58 431.746 1244.71 430.431C1245.83 429.116 1246.56 427.484 1246.79 425.742C1247.02 424.001 1246.75 422.226 1246.01 420.644C1245.27 419.061 1244.1 417.741 1242.64 416.85C1241.18 415.958 1239.49 415.537 1237.8 415.637C1236.67 415.704 1235.57 416.001 1234.55 416.512C1233.53 417.023 1232.62 417.737 1231.87 418.614C1231.12 419.49 1230.55 420.512 1230.18 421.62C1229.81 422.728 1229.66 423.901 1229.73 425.071Z" fill="#263238"/>
<path d="M1227.14 426.922L1225 420.995C1224.04 421.31 1223.22 421.957 1222.67 422.828C1221.81 424.243 1222.23 428.106 1223.86 431.728C1223.86 431.728 1225.63 438.394 1226.25 439.471C1226.66 440.134 1227.3 440.609 1228.04 440.797L1227.14 426.922Z" fill="#263238"/>
<path d="M1227.27 431.835C1226.77 432.191 1225.96 431.194 1225.27 430.536C1224.59 429.877 1222.42 429.04 1221.51 431.426C1220.59 433.811 1222.5 436.703 1224.12 437.362C1226.14 438.181 1227.01 437.113 1227.2 436.472L1227.74 446.627C1227.74 446.627 1234.49 449.555 1237.05 450.97C1237.83 449.947 1238.65 447.722 1237.79 445.906L1237.59 442.657C1238.88 442.798 1240.18 442.798 1241.46 442.657C1243.54 442.186 1244.77 440.388 1245.27 437.985C1246.08 434.131 1246.29 431.043 1244.99 423.638C1243.57 415.521 1234.39 416.002 1229.63 419.544C1224.87 423.086 1227.27 431.835 1227.27 431.835Z" fill="#B16668"/>
<path d="M1227.37 432.547C1226.51 432.351 1225.85 431.007 1225.27 430.536C1224.32 429.735 1225.04 421.947 1225.04 421.947C1224.77 421.294 1224.68 420.571 1224.79 419.867C1224.91 419.164 1225.22 418.51 1225.69 417.987C1226.84 416.5 1228.9 416.207 1232.39 415.423C1234.11 415.032 1236.17 414.765 1237.88 414.338C1239.66 413.947 1241.37 413.271 1242.95 412.335C1243.23 412.12 1243.57 412.007 1243.92 412.015C1244.05 412.044 1244.18 412.103 1244.29 412.189C1244.4 412.275 1244.5 412.386 1244.56 412.513C1244.69 412.772 1244.75 413.059 1244.75 413.35C1244.76 413.65 1244.72 413.95 1244.65 414.24C1244.6 414.418 1244.3 414.952 1244.37 415.13C1244.57 415.486 1245.9 414.783 1246.17 414.685C1246.23 414.658 1246.3 414.658 1246.36 414.685C1246.41 414.717 1246.45 414.759 1246.48 414.809C1246.7 415.275 1246.81 415.784 1246.81 416.3C1246.81 416.816 1246.7 417.325 1246.48 417.791C1245.48 419.811 1243.85 421.421 1241.86 422.356C1239.79 423.376 1237.51 423.823 1235.23 423.656C1234.26 423.595 1233.3 423.422 1232.37 423.14C1232.2 423.502 1232.01 423.85 1231.79 424.181C1231.55 424.518 1231.26 424.818 1230.94 425.071C1230.61 425.33 1230.25 425.531 1229.86 425.667C1229.47 425.801 1229.08 425.774 1228.88 426.237C1228.77 426.541 1228.73 426.867 1228.77 427.189L1228.84 430.028C1228.87 430.509 1228.84 430.992 1228.73 431.461C1228.68 431.695 1228.57 431.912 1228.42 432.096C1228.27 432.28 1228.09 432.425 1227.87 432.52C1227.71 432.582 1227.53 432.591 1227.37 432.547Z" fill="#263238"/>
<path d="M1237.59 442.622C1237.59 442.622 1232.84 441.928 1231.15 441.127C1230.16 440.664 1229.32 439.901 1228.75 438.937C1229.06 439.918 1229.55 440.826 1230.2 441.607C1231.49 443.12 1237.67 443.912 1237.67 443.912L1237.59 442.622Z" fill="#9A4A4D"/>
<path d="M1236.02 430.242C1236.03 430.434 1235.98 430.623 1235.88 430.786C1235.78 430.949 1235.64 431.078 1235.47 431.157C1235.3 431.237 1235.12 431.264 1234.93 431.234C1234.75 431.204 1234.58 431.119 1234.44 430.989C1234.31 430.859 1234.21 430.691 1234.17 430.505C1234.12 430.319 1234.13 430.123 1234.19 429.942C1234.25 429.76 1234.36 429.602 1234.51 429.486C1234.66 429.37 1234.84 429.302 1235.02 429.29C1235.15 429.284 1235.27 429.304 1235.39 429.348C1235.51 429.393 1235.62 429.461 1235.71 429.55C1235.81 429.638 1235.88 429.745 1235.93 429.864C1235.99 429.982 1236.02 430.111 1236.02 430.242Z" fill="#263238"/>
<path d="M1234.74 427.305L1232.73 428.827C1232.53 428.541 1232.46 428.187 1232.51 427.842C1232.56 427.496 1232.74 427.185 1233.01 426.976C1233.15 426.877 1233.3 426.807 1233.46 426.77C1233.62 426.733 1233.78 426.73 1233.94 426.76C1234.1 426.791 1234.26 426.855 1234.39 426.949C1234.53 427.042 1234.65 427.163 1234.74 427.305Z" fill="#263238"/>
<path d="M1234.78 436.267L1238.17 437.549C1238.09 437.787 1237.96 438.005 1237.8 438.192C1237.63 438.378 1237.43 438.529 1237.21 438.635C1236.99 438.741 1236.75 438.8 1236.51 438.809C1236.26 438.819 1236.02 438.777 1235.79 438.688C1235.57 438.608 1235.36 438.48 1235.18 438.312C1235 438.143 1234.86 437.939 1234.77 437.711C1234.67 437.482 1234.63 437.236 1234.63 436.988C1234.63 436.739 1234.68 436.494 1234.78 436.267Z" fill="#9A4A4D"/>
<path d="M1235.79 438.688C1236.07 438.793 1236.36 438.83 1236.65 438.795C1236.57 438.407 1236.36 438.061 1236.06 437.82C1235.76 437.578 1235.38 437.457 1235 437.478H1234.76C1234.83 437.749 1234.96 438 1235.14 438.211C1235.32 438.421 1235.54 438.585 1235.79 438.688Z" fill="#F28F8F"/>
<path d="M1244.29 427.741L1242.24 426.611C1242.3 426.469 1242.39 426.342 1242.51 426.238C1242.62 426.134 1242.75 426.055 1242.9 426.006C1243.04 425.957 1243.19 425.939 1243.34 425.953C1243.49 425.966 1243.64 426.011 1243.77 426.086C1244.05 426.241 1244.25 426.499 1244.35 426.807C1244.44 427.115 1244.42 427.449 1244.29 427.741Z" fill="#263238"/>
<path d="M1243.63 429.797C1243.65 429.93 1243.64 430.066 1243.61 430.196C1243.57 430.325 1243.51 430.446 1243.43 430.55C1243.35 430.654 1243.24 430.739 1243.13 430.8C1243.01 430.861 1242.88 430.897 1242.76 430.905C1242.63 430.913 1242.5 430.893 1242.37 430.847C1242.25 430.8 1242.14 430.728 1242.05 430.635C1241.95 430.542 1241.88 430.43 1241.83 430.305C1241.78 430.181 1241.75 430.047 1241.76 429.913C1241.74 429.779 1241.75 429.643 1241.78 429.514C1241.82 429.384 1241.88 429.264 1241.96 429.16C1242.04 429.056 1242.15 428.97 1242.26 428.909C1242.38 428.848 1242.51 428.812 1242.63 428.804C1242.76 428.796 1242.89 428.816 1243.02 428.863C1243.14 428.909 1243.25 428.981 1243.34 429.074C1243.44 429.168 1243.51 429.28 1243.56 429.404C1243.61 429.528 1243.64 429.662 1243.63 429.797Z" fill="#263238"/>
<path d="M1238.65 429.583L1239.14 435.858L1242.27 434.647L1238.65 429.583Z" fill="#9A4A4D"/>
<path d="M1237.05 450.934C1238.81 449.724 1240.25 452.777 1240.55 452.314C1240.85 451.851 1239.06 444.544 1237.69 444.161L1237.79 446.529C1237.63 448.012 1237.38 449.483 1237.05 450.934Z" fill="#FFC100"/>
<path opacity="0.7" d="M1237.05 450.934C1238.81 449.724 1240.25 452.777 1240.55 452.314C1240.85 451.851 1239.06 444.544 1237.69 444.161L1237.79 446.529C1237.63 448.012 1237.38 449.483 1237.05 450.934Z" fill="white"/>
<path d="M1227.5 442.764L1227.57 443.832C1227.71 444.535 1229.36 445.933 1232.72 447.508C1236.08 449.083 1237.01 450.934 1237.01 450.934C1236.05 450.711 1235.04 450.859 1234.17 451.353C1232.76 452.243 1231.37 454.548 1230.64 454.53C1229.9 454.512 1228.22 452.75 1226.35 450.285C1225.54 449.222 1224.84 448.077 1224.25 446.867C1224.25 446.867 1226.22 442.782 1227.5 442.764Z" fill="#FFC100"/>
<path opacity="0.7" d="M1227.5 442.764L1227.57 443.832C1227.71 444.535 1229.36 445.933 1232.72 447.508C1236.08 449.083 1237.01 450.934 1237.01 450.934C1236.05 450.711 1235.04 450.859 1234.17 451.353C1232.76 452.243 1231.37 454.548 1230.64 454.53C1229.9 454.512 1228.22 452.75 1226.35 450.285C1225.54 449.222 1224.84 448.077 1224.25 446.867C1224.25 446.867 1226.22 442.782 1227.5 442.764Z" fill="white"/>
<path d="M1213.5 476.246C1215.8 472.441 1217.9 468.507 1219.78 464.462C1224.13 458.428 1221.15 451.486 1219.57 448.816C1213.45 449.76 1212.45 452.252 1210.99 455.669C1208.89 460.484 1204.42 470.541 1202.81 474.769L1192.02 467.791C1189.72 465.717 1189.21 462.798 1187.81 460.965C1186.41 459.131 1184.81 458.606 1183.21 457.049C1181.62 455.491 1181.03 454.379 1180.39 455.553C1179.75 456.728 1181.49 459.06 1181.78 459.612C1182.07 460.164 1183.91 461.516 1181.39 461.267C1178.86 461.018 1174.18 457.707 1173.04 457.093C1171.9 456.479 1171.79 457.983 1172.27 458.998C1172.76 460.012 1172.45 462.745 1173.29 464.427C1173.99 466.155 1175.29 467.549 1176.93 468.334C1179.04 469.58 1183.63 470.514 1185.81 472.312C1187.98 474.11 1193.09 478.854 1197.35 482.485C1202 486.445 1205.21 488.439 1208.03 484.656C1210.1 481.817 1211.61 479.254 1213.5 476.246Z" fill="#B16668"/>
<path d="M1220.75 448.14C1215.72 449.626 1212.77 450.294 1210.84 454.646C1209.13 458.446 1202.63 474.306 1202.63 474.306L1197.89 471.573C1197.99 473.968 1195.94 477.973 1193.28 478.88C1193.28 478.88 1198.43 484.069 1201.15 485.689C1203.88 487.309 1205.32 488.305 1208.19 484.799C1211.06 481.292 1221.61 463.279 1221.61 463.279C1221.61 463.279 1225.24 457.111 1220.75 448.14Z" fill="#FFC100"/>
<path opacity="0.1" d="M1220.75 448.14C1215.72 449.626 1212.77 450.294 1210.84 454.646C1209.13 458.446 1202.63 474.306 1202.63 474.306L1197.89 471.573C1197.99 473.968 1195.94 477.973 1193.28 478.88C1193.28 478.88 1198.43 484.069 1201.15 485.689C1203.88 487.309 1205.32 488.305 1208.19 484.799C1211.06 481.292 1221.61 463.279 1221.61 463.279C1221.61 463.279 1225.24 457.111 1220.75 448.14Z" fill="black"/>
<path opacity="0.1" d="M1202.62 474.306C1205.2 476.032 1206.83 478.204 1207.28 479.646C1207.28 479.646 1207.32 476.647 1203.18 472.971L1202.62 474.306Z" fill="black"/>
<path d="M1198.61 471.983C1198.61 471.983 1198.68 476.433 1194.02 479.619L1190.79 476.691C1190.79 476.691 1193.91 475.133 1195.02 469.731L1198.61 471.983Z" fill="#FFC100"/>
<path opacity="0.7" d="M1198.61 471.983C1198.61 471.983 1198.68 476.433 1194.02 479.619L1190.79 476.691C1190.79 476.691 1193.91 475.133 1195.02 469.731L1198.61 471.983Z" fill="white"/>
<path d="M1257.06 702.098C1256.82 703.489 1256.91 704.919 1257.3 706.272C1258.04 708.47 1259.62 709.467 1260.55 710.339C1261.59 711.341 1262.5 712.481 1263.25 713.73C1263.99 715.1 1264.94 716.336 1266.07 717.388C1266.92 718.18 1269.43 718.278 1270.62 717.726C1271.81 717.174 1272.22 716.738 1272.15 714.762C1272.08 712.787 1266.28 712.092 1266.28 712.092L1257.06 702.098Z" fill="#455A64"/>
<path d="M1271.4 708.853C1271.9 709.049 1272.02 710.028 1272.1 711.968C1272.16 713.436 1272.75 715.581 1270.8 716.507C1269.93 716.864 1268.98 716.946 1268.06 716.744C1267.15 716.541 1266.31 716.062 1265.65 715.368C1264.32 713.65 1263.43 712.128 1261.54 710.028C1259.9 708.248 1258.19 707.58 1257.46 703.931C1257 701.581 1257.36 700.611 1258.88 699.935C1260.98 699.045 1264.27 702.035 1265.91 702.516C1267.35 702.916 1270.91 708.657 1271.4 708.853Z" fill="#FFC100"/>
<path opacity="0.2" d="M1271.4 708.853C1271.9 709.049 1272.02 710.028 1272.1 711.968C1272.16 713.436 1272.75 715.581 1270.8 716.507C1269.93 716.864 1268.98 716.946 1268.06 716.744C1267.15 716.541 1266.31 716.062 1265.65 715.368C1264.32 713.65 1263.43 712.128 1261.54 710.028C1259.9 708.248 1258.19 707.58 1257.46 703.931C1257 701.581 1257.36 700.611 1258.88 699.935C1260.98 699.045 1264.27 702.035 1265.91 702.516C1267.35 702.916 1270.91 708.657 1271.4 708.853Z" fill="black"/>
<path d="M1265.91 702.507L1265.64 702.4C1264.69 702.454 1263.76 702.768 1262.97 703.31C1262.17 703.853 1261.53 704.604 1261.1 705.488C1260.82 706.129 1261.68 706.628 1262.19 706.129C1262.65 705.273 1263.3 704.546 1264.09 704.01C1264.88 703.475 1265.79 703.149 1266.73 703.059C1266.5 702.818 1266.22 702.63 1265.91 702.507Z" fill="#FAFAFA"/>
<path d="M1267.27 703.611C1266.37 703.712 1265.52 704.046 1264.78 704.581C1264.05 705.116 1263.45 705.836 1263.05 706.672C1262.77 707.304 1263.64 707.803 1264.14 707.304C1264.53 706.556 1265.06 705.906 1265.72 705.401C1266.37 704.896 1267.13 704.549 1267.93 704.385C1267.71 704.109 1267.48 703.842 1267.27 703.611Z" fill="#FAFAFA"/>
<path d="M1258.42 706.628C1258.42 706.628 1258.58 702.275 1264.26 701.67L1264.58 701.866C1263.95 700.789 1262.96 699.993 1261.79 699.632C1261.03 699.344 1260.19 699.315 1259.41 699.548C1258.63 699.782 1257.94 700.266 1257.43 700.932C1256.44 702.258 1257.44 705.782 1258.42 706.628Z" fill="#FAFAFA"/>
<path d="M1228.47 727.952C1228.25 728.709 1228.22 729.515 1228.41 730.284C1228.62 730.756 1229.98 732.304 1232.7 732.865C1235.42 733.426 1239.25 732.865 1240.88 732.767C1243.69 732.866 1246.49 733.124 1249.27 733.541C1251.84 733.897 1253.8 733.319 1254.76 732.358C1254.91 732.165 1255.03 731.941 1255.09 731.701C1255.16 731.46 1255.17 731.208 1255.14 730.96C1255.13 730.319 1255.04 729.681 1254.87 729.065L1228.47 727.952Z" fill="#455A64"/>
<path d="M1254.48 726.288C1254.53 726.501 1254.59 726.724 1254.62 726.946C1254.87 728.078 1254.95 729.243 1254.86 730.4C1254.66 730.785 1254.37 731.121 1254.04 731.386C1253.7 731.651 1253.31 731.84 1252.9 731.939C1251.1 732.504 1249.18 732.544 1247.36 732.055C1245.22 731.726 1243.05 731.586 1240.88 731.637C1238.99 731.872 1237.09 731.97 1235.2 731.93C1233.77 731.864 1232.36 731.564 1231.02 731.04C1229.9 730.542 1228.75 729.901 1228.44 728.7C1228.11 726.181 1229.14 725.069 1230.29 724.365C1231.44 723.662 1233.08 723.716 1234.83 723.591C1236.41 723.484 1237.57 723.484 1238.98 723.369C1240.2 723.31 1241.41 723.134 1242.6 722.844C1243.66 722.496 1244.75 721.064 1245.17 721.064C1245.17 721.064 1252.23 721.001 1252.9 721.064C1253.57 721.126 1253.92 723.636 1254.01 724.179C1254.11 724.721 1254.1 725.069 1254.21 725.469C1254.32 725.87 1254.41 726.012 1254.48 726.288Z" fill="#FFC100"/>
<g opacity="0.2">
<path opacity="0.2" d="M1254.48 726.288C1254.53 726.501 1254.59 726.724 1254.62 726.946C1254.87 728.078 1254.95 729.243 1254.86 730.4C1254.66 730.785 1254.37 731.121 1254.04 731.386C1253.7 731.651 1253.31 731.84 1252.9 731.939C1251.1 732.504 1249.18 732.544 1247.36 732.055C1245.22 731.726 1243.05 731.586 1240.88 731.637C1238.99 731.872 1237.09 731.97 1235.2 731.93C1233.77 731.864 1232.36 731.564 1231.02 731.04C1229.9 730.542 1228.75 729.901 1228.44 728.7C1228.11 726.181 1229.14 725.069 1230.29 724.365C1231.44 723.662 1233.08 723.716 1234.83 723.591C1236.41 723.484 1237.57 723.484 1238.98 723.369C1240.2 723.31 1241.41 723.134 1242.6 722.844C1243.66 722.496 1244.75 721.064 1245.17 721.064C1245.17 721.064 1252.23 721.001 1252.9 721.064C1253.57 721.126 1253.92 723.636 1254.01 724.179C1254.11 724.721 1254.1 725.069 1254.21 725.469C1254.32 725.87 1254.41 726.012 1254.48 726.288Z" fill="black"/>
</g>
<path d="M1232.74 731.592C1232.52 729.812 1232.23 725.843 1235.45 723.582H1235.86C1234.41 723.14 1232.86 723.14 1231.4 723.582C1228.83 724.294 1227.68 726.457 1228.31 728.735C1228.31 728.7 1228.89 730.916 1232.74 731.592Z" fill="#FAFAFA"/>
<path d="M1242.15 722.986C1241.42 723.881 1240.93 724.967 1240.75 726.128C1240.61 726.946 1239.19 727.071 1239.32 726.279C1239.54 725.193 1239.96 724.162 1240.56 723.244C1241.05 722.97 1241.61 722.879 1242.15 722.986Z" fill="#FAFAFA"/>
<path d="M1239.23 723.36C1238.45 724.162 1237.93 725.204 1237.76 726.332C1237.62 727.115 1236.43 727.107 1236.51 726.332C1236.59 725.262 1237.03 724.257 1237.76 723.493C1237.98 723.35 1238.22 723.262 1238.48 723.239C1238.73 723.216 1238.99 723.257 1239.23 723.36Z" fill="#FAFAFA"/>
<path d="M1253.18 715.715C1253.18 715.715 1253.03 720.165 1252.78 721.669C1252.63 722.559 1251.43 723.849 1248.54 723.742C1246.5 723.671 1245.11 722.95 1244.99 722.194L1244.7 716.685L1253.18 715.715Z" fill="#FFBDA7"/>
<path d="M1271.84 704.714L1271.4 709.44C1270.54 710.012 1269.55 710.33 1268.52 710.358C1267.5 710.386 1266.49 710.124 1265.6 709.6C1265.5 709.378 1265.22 705.72 1265.22 705.72L1271.84 704.714Z" fill="#FFBDA7"/>
<path d="M1275.28 674.116C1275.08 666.266 1273.52 662.813 1273.52 662.813C1273.52 662.813 1274.64 653.165 1275.37 641.239C1276.42 623.893 1272.64 618.179 1269.21 610.036C1269.21 610.036 1241.48 608.318 1240.77 620.983C1239.61 641.711 1240.77 666.373 1241.19 671.909C1241.61 677.445 1241.85 681.289 1242.56 692.708C1243.11 701.661 1244.72 719.408 1244.72 719.408C1248.61 721.589 1253.18 719.23 1253.18 719.23C1253.18 719.23 1256.72 689.531 1256.47 683.114C1256.17 675.273 1255.74 673.279 1255.74 673.279C1255.74 673.279 1258.26 654.643 1258.79 650.549C1258.79 650.549 1259.37 658.327 1259.78 663.899C1260.18 669.47 1260.49 670.503 1261.62 682.01C1262.48 691.044 1265.11 706.779 1265.11 706.779C1266.2 707.207 1267.36 707.394 1268.52 707.328C1269.68 707.262 1270.81 706.944 1271.84 706.396C1271.84 706.396 1275.44 680.471 1275.28 674.116Z" fill="#455A64"/>
<path d="M1258.7 651.136L1260.25 637.617C1263.45 637.132 1266.5 635.932 1269.21 634.102C1269.21 634.102 1267.3 637.27 1262.07 638.712L1259.78 651.092V663.498L1258.7 651.136Z" fill="#37474F"/>
<path d="M1266.32 574.881C1271.23 574.098 1275.39 578.521 1277.59 584.511C1279.79 590.5 1285.15 604.518 1285.06 608.603C1285 611.736 1274.21 625.994 1274.68 625.771C1274.83 625.7 1268.96 618.268 1268.96 618.268L1275.01 607.037L1270.79 597.941L1266.32 574.881Z" fill="#FFBDA7"/>
<path d="M1265.51 574.792C1269.26 574.276 1271.35 574.658 1274.38 578.245C1277.41 581.832 1280.3 590.705 1280.3 590.705C1280.3 590.705 1279.17 594.514 1269.86 597.416C1269.82 597.042 1264.56 585.071 1264.56 585.071L1265.51 574.792Z" fill="#455A64"/>
<path d="M1252.14 569.817L1253.53 583.327L1263.47 582.036L1262.66 568.953L1252.14 569.817Z" fill="#FFBDA7"/>
<path d="M1272.27 580.586C1271.18 577.489 1269.27 574.792 1265.51 574.792H1263.06C1262.98 577.462 1257.86 578.948 1252.96 577.302L1244.1 579.313C1244.1 579.313 1239.73 580.203 1239.23 593.224C1238.62 609.066 1239.66 637.724 1239.66 637.724C1239.66 637.724 1242.23 635.864 1244.32 626.421C1245.52 637.234 1252.62 640.429 1263.29 639.726C1273.51 639.05 1275.51 632.411 1276.16 627.569C1275.68 623.769 1274.12 614.7 1270.36 607.321C1272.3 594.239 1273.9 585.178 1272.27 580.586Z" fill="#FFC100"/>
<path opacity="0.5" d="M1272.27 580.586C1271.18 577.489 1269.27 574.792 1265.51 574.792H1263.06C1262.98 577.462 1257.86 578.948 1252.96 577.302L1244.1 579.313C1244.1 579.313 1239.73 580.203 1239.23 593.224C1238.62 609.066 1239.66 637.724 1239.66 637.724C1239.66 637.724 1242.23 635.864 1244.32 626.421C1245.52 637.234 1252.62 640.429 1263.29 639.726C1273.51 639.05 1275.51 632.411 1276.16 627.569C1275.68 623.769 1274.12 614.7 1270.36 607.321C1272.3 594.239 1273.9 585.178 1272.27 580.586Z" fill="white"/>
<path d="M1243.78 580.239C1243.78 580.239 1241.57 579.607 1235.86 579.553C1229.74 579.491 1216.98 577.079 1216.98 577.079C1216.98 577.079 1207.09 564.664 1206.76 563.56C1206.44 562.456 1207.46 560.952 1208.01 560.116C1208.56 559.279 1209.67 557.375 1210.09 556.894C1210.84 556.004 1209.31 555.701 1208.1 556.271C1206.89 556.841 1205.79 558.505 1205.24 558.638C1204.69 558.772 1203.04 553.61 1202.23 551.118C1201.42 548.626 1201.21 547.042 1199.87 547.344C1198.91 547.576 1198.95 548.866 1199.43 550.904C1199.69 551.781 1199.89 552.672 1200.03 553.574C1200.03 553.912 1199.55 553.966 1199.33 554.046C1198.92 554.197 1198.21 554.42 1198 554.838C1197.91 555.079 1197.8 555.311 1197.68 555.532C1197.32 555.986 1196.6 555.968 1196.22 556.422C1195.83 556.876 1195.92 557.205 1195.69 557.561C1195.47 557.917 1195.32 557.962 1195.19 558.193C1195.07 558.434 1195.01 558.698 1195 558.967C1194.99 559.236 1195.04 559.504 1195.14 559.751C1195.71 561.396 1196.59 562.908 1197.72 564.201C1198.63 565.385 1199.67 566.479 1200.59 567.85C1201.45 569.078 1206.48 580.55 1209.87 585.098C1210.52 586.213 1211.56 587.03 1212.78 587.385C1216.66 588.462 1237.6 592.165 1237.6 592.165C1244.44 592.298 1246.64 583.256 1243.78 580.239Z" fill="#FFBDA7"/>
<path d="M1246.54 578.752C1242.25 578.432 1233.67 579.313 1227.66 578.815C1227.66 578.815 1228.81 580.292 1228.44 584.555C1228.27 586.555 1227.62 588.48 1226.56 590.162C1226.56 590.162 1240.4 593.081 1242.69 593.259C1245.23 592.788 1246.7 591.088 1247.57 588.738C1250.12 581.965 1246.54 578.752 1246.54 578.752Z" fill="#455A64"/>
<path d="M1245.46 555.71C1244.2 553.5 1243.77 550.884 1244.26 548.368C1244.55 546.964 1245.18 545.664 1246.11 544.599C1247.03 543.534 1248.22 542.743 1249.53 542.307C1251.41 541.898 1253.34 541.898 1255.21 542.307C1256.66 542.529 1258.02 542.965 1259.46 543.197C1260.9 543.428 1262.59 543.473 1264.14 543.766C1266.31 544.176 1268.58 545.315 1269.34 547.46C1269.72 548.963 1269.7 550.544 1269.28 552.035C1268.74 554.776 1268.22 557.508 1267.56 560.214C1266.83 563.16 1264.99 564.014 1262.61 565.411C1261.2 566.221 1257.74 567.814 1257.87 569.932C1257.87 569.434 1256.36 568.224 1256.05 567.868L1248.82 559.635C1247.89 558.567 1246.81 557.535 1245.95 556.387C1245.78 556.172 1245.61 555.946 1245.46 555.71Z" fill="#263238"/>
<path d="M1244.99 557.962C1244.99 557.962 1242.41 562.092 1242.73 562.412C1243.32 562.833 1243.96 563.172 1244.64 563.418L1244.99 557.962Z" fill="#F0997A"/>
<path d="M1251.74 546.971C1249.58 548.119 1245.87 550.255 1244.92 558.469C1243.94 566.907 1245.77 569.835 1246.86 570.929C1247.61 571.677 1251.47 571.944 1253.49 571.294C1256 570.484 1261.47 567.681 1264.02 563.329C1267.03 558.202 1267.65 551.376 1264.17 548.706C1259.28 544.95 1253.56 545.992 1251.74 546.971Z" fill="#FFBDA7"/>
<path d="M1252.14 569.817L1252.32 571.552C1250.6 571.844 1248.84 571.71 1247.17 571.161C1247.81 571.165 1248.45 571.103 1249.08 570.974C1250.14 570.734 1251.18 570.345 1252.14 569.817Z" fill="#F0997A"/>
<path d="M1251.58 556.921C1250.23 556.351 1249.04 555.407 1248.16 554.192C1247.28 552.976 1246.74 551.535 1246.59 550.023C1245.92 544.683 1252.44 542.547 1252.44 542.547L1251.58 556.921Z" fill="#263238"/>
<path d="M1251.1 547.318C1251.1 547.318 1249.23 555.016 1251.48 559.875C1251.48 559.875 1252.79 556.876 1255.28 557.739C1257.77 558.603 1257.93 562.189 1255.85 563.854C1255.38 564.24 1254.8 564.447 1254.21 564.439C1253.61 564.431 1253.03 564.208 1252.58 563.809C1253.33 566.149 1254.56 568.297 1256.17 570.11C1256.17 570.11 1261.8 574.329 1268.04 566.622C1273.54 559.831 1274.75 548.51 1267.04 547.095C1254.09 541.675 1251.1 547.318 1251.1 547.318Z" fill="#263238"/>
<path d="M1269.16 548.119C1274.43 545.449 1279.55 548.644 1279.94 555.995C1280.27 562.056 1277.07 572.202 1277.62 575.664C1277.83 577.168 1278.39 578.599 1279.24 579.838C1279.33 579.964 1279.39 580.113 1279.41 580.271C1279.43 580.429 1279.41 580.59 1279.35 580.736C1279.29 580.882 1279.19 581.009 1279.07 581.103C1278.94 581.198 1278.8 581.255 1278.64 581.271C1278.15 581.318 1277.66 581.263 1277.19 581.11C1276.72 580.958 1276.28 580.71 1275.91 580.381C1276.04 581.934 1276.71 583.385 1277.79 584.466C1277.95 584.596 1278.07 584.77 1278.13 584.968C1278.2 585.167 1278.21 585.381 1278.17 585.586C1278.12 585.79 1278.02 585.977 1277.87 586.124C1277.73 586.271 1277.55 586.372 1277.35 586.415C1275.77 586.717 1274.13 586.483 1272.69 585.748C1268.61 583.63 1266.25 578.975 1268.2 572.3C1270.16 565.625 1274.52 558.354 1273.54 554.055C1272.56 549.756 1269.49 550.78 1269.49 550.78L1269.16 548.119Z" fill="#263238"/>
<path d="M1186.73 695.819C1186.7 695.793 1186.67 695.775 1186.64 695.767C1186.61 695.758 1186.57 695.76 1186.54 695.771C1186.51 695.782 1186.48 695.803 1186.46 695.83C1186.43 695.857 1186.42 695.891 1186.42 695.926C1186.23 697.165 1186.32 698.433 1186.69 699.628C1187.42 701.791 1188.98 702.779 1189.89 703.633C1190.92 704.62 1191.81 705.745 1192.55 706.98C1193.28 708.33 1194.22 709.547 1195.33 710.584C1196.19 711.367 1198.64 711.43 1199.82 710.922C1200.99 710.415 1201.4 709.943 1201.32 707.994C1201.25 706.214 1196.17 705.467 1195.61 705.386C1195.57 705.38 1195.53 705.361 1195.5 705.333L1186.73 695.819Z" fill="#37474F"/>
<path d="M1200.58 702.173C1201.07 702.369 1201.19 703.33 1201.27 705.235C1201.32 706.686 1201.91 708.795 1199.99 709.685C1199.13 710.038 1198.2 710.12 1197.29 709.922C1196.39 709.725 1195.57 709.255 1194.92 708.573C1193.61 706.864 1192.72 705.369 1190.86 703.295C1189.25 701.515 1187.56 700.883 1186.85 697.287C1186.38 694.973 1186.74 694.012 1188.24 693.354C1190.31 692.464 1193.56 695.418 1195.17 695.89C1196.57 696.317 1200.1 701.969 1200.58 702.173Z" fill="#455A64"/>
<path d="M1187.52 699.682C1187.55 699.709 1187.58 699.73 1187.61 699.741C1187.64 699.752 1187.68 699.753 1187.71 699.744C1187.74 699.734 1187.77 699.715 1187.8 699.688C1187.82 699.661 1187.84 699.628 1187.84 699.593C1188.03 698.533 1188.97 695.579 1193.54 695.098L1193.86 695.285C1193.24 694.224 1192.26 693.441 1191.11 693.087C1190.36 692.801 1189.53 692.771 1188.76 693.001C1187.99 693.232 1187.31 693.71 1186.82 694.368C1185.93 695.543 1186.66 698.516 1187.52 699.682Z" fill="#FAFAFA"/>
<path d="M1200.58 699.299L1200.63 703.108C1200.63 703.138 1200.62 703.168 1200.61 703.194C1200.59 703.22 1200.57 703.243 1200.55 703.259C1199.7 703.816 1198.73 704.135 1197.73 704.183C1196.73 704.231 1195.73 704.008 1194.84 703.535C1194.82 703.524 1194.79 703.506 1194.77 703.482C1194.75 703.459 1194.74 703.432 1194.73 703.402C1194.64 702.877 1193.99 699.904 1193.93 699.219C1193.93 699.193 1193.93 699.167 1193.94 699.143C1193.95 699.119 1193.96 699.096 1193.98 699.078C1194 699.059 1194.02 699.045 1194.04 699.035C1194.06 699.026 1194.09 699.022 1194.11 699.023L1200.4 699.121C1200.43 699.12 1200.45 699.123 1200.47 699.132C1200.49 699.14 1200.51 699.153 1200.53 699.17C1200.55 699.186 1200.56 699.206 1200.57 699.229C1200.58 699.251 1200.58 699.275 1200.58 699.299Z" fill="#FFA8A7"/>
<path d="M1157.35 722.982C1157.31 722.988 1157.27 723.007 1157.24 723.035C1157.21 723.064 1157.19 723.101 1157.19 723.142C1156.94 724.673 1157.53 725.5 1159.48 726.702C1162.12 728.064 1165.18 728.288 1167.99 727.325C1171.32 726.319 1172.9 724.815 1174.29 724.45C1175.67 724.085 1179.09 724.067 1180.45 723.649C1181.82 723.231 1181.8 722.563 1181.8 720.979C1181.8 720.953 1181.79 720.928 1181.78 720.905C1181.77 720.881 1181.76 720.861 1181.74 720.843C1181.72 720.826 1181.7 720.812 1181.68 720.804C1181.65 720.795 1181.63 720.791 1181.6 720.792L1157.35 722.982Z" fill="#37474F"/>
<path d="M1180.33 712.551C1180.36 712.551 1180.4 712.564 1180.43 712.588C1180.46 712.612 1180.49 712.646 1180.5 712.685C1180.64 713.156 1181.16 714.856 1181.46 716.378C1181.76 717.9 1182.14 720.169 1181.66 721.237C1181.17 722.305 1179.3 723.017 1176.41 722.964C1174.53 722.964 1171.61 724.272 1169.61 725.429C1167.6 726.461 1165.32 726.789 1163.11 726.364C1160.54 726.052 1157.86 724.504 1157.44 723.4C1157.02 722.297 1156.92 721.46 1162.99 718.772C1163.05 718.772 1169.97 716.102 1172.94 712.765C1172.95 712.747 1172.97 712.732 1172.99 712.723C1173.01 712.714 1173.04 712.71 1173.06 712.711L1180.33 712.551Z" fill="#455A64"/>
<path d="M1168.65 725.901C1168.69 725.887 1168.72 725.86 1168.74 725.824C1168.76 725.788 1168.77 725.746 1168.76 725.705C1168.64 724.815 1167.85 720.285 1164.01 718.888C1160.18 717.491 1156.84 720.436 1157.21 723C1157.46 724.708 1162.07 728.58 1168.65 725.901Z" fill="#FAFAFA"/>
<path d="M1180.27 709.979C1180.32 709.979 1180.37 709.998 1180.4 710.033C1180.44 710.069 1180.45 710.116 1180.45 710.166V712.711C1180.45 713.708 1179.33 715.194 1176.4 715.087C1174.34 715.007 1172.9 714.438 1172.96 712.675V710.317C1172.96 710.267 1172.98 710.22 1173.02 710.185C1173.05 710.15 1173.1 710.13 1173.14 710.13L1180.27 709.979Z" fill="#FFA8A7"/>
<path d="M1202.62 678.918C1202.34 671.798 1201.61 671.638 1200.52 666.12V666.022C1200.65 665.203 1200.39 665.052 1200.6 658.101C1200.74 653.695 1201.23 648.053 1201.18 642.401C1201.18 637.844 1200.53 633.332 1200.39 629.096C1192.01 628.508 1172.84 622.358 1170.22 636.038C1170.22 649.334 1170.05 659.026 1170.17 674.076C1170.29 689.126 1171.2 696.611 1172.23 712.551C1172.58 712.88 1172.95 713.178 1173.34 713.441C1175.72 714.331 1178.86 714.438 1181.17 712.871C1181.19 712.858 1181.21 712.842 1181.22 712.822C1181.24 712.802 1181.25 712.779 1181.25 712.756C1182.97 702.663 1183.83 698.16 1184.3 691.894C1184.88 683.884 1183.44 682.549 1183.83 676.542C1184.23 670.534 1186.2 655.466 1186.2 655.466C1187.11 662.809 1189.15 672.884 1190.66 681.107C1192.03 688.539 1192.78 693.104 1194.16 702.209C1194.16 702.24 1194.17 702.27 1194.19 702.295C1194.21 702.32 1194.23 702.339 1194.26 702.352C1196.22 703.304 1199.18 703.446 1201.05 701.826C1201.09 701.801 1201.11 701.763 1201.12 701.72C1202.35 694.189 1202.85 686.551 1202.62 678.918Z" fill="#FFC100"/>
<path opacity="0.2" d="M1202.62 678.918C1202.34 671.798 1201.61 671.638 1200.52 666.12V666.022C1200.65 665.203 1200.39 665.052 1200.6 658.101C1200.74 653.695 1201.23 648.053 1201.18 642.401C1201.18 637.844 1200.53 633.332 1200.39 629.096C1192.01 628.508 1172.84 622.358 1170.22 636.038C1170.22 649.334 1170.05 659.026 1170.17 674.076C1170.29 689.126 1171.2 696.611 1172.23 712.551C1172.58 712.88 1172.95 713.178 1173.34 713.441C1175.72 714.331 1178.86 714.438 1181.17 712.871C1181.19 712.858 1181.21 712.842 1181.22 712.822C1181.24 712.802 1181.25 712.779 1181.25 712.756C1182.97 702.663 1183.83 698.16 1184.3 691.894C1184.88 683.884 1183.44 682.549 1183.83 676.542C1184.23 670.534 1186.2 655.466 1186.2 655.466C1187.11 662.809 1189.15 672.884 1190.66 681.107C1192.03 688.539 1192.78 693.104 1194.16 702.209C1194.16 702.24 1194.17 702.27 1194.19 702.295C1194.21 702.32 1194.23 702.339 1194.26 702.352C1196.22 703.304 1199.18 703.446 1201.05 701.826C1201.09 701.801 1201.11 701.763 1201.12 701.72C1202.35 694.189 1202.85 686.551 1202.62 678.918Z" fill="black"/>
<path opacity="0.1" d="M1195.45 644.475C1194.39 645.666 1193.11 646.619 1191.68 647.276C1190.25 647.932 1188.7 648.278 1187.14 648.293L1186.2 655.502C1186.79 660.281 1187.87 666.182 1188.97 672.056L1187.52 656.312L1189.06 649.877C1195.19 647.545 1195.45 644.475 1195.45 644.475Z" fill="black"/>
<path d="M1194.83 592.623C1198.17 592.125 1201.42 595.151 1202.7 598.159C1203.98 601.167 1206.84 613.405 1207.09 615.808C1207.39 618.478 1207.62 619.822 1205.66 621.397C1203.46 623.075 1201.02 624.409 1198.45 625.357L1194.83 592.623Z" fill="#37474F"/>
<path d="M1200.17 597.892C1199.23 594.937 1195.61 591.715 1191.99 592.41C1185.33 593.691 1181.01 594.715 1177.08 596.174C1173.76 597.403 1170.12 596.788 1169.85 608.109C1169.85 608.109 1169.85 631.89 1169.85 636.99C1178.18 640.407 1185.22 640.381 1190.01 639.295C1199.98 637.034 1200.63 632.362 1200.63 632.362C1200.63 632.362 1201.45 620.24 1201.16 612.043C1200.87 605.083 1200.78 599.93 1200.17 597.892Z" fill="#455A64"/>
<path d="M1179.21 588.529L1180.28 599.102L1189.42 599.111L1188.36 587.141L1179.21 588.529Z" fill="#FFA8A7"/>
<path d="M1177.05 596.174C1177.71 594.742 1178.22 592.819 1179.51 592.57C1179.51 592.57 1184 593.264 1186.2 592.312C1188.41 591.36 1189.02 590.274 1189.02 590.274C1189.56 590.038 1190.16 589.971 1190.74 590.08C1191.32 590.189 1191.86 590.469 1192.29 590.888C1193.63 592.356 1197.61 594.795 1198.66 599.111C1199.71 603.428 1200.56 611.402 1195.75 612.942C1188.71 615.203 1183.69 611.767 1182.02 605.724C1180.18 599.103 1180.69 597.367 1177.05 596.174Z" fill="#37474F"/>
<path d="M1182.56 596.717C1183.71 598.364 1184.92 605.484 1187.66 608.287C1190.4 611.091 1196.33 610.397 1197.41 607.557C1197.41 607.557 1197.2 611.18 1193.02 611.607C1190.99 611.741 1188.98 611.123 1187.34 609.863C1185.71 608.603 1184.57 606.783 1184.11 604.727C1183.06 600.509 1183.21 598.64 1182.56 596.717Z" fill="#263238"/>
<path d="M1172.9 576.256C1172.9 576.256 1170.32 579.87 1170.54 580.252C1170.77 580.635 1172.53 581.08 1172.53 581.08L1172.9 576.256Z" fill="#F28F8F"/>
<path d="M1179.99 568.015C1175.27 567.774 1173.28 569.937 1172.44 576.915C1171.58 584.204 1172.58 587.105 1173.58 588.155C1174.25 588.867 1178.2 589.25 1180.22 588.876C1182.74 588.414 1188.48 586.954 1191.33 583.447C1194.68 579.318 1195.82 573.506 1192.63 570.881C1188.16 567.169 1181.99 568.122 1179.99 568.015Z" fill="#FFA8A7"/>
<path d="M1175.85 571.504C1175.63 571.504 1175.21 572.732 1176.1 573.613C1176.41 573.863 1176.78 574.019 1177.17 574.063C1177.56 574.107 1177.95 574.038 1178.31 573.862C1177.81 574.766 1177.6 575.81 1177.72 576.844C1177.92 577.591 1178.43 577.974 1179.29 578.383C1179.29 578.383 1180.21 575.713 1182.72 576.23C1185.23 576.746 1185.39 579.683 1183.71 581.356C1182.02 583.029 1180.58 582.246 1180.58 582.246C1180.58 582.246 1180.45 586.117 1182.2 588.431C1184.19 588.959 1186.26 589.047 1188.28 588.69C1190.72 588.378 1192.9 586.02 1194.61 583.296C1198.19 577.582 1199.76 571.513 1195.55 569.563C1196.1 567.178 1195.33 565.158 1193.1 563.645C1192.22 563.075 1191.23 562.734 1190.19 562.65C1189.16 562.567 1188.12 562.743 1187.17 563.164C1187.03 563.227 1186.52 562.052 1186.47 561.963C1186.07 561.403 1185.55 560.954 1184.94 560.655C1184.07 560.224 1183.12 560.002 1182.15 560.005C1181.05 559.962 1179.95 560.204 1178.96 560.708C1178.48 560.937 1178.06 561.273 1177.72 561.691C1177.38 562.11 1177.14 562.601 1177 563.129C1177.05 562.888 1175.2 562.808 1175.05 562.791C1174.55 562.737 1174.05 562.817 1173.6 563.022C1172.59 563.432 1171.75 564.21 1171.25 565.211C1170.82 566.137 1170.69 567.184 1170.88 568.193C1170.97 568.71 1171.16 569.205 1171.43 569.652C1171.96 570.313 1172.64 570.827 1173.41 571.15C1174.19 571.473 1175.02 571.594 1175.85 571.504Z" fill="#263238"/>
<path d="M1195.59 569.955L1198.58 568.371C1198.52 568.116 1198.39 567.88 1198.23 567.68C1198.06 567.48 1197.85 567.321 1197.62 567.214C1197.39 567.108 1197.14 567.056 1196.88 567.064C1196.63 567.071 1196.38 567.137 1196.15 567.257C1195.92 567.377 1195.72 567.548 1195.57 567.758C1195.41 567.967 1195.31 568.21 1195.25 568.468C1195.2 568.726 1195.2 568.994 1195.26 569.251C1195.32 569.508 1195.43 569.749 1195.59 569.955Z" fill="#263238"/>
<path d="M1155.84 646.878C1157.11 645.694 1157.65 644.902 1159.12 643.736C1159.89 643.126 1160.6 642.447 1161.26 641.707C1162.45 640.381 1163.58 635.779 1164.06 634.542L1170.42 638.316C1169.66 640.639 1167.37 647.065 1166.07 649.352C1162.8 655.137 1160.68 657.362 1157.91 657.077C1153.5 656.685 1153.04 654.514 1155.43 651.906C1156.45 650.824 1157.32 649.598 1158.01 648.266C1157.39 648.657 1156.73 648.957 1156.04 649.156C1155.67 649.281 1155.27 649.259 1154.92 649.094C1154.57 648.929 1154.3 648.634 1154.15 648.266C1154.04 647.99 1154.84 647.803 1155.84 646.878Z" fill="#FFA8A7"/>
<path d="M1173.08 597.696C1174.43 599.461 1175.44 601.488 1176.04 603.659C1176.64 606.516 1176.04 608.875 1175.77 614.339C1175.66 618.91 1175.21 623.465 1174.43 627.965C1173.83 630.973 1169.28 641.707 1169.28 641.707C1166.77 641.762 1164.3 641.044 1162.19 639.642L1165.83 625.936C1165.83 625.936 1166.04 613.859 1166.01 608.83C1166.01 603.036 1166.8 598.889 1173.08 597.696Z" fill="#37474F"/>
</svg>
