<svg width="110" height="94" viewBox="0 0 110 94" fill="none" xmlns="http://www.w3.org/2000/svg">
<path d="M67.2218 24.3392C67.6414 24.7245 68.1912 24.917 68.741 24.917C69.2908 24.917 69.8408 24.7245 70.2601 24.3392C71.0991 23.5689 71.0991 22.3198 70.2601 21.5493L70.2311 21.5227C69.3922 20.7524 68.0318 20.7524 67.1926 21.5227C66.3536 22.293 66.3536 23.5421 67.1926 24.3126L67.2218 24.3392Z" fill="#F7D8A4"/>
<path d="M101.882 43.0039L109.371 36.1282C109.985 35.564 110.169 34.7154 109.836 33.9784C109.504 33.2412 108.72 32.7607 107.851 32.7607H92.3287C90.2997 25.1344 86.0413 18.1853 79.9537 12.5956C71.1079 4.4732 59.3463 0 46.8359 0C34.3256 0 22.564 4.4732 13.718 12.5956C4.8718 20.718 0 31.5171 0 43.0039C0 54.4907 4.8718 65.29 13.718 73.4122C16.3485 75.8275 19.2384 77.9174 22.3276 79.6655L15.855 90.165C15.4786 90.7757 15.4838 91.5241 15.8688 92.1301C16.2536 92.7365 16.9602 93.1094 17.7246 93.1094H28.7891C29.5631 93.1094 30.2775 92.7271 30.6588 92.1085L35.2355 84.6844C38.9813 85.5569 42.8708 86.0078 46.8359 86.0078C50.8011 86.0078 54.6906 85.5569 58.4364 84.6844L63.013 92.1085C63.3944 92.7271 64.1087 93.1094 64.8828 93.1094H75.9473C76.7117 93.1094 77.4183 92.7365 77.8033 92.1303C78.1883 91.5241 78.1935 90.7757 77.8171 90.1652L71.3445 79.6657C74.4337 77.9174 77.3236 75.8277 79.9541 73.4124C86.0393 67.8251 90.2999 60.873 92.3287 53.2473H107.852C108.72 53.2473 109.504 52.7666 109.837 52.0296C110.169 51.2926 109.985 50.444 109.371 49.8798L101.882 43.0039ZM97.9539 41.0312H82.9602L87.6709 36.706H102.665L97.9539 41.0312ZM27.5363 89.1641H21.4094L26.0857 81.5786C27.6906 82.3081 29.3382 82.9533 31.0239 83.5069L27.5363 89.1641ZM72.2625 89.1641H66.1356L62.648 83.5069C64.3337 82.9533 65.9813 82.3081 67.5862 81.5786L72.2625 89.1641ZM76.9156 70.6225C74.0775 73.2283 70.9077 75.4184 67.4955 77.1642C67.4534 77.1829 67.4109 77.2007 67.3694 77.2222C67.3434 77.2358 67.3198 77.2514 67.2947 77.2658C64.6772 78.5879 61.919 79.6493 59.0571 80.4333C58.9445 80.4538 58.8332 80.4842 58.7235 80.5221C54.9091 81.5356 50.9169 82.0625 46.8359 82.0625C42.755 82.0625 38.7628 81.5356 34.9484 80.5222C34.8384 80.4844 34.7271 80.454 34.6143 80.4335C31.7526 79.6496 28.9945 78.5881 26.3772 77.266C26.3521 77.2516 26.3285 77.236 26.3025 77.2224C26.261 77.2009 26.2187 77.1831 26.1766 77.1644C22.7644 75.4186 19.5946 73.2285 16.7565 70.6225C8.7218 63.2453 4.29688 53.4369 4.29688 43.0039C4.29688 32.5709 8.7218 22.7625 16.7563 15.3853C24.7908 8.00819 35.4733 3.94531 46.8359 3.94531C58.1986 3.94531 68.8811 8.00819 76.9156 15.3853C82.1949 20.2327 85.9603 26.2042 87.8937 32.7607H86.7812C86.2114 32.7607 85.6649 32.9686 85.262 33.3385L79.5599 38.5741C78.9845 34.9876 77.7217 31.5004 75.8147 28.3289C75.2413 27.3751 73.9342 27.0291 72.8954 27.5554C71.8566 28.0819 71.4796 29.2821 72.053 30.2359C74.0925 33.6277 75.2318 37.3154 75.5234 41.0314H66.0505C65.5722 37.0356 63.6492 33.3339 60.5086 30.4503C56.8565 27.0968 52.0008 25.25 46.8359 25.25C41.6711 25.25 36.8154 27.0968 33.1635 30.4499C29.5114 33.8034 27.5 38.2616 27.5 43.0039C27.5 47.7462 29.5114 52.2046 33.1633 55.5577C36.8154 58.911 41.6711 60.7578 46.8359 60.7578C52.0008 60.7578 56.8565 58.911 60.5084 55.5579C63.649 52.6743 65.572 48.9726 66.0503 44.9766H75.5139C75.0015 51.1431 72.1675 57.1273 67.1928 61.6952C61.7553 66.688 54.5256 69.4375 46.8359 69.4375C39.1463 69.4375 31.9165 66.688 26.4791 61.6952C21.0414 56.7026 18.0469 50.0646 18.0469 43.0039C18.0469 35.9432 21.0414 29.3052 26.4791 24.3126C35.4986 16.031 49.5881 14.196 60.7419 19.8502C61.7805 20.3766 63.0876 20.0306 63.6612 19.0768C64.2346 18.123 63.8576 16.923 62.8188 16.3963C56.6646 13.2766 49.4181 12.0332 42.4149 12.896C35.1779 13.7873 28.6165 16.7703 23.4407 21.5229C17.1916 27.2607 13.75 34.8894 13.75 43.0039C13.75 51.1184 17.1916 58.7473 23.4405 64.485C29.6897 70.2228 37.9983 73.3828 46.8359 73.3828C55.6735 73.3828 63.9822 70.2228 70.2311 64.4851C75.309 59.823 78.5303 53.9364 79.5674 47.441L85.2618 52.6695C85.6646 53.0394 86.2112 53.2473 86.781 53.2473H87.893C85.9596 59.8034 82.1928 65.777 76.9156 70.6225ZM53.8527 39.2843C53.2596 38.3405 51.9456 38.0174 50.918 38.5623L45.7617 41.2956C45.097 41.6479 44.6875 42.2991 44.6875 43.0039C44.6875 43.7087 45.097 44.3599 45.7617 44.7122L50.918 47.4455C51.2563 47.6249 51.6257 47.7101 51.9903 47.7101C52.7328 47.7101 53.4548 47.3564 53.8527 46.7235C54.2014 46.1692 54.2214 45.5248 53.972 44.9766H61.7218C61.2666 47.9164 59.7977 50.631 57.4701 52.768C54.6296 55.3762 50.8531 56.8125 46.8359 56.8125C42.8188 56.8125 39.0423 55.3762 36.2016 52.768C33.3612 50.1599 31.7969 46.6924 31.7969 43.0039C31.7969 39.3154 33.3612 35.8479 36.2018 33.2397C39.0423 30.6316 42.8188 29.1953 46.8359 29.1953C50.8531 29.1953 54.6296 30.6316 57.4703 33.2398C59.7977 35.3768 61.2668 38.0914 61.722 41.0312H53.9722C54.2214 40.4829 54.2014 39.8386 53.8527 39.2843ZM87.6709 49.3018L82.9602 44.9766H97.9539L102.665 49.3018H87.6709Z" fill="#F7D8A4"/>
</svg>
