<svg width="42" height="58" viewBox="0 0 42 58" fill="none" xmlns="http://www.w3.org/2000/svg">
<path d="M21.4514 0.0120887C9.67282 -0.384857 0 9.04505 0 20.734C0 33.9997 12.7305 43.627 19.8659 57.4723C20.2282 58.1753 21.2401 58.1762 21.6037 57.4733C28.0587 45.0153 39.0912 36.6615 41.1357 24.6596C43.2527 12.24 34.0428 0.436589 21.4514 0.0120887ZM20.7338 31.5945C14.7358 31.5945 9.87327 26.7319 9.87327 20.734C9.87327 14.7361 14.7359 9.8735 20.7338 9.8735C26.7318 9.8735 31.5944 14.7361 31.5944 20.734C31.5944 26.7319 26.7318 31.5945 20.7338 31.5945Z" fill="white"/>
</svg>
