<svg width="445" height="394" viewBox="0 0 445 394" fill="none" xmlns="http://www.w3.org/2000/svg">
<path d="M267.427 275.193L308.981 296.43C309.265 296.554 309.577 296.619 309.894 296.619C310.21 296.619 310.522 296.554 310.806 296.43L345.133 278.85C345.243 278.816 345.338 278.752 345.406 278.668C345.473 278.584 345.51 278.484 345.51 278.381C345.51 278.278 345.473 278.177 345.406 278.093C345.338 278.009 345.243 277.946 345.133 277.912L303.579 256.683C303.297 256.555 302.984 256.488 302.667 256.488C302.35 256.488 302.037 256.555 301.754 256.683L267.427 274.263C267.316 274.295 267.219 274.357 267.151 274.441C267.082 274.524 267.045 274.625 267.045 274.728C267.045 274.832 267.082 274.932 267.151 275.016C267.219 275.099 267.316 275.162 267.427 275.193Z" fill="#B9A27B"/>
<path d="M267.427 275.193L308.981 296.43C309.265 296.554 309.577 296.619 309.894 296.619C310.21 296.619 310.522 296.554 310.806 296.43L345.133 278.85C345.243 278.816 345.338 278.752 345.406 278.668C345.473 278.584 345.51 278.484 345.51 278.381C345.51 278.278 345.473 278.177 345.406 278.093C345.338 278.009 345.243 277.946 345.133 277.912L303.579 256.683C303.297 256.555 302.984 256.488 302.667 256.488C302.35 256.488 302.037 256.555 301.754 256.683L267.427 274.263C267.316 274.295 267.219 274.357 267.151 274.441C267.082 274.524 267.045 274.625 267.045 274.728C267.045 274.832 267.082 274.932 267.151 275.016C267.219 275.099 267.316 275.162 267.427 275.193Z" fill="#B9A27B"/>
<path d="M155.973 231.057L80.3225 269.843L266.537 365.033L342.187 326.232L155.973 231.057Z" fill="#B9A27B"/>
<path d="M155.973 231.057L80.3225 269.843L266.537 365.033L342.187 326.232L155.973 231.057Z" fill="#B9A27B"/>
<path d="M316.288 57.0748C303.552 60.4869 279.798 76.6093 266.057 89.2095C244.394 95.2928 207.949 107.333 186.375 117.924L173.968 88.6106L155.617 45.2706C211.384 36.9414 256.436 34.7429 316.288 57.0748Z" fill="#FFC100"/>
<path opacity="0.15" d="M316.288 57.0748C303.552 60.4869 279.798 76.6093 266.057 89.2095C244.394 95.2928 207.949 107.333 186.375 117.924L173.968 88.6106L155.617 45.2706C211.384 36.9414 256.436 34.7429 316.288 57.0748Z" fill="black"/>
<path d="M316.288 57.0748C303.552 60.4869 279.798 76.6094 266.057 89.2095C233.127 54.6557 193.735 41.5355 159.835 44.8057C211.989 38.9824 264.748 42.6229 316.288 57.0748Z" fill="#EBEBEB"/>
<path opacity="0.15" d="M173.968 88.6185L177.751 97.5465C197.135 88.4215 224.859 79.2177 254.745 78.3824C271.77 67.0194 306.73 57.8077 316.288 57.1064C316.288 57.0749 254.22 48.5172 173.968 88.6185Z" fill="black"/>
<path d="M43.1917 147.742C55.3313 142.904 85.2264 141.194 104.913 142.715C125.748 134.685 162.256 122.487 186.375 117.924L173.968 88.6106L155.617 45.2706C107.405 71.4637 71.7073 96.073 43.1917 147.742Z" fill="#FFC100"/>
<path d="M43.1917 147.742C55.3313 142.904 85.2264 141.194 104.913 142.715C125.748 134.685 162.256 122.487 186.375 117.924L173.968 88.6106L155.617 45.2706C107.405 71.4637 71.7073 96.073 43.1917 147.742Z" fill="#EBEBEB"/>
<path d="M43.1917 147.742C55.3313 142.904 85.2264 141.194 104.913 142.715C104.023 97.515 123.995 64.7027 151.968 47.414C108.349 73.3943 71.2979 106.853 43.1917 147.742Z" fill="#FFC100"/>
<path opacity="0.15" d="M43.1917 147.742C55.3313 142.904 85.2264 141.194 104.913 142.715C104.023 97.515 123.995 64.7027 151.968 47.414C108.349 73.3943 71.2979 106.853 43.1917 147.742Z" fill="black"/>
<path opacity="0.15" d="M173.968 88.6185L177.751 97.5465C156.391 101.959 128.534 111.203 105.394 127.971C84.1228 129.319 50.9525 142.73 43.1917 147.742C43.1917 147.742 83.7223 105.119 173.968 88.6185Z" fill="black"/>
<path d="M162.122 52.2365L259.132 284.373C259.204 284.608 259.203 284.856 259.129 285.09C259.056 285.324 258.912 285.537 258.714 285.705C258.196 286.205 257.552 286.588 256.834 286.824C256.116 287.059 255.345 287.14 254.585 287.061C254.308 287.044 254.042 286.962 253.813 286.824C253.585 286.685 253.402 286.495 253.285 286.273L156.275 54.1356L162.122 52.2365Z" fill="#455A64"/>
<path d="M159.257 53.8756L158.705 53.9701L158.046 54.0726C157.857 54.0833 157.666 54.0833 157.477 54.0726C156.587 54.1198 156.809 53.7258 156.587 53.3712C156.284 52.5832 155.839 51.5352 155.314 50.2192C154.282 47.6267 152.964 44.1438 151.754 40.6214C151.149 38.8642 150.588 37.0912 150.09 35.4206C149.84 34.5853 149.573 33.7894 149.378 33.0093L148.781 30.8344C148.594 30.1646 148.461 29.5342 148.318 28.9905C148.176 28.4468 148.069 27.9504 147.989 27.5564C147.811 26.7684 147.731 26.2956 147.731 26.2956C147.731 26.2956 148.007 26.6896 148.452 27.3988C148.692 27.7534 148.959 28.1868 149.262 28.6753C149.565 29.1639 149.921 29.7312 150.268 30.3538C150.615 30.9763 151.015 31.6382 151.416 32.3395C151.816 33.0408 152.226 33.8052 152.653 34.5853C153.543 36.1613 154.379 37.8004 155.216 39.4867C156.898 42.8436 158.465 46.2477 159.586 48.8087L160.921 51.9213C161.01 52.3153 161.455 52.5123 160.761 52.9615C160.613 53.0714 160.458 53.174 160.298 53.2688L159.728 53.5682L159.257 53.8756Z" fill="#455A64"/>
<path d="M316.288 57.0748C299.788 57.784 274.77 62.189 253.161 71.4952C224.796 72.2044 190.958 86.2151 176.621 94.7885L155.617 45.2785C197.678 35.1448 256.436 34.7429 316.288 57.0748Z" fill="#FFC100"/>
<path d="M253.161 71.4952C224.796 72.2044 190.958 86.2151 176.621 94.7885L155.617 45.2785C175.739 42.552 200.25 49.3603 219.51 56.4917C231.115 60.7785 242.361 65.7923 253.161 71.4952Z" fill="#F0F0F0"/>
<path d="M43.3079 147.703C56.2663 138.633 78.3917 127.388 101.585 121.817C123.488 105.836 159.382 96.7034 176.585 94.7885L155.617 45.2785C116.404 62.1338 71.8235 96.0336 43.3079 147.703Z" fill="#F0F0F0"/>
<path d="M101.585 121.817C123.487 105.836 159.381 96.7034 176.585 94.7885L155.617 45.2785C138.431 54.9551 125.045 74.3163 115.798 90.9273C110.234 100.911 105.484 111.233 101.585 121.817Z" fill="#FFC100"/>
<path d="M155.617 45.2785C154.406 45.9562 153.142 46.6811 151.968 47.414C153.16 46.7048 154.415 45.9798 155.617 45.2785Z" fill="#EBEBEB"/>
<path d="M117.346 270.268L155.972 290.008L152.546 291.757L113.92 272.01L117.346 270.268Z" fill="#37474F"/>
<path d="M152.546 295.256L155.972 293.506L162.817 272.514L159.39 274.263L152.546 295.256Z" fill="#263238"/>
<path d="M113.92 272.01L117.346 270.268L111.481 246.266L108.055 248.023L113.92 272.01Z" fill="#263238"/>
<path d="M104.637 246.266L111.481 274.263L152.546 295.256L159.39 274.263L155.972 272.514L150.107 290.504L113.92 272.01L108.055 248.023L104.637 246.266Z" fill="#455A64"/>
<path d="M213.173 319.25L251.799 338.99L248.372 340.739L209.755 321L213.173 319.25Z" fill="#37474F"/>
<path d="M248.372 344.238L251.799 342.488L258.643 321.496L255.216 323.245L248.372 344.238Z" fill="#263238"/>
<path d="M209.746 321L213.173 319.25L207.308 295.256L203.881 297.005L209.746 321Z" fill="#263238"/>
<path d="M200.464 295.256L207.308 323.245L248.372 344.238L255.216 323.245L251.799 321.496L245.934 339.494L209.755 321L203.881 297.005L200.464 295.256Z" fill="#455A64"/>
<path d="M155.972 199.033L87.5226 234.036L275.758 330.259L344.199 295.271L155.972 199.033ZM94.34 234.036L155.946 202.516L321.966 287.384L260.361 318.904L94.34 234.036Z" fill="#455A64"/>
<path d="M87.5226 234.02V237.519L275.758 333.742V330.243L87.5226 234.02Z" fill="#37474F"/>
<path d="M344.199 295.256V298.754L275.758 333.742V330.243L344.199 295.256Z" fill="#263238"/>
<path d="M94.3667 234.02L155.973 202.532V206.03L97.7843 235.77L94.3667 234.02Z" fill="#263238"/>
<path d="M321.966 287.384L155.972 202.532V206.03L318.54 289.133L321.966 287.384Z" fill="#F0F0F0"/>
<path d="M168.869 271.174L228.65 240.616C228.912 240.462 229.129 240.255 229.284 240.013C229.439 239.771 229.526 239.499 229.54 239.221V237.582C229.525 237.304 229.437 237.033 229.282 236.791C229.128 236.549 228.911 236.342 228.65 236.187L216.786 230.096C216.503 229.972 216.19 229.907 215.874 229.907C215.557 229.907 215.245 229.972 214.962 230.096L155.18 260.655C154.919 260.811 154.703 261.019 154.548 261.263C154.394 261.506 154.305 261.778 154.29 262.057V263.688C154.304 263.967 154.392 264.238 154.546 264.48C154.701 264.723 154.918 264.929 155.18 265.083L167.044 271.151C167.324 271.282 167.636 271.353 167.953 271.357C168.27 271.361 168.584 271.299 168.869 271.174Z" fill="#EBEBEB"/>
<path d="M168.869 271.174L228.65 240.616C228.912 240.462 229.129 240.255 229.284 240.013C229.439 239.771 229.526 239.499 229.54 239.221V237.582C229.525 237.304 229.437 237.033 229.282 236.791C229.128 236.549 228.911 236.342 228.65 236.187L216.786 230.096C216.503 229.972 216.19 229.907 215.874 229.907C215.557 229.907 215.245 229.972 214.962 230.096L155.18 260.655C154.919 260.811 154.703 261.019 154.548 261.263C154.394 261.506 154.305 261.778 154.29 262.057V263.688C154.304 263.967 154.392 264.238 154.546 264.48C154.701 264.723 154.918 264.929 155.18 265.083L167.044 271.151C167.324 271.282 167.636 271.353 167.953 271.357C168.27 271.361 168.584 271.299 168.869 271.174Z" fill="#FFC100"/>
<path d="M155.18 261.616L167.044 267.684C167.326 267.812 167.639 267.878 167.956 267.878C168.274 267.878 168.586 267.812 168.869 267.684L228.65 237.125C229.157 236.873 229.157 236.455 228.65 236.195L216.786 230.096C216.503 229.972 216.19 229.907 215.874 229.907C215.557 229.907 215.245 229.972 214.962 230.096L155.18 260.655C155.053 260.675 154.938 260.734 154.855 260.822C154.773 260.91 154.727 261.021 154.727 261.135C154.727 261.25 154.773 261.361 154.855 261.448C154.938 261.536 155.053 261.596 155.18 261.616Z" fill="#FFC100"/>
<path opacity="0.5" d="M155.18 261.616L167.044 267.684C167.326 267.812 167.639 267.878 167.956 267.878C168.274 267.878 168.586 267.812 168.869 267.684L228.65 237.125C229.157 236.873 229.157 236.455 228.65 236.195L216.786 230.096C216.503 229.972 216.19 229.907 215.874 229.907C215.557 229.907 215.245 229.972 214.962 230.096L155.18 260.655C155.053 260.675 154.938 260.734 154.855 260.822C154.773 260.91 154.727 261.021 154.727 261.135C154.727 261.25 154.773 261.361 154.855 261.448C154.938 261.536 155.053 261.596 155.18 261.616Z" fill="white"/>
<path opacity="0.1" d="M167.961 267.873V271.371C167.65 271.371 167.345 271.303 167.071 271.174L155.207 265.107C154.944 264.952 154.726 264.744 154.571 264.501C154.416 264.257 154.329 263.984 154.317 263.704V262.073C154.333 261.824 154.407 261.581 154.534 261.359C154.661 261.136 154.839 260.94 155.056 260.781C154.726 261.041 154.789 261.38 155.225 261.608L167.089 267.676C167.355 267.806 167.656 267.874 167.961 267.873Z" fill="black"/>
<path d="M184.274 279.047L244.047 248.488C244.308 248.334 244.525 248.127 244.68 247.885C244.835 247.642 244.923 247.371 244.937 247.093V245.454C244.921 245.177 244.832 244.906 244.677 244.664C244.523 244.422 244.307 244.215 244.047 244.059L232.183 237.976C231.9 237.852 231.587 237.787 231.271 237.787C230.954 237.787 230.642 237.852 230.359 237.976L170.586 268.55C170.324 268.706 170.107 268.914 169.952 269.158C169.798 269.401 169.71 269.674 169.696 269.953V271.584C169.711 271.862 169.8 272.133 169.954 272.375C170.109 272.617 170.325 272.824 170.586 272.979L182.459 279.047C182.74 279.173 183.051 279.239 183.367 279.239C183.682 279.239 183.993 279.173 184.274 279.047Z" fill="#EBEBEB"/>
<path d="M184.274 279.047L244.047 248.488C244.308 248.334 244.525 248.127 244.68 247.885C244.835 247.642 244.923 247.371 244.937 247.093V245.454C244.921 245.177 244.832 244.906 244.677 244.664C244.523 244.422 244.307 244.215 244.047 244.059L232.183 237.976C231.9 237.852 231.587 237.787 231.271 237.787C230.954 237.787 230.642 237.852 230.359 237.976L170.586 268.55C170.324 268.706 170.107 268.914 169.952 269.158C169.798 269.401 169.71 269.674 169.696 269.953V271.584C169.711 271.862 169.8 272.133 169.954 272.375C170.109 272.617 170.325 272.824 170.586 272.979L182.459 279.047C182.74 279.173 183.051 279.239 183.367 279.239C183.682 279.239 183.993 279.173 184.274 279.047Z" fill="#FFC100"/>
<path d="M170.586 269.496L182.45 275.564C182.732 275.692 183.045 275.758 183.362 275.758C183.679 275.758 183.992 275.692 184.274 275.564L244.056 245.005C244.167 244.973 244.264 244.911 244.332 244.828C244.401 244.744 244.438 244.643 244.438 244.54C244.438 244.437 244.401 244.336 244.332 244.253C244.264 244.169 244.167 244.107 244.056 244.075L232.183 237.976C231.9 237.852 231.587 237.787 231.271 237.787C230.954 237.787 230.642 237.852 230.359 237.976L170.586 268.55C170.079 268.81 170.079 269.228 170.586 269.496Z" fill="#FFC100"/>
<path opacity="0.5" d="M170.586 269.496L182.45 275.564C182.732 275.692 183.045 275.758 183.362 275.758C183.679 275.758 183.992 275.692 184.274 275.564L244.056 245.005C244.167 244.973 244.264 244.911 244.332 244.828C244.401 244.744 244.438 244.643 244.438 244.54C244.438 244.437 244.401 244.336 244.332 244.253C244.264 244.169 244.167 244.107 244.056 244.075L232.183 237.976C231.9 237.852 231.587 237.787 231.271 237.787C230.954 237.787 230.642 237.852 230.359 237.976L170.586 268.55C170.079 268.81 170.079 269.228 170.586 269.496Z" fill="white"/>
<path opacity="0.1" d="M183.34 275.745V279.244C183.03 279.241 182.725 279.173 182.45 279.047L170.586 272.979C170.324 272.823 170.107 272.615 169.952 272.372C169.798 272.128 169.71 271.856 169.696 271.576V269.945C169.712 269.696 169.786 269.453 169.913 269.231C170.041 269.008 170.218 268.812 170.435 268.653C170.115 268.913 170.168 269.252 170.604 269.48L182.468 275.548C182.736 275.676 183.035 275.743 183.34 275.745Z" fill="black"/>
<path d="M199.671 286.919L259.453 256.36C259.714 256.205 259.93 255.998 260.085 255.756C260.239 255.514 260.328 255.243 260.343 254.965V253.326C260.326 253.049 260.237 252.778 260.083 252.536C259.929 252.294 259.713 252.087 259.453 251.931L247.58 245.856C247.297 245.732 246.984 245.667 246.668 245.667C246.351 245.667 246.039 245.732 245.756 245.856L186.01 276.423C185.748 276.578 185.531 276.786 185.376 277.03C185.221 277.273 185.134 277.546 185.12 277.825V279.456C185.134 279.734 185.222 280.005 185.377 280.248C185.532 280.49 185.748 280.697 186.01 280.851L197.874 286.919C198.153 287.043 198.46 287.107 198.773 287.107C199.085 287.107 199.393 287.043 199.671 286.919Z" fill="#EBEBEB"/>
<path d="M199.671 286.919L259.453 256.36C259.714 256.205 259.93 255.998 260.085 255.756C260.239 255.514 260.328 255.243 260.343 254.965V253.326C260.326 253.049 260.237 252.778 260.083 252.536C259.929 252.294 259.713 252.087 259.453 251.931L247.58 245.856C247.297 245.732 246.984 245.667 246.668 245.667C246.351 245.667 246.039 245.732 245.756 245.856L186.01 276.423C185.748 276.578 185.531 276.786 185.376 277.03C185.221 277.273 185.134 277.546 185.12 277.825V279.456C185.134 279.734 185.222 280.005 185.377 280.248C185.532 280.49 185.748 280.697 186.01 280.851L197.874 286.919C198.153 287.043 198.46 287.107 198.773 287.107C199.085 287.107 199.393 287.043 199.671 286.919Z" fill="#FFC100"/>
<path d="M186.01 277.376L197.874 283.444C198.15 283.565 198.455 283.628 198.764 283.628C199.072 283.628 199.377 283.565 199.654 283.444L259.435 252.885C259.546 252.853 259.643 252.791 259.712 252.708C259.78 252.624 259.817 252.523 259.817 252.42C259.817 252.317 259.78 252.216 259.712 252.132C259.643 252.049 259.546 251.987 259.435 251.955L247.58 245.856C247.297 245.732 246.984 245.667 246.668 245.667C246.351 245.667 246.039 245.732 245.756 245.856L186.01 276.423C185.476 276.683 185.476 277.1 186.01 277.376Z" fill="#FFC100"/>
<path opacity="0.5" d="M186.01 277.376L197.874 283.444C198.15 283.565 198.455 283.628 198.764 283.628C199.072 283.628 199.377 283.565 199.654 283.444L259.435 252.885C259.546 252.853 259.643 252.791 259.712 252.708C259.78 252.624 259.817 252.523 259.817 252.42C259.817 252.317 259.78 252.216 259.712 252.132C259.643 252.049 259.546 251.987 259.435 251.955L247.58 245.856C247.297 245.732 246.984 245.667 246.668 245.667C246.351 245.667 246.039 245.732 245.756 245.856L186.01 276.423C185.476 276.683 185.476 277.1 186.01 277.376Z" fill="white"/>
<path opacity="0.1" d="M198.764 283.617V287.116C198.453 287.115 198.148 287.047 197.874 286.919L186.01 280.851C185.747 280.696 185.53 280.488 185.375 280.244C185.22 280.001 185.133 279.728 185.12 279.448V277.817C185.136 277.568 185.211 277.324 185.34 277.101C185.469 276.879 185.648 276.682 185.868 276.525C185.538 276.785 185.592 277.124 186.037 277.352L197.9 283.42C198.165 283.549 198.462 283.617 198.764 283.617Z" fill="black"/>
<path d="M215.068 294.791L274.85 264.232C275.111 264.078 275.328 263.871 275.483 263.629C275.637 263.387 275.725 263.115 275.74 262.837V261.198C275.725 260.92 275.636 260.65 275.482 260.407C275.327 260.165 275.111 259.958 274.85 259.804L262.986 253.736C262.702 253.612 262.39 253.547 262.074 253.547C261.757 253.547 261.445 253.612 261.162 253.736L201.38 284.295C201.119 284.451 200.903 284.659 200.748 284.903C200.594 285.146 200.505 285.418 200.49 285.697V287.328C200.505 287.606 200.594 287.877 200.748 288.119C200.903 288.362 201.119 288.568 201.38 288.723L213.244 294.791C213.526 294.919 213.839 294.986 214.156 294.986C214.473 294.986 214.786 294.919 215.068 294.791Z" fill="#EBEBEB"/>
<path d="M215.068 294.791L274.85 264.232C275.111 264.078 275.328 263.871 275.483 263.629C275.637 263.387 275.725 263.115 275.74 262.837V261.198C275.725 260.92 275.636 260.65 275.482 260.407C275.327 260.165 275.111 259.958 274.85 259.804L262.986 253.736C262.702 253.612 262.39 253.547 262.074 253.547C261.757 253.547 261.445 253.612 261.162 253.736L201.38 284.295C201.119 284.451 200.903 284.659 200.748 284.903C200.594 285.146 200.505 285.418 200.49 285.697V287.328C200.505 287.606 200.594 287.877 200.748 288.119C200.903 288.362 201.119 288.568 201.38 288.723L213.244 294.791C213.526 294.919 213.839 294.986 214.156 294.986C214.473 294.986 214.786 294.919 215.068 294.791Z" fill="#FFC100"/>
<path d="M201.38 285.256L213.244 291.324C213.526 291.452 213.839 291.518 214.156 291.518C214.473 291.518 214.786 291.452 215.068 291.324L274.85 260.765C275.357 260.513 275.357 260.095 274.85 259.835L262.986 253.736C262.702 253.612 262.39 253.547 262.074 253.547C261.757 253.547 261.445 253.612 261.162 253.736L201.38 284.295C201.253 284.315 201.138 284.374 201.055 284.462C200.973 284.55 200.927 284.661 200.927 284.775C200.927 284.89 200.973 285 201.055 285.088C201.138 285.176 201.253 285.236 201.38 285.256Z" fill="#FFC100"/>
<path opacity="0.5" d="M201.38 285.256L213.244 291.324C213.526 291.452 213.839 291.518 214.156 291.518C214.473 291.518 214.786 291.452 215.068 291.324L274.85 260.765C275.357 260.513 275.357 260.095 274.85 259.835L262.986 253.736C262.702 253.612 262.39 253.547 262.074 253.547C261.757 253.547 261.445 253.612 261.162 253.736L201.38 284.295C201.253 284.315 201.138 284.374 201.055 284.462C200.973 284.55 200.927 284.661 200.927 284.775C200.927 284.89 200.973 285 201.055 285.088C201.138 285.176 201.253 285.236 201.38 285.256Z" fill="white"/>
<path opacity="0.1" d="M214.161 291.489V294.988C213.85 294.987 213.545 294.919 213.271 294.791L201.407 288.723C201.144 288.569 200.926 288.361 200.771 288.117C200.616 287.873 200.529 287.6 200.517 287.321V285.689C200.533 285.441 200.607 285.197 200.734 284.975C200.861 284.753 201.039 284.556 201.256 284.397C200.926 284.657 200.989 284.996 201.425 285.185L213.288 291.253C213.551 291.397 213.852 291.479 214.161 291.489Z" fill="black"/>
<path d="M230.51 302.663L290.282 272.104C290.544 271.95 290.761 271.743 290.915 271.501C291.07 271.259 291.158 270.988 291.172 270.71V269.07C291.157 268.793 291.069 268.522 290.915 268.28C290.76 268.037 290.543 267.831 290.282 267.676L278.383 261.616C278.1 261.492 277.787 261.427 277.471 261.427C277.154 261.427 276.842 261.492 276.559 261.616L216.777 292.175C216.516 292.331 216.3 292.539 216.145 292.783C215.991 293.026 215.902 293.298 215.887 293.577V295.208C215.902 295.486 215.991 295.757 216.145 295.999C216.3 296.242 216.516 296.448 216.777 296.603L228.65 302.671C228.938 302.803 229.257 302.871 229.581 302.87C229.905 302.868 230.224 302.797 230.51 302.663Z" fill="#EBEBEB"/>
<path d="M230.51 302.663L290.282 272.104C290.544 271.95 290.761 271.743 290.915 271.501C291.07 271.259 291.158 270.988 291.172 270.71V269.07C291.157 268.793 291.069 268.522 290.915 268.28C290.76 268.037 290.543 267.831 290.282 267.676L278.383 261.616C278.1 261.492 277.787 261.427 277.471 261.427C277.154 261.427 276.842 261.492 276.559 261.616L216.777 292.175C216.516 292.331 216.3 292.539 216.145 292.783C215.991 293.026 215.902 293.298 215.887 293.577V295.208C215.902 295.486 215.991 295.757 216.145 295.999C216.3 296.242 216.516 296.448 216.777 296.603L228.65 302.671C228.938 302.803 229.257 302.871 229.581 302.87C229.905 302.868 230.224 302.797 230.51 302.663Z" fill="#FFC100"/>
<path d="M216.777 293.136L228.65 299.204C228.927 299.325 229.231 299.388 229.54 299.388C229.849 299.388 230.153 299.325 230.43 299.204L290.202 268.645C290.71 268.393 290.71 267.975 290.202 267.715L278.383 261.616C278.099 261.492 277.787 261.427 277.471 261.427C277.154 261.427 276.842 261.492 276.559 261.616L216.777 292.175C216.65 292.195 216.535 292.254 216.452 292.342C216.37 292.43 216.324 292.541 216.324 292.655C216.324 292.77 216.37 292.881 216.452 292.968C216.535 293.056 216.65 293.116 216.777 293.136Z" fill="#FFC100"/>
<path opacity="0.5" d="M216.777 293.136L228.65 299.204C228.927 299.325 229.231 299.388 229.54 299.388C229.849 299.388 230.153 299.325 230.43 299.204L290.202 268.645C290.71 268.393 290.71 267.975 290.202 267.715L278.383 261.616C278.099 261.492 277.787 261.427 277.471 261.427C277.154 261.427 276.842 261.492 276.559 261.616L216.777 292.175C216.65 292.195 216.535 292.254 216.452 292.342C216.37 292.43 216.324 292.541 216.324 292.655C216.324 292.77 216.37 292.881 216.452 292.968C216.535 293.056 216.65 293.116 216.777 293.136Z" fill="white"/>
<path opacity="0.1" d="M229.558 299.361V302.86C229.247 302.858 228.942 302.791 228.668 302.663L216.804 296.595C216.541 296.441 216.323 296.233 216.168 295.989C216.013 295.745 215.926 295.472 215.914 295.193V293.562C215.93 293.313 216.004 293.07 216.131 292.847C216.258 292.625 216.436 292.428 216.653 292.269C216.323 292.529 216.386 292.868 216.822 293.097L228.685 299.164C228.953 299.293 229.253 299.36 229.558 299.361Z" fill="black"/>
<path d="M245.871 310.535L305.653 279.976C305.914 279.822 306.13 279.615 306.285 279.373C306.439 279.13 306.528 278.86 306.543 278.582V276.943C306.526 276.665 306.437 276.395 306.283 276.153C306.129 275.911 305.913 275.704 305.653 275.548L293.78 269.496C293.502 269.378 293.198 269.317 292.89 269.317C292.582 269.317 292.278 269.378 292 269.496L232.228 300.055C231.965 300.21 231.748 300.418 231.594 300.662C231.439 300.906 231.351 301.178 231.338 301.457V303.088C231.352 303.366 231.44 303.638 231.595 303.88C231.749 304.122 231.966 304.329 232.228 304.483L244.091 310.551C244.369 310.67 244.675 310.73 244.983 310.728C245.292 310.725 245.596 310.659 245.871 310.535Z" fill="#EBEBEB"/>
<path d="M245.871 310.535L305.653 279.976C305.914 279.822 306.13 279.615 306.285 279.373C306.439 279.13 306.528 278.86 306.543 278.582V276.943C306.526 276.665 306.437 276.395 306.283 276.153C306.129 275.911 305.913 275.704 305.653 275.548L293.78 269.496C293.502 269.378 293.198 269.317 292.89 269.317C292.582 269.317 292.278 269.378 292 269.496L232.228 300.055C231.965 300.21 231.748 300.418 231.594 300.662C231.439 300.906 231.351 301.178 231.338 301.457V303.088C231.352 303.366 231.44 303.638 231.595 303.88C231.749 304.122 231.966 304.329 232.228 304.483L244.091 310.551C244.369 310.67 244.675 310.73 244.983 310.728C245.292 310.725 245.596 310.659 245.871 310.535Z" fill="#FFC100"/>
<path d="M232.183 300.969L244.047 307.036C244.329 307.164 244.642 307.231 244.959 307.231C245.276 307.231 245.589 307.164 245.871 307.036L305.653 276.478C305.764 276.446 305.861 276.384 305.929 276.3C305.998 276.217 306.035 276.116 306.035 276.013C306.035 275.909 305.998 275.809 305.929 275.725C305.861 275.642 305.764 275.58 305.653 275.548L293.78 269.496C293.502 269.378 293.198 269.317 292.89 269.317C292.582 269.317 292.278 269.378 292 269.496L232.228 300.055C231.676 300.299 231.676 300.717 232.183 300.969Z" fill="#FFC100"/>
<path opacity="0.5" d="M232.183 300.969L244.047 307.036C244.329 307.164 244.642 307.231 244.959 307.231C245.276 307.231 245.589 307.164 245.871 307.036L305.653 276.478C305.764 276.446 305.861 276.384 305.929 276.3C305.998 276.217 306.035 276.116 306.035 276.013C306.035 275.909 305.998 275.809 305.929 275.725C305.861 275.642 305.764 275.58 305.653 275.548L293.78 269.496C293.502 269.378 293.198 269.317 292.89 269.317C292.582 269.317 292.278 269.378 292 269.496L232.228 300.055C231.676 300.299 231.676 300.717 232.183 300.969Z" fill="white"/>
<path opacity="0.1" d="M244.964 307.233V310.732C244.653 310.731 244.348 310.664 244.074 310.535L232.21 304.467C231.947 304.312 231.73 304.104 231.575 303.861C231.42 303.617 231.333 303.344 231.32 303.065V301.434C231.336 301.184 231.411 300.94 231.54 300.718C231.668 300.495 231.848 300.299 232.067 300.141C231.738 300.401 231.792 300.74 232.237 300.969L244.1 307.036C244.365 307.166 244.662 307.234 244.964 307.233Z" fill="black"/>
<path d="M261.268 318.407L321.05 287.849C321.311 287.694 321.528 287.488 321.683 287.245C321.837 287.003 321.925 286.732 321.94 286.454V284.815C321.925 284.537 321.836 284.266 321.682 284.024C321.527 283.782 321.311 283.575 321.05 283.42L309.186 277.376C308.908 277.258 308.604 277.197 308.296 277.197C307.988 277.197 307.684 277.258 307.406 277.376L247.625 307.935C247.363 308.091 247.147 308.299 246.992 308.543C246.838 308.786 246.75 309.058 246.735 309.337V310.968C246.75 311.246 246.838 311.517 246.993 311.759C247.147 312.002 247.364 312.208 247.625 312.363L259.488 318.431C259.767 318.549 260.073 318.608 260.382 318.604C260.69 318.6 260.994 318.532 261.268 318.407Z" fill="#EBEBEB"/>
<path d="M261.268 318.407L321.05 287.849C321.311 287.694 321.528 287.488 321.683 287.245C321.837 287.003 321.925 286.732 321.94 286.454V284.815C321.925 284.537 321.836 284.266 321.682 284.024C321.527 283.782 321.311 283.575 321.05 283.42L309.186 277.376C308.908 277.258 308.604 277.197 308.296 277.197C307.988 277.197 307.684 277.258 307.406 277.376L247.625 307.935C247.363 308.091 247.147 308.299 246.992 308.543C246.838 308.786 246.75 309.058 246.735 309.337V310.968C246.75 311.246 246.838 311.517 246.993 311.759C247.147 312.002 247.364 312.208 247.625 312.363L259.488 318.431C259.767 318.549 260.073 318.608 260.382 318.604C260.69 318.6 260.994 318.532 261.268 318.407Z" fill="#FFC100"/>
<path d="M247.58 308.841L259.444 314.908C259.726 315.036 260.039 315.103 260.356 315.103C260.673 315.103 260.986 315.036 261.268 314.908L321.05 284.35C321.557 284.098 321.557 283.68 321.05 283.42L309.186 277.376C308.908 277.258 308.604 277.197 308.296 277.197C307.988 277.197 307.684 277.258 307.406 277.376L247.625 307.935C247.521 307.967 247.43 308.026 247.364 308.104C247.299 308.183 247.261 308.277 247.256 308.374C247.251 308.472 247.28 308.568 247.337 308.652C247.395 308.735 247.48 308.801 247.58 308.841Z" fill="#FFC100"/>
<path opacity="0.5" d="M247.58 308.841L259.444 314.908C259.726 315.036 260.039 315.103 260.356 315.103C260.673 315.103 260.986 315.036 261.268 314.908L321.05 284.35C321.557 284.098 321.557 283.68 321.05 283.42L309.186 277.376C308.908 277.258 308.604 277.197 308.296 277.197C307.988 277.197 307.684 277.258 307.406 277.376L247.625 307.935C247.521 307.967 247.43 308.026 247.364 308.104C247.299 308.183 247.261 308.277 247.256 308.374C247.251 308.472 247.28 308.568 247.337 308.652C247.395 308.735 247.48 308.801 247.58 308.841Z" fill="white"/>
<path opacity="0.1" d="M260.361 315.105V318.604C260.05 318.603 259.745 318.536 259.471 318.407L247.607 312.34C247.344 312.185 247.126 311.977 246.971 311.733C246.816 311.489 246.729 311.216 246.717 310.937V309.306C246.733 309.057 246.807 308.814 246.934 308.591C247.061 308.369 247.239 308.172 247.456 308.013C247.126 308.273 247.189 308.612 247.625 308.841L259.488 314.908C259.755 315.039 260.056 315.107 260.361 315.105Z" fill="black"/>
<path d="M276.674 326.279L336.42 295.721C336.681 295.566 336.898 295.359 337.052 295.117C337.207 294.875 337.295 294.604 337.31 294.326V292.687C337.294 292.409 337.205 292.139 337.05 291.897C336.896 291.655 336.68 291.448 336.42 291.292L324.583 285.256C324.299 285.132 323.987 285.067 323.671 285.067C323.354 285.067 323.042 285.132 322.758 285.256L262.986 315.815C262.724 315.97 262.507 316.178 262.352 316.422C262.197 316.666 262.11 316.938 262.096 317.217V318.848C262.11 319.126 262.198 319.398 262.353 319.64C262.508 319.882 262.724 320.089 262.986 320.243L274.85 326.311C275.135 326.434 275.449 326.495 275.766 326.49C276.084 326.484 276.395 326.412 276.674 326.279Z" fill="#EBEBEB"/>
<path d="M276.674 326.279L336.42 295.721C336.681 295.566 336.898 295.359 337.052 295.117C337.207 294.875 337.295 294.604 337.31 294.326V292.687C337.294 292.409 337.205 292.139 337.05 291.897C336.896 291.655 336.68 291.448 336.42 291.292L324.583 285.256C324.299 285.132 323.987 285.067 323.671 285.067C323.354 285.067 323.042 285.132 322.758 285.256L262.986 315.815C262.724 315.97 262.507 316.178 262.352 316.422C262.197 316.666 262.11 316.938 262.096 317.217V318.848C262.11 319.126 262.198 319.398 262.353 319.64C262.508 319.882 262.724 320.089 262.986 320.243L274.85 326.311C275.135 326.434 275.449 326.495 275.766 326.49C276.084 326.484 276.395 326.412 276.674 326.279Z" fill="#FFC100"/>
<path d="M262.986 316.713L274.85 322.781C275.132 322.908 275.445 322.975 275.762 322.975C276.079 322.975 276.392 322.908 276.674 322.781L336.42 292.222C336.531 292.19 336.628 292.128 336.697 292.045C336.765 291.961 336.802 291.86 336.802 291.757C336.802 291.654 336.765 291.553 336.697 291.469C336.628 291.386 336.531 291.324 336.42 291.292L324.583 285.256C324.299 285.132 323.987 285.067 323.671 285.067C323.354 285.067 323.042 285.132 322.758 285.256L262.986 315.815C262.479 316.043 262.479 316.461 262.986 316.713Z" fill="#FFC100"/>
<path opacity="0.5" d="M262.986 316.713L274.85 322.781C275.132 322.908 275.445 322.975 275.762 322.975C276.079 322.975 276.392 322.908 276.674 322.781L336.42 292.222C336.531 292.19 336.628 292.128 336.697 292.045C336.765 291.961 336.802 291.86 336.802 291.757C336.802 291.654 336.765 291.553 336.697 291.469C336.628 291.386 336.531 291.324 336.42 291.292L324.583 285.256C324.299 285.132 323.987 285.067 323.671 285.067C323.354 285.067 323.042 285.132 322.758 285.256L262.986 315.815C262.479 316.043 262.479 316.461 262.986 316.713Z" fill="white"/>
<path opacity="0.1" d="M275.767 322.978V326.476C275.457 326.473 275.152 326.406 274.877 326.279L263.022 320.212C262.759 320.057 262.541 319.849 262.387 319.605C262.232 319.361 262.145 319.088 262.132 318.809V317.178C262.148 316.928 262.223 316.684 262.351 316.462C262.48 316.239 262.66 316.043 262.879 315.886C262.55 316.146 262.603 316.484 263.048 316.713L274.903 322.781C275.169 322.907 275.465 322.974 275.767 322.978Z" fill="black"/>
<path d="M175.425 177.604L116.732 207.607C115.927 208.018 115.652 208.929 116.116 209.641L149.998 261.602C150.463 262.314 151.492 262.558 152.296 262.147L210.99 232.144C211.794 231.732 212.07 230.821 211.605 230.109L177.723 178.149C177.259 177.437 176.23 177.193 175.425 177.604Z" fill="#FFC100"/>
<path opacity="0.1" d="M144.545 250.229C144.157 250.427 143.874 250.753 143.757 251.136C143.64 251.518 143.7 251.926 143.922 252.27L149.066 260.15C149.291 260.492 149.66 260.742 150.092 260.843C150.524 260.945 150.984 260.892 151.371 260.694L213.475 228.946C213.667 228.848 213.835 228.719 213.97 228.564C214.105 228.409 214.205 228.232 214.263 228.043C214.32 227.855 214.336 227.657 214.308 227.463C214.279 227.269 214.208 227.082 214.098 226.913L208.936 219.033C208.713 218.689 208.345 218.438 207.913 218.335C207.48 218.232 207.02 218.284 206.631 218.481L146.503 249.213L144.545 250.229Z" fill="black"/>
<path d="M214.098 226.944L208.936 219.064C208.713 218.721 208.345 218.47 207.913 218.366C207.481 218.263 207.02 218.315 206.631 218.512L147.962 248.512C147.77 248.609 147.602 248.74 147.467 248.896C147.332 249.051 147.233 249.229 147.176 249.419C147.119 249.609 147.105 249.806 147.134 250.001C147.164 250.195 147.237 250.383 147.348 250.552L152.493 258.432C152.602 258.602 152.749 258.751 152.924 258.871C153.099 258.99 153.299 259.078 153.513 259.128C153.726 259.179 153.949 259.191 154.168 259.165C154.387 259.139 154.598 259.075 154.789 258.976L213.475 228.977C213.667 228.88 213.835 228.75 213.97 228.595C214.105 228.44 214.205 228.264 214.263 228.075C214.32 227.886 214.336 227.689 214.308 227.495C214.279 227.301 214.208 227.114 214.098 226.944Z" fill="#FFC100"/>
<path opacity="0.5" d="M214.098 226.944L208.936 219.064C208.713 218.721 208.345 218.47 207.913 218.366C207.481 218.263 207.02 218.315 206.631 218.512L147.962 248.512C147.77 248.609 147.602 248.74 147.467 248.896C147.332 249.051 147.233 249.229 147.176 249.419C147.119 249.609 147.105 249.806 147.134 250.001C147.164 250.195 147.237 250.383 147.348 250.552L152.493 258.432C152.602 258.602 152.749 258.751 152.924 258.871C153.099 258.99 153.299 259.078 153.513 259.128C153.726 259.179 153.949 259.191 154.168 259.165C154.387 259.139 154.598 259.075 154.789 258.976L213.475 228.977C213.667 228.88 213.835 228.75 213.97 228.595C214.105 228.44 214.205 228.264 214.263 228.075C214.32 227.886 214.336 227.689 214.308 227.495C214.279 227.301 214.208 227.114 214.098 226.944Z" fill="white"/>
<path opacity="0.1" d="M136.909 238.528C136.716 238.625 136.546 238.755 136.411 238.911C136.275 239.066 136.176 239.244 136.119 239.434C136.062 239.624 136.048 239.822 136.078 240.017C136.108 240.212 136.182 240.399 136.295 240.569L141.439 248.449C141.549 248.618 141.695 248.767 141.87 248.887C142.045 249.006 142.245 249.094 142.458 249.145C142.671 249.197 142.894 249.21 143.113 249.185C143.332 249.16 143.543 249.097 143.735 249L205.848 217.252C206.234 217.052 206.516 216.726 206.631 216.343C206.746 215.961 206.685 215.554 206.462 215.211L201.3 207.331C201.077 206.989 200.71 206.74 200.279 206.638C199.849 206.536 199.39 206.59 199.004 206.787L138.876 237.519L136.909 238.528Z" fill="black"/>
<path d="M206.48 215.234L201.318 207.354C201.095 207.013 200.727 206.764 200.297 206.662C199.866 206.56 199.408 206.613 199.022 206.811L140.353 236.81C139.965 237.008 139.682 237.334 139.565 237.716C139.448 238.099 139.508 238.507 139.73 238.851L144.874 246.731C145.099 247.073 145.468 247.322 145.9 247.424C146.332 247.526 146.792 247.472 147.179 247.274L205.866 217.275C206.252 217.076 206.534 216.749 206.649 216.367C206.764 215.985 206.703 215.577 206.48 215.234Z" fill="#FFC100"/>
<path opacity="0.5" d="M206.48 215.234L201.318 207.354C201.095 207.013 200.727 206.764 200.297 206.662C199.866 206.56 199.408 206.613 199.022 206.811L140.353 236.81C139.965 237.008 139.682 237.334 139.565 237.716C139.448 238.099 139.508 238.507 139.73 238.851L144.874 246.731C145.099 247.073 145.468 247.322 145.9 247.424C146.332 247.526 146.792 247.472 147.179 247.274L205.866 217.275C206.252 217.076 206.534 216.749 206.649 216.367C206.764 215.985 206.703 215.577 206.48 215.234Z" fill="white"/>
<path opacity="0.1" d="M129.272 226.826C128.887 227.024 128.606 227.349 128.49 227.73C128.375 228.111 128.436 228.517 128.658 228.859L133.803 236.739C134.026 237.082 134.394 237.333 134.826 237.436C135.258 237.54 135.719 237.487 136.108 237.29L198.212 205.542C198.6 205.344 198.883 205.018 199 204.635C199.117 204.253 199.057 203.845 198.835 203.501L193.673 195.621C193.562 195.451 193.415 195.302 193.239 195.182C193.063 195.063 192.862 194.975 192.648 194.925C192.434 194.874 192.21 194.862 191.991 194.888C191.771 194.914 191.559 194.978 191.368 195.077L131.239 225.809L129.272 226.826Z" fill="black"/>
<path d="M198.835 203.533L193.673 195.653C193.562 195.482 193.415 195.333 193.239 195.214C193.063 195.094 192.862 195.007 192.648 194.956C192.434 194.906 192.21 194.893 191.991 194.919C191.771 194.946 191.559 195.01 191.368 195.109L132.699 225.069C132.507 225.166 132.338 225.297 132.204 225.453C132.069 225.608 131.97 225.786 131.913 225.976C131.856 226.166 131.841 226.363 131.871 226.558C131.901 226.752 131.973 226.94 132.085 227.109L137.229 234.989C137.339 235.159 137.485 235.308 137.66 235.428C137.835 235.547 138.035 235.635 138.248 235.686C138.461 235.738 138.684 235.751 138.903 235.726C139.122 235.701 139.334 235.638 139.525 235.541L198.212 205.542C198.59 205.344 198.867 205.024 198.983 204.649C199.099 204.274 199.046 203.873 198.835 203.533Z" fill="#FFC100"/>
<path opacity="0.7" d="M198.835 203.533L193.673 195.653C193.562 195.482 193.415 195.333 193.239 195.214C193.063 195.094 192.862 195.007 192.648 194.956C192.434 194.906 192.21 194.893 191.991 194.919C191.771 194.946 191.559 195.01 191.368 195.109L132.699 225.069C132.507 225.166 132.338 225.297 132.204 225.453C132.069 225.608 131.97 225.786 131.913 225.976C131.856 226.166 131.841 226.363 131.871 226.558C131.901 226.752 131.973 226.94 132.085 227.109L137.229 234.989C137.339 235.159 137.485 235.308 137.66 235.428C137.835 235.547 138.035 235.635 138.248 235.686C138.461 235.738 138.684 235.751 138.903 235.726C139.122 235.701 139.334 235.638 139.525 235.541L198.212 205.542C198.59 205.344 198.867 205.024 198.983 204.649C199.099 204.274 199.046 203.873 198.835 203.533Z" fill="white"/>
<path opacity="0.1" d="M129.272 226.826C128.887 227.024 128.606 227.349 128.49 227.73C128.375 228.111 128.436 228.517 128.658 228.859L133.803 236.739C134.026 237.082 134.394 237.333 134.826 237.436C135.258 237.54 135.719 237.487 136.108 237.29L198.212 205.542C198.6 205.344 198.883 205.018 199 204.635C199.117 204.253 199.057 203.845 198.835 203.501L193.673 195.621C193.562 195.451 193.415 195.302 193.239 195.182C193.063 195.063 192.862 194.975 192.648 194.925C192.434 194.874 192.21 194.862 191.991 194.888C191.771 194.914 191.559 194.978 191.368 195.077L131.239 225.809L129.272 226.826Z" fill="black"/>
<path d="M198.835 203.533L193.673 195.653C193.562 195.482 193.415 195.333 193.239 195.214C193.063 195.094 192.862 195.007 192.648 194.956C192.434 194.906 192.21 194.893 191.991 194.919C191.771 194.946 191.559 195.01 191.368 195.109L132.699 225.069C132.507 225.166 132.338 225.297 132.204 225.453C132.069 225.608 131.97 225.786 131.913 225.976C131.856 226.166 131.841 226.363 131.871 226.558C131.901 226.752 131.973 226.94 132.085 227.109L137.229 234.989C137.339 235.159 137.485 235.308 137.66 235.428C137.835 235.547 138.035 235.635 138.248 235.686C138.461 235.738 138.684 235.751 138.903 235.726C139.122 235.701 139.334 235.638 139.525 235.541L198.212 205.542C198.59 205.344 198.867 205.024 198.983 204.649C199.099 204.274 199.046 203.873 198.835 203.533Z" fill="#FFC100"/>
<path opacity="0.5" d="M198.835 203.533L193.673 195.653C193.562 195.482 193.415 195.333 193.239 195.214C193.063 195.094 192.862 195.007 192.648 194.956C192.434 194.906 192.21 194.893 191.991 194.919C191.771 194.946 191.559 195.01 191.368 195.109L132.699 225.069C132.507 225.166 132.338 225.297 132.204 225.453C132.069 225.608 131.97 225.786 131.913 225.976C131.856 226.166 131.841 226.363 131.871 226.558C131.901 226.752 131.973 226.94 132.085 227.109L137.229 234.989C137.339 235.159 137.485 235.308 137.66 235.428C137.835 235.547 138.035 235.635 138.248 235.686C138.461 235.738 138.684 235.751 138.903 235.726C139.122 235.701 139.334 235.638 139.525 235.541L198.212 205.542C198.59 205.344 198.867 205.024 198.983 204.649C199.099 204.274 199.046 203.873 198.835 203.533Z" fill="white"/>
<path opacity="0.1" d="M121.645 215.124C121.257 215.322 120.974 215.648 120.857 216.03C120.741 216.413 120.8 216.821 121.022 217.165L126.175 225.045C126.399 225.386 126.766 225.635 127.196 225.737C127.627 225.839 128.085 225.786 128.471 225.589L190.585 193.848C190.97 193.65 191.252 193.325 191.367 192.944C191.482 192.563 191.421 192.157 191.199 191.815L186.037 183.935C185.927 183.765 185.78 183.616 185.605 183.497C185.431 183.377 185.231 183.289 185.018 183.238C184.804 183.187 184.582 183.173 184.363 183.198C184.144 183.223 183.932 183.286 183.74 183.383L123.603 214.115L121.645 215.124Z" fill="black"/>
<path d="M191.199 191.831L186.037 183.951C185.927 183.781 185.78 183.632 185.605 183.512C185.431 183.393 185.231 183.305 185.018 183.254C184.804 183.203 184.582 183.189 184.363 183.214C184.144 183.239 183.932 183.302 183.74 183.399L125.063 213.398C124.677 213.598 124.395 213.924 124.28 214.307C124.165 214.689 124.226 215.096 124.449 215.439L129.593 223.319C129.703 223.489 129.851 223.638 130.027 223.758C130.203 223.877 130.404 223.965 130.618 224.015C130.832 224.066 131.055 224.078 131.275 224.052C131.495 224.026 131.706 223.962 131.898 223.863L190.585 193.848C190.965 193.65 191.243 193.328 191.358 192.951C191.473 192.573 191.416 192.171 191.199 191.831Z" fill="#FFC100"/>
<path opacity="0.7" d="M191.199 191.831L186.037 183.951C185.927 183.781 185.78 183.632 185.605 183.512C185.431 183.393 185.231 183.305 185.018 183.254C184.804 183.203 184.582 183.189 184.363 183.214C184.144 183.239 183.932 183.302 183.74 183.399L125.063 213.398C124.677 213.598 124.395 213.924 124.28 214.307C124.165 214.689 124.226 215.096 124.449 215.439L129.593 223.319C129.703 223.489 129.851 223.638 130.027 223.758C130.203 223.877 130.404 223.965 130.618 224.015C130.832 224.066 131.055 224.078 131.275 224.052C131.495 224.026 131.706 223.962 131.898 223.863L190.585 193.848C190.965 193.65 191.243 193.328 191.358 192.951C191.473 192.573 191.416 192.171 191.199 191.831Z" fill="white"/>
<path opacity="0.1" d="M121.645 215.124C121.257 215.322 120.974 215.648 120.857 216.03C120.741 216.413 120.8 216.821 121.022 217.165L126.175 225.045C126.399 225.386 126.766 225.635 127.196 225.737C127.627 225.839 128.085 225.786 128.471 225.589L190.585 193.848C190.97 193.65 191.252 193.325 191.367 192.944C191.482 192.563 191.421 192.157 191.199 191.815L186.037 183.935C185.927 183.765 185.78 183.616 185.605 183.497C185.431 183.377 185.231 183.289 185.018 183.238C184.804 183.187 184.582 183.173 184.363 183.198C184.144 183.223 183.932 183.286 183.74 183.383L123.603 214.115L121.645 215.124Z" fill="black"/>
<path d="M191.199 191.831L186.037 183.951C185.927 183.781 185.78 183.632 185.605 183.512C185.431 183.393 185.231 183.305 185.018 183.254C184.804 183.203 184.582 183.189 184.363 183.214C184.144 183.239 183.932 183.302 183.74 183.399L125.063 213.398C124.677 213.598 124.395 213.924 124.28 214.307C124.165 214.689 124.226 215.096 124.449 215.439L129.593 223.319C129.703 223.489 129.851 223.638 130.027 223.758C130.203 223.877 130.404 223.965 130.618 224.015C130.832 224.066 131.055 224.078 131.275 224.052C131.495 224.026 131.706 223.962 131.898 223.863L190.585 193.848C190.965 193.65 191.243 193.328 191.358 192.951C191.473 192.573 191.416 192.171 191.199 191.831Z" fill="#FFC100"/>
<path opacity="0.5" d="M191.199 191.831L186.037 183.951C185.927 183.781 185.78 183.632 185.605 183.512C185.431 183.393 185.231 183.305 185.018 183.254C184.804 183.203 184.582 183.189 184.363 183.214C184.144 183.239 183.932 183.302 183.74 183.399L125.063 213.398C124.677 213.598 124.395 213.924 124.28 214.307C124.165 214.689 124.226 215.096 124.449 215.439L129.593 223.319C129.703 223.489 129.851 223.638 130.027 223.758C130.203 223.877 130.404 223.965 130.618 224.015C130.832 224.066 131.055 224.078 131.275 224.052C131.495 224.026 131.706 223.962 131.898 223.863L190.585 193.848C190.965 193.65 191.243 193.328 191.358 192.951C191.473 192.573 191.416 192.171 191.199 191.831Z" fill="white"/>
<path d="M114.009 203.414C113.623 203.614 113.341 203.94 113.226 204.323C113.111 204.705 113.172 205.112 113.395 205.455L118.539 213.335C118.763 213.679 119.131 213.929 119.563 214.033C119.995 214.136 120.456 214.084 120.844 213.887L182.948 182.138C183.141 182.041 183.311 181.911 183.446 181.755C183.582 181.6 183.681 181.422 183.738 181.232C183.796 181.042 183.809 180.844 183.779 180.649C183.749 180.454 183.675 180.267 183.562 180.097L178.409 172.217C178.183 171.877 177.814 171.629 177.383 171.527C176.951 171.426 176.492 171.478 176.104 171.674L115.976 202.406L114.009 203.414Z" fill="#FFC100"/>
<path opacity="0.1" d="M114.009 203.414C113.623 203.614 113.341 203.94 113.226 204.323C113.111 204.705 113.172 205.112 113.395 205.455L118.539 213.335C118.763 213.679 119.131 213.929 119.563 214.033C119.995 214.136 120.456 214.084 120.844 213.887L182.948 182.138C183.141 182.041 183.311 181.911 183.446 181.755C183.582 181.6 183.681 181.422 183.738 181.232C183.796 181.042 183.809 180.844 183.779 180.649C183.749 180.454 183.675 180.267 183.562 180.097L178.409 172.217C178.183 171.877 177.814 171.629 177.383 171.527C176.951 171.426 176.492 171.478 176.104 171.674L115.976 202.406L114.009 203.414Z" fill="black"/>
<path d="M183.562 180.121L178.409 172.241C178.183 171.901 177.814 171.653 177.383 171.551C176.951 171.449 176.492 171.502 176.104 171.697L117.48 201.665C117.092 201.863 116.809 202.189 116.692 202.571C116.575 202.954 116.635 203.362 116.857 203.706L122.01 211.586C122.233 211.927 122.601 212.176 123.031 212.278C123.462 212.38 123.92 212.327 124.306 212.13L182.993 182.13C183.366 181.928 183.634 181.604 183.74 181.229C183.847 180.853 183.783 180.455 183.562 180.121Z" fill="#FFC100"/>
<path opacity="0.5" d="M183.562 180.121L178.409 172.241C178.183 171.901 177.814 171.653 177.383 171.551C176.951 171.449 176.492 171.502 176.104 171.697L117.48 201.665C117.092 201.863 116.809 202.189 116.692 202.571C116.575 202.954 116.635 203.362 116.857 203.706L122.01 211.586C122.233 211.927 122.601 212.176 123.031 212.278C123.462 212.38 123.92 212.327 124.306 212.13L182.993 182.13C183.366 181.928 183.634 181.604 183.74 181.229C183.847 180.853 183.783 180.455 183.562 180.121Z" fill="white"/>
<path d="M294.207 305.673C283.848 302.868 277.297 293.617 270.987 286.493C268.958 284.208 269.332 284.358 266.68 286.012C266.19 286.32 259.853 290.189 259.898 290.252C263.565 292.986 266.626 296.469 266.76 300.835C266.956 306.847 272.696 305.894 277.155 308.715C279.585 310.228 281.356 312.032 284.337 312.734C287.046 313.339 289.874 313.404 292.614 312.923C295.088 312.505 298.675 311.079 299.983 308.983C301.71 306.248 295.952 306.146 294.207 305.673Z" fill="#B16668"/>
<path d="M189.623 224.816C189.935 230.687 190.113 235.257 193.815 240.498C197.518 245.738 204.38 248.582 214.517 251.23C222.909 253.429 245.667 254.138 248.061 254.524C250.455 254.91 252.733 254.288 254.451 257.865C256.169 261.443 256.231 263.192 261.66 267.132C268.682 272.246 280.466 278.117 285.281 284.082C287.202 283.872 289.047 283.291 290.686 282.38C292.326 281.469 293.719 280.25 294.768 278.81C294.768 278.81 270.738 246.943 266.902 242.893C262.844 238.583 241.439 233.24 230.982 230.837C227.502 230.049 209.034 227.275 209.034 227.275L189.623 224.816Z" fill="#B16668"/>
<path d="M255.43 255.194C253.988 250.545 246.53 249.575 240.3 247.708C235.022 246.132 208.607 239.347 208.607 239.347C209.844 235.281 209.168 230.183 209.168 230.183L191.172 235.383C191.803 237.185 192.701 238.905 193.842 240.498C197.544 245.746 204.406 248.582 214.543 251.23C222.936 253.429 245.693 254.138 248.088 254.524C250.482 254.91 252.76 254.288 254.478 257.865C256.195 261.443 256.231 263.192 261.66 267.132C256.685 262.774 256.24 257.865 255.43 255.194Z" fill="#9A4A4D"/>
<path d="M275.143 291.198C274.096 292.639 272.703 293.859 271.064 294.77C269.424 295.681 267.578 296.261 265.656 296.469C260.841 290.504 249.058 284.649 242.036 279.519C236.615 275.579 236.526 273.775 234.827 270.245C233.127 266.714 230.875 267.297 228.445 266.903C226.015 266.509 203.525 265.044 194.901 263.618C187.238 262.349 181.854 260.048 177.252 255.399C176.763 254.902 176.309 254.398 175.873 253.87C173.319 250.789 171.663 246.991 169.999 240.403L200.019 230.884L209.15 228.024L209.373 227.961C209.354 228.842 209.271 229.721 209.123 230.592C208.435 234.232 207.239 237.781 205.563 241.16C205.563 241.16 241.911 249.504 247.313 255.257C251.078 259.331 275.143 291.198 275.143 291.198Z" fill="#B16668"/>
<path d="M313.832 293.286C303.463 290.48 296.922 281.229 290.603 274.106C288.574 271.821 288.947 271.97 286.295 273.625C285.806 273.932 279.469 277.802 279.513 277.865C283.18 280.599 286.242 284.082 286.375 288.447C286.571 294.46 292.32 293.506 296.779 296.327C299.2 297.84 300.971 299.645 303.953 300.354C306.666 300.954 309.495 301.016 312.239 300.535C314.704 300.118 318.291 298.691 319.599 296.595C321.335 293.861 315.567 293.759 313.832 293.286Z" fill="#B16668"/>
<path d="M168.477 192.887L160.574 195.779C160.574 195.779 165.309 197.89 165.558 206.811C165.665 210.948 164.232 214.013 161.108 217.512C161.108 225.47 170.008 240.403 170.008 240.403C170.008 240.403 178.828 243.776 193.806 238.772C206.97 234.375 209.043 227.275 209.043 227.275L199.075 224.068V216.763C198.265 211.423 196.955 206.151 195.159 201.003C193.434 196.56 191.09 192.325 188.182 188.395L181.56 189.695L168.477 192.887Z" fill="#B16668"/>
<path d="M164.196 241.018L162.817 219.151C162.817 219.151 171.868 200.341 160.574 195.779C149.894 199.537 149.128 204.226 149.128 214.777C149.128 226.117 151.095 244.564 152.546 250.647" fill="#B16668"/>
<path d="M164.196 241.018L159.808 239.883C159.808 239.883 141.012 229.718 136.748 226.936C136.218 226.585 135.783 226.133 135.475 225.613C135.167 225.094 134.994 224.52 134.968 223.934C134.684 220.963 133.58 219.308 132.557 216.708C131.756 214.667 132.014 213.359 131.417 213.312C130.643 213.241 129.059 213.721 128.676 215.597C128.527 216.956 128.563 218.327 128.783 219.679C127.408 217.834 126.231 215.879 125.268 213.84C122.722 208.702 118.201 206.748 116.368 213.69C115.228 218.016 116.02 222.468 122.215 229.308C125.09 232.46 141.021 244.083 144.892 246.731C148.764 249.378 153.552 251.758 157.147 252.68C160.743 253.602 164.997 252.065 164.196 241.018Z" fill="#B16668"/>
<path d="M150.187 234.627C150.187 234.627 156.969 238.141 160.574 242.767C160.574 242.767 158.981 237.298 150.134 233.035L150.187 234.611" fill="#9A4A4D"/>
<path d="M188.146 188.332C195.221 187.599 198.773 193.249 199.057 197.993C199.115 201.851 198.817 205.706 198.167 209.521L188.146 188.332Z" fill="#B16668"/>
<path d="M253.65 189.861C250.152 185.401 248.31 186.638 246.975 190.72C246.333 192.586 245.385 194.36 244.163 195.983C244.118 194.652 240.336 196.638 240.086 199.451C240.066 200.3 239.756 201.124 239.196 201.815C236.162 205.219 228.748 210.152 222.598 214.352C217.596 209.86 209.186 200.672 204.976 196.094C198.764 189.356 192.863 186.756 188.146 188.332C188.146 188.332 191.083 191.074 193.637 193.793C196.192 196.511 194.812 207.772 194.812 207.772C194.812 207.772 214.392 224.044 217.489 225.967C220.587 227.89 222.384 227.299 224.387 225.872C230.101 221.798 238.947 213.17 243.531 208.536C246.628 205.384 248.239 204.163 250.232 202.414C254.54 198.623 255.822 192.65 253.65 189.861Z" fill="#B16668"/>
<path d="M253.65 189.861C250.152 185.401 248.31 186.638 246.975 190.72C246.333 192.586 245.385 194.36 244.163 195.983C244.118 194.652 240.336 196.638 240.086 199.451C240.066 200.3 239.756 201.124 239.196 201.815C236.162 205.219 228.205 209.695 222.055 213.855C217.053 209.364 209.186 200.672 204.976 196.094C198.764 189.356 192.863 186.756 188.146 188.332C188.146 188.332 191.083 191.074 193.637 193.793C196.192 196.511 194.812 207.772 194.812 207.772C194.812 207.772 214.392 224.044 217.489 225.967C220.587 227.89 223.408 227.117 225.499 225.809C231.97 221.767 240.362 214.171 244.946 209.521C248.043 206.369 250.286 204.541 252.297 202.784C256.605 199.017 255.822 192.65 253.65 189.861Z" fill="#B16668"/>
<path d="M194.812 207.78L195.124 200.972C193.92 200.128 192.767 199.228 191.67 198.277C193.373 198.604 195.005 199.174 196.503 199.963C198.185 200.79 201.505 206.22 200.464 211.279C199.502 215.928 194.171 207.93 194.812 207.78Z" fill="#9A4A4D"/>
<path d="M169.99 240.403C169.99 240.403 173.701 241.814 180.376 241.451C181.507 240.403 181.489 239.552 178.596 239.489C170.764 239.316 168.459 233.8 166.946 229.931C165.785 226.442 164.893 222.888 164.276 219.293C164.97 217.346 165.264 212.358 165.264 212.358C164.962 214.88 162.834 219.151 162.834 219.151L163.101 226.243C165.013 231.102 167.315 235.835 169.99 240.403Z" fill="#9A4A4D"/>
<path d="M209.079 230.592C208.658 234.283 207.45 237.868 205.519 241.16C186.126 238.181 177.608 250.813 175.873 253.846C173.319 250.765 171.663 246.967 169.999 240.379C169.999 240.379 183.073 240.056 193.878 234.974C196.184 233.946 198.264 232.561 200.019 230.884C203.071 227.819 202.787 225.25 202.787 225.25L209.017 227.259C209.017 227.503 209.079 227.748 209.097 228C209.168 228.863 209.162 229.73 209.079 230.592Z" fill="#37474F"/>
<path d="M200.971 205.069C199.633 203.132 197.56 201.68 195.124 200.971C193.811 201.866 192.713 202.983 191.894 204.258C191.075 205.532 190.551 206.939 190.353 208.394C189.991 211.276 190.479 214.192 191.768 216.858L189.944 217.646C188.627 213.926 184.301 207.402 173.924 208.253C168.584 214.115 168.913 219.813 169.821 223.067C167.61 223.435 165.355 223.552 163.11 223.414L163.315 226.629C166.483 227.039 170.666 226.164 171.583 225.959C174.511 226.432 186.562 227.834 190.273 219.332L192.543 218.363C192.543 218.363 197.055 219.206 199.048 217.575C199.057 217.559 205.483 212.216 200.971 205.069Z" fill="#37474F"/>
<path d="M178.89 149.61C176.811 147.771 174.292 146.368 171.52 145.504C168.747 144.641 165.792 144.34 162.87 144.622C151.896 145.733 143.993 154.866 145.301 164.96L145.355 165.488C145.722 168.819 147.242 171.969 149.706 174.507C152.17 177.046 155.459 178.849 159.123 179.672C160.289 181.311 162.621 184.471 164.401 184.589L164.08 181.996C166.697 182.855 169.507 183.147 172.277 182.848L175.481 182.564C185.271 181.705 193.281 173.896 192.302 165.275L192.187 164.266C191.35 157.379 185.449 151.942 178.89 149.61Z" fill="#263238"/>
<path d="M162.452 153.187C156.409 158.451 158.197 166.78 158.197 166.78C158.616 159.688 163.199 153.699 169.056 151.249C174.912 148.798 178.765 149.562 178.89 149.594C177.439 148.333 169.848 146.749 162.452 153.187Z" fill="#FFC100"/>
<path d="M183.482 156.442C185.965 157.435 189.499 162.336 190.602 173.234C191.492 182.469 188.44 185.054 186.829 185.897C185.218 186.74 181.907 186.685 178.667 186.496L179.237 190.988C179.237 190.988 185.36 195.448 185.405 198.009C185.449 200.57 178.427 202.429 174.013 200.373C170.882 198.747 168.049 196.709 165.611 194.329L163.991 181.098C163.991 181.098 162.327 182.887 158.847 180.751C155.972 178.986 154.664 175.653 156.471 173.62C156.945 173.132 157.543 172.75 158.216 172.507C158.889 172.264 159.618 172.166 160.342 172.222C161.066 172.277 161.765 172.484 162.381 172.826C162.997 173.168 163.512 173.635 163.885 174.187C163.885 174.187 168.966 173.849 175.294 169.901C177.758 168.385 179.783 166.376 181.205 164.038C182.628 161.699 183.408 159.097 183.482 156.442Z" fill="#B16668"/>
<path d="M178.676 172.068C178.708 172.221 178.706 172.378 178.669 172.531C178.632 172.683 178.562 172.827 178.462 172.955C178.362 173.084 178.234 173.193 178.086 173.277C177.938 173.362 177.773 173.419 177.6 173.447C177.247 173.49 176.89 173.408 176.605 173.219C176.32 173.03 176.13 172.75 176.078 172.438C176.042 172.284 176.043 172.125 176.078 171.971C176.114 171.818 176.185 171.672 176.286 171.542C176.387 171.413 176.516 171.304 176.666 171.22C176.816 171.136 176.984 171.08 177.159 171.055C177.334 171.03 177.514 171.037 177.686 171.074C177.858 171.112 178.02 171.181 178.162 171.275C178.303 171.37 178.422 171.489 178.51 171.625C178.599 171.761 178.655 171.912 178.676 172.068Z" fill="#263238"/>
<path d="M180.011 179.845L183.162 180.397C183.13 180.582 183.056 180.76 182.945 180.92C182.834 181.079 182.687 181.218 182.515 181.326C182.342 181.435 182.147 181.512 181.94 181.553C181.733 181.593 181.519 181.597 181.311 181.563C180.886 181.48 180.514 181.255 180.272 180.935C180.03 180.615 179.937 180.225 180.011 179.845Z" fill="#9A4A4D"/>
<path d="M188.956 167.45L186.108 166.087C186.199 165.918 186.327 165.767 186.485 165.644C186.644 165.52 186.829 165.426 187.03 165.368C187.23 165.31 187.442 165.288 187.652 165.305C187.863 165.321 188.067 165.376 188.253 165.464C188.633 165.654 188.917 165.965 189.048 166.334C189.179 166.703 189.146 167.102 188.956 167.45Z" fill="#263238"/>
<path d="M188.68 170.208C188.711 170.435 188.667 170.665 188.552 170.87C188.437 171.074 188.256 171.244 188.033 171.359C187.81 171.474 187.553 171.528 187.295 171.514C187.038 171.501 186.79 171.421 186.583 171.284C186.377 171.147 186.22 170.959 186.133 170.744C186.046 170.529 186.032 170.295 186.093 170.073C186.154 169.851 186.288 169.65 186.477 169.495C186.667 169.339 186.903 169.237 187.158 169.199C187.333 169.177 187.511 169.185 187.682 169.224C187.853 169.263 188.014 169.331 188.155 169.424C188.296 169.518 188.415 169.636 188.506 169.77C188.596 169.904 188.655 170.053 188.68 170.208Z" fill="#263238"/>
<path d="M182.646 169.57L183.527 177.127L187.523 175.582L182.646 169.57Z" fill="#9A4A4D"/>
<path d="M178.65 186.496C175.259 186.441 168.157 185.369 166.777 183.06C167.358 184.24 168.337 185.231 169.581 185.897C171.832 187.26 178.89 188.332 178.89 188.332L178.65 186.496Z" fill="#9A4A4D"/>
<path d="M184.622 170.57C184.429 170.41 184.197 170.29 183.944 170.222C183.691 170.154 183.423 170.138 183.162 170.176C182.325 170.334 181.115 171.618 181.115 171.618L180.225 170.783C180.893 169.981 181.826 169.384 182.895 169.073C183.625 168.927 184.39 169.028 185.04 169.357L184.622 170.57Z" fill="#263238"/>
<path d="M181.106 168.632C179.647 166.961 178.027 166.607 174.2 166.954C170.373 167.3 168.406 168.317 167.694 170.539C167.509 171.391 167.533 172.268 167.765 173.11C167.997 173.953 168.432 174.741 169.039 175.421C169.646 176.102 170.412 176.659 171.284 177.053C172.156 177.448 173.114 177.672 174.093 177.71C179.344 177.899 181.213 174.692 181.622 172.793C181.934 171.185 181.872 169.491 181.106 168.632Z" fill="#FFC100"/>
<path d="M174.538 176.654H174.137C173.306 176.642 172.489 176.458 171.752 176.118C171.015 175.777 170.378 175.289 169.892 174.692C169.427 174.143 169.093 173.516 168.91 172.85C168.726 172.184 168.697 171.491 168.824 170.815C169.296 169.365 170.399 168.325 174.324 167.97C175.17 167.899 175.873 167.86 176.46 167.86C178.57 167.86 179.362 168.333 180.172 169.255C180.554 169.696 180.795 170.901 180.465 172.596C180.332 173.281 179.415 176.662 174.538 176.662V176.654Z" fill="#263238"/>
<path d="M184.23 168.719C184.185 167.04 186.01 164.984 189.205 164.345C191.786 163.833 194.376 165.015 194.679 167.119C195.061 169.704 194.581 172.801 190.843 173.722C187.585 174.534 184.177 172.808 184.23 168.719Z" fill="#FFC100"/>
<path d="M189.294 172.879C188.8 172.888 188.31 172.808 187.851 172.646C187.392 172.484 186.975 172.241 186.624 171.934C186.193 171.498 185.865 170.991 185.658 170.442C185.452 169.892 185.372 169.312 185.423 168.734C185.423 167.458 186.9 165.874 189.481 165.362C189.791 165.299 190.107 165.268 190.424 165.267C191.777 165.267 193.326 165.89 193.531 167.253C193.976 170.279 192.97 172.123 190.549 172.722C190.14 172.823 189.718 172.876 189.294 172.879Z" fill="#263238"/>
<path d="M247.598 173.36C247.295 172.387 246.652 171.524 245.762 170.894C244.872 170.265 243.779 169.9 242.641 169.853C242.078 169.845 241.523 169.967 241.03 170.208C240.645 170.41 240.274 170.631 239.917 170.87C239.454 171.218 239.116 171.68 238.947 172.197C238.778 172.714 238.784 173.264 238.965 173.778C239.271 174.75 239.915 175.613 240.807 176.243C241.699 176.872 242.792 177.237 243.931 177.284C244.726 177.301 245.499 177.051 246.094 176.583C246.739 176.294 247.246 175.81 247.522 175.219C247.798 174.627 247.825 173.968 247.598 173.36Z" fill="#FFC100"/>
<path opacity="0.15" d="M246.913 173.801C247.072 174.211 247.116 174.649 247.039 175.077C246.963 175.505 246.769 175.91 246.474 176.256C246.18 176.602 245.794 176.879 245.351 177.063C244.907 177.246 244.42 177.33 243.931 177.308C242.792 177.26 241.699 176.896 240.807 176.266C239.915 175.637 239.271 174.774 238.965 173.801C238.807 173.391 238.765 172.953 238.843 172.526C238.921 172.098 239.116 171.694 239.411 171.349C239.706 171.003 240.092 170.727 240.536 170.545C240.98 170.363 241.467 170.279 241.955 170.303C243.092 170.35 244.183 170.714 245.073 171.342C245.963 171.97 246.607 172.831 246.913 173.801Z" fill="black"/>
<path d="M241.813 178.269C241.617 177.867 243.593 177.103 243.771 177.481L243.344 176.599C243.139 176.197 241.181 176.961 241.377 177.387L241.813 178.269Z" fill="#FFC100"/>
<path opacity="0.3" d="M241.813 178.269C241.617 177.867 243.593 177.103 243.771 177.481L243.344 176.599C243.139 176.197 241.181 176.961 241.377 177.387L241.813 178.269Z" fill="black"/>
<path d="M240.976 183.643C240.14 181.989 248.177 178.837 248.986 180.491L247.206 176.874C246.379 175.22 238.306 178.364 239.196 180.026L240.976 183.643Z" fill="#FFC100"/>
<path d="M250.766 179.853C249.556 177.426 237.817 182.02 239.027 184.447C240.238 188.387 250.277 212.358 250.277 212.358L265.977 206.054L250.766 179.853Z" fill="#FAFAFA"/>
<path d="M253.997 202.997C255.467 202.997 256.658 201.942 256.658 200.641C256.658 199.339 255.467 198.284 253.997 198.284C252.527 198.284 251.336 199.339 251.336 200.641C251.336 201.942 252.527 202.997 253.997 202.997Z" fill="#FFC100"/>
<path d="M253.997 197.142C253.858 197.142 253.724 197.093 253.626 197.006C253.527 196.918 253.472 196.8 253.472 196.677V195.503C253.472 195.38 253.527 195.261 253.626 195.174C253.724 195.087 253.858 195.038 253.997 195.038C254.136 195.038 254.27 195.087 254.368 195.174C254.467 195.261 254.522 195.38 254.522 195.503V196.677C254.522 196.8 254.467 196.918 254.368 197.006C254.27 197.093 254.136 197.142 253.997 197.142Z" fill="#FFC100"/>
<path d="M256.24 197.67C256.146 197.673 256.053 197.651 255.973 197.607C255.853 197.544 255.765 197.442 255.728 197.323C255.691 197.204 255.709 197.076 255.777 196.968L256.445 195.952C256.525 195.867 256.637 195.809 256.76 195.791C256.884 195.772 257.011 195.793 257.119 195.851C257.226 195.908 257.307 195.997 257.347 196.102C257.386 196.208 257.382 196.322 257.335 196.425L256.676 197.441C256.631 197.509 256.567 197.565 256.491 197.605C256.415 197.645 256.328 197.667 256.24 197.67Z" fill="#FFC100"/>
<path d="M257.877 199.128C257.759 199.132 257.642 199.1 257.547 199.037C257.451 198.975 257.382 198.886 257.351 198.784C257.32 198.683 257.329 198.575 257.376 198.478C257.423 198.382 257.506 198.302 257.611 198.253L258.759 197.662C258.88 197.602 259.024 197.586 259.159 197.618C259.294 197.651 259.409 197.729 259.479 197.835C259.516 197.888 259.539 197.947 259.549 198.008C259.559 198.069 259.554 198.132 259.536 198.192C259.518 198.251 259.486 198.307 259.442 198.355C259.399 198.404 259.345 198.444 259.284 198.474L258.136 199.065C258.057 199.105 257.968 199.126 257.877 199.128Z" fill="#FFC100"/>
<path d="M259.8 201.105H258.474C258.405 201.107 258.336 201.095 258.271 201.072C258.207 201.049 258.149 201.015 258.1 200.972C258.051 200.928 258.012 200.877 257.986 200.82C257.96 200.763 257.947 200.702 257.949 200.641C257.948 200.579 257.96 200.518 257.986 200.46C258.012 200.403 258.05 200.351 258.099 200.307C258.148 200.263 258.206 200.228 258.271 200.204C258.335 200.18 258.404 200.168 258.474 200.168H259.8C259.87 200.168 259.939 200.18 260.004 200.204C260.069 200.228 260.128 200.262 260.177 200.306C260.227 200.35 260.266 200.402 260.293 200.46C260.32 200.517 260.334 200.578 260.334 200.641C260.334 200.702 260.32 200.763 260.293 200.82C260.266 200.877 260.227 200.929 260.177 200.972C260.127 201.015 260.068 201.049 260.004 201.072C259.939 201.095 259.87 201.107 259.8 201.105Z" fill="#FFC100"/>
<path d="M258.99 203.674C258.896 203.676 258.804 203.654 258.723 203.611L257.575 203.028C257.455 202.966 257.367 202.864 257.33 202.744C257.293 202.625 257.311 202.498 257.379 202.39C257.413 202.336 257.459 202.289 257.514 202.252C257.569 202.214 257.632 202.186 257.699 202.17C257.766 202.154 257.836 202.15 257.905 202.158C257.974 202.166 258.04 202.186 258.1 202.217L259.257 202.8C259.317 202.831 259.369 202.872 259.411 202.921C259.453 202.969 259.483 203.025 259.5 203.084C259.518 203.144 259.522 203.206 259.512 203.266C259.502 203.327 259.479 203.385 259.444 203.438C259.399 203.51 259.333 203.57 259.254 203.611C259.174 203.653 259.083 203.675 258.99 203.674Z" fill="#FFC100"/>
<path d="M256.898 205.558C256.806 205.556 256.716 205.534 256.636 205.492C256.557 205.451 256.491 205.392 256.445 205.321L255.777 204.305C255.709 204.197 255.691 204.07 255.728 203.95C255.765 203.831 255.853 203.729 255.973 203.666C256.033 203.636 256.099 203.616 256.168 203.608C256.237 203.6 256.307 203.604 256.374 203.62C256.441 203.636 256.504 203.664 256.559 203.701C256.614 203.739 256.66 203.786 256.694 203.84L257.361 204.856C257.429 204.964 257.447 205.092 257.41 205.211C257.374 205.33 257.286 205.432 257.166 205.495C257.083 205.534 256.992 205.555 256.898 205.558Z" fill="#FFC100"/>
<path d="M253.997 206.243C253.928 206.244 253.859 206.233 253.795 206.21C253.731 206.187 253.672 206.153 253.623 206.109C253.574 206.066 253.536 206.014 253.51 205.957C253.484 205.901 253.471 205.84 253.472 205.778V204.604C253.472 204.481 253.527 204.363 253.626 204.275C253.724 204.188 253.858 204.139 253.997 204.139C254.136 204.139 254.27 204.188 254.368 204.275C254.467 204.363 254.522 204.481 254.522 204.604V205.778C254.523 205.84 254.511 205.901 254.485 205.957C254.459 206.014 254.42 206.066 254.371 206.109C254.322 206.153 254.264 206.187 254.199 206.21C254.135 206.233 254.066 206.244 253.997 206.243Z" fill="#FFC100"/>
<path d="M251.096 205.558C251.002 205.555 250.911 205.534 250.829 205.495C250.769 205.464 250.717 205.423 250.675 205.374C250.633 205.325 250.603 205.269 250.585 205.21C250.568 205.151 250.564 205.089 250.574 205.028C250.583 204.967 250.607 204.909 250.642 204.856L251.3 203.84C251.327 203.776 251.369 203.718 251.424 203.67C251.479 203.622 251.544 203.586 251.617 203.563C251.689 203.54 251.767 203.532 251.843 203.538C251.92 203.545 251.994 203.566 252.06 203.6C252.126 203.635 252.183 203.682 252.226 203.738C252.27 203.794 252.299 203.858 252.311 203.926C252.324 203.993 252.319 204.062 252.298 204.127C252.278 204.193 252.241 204.253 252.19 204.305L251.523 205.321C251.479 205.389 251.417 205.446 251.343 205.487C251.268 205.528 251.183 205.552 251.096 205.558Z" fill="#FFC100"/>
<path d="M248.969 203.674C248.854 203.673 248.742 203.639 248.652 203.576C248.561 203.514 248.496 203.426 248.467 203.328C248.437 203.23 248.445 203.125 248.489 203.031C248.533 202.937 248.611 202.859 248.711 202.808L249.859 202.217C249.919 202.186 249.985 202.166 250.054 202.158C250.123 202.15 250.193 202.154 250.26 202.17C250.327 202.186 250.39 202.214 250.445 202.252C250.5 202.289 250.545 202.336 250.58 202.39C250.648 202.498 250.665 202.625 250.629 202.744C250.592 202.864 250.504 202.966 250.384 203.028L249.236 203.611C249.156 203.655 249.063 203.677 248.969 203.674Z" fill="#FFC100"/>
<path d="M249.52 201.105H248.194C248.125 201.107 248.056 201.095 247.992 201.072C247.928 201.049 247.869 201.015 247.82 200.972C247.771 200.928 247.733 200.877 247.707 200.82C247.681 200.763 247.668 200.702 247.669 200.641C247.668 200.579 247.681 200.518 247.707 200.46C247.732 200.403 247.771 200.351 247.82 200.307C247.869 200.263 247.927 200.228 247.991 200.204C248.056 200.18 248.125 200.168 248.194 200.168H249.52C249.59 200.168 249.659 200.18 249.723 200.204C249.788 200.228 249.846 200.263 249.895 200.307C249.944 200.351 249.982 200.403 250.008 200.46C250.034 200.518 250.047 200.579 250.046 200.641C250.047 200.702 250.034 200.763 250.008 200.82C249.982 200.877 249.943 200.928 249.894 200.972C249.845 201.015 249.787 201.049 249.723 201.072C249.659 201.095 249.59 201.107 249.52 201.105Z" fill="#FFC100"/>
<path d="M250.09 199.128C249.999 199.126 249.911 199.105 249.832 199.065L248.684 198.474C248.622 198.444 248.568 198.404 248.525 198.355C248.482 198.307 248.45 198.251 248.432 198.192C248.413 198.132 248.409 198.069 248.419 198.008C248.428 197.947 248.452 197.888 248.488 197.835C248.559 197.729 248.674 197.651 248.809 197.618C248.943 197.586 249.087 197.602 249.209 197.662L250.357 198.253C250.462 198.302 250.544 198.382 250.592 198.478C250.639 198.575 250.648 198.683 250.617 198.784C250.586 198.886 250.517 198.975 250.421 199.037C250.325 199.1 250.209 199.132 250.09 199.128Z" fill="#FFC100"/>
<path d="M251.763 197.67C251.67 197.671 251.578 197.651 251.497 197.611C251.416 197.571 251.348 197.512 251.3 197.441L250.642 196.425C250.593 196.373 250.558 196.313 250.538 196.248C250.519 196.183 250.515 196.116 250.528 196.05C250.541 195.984 250.569 195.921 250.612 195.865C250.655 195.81 250.71 195.763 250.775 195.729C250.84 195.694 250.913 195.673 250.988 195.665C251.064 195.658 251.14 195.665 251.212 195.686C251.283 195.708 251.349 195.742 251.404 195.788C251.46 195.834 251.503 195.89 251.532 195.952L252.199 196.968C252.234 197.022 252.257 197.08 252.266 197.141C252.275 197.202 252.27 197.264 252.252 197.324C252.234 197.383 252.202 197.439 252.16 197.487C252.117 197.536 252.064 197.576 252.003 197.607C251.932 197.647 251.848 197.669 251.763 197.67Z" fill="#FFC100"/>
<path d="M240.772 189.12C241.028 188.38 241.479 187.704 242.089 187.149C242.699 186.594 243.449 186.175 244.278 185.929C246.61 185.07 251.327 186.866 253.783 185.038L255.279 187.607C255.279 187.607 253.837 189.018 250.126 188.537C246.414 188.056 243.157 188.663 241.929 192.036L240.772 189.12Z" fill="#FFC100"/>
<path d="M251.042 214.178L266.938 207.827L265.985 206.03L250.277 212.358L251.042 214.178Z" fill="#E0E0E0"/>
<path d="M239.997 199.963C239.997 198.663 239.677 196.117 240.371 194.518C241.065 192.918 244.278 190.743 245.373 190.121C246.468 189.498 247.545 190.176 246.984 192.004C246.423 193.832 245.453 194.368 244.803 195.621C244.432 196.261 244.208 196.96 244.145 197.678L239.997 199.963Z" fill="#B16668"/>
</svg>
