<svg width="579" height="384" viewBox="0 0 579 384" fill="none" xmlns="http://www.w3.org/2000/svg">
<rect x="1" y="1" width="577" height="381" fill="#263B58"/>
<path d="M1 309C26.897 322.551 42.4678 330.648 75.3948 347.542C110.139 320.656 126.834 309.611 143.413 309C172.238 316.511 188.972 330.667 218.87 356.792C250.187 352.115 265.523 336.786 298.579 329.042C331.635 321.297 369.96 375.17 364.472 383H1V309Z" fill="#F7D8A4" stroke="#F7D8A4"/>
<path d="M419 1C424.62 47.8805 437.394 66.1575 473.332 87.8092C518.087 104.909 541.044 117.648 578 146V1H419Z" fill="#F7D8A4" stroke="#F7D8A4"/>
<rect x="20.5" y="37.5" width="48.9649" height="12" rx="6" fill="#FFC100" stroke="#FFC100"/>
<rect x="82.262" y="37.5" width="48.9649" height="12" rx="6" fill="#FFC100" stroke="#FFC100"/>
<rect x="141.942" y="37.5" width="48.9649" height="12" rx="6" fill="#FFC100" stroke="#FFC100"/>
<rect x="203.01" y="37.5" width="48.9649" height="12" rx="6" fill="#FFC100" stroke="#FFC100"/>
<rect x="265.467" y="37.5" width="48.9649" height="12" rx="6" fill="#FFC100" stroke="#FFC100"/>
<rect x="326.535" y="37.5" width="48.9649" height="12" rx="6" fill="#FFC100" stroke="#FFC100"/>
<rect x="556.739" y="162.232" width="56.3499" height="15.2963" rx="7.64815" transform="rotate(89.3798 556.739 162.232)" fill="#FFC100" stroke="#FFC100"/>
<rect x="557.48" y="230.73" width="56.3499" height="15.2963" rx="7.64815" transform="rotate(89.3798 557.48 230.73)" fill="#FFC100" stroke="#FFC100"/>
<rect x="558.239" y="300.819" width="56.3499" height="15.2963" rx="7.64815" transform="rotate(89.3798 558.239 300.819)" fill="#FFC100" stroke="#FFC100"/>
<path d="M161.387 156.699C161.387 159.486 160.918 161.921 159.98 164.004C159.043 166.074 157.715 167.656 155.996 168.75C154.277 169.844 152.272 170.391 149.98 170.391C147.741 170.391 145.755 169.844 144.023 168.75C142.292 167.643 140.944 166.074 139.98 164.043C139.03 161.999 138.542 159.635 138.516 156.953V154.902C138.516 152.168 138.991 149.753 139.941 147.656C140.892 145.56 142.233 143.958 143.965 142.852C145.71 141.732 147.702 141.172 149.941 141.172C152.22 141.172 154.225 141.725 155.957 142.832C157.702 143.926 159.043 145.521 159.98 147.617C160.918 149.701 161.387 152.129 161.387 154.902V156.699ZM157.656 154.863C157.656 151.491 156.979 148.906 155.625 147.109C154.271 145.299 152.376 144.395 149.941 144.395C147.572 144.395 145.703 145.299 144.336 147.109C142.982 148.906 142.285 151.406 142.246 154.609V156.699C142.246 159.967 142.93 162.539 144.297 164.414C145.677 166.276 147.572 167.207 149.98 167.207C152.402 167.207 154.277 166.328 155.605 164.57C156.934 162.799 157.617 160.267 157.656 156.973V154.863ZM169.863 148.867L169.98 151.523C171.595 149.492 173.704 148.477 176.309 148.477C180.775 148.477 183.027 150.996 183.066 156.035V170H179.453V156.016C179.44 154.492 179.089 153.366 178.398 152.637C177.721 151.908 176.66 151.543 175.215 151.543C174.043 151.543 173.014 151.855 172.129 152.48C171.243 153.105 170.553 153.926 170.059 154.941V170H166.445V148.867H169.863ZM187.637 159.258C187.637 156.016 188.405 153.411 189.941 151.445C191.478 149.466 193.49 148.477 195.977 148.477C198.451 148.477 200.41 149.323 201.855 151.016V140H205.469V170H202.148L201.973 167.734C200.527 169.505 198.516 170.391 195.938 170.391C193.49 170.391 191.491 169.388 189.941 167.383C188.405 165.378 187.637 162.76 187.637 159.531V159.258ZM191.25 159.668C191.25 162.064 191.745 163.939 192.734 165.293C193.724 166.647 195.091 167.324 196.836 167.324C199.128 167.324 200.801 166.296 201.855 164.238V154.531C200.775 152.539 199.115 151.543 196.875 151.543C195.104 151.543 193.724 152.227 192.734 153.594C191.745 154.961 191.25 156.986 191.25 159.668ZM219.863 170.391C216.999 170.391 214.668 169.453 212.871 167.578C211.074 165.69 210.176 163.171 210.176 160.02V159.355C210.176 157.259 210.573 155.391 211.367 153.75C212.174 152.096 213.294 150.807 214.727 149.883C216.172 148.945 217.734 148.477 219.414 148.477C222.161 148.477 224.297 149.382 225.82 151.191C227.344 153.001 228.105 155.592 228.105 158.965V160.469H213.789C213.841 162.552 214.447 164.238 215.605 165.527C216.777 166.803 218.262 167.441 220.059 167.441C221.335 167.441 222.415 167.181 223.301 166.66C224.186 166.139 224.961 165.449 225.625 164.59L227.832 166.309C226.061 169.03 223.405 170.391 219.863 170.391ZM219.414 151.445C217.956 151.445 216.732 151.979 215.742 153.047C214.753 154.102 214.141 155.586 213.906 157.5H224.492V157.227C224.388 155.391 223.893 153.971 223.008 152.969C222.122 151.953 220.924 151.445 219.414 151.445ZM255.273 170C255.065 169.583 254.896 168.841 254.766 167.773C253.086 169.518 251.081 170.391 248.75 170.391C246.667 170.391 244.954 169.805 243.613 168.633C242.285 167.448 241.621 165.951 241.621 164.141C241.621 161.94 242.454 160.234 244.121 159.023C245.801 157.799 248.158 157.188 251.191 157.188H254.707V155.527C254.707 154.264 254.329 153.262 253.574 152.52C252.819 151.764 251.706 151.387 250.234 151.387C248.945 151.387 247.865 151.712 246.992 152.363C246.12 153.014 245.684 153.802 245.684 154.727H242.051C242.051 153.672 242.422 152.656 243.164 151.68C243.919 150.69 244.935 149.909 246.211 149.336C247.5 148.763 248.913 148.477 250.449 148.477C252.884 148.477 254.792 149.089 256.172 150.312C257.552 151.523 258.268 153.197 258.32 155.332V165.059C258.32 166.999 258.568 168.542 259.062 169.688V170H255.273ZM249.277 167.246C250.41 167.246 251.484 166.953 252.5 166.367C253.516 165.781 254.251 165.02 254.707 164.082V159.746H251.875C247.448 159.746 245.234 161.042 245.234 163.633C245.234 164.766 245.612 165.651 246.367 166.289C247.122 166.927 248.092 167.246 249.277 167.246ZM284.121 152.109C283.574 152.018 282.982 151.973 282.344 151.973C279.974 151.973 278.366 152.982 277.52 155V170H273.906V148.867H277.422L277.48 151.309C278.665 149.421 280.345 148.477 282.52 148.477C283.223 148.477 283.757 148.568 284.121 148.75V152.109ZM295.84 170.391C292.975 170.391 290.645 169.453 288.848 167.578C287.051 165.69 286.152 163.171 286.152 160.02V159.355C286.152 157.259 286.549 155.391 287.344 153.75C288.151 152.096 289.271 150.807 290.703 149.883C292.148 148.945 293.711 148.477 295.391 148.477C298.138 148.477 300.273 149.382 301.797 151.191C303.32 153.001 304.082 155.592 304.082 158.965V160.469H289.766C289.818 162.552 290.423 164.238 291.582 165.527C292.754 166.803 294.238 167.441 296.035 167.441C297.311 167.441 298.392 167.181 299.277 166.66C300.163 166.139 300.938 165.449 301.602 164.59L303.809 166.309C302.038 169.03 299.382 170.391 295.84 170.391ZM295.391 151.445C293.932 151.445 292.708 151.979 291.719 153.047C290.729 154.102 290.117 155.586 289.883 157.5H300.469V157.227C300.365 155.391 299.87 153.971 298.984 152.969C298.099 151.953 296.901 151.445 295.391 151.445ZM321.328 170C321.12 169.583 320.951 168.841 320.82 167.773C319.141 169.518 317.135 170.391 314.805 170.391C312.721 170.391 311.009 169.805 309.668 168.633C308.34 167.448 307.676 165.951 307.676 164.141C307.676 161.94 308.509 160.234 310.176 159.023C311.855 157.799 314.212 157.188 317.246 157.188H320.762V155.527C320.762 154.264 320.384 153.262 319.629 152.52C318.874 151.764 317.76 151.387 316.289 151.387C315 151.387 313.919 151.712 313.047 152.363C312.174 153.014 311.738 153.802 311.738 154.727H308.105C308.105 153.672 308.477 152.656 309.219 151.68C309.974 150.69 310.99 149.909 312.266 149.336C313.555 148.763 314.967 148.477 316.504 148.477C318.939 148.477 320.846 149.089 322.227 150.312C323.607 151.523 324.323 153.197 324.375 155.332V165.059C324.375 166.999 324.622 168.542 325.117 169.688V170H321.328ZM315.332 167.246C316.465 167.246 317.539 166.953 318.555 166.367C319.57 165.781 320.306 165.02 320.762 164.082V159.746H317.93C313.503 159.746 311.289 161.042 311.289 163.633C311.289 164.766 311.667 165.651 312.422 166.289C313.177 166.927 314.147 167.246 315.332 167.246ZM333.965 170H330.352V140H333.965V170ZM343.691 170H340.078V148.867H343.691V170ZM339.785 143.262C339.785 142.676 339.961 142.181 340.312 141.777C340.677 141.374 341.211 141.172 341.914 141.172C342.617 141.172 343.151 141.374 343.516 141.777C343.88 142.181 344.062 142.676 344.062 143.262C344.062 143.848 343.88 144.336 343.516 144.727C343.151 145.117 342.617 145.312 341.914 145.312C341.211 145.312 340.677 145.117 340.312 144.727C339.961 144.336 339.785 143.848 339.785 143.262ZM352.891 167.051H365.254V170H348.477V167.344L360.137 151.855H348.652V148.867H364.668V151.426L352.891 167.051ZM382.383 170C382.174 169.583 382.005 168.841 381.875 167.773C380.195 169.518 378.19 170.391 375.859 170.391C373.776 170.391 372.064 169.805 370.723 168.633C369.395 167.448 368.73 165.951 368.73 164.141C368.73 161.94 369.564 160.234 371.23 159.023C372.91 157.799 375.267 157.188 378.301 157.188H381.816V155.527C381.816 154.264 381.439 153.262 380.684 152.52C379.928 151.764 378.815 151.387 377.344 151.387C376.055 151.387 374.974 151.712 374.102 152.363C373.229 153.014 372.793 153.802 372.793 154.727H369.16C369.16 153.672 369.531 152.656 370.273 151.68C371.029 150.69 372.044 149.909 373.32 149.336C374.609 148.763 376.022 148.477 377.559 148.477C379.993 148.477 381.901 149.089 383.281 150.312C384.661 151.523 385.378 153.197 385.43 155.332V165.059C385.43 166.999 385.677 168.542 386.172 169.688V170H382.383ZM376.387 167.246C377.52 167.246 378.594 166.953 379.609 166.367C380.625 165.781 381.361 165.02 381.816 164.082V159.746H378.984C374.557 159.746 372.344 161.042 372.344 163.633C372.344 164.766 372.721 165.651 373.477 166.289C374.232 166.927 375.202 167.246 376.387 167.246ZM399.57 167.441C400.859 167.441 401.986 167.051 402.949 166.27C403.913 165.488 404.447 164.512 404.551 163.34H407.969C407.904 164.551 407.487 165.703 406.719 166.797C405.951 167.891 404.922 168.763 403.633 169.414C402.357 170.065 401.003 170.391 399.57 170.391C396.693 170.391 394.401 169.434 392.695 167.52C391.003 165.592 390.156 162.962 390.156 159.629V159.023C390.156 156.966 390.534 155.137 391.289 153.535C392.044 151.934 393.125 150.69 394.531 149.805C395.951 148.919 397.624 148.477 399.551 148.477C401.921 148.477 403.887 149.186 405.449 150.605C407.025 152.025 407.865 153.867 407.969 156.133H404.551C404.447 154.766 403.926 153.646 402.988 152.773C402.064 151.888 400.918 151.445 399.551 151.445C397.715 151.445 396.289 152.109 395.273 153.438C394.271 154.753 393.77 156.66 393.77 159.16V159.844C393.77 162.279 394.271 164.154 395.273 165.469C396.276 166.784 397.708 167.441 399.57 167.441ZM400.156 170.176L399.922 171.191C401.914 171.543 402.91 172.669 402.91 174.57C402.91 175.833 402.389 176.829 401.348 177.559C400.306 178.301 398.854 178.672 396.992 178.672L396.855 176.582C397.884 176.582 398.678 176.413 399.238 176.074C399.811 175.736 400.098 175.26 400.098 174.648C400.098 174.076 399.889 173.652 399.473 173.379C399.056 173.105 398.21 172.91 396.934 172.793L397.559 170.176H400.156ZM425.078 170C424.87 169.583 424.701 168.841 424.57 167.773C422.891 169.518 420.885 170.391 418.555 170.391C416.471 170.391 414.759 169.805 413.418 168.633C412.09 167.448 411.426 165.951 411.426 164.141C411.426 161.94 412.259 160.234 413.926 159.023C415.605 157.799 417.962 157.188 420.996 157.188H424.512V155.527C424.512 154.264 424.134 153.262 423.379 152.52C422.624 151.764 421.51 151.387 420.039 151.387C418.75 151.387 417.669 151.712 416.797 152.363C415.924 153.014 415.488 153.802 415.488 154.727H411.855C411.855 153.672 412.227 152.656 412.969 151.68C413.724 150.69 414.74 149.909 416.016 149.336C417.305 148.763 418.717 148.477 420.254 148.477C422.689 148.477 424.596 149.089 425.977 150.312C427.357 151.523 428.073 153.197 428.125 155.332V165.059C428.125 166.999 428.372 168.542 428.867 169.688V170H425.078ZM419.082 167.246C420.215 167.246 421.289 166.953 422.305 166.367C423.32 165.781 424.056 165.02 424.512 164.082V159.746H421.68C417.253 159.746 415.039 161.042 415.039 163.633C415.039 164.766 415.417 165.651 416.172 166.289C416.927 166.927 417.897 167.246 419.082 167.246ZM427.578 140.625C427.578 142.031 427.174 143.171 426.367 144.043C425.573 144.915 424.577 145.352 423.379 145.352C422.845 145.352 422.383 145.286 421.992 145.156C421.602 145.026 421.087 144.759 420.449 144.355C419.824 143.952 419.368 143.711 419.082 143.633C418.809 143.542 418.49 143.496 418.125 143.496C417.591 143.496 417.135 143.704 416.758 144.121C416.38 144.525 416.191 145.046 416.191 145.684L413.77 145.547C413.77 144.154 414.16 143.001 414.941 142.09C415.736 141.178 416.738 140.723 417.949 140.723C418.405 140.723 418.815 140.788 419.18 140.918C419.544 141.048 420.039 141.302 420.664 141.68C421.289 142.057 421.764 142.305 422.09 142.422C422.428 142.539 422.799 142.598 423.203 142.598C423.763 142.598 424.225 142.376 424.59 141.934C424.967 141.491 425.156 140.977 425.156 140.391L427.578 140.625ZM432.832 159.238C432.832 157.168 433.236 155.306 434.043 153.652C434.863 151.999 435.996 150.723 437.441 149.824C438.9 148.926 440.56 148.477 442.422 148.477C445.299 148.477 447.624 149.473 449.395 151.465C451.178 153.457 452.07 156.107 452.07 159.414V159.668C452.07 161.725 451.673 163.574 450.879 165.215C450.098 166.842 448.971 168.112 447.5 169.023C446.042 169.935 444.362 170.391 442.461 170.391C439.596 170.391 437.272 169.395 435.488 167.402C433.717 165.41 432.832 162.773 432.832 159.492V159.238ZM436.465 159.668C436.465 162.012 437.005 163.893 438.086 165.312C439.18 166.732 440.638 167.441 442.461 167.441C444.297 167.441 445.755 166.725 446.836 165.293C447.917 163.848 448.457 161.829 448.457 159.238C448.457 156.921 447.904 155.046 446.797 153.613C445.703 152.168 444.245 151.445 442.422 151.445C440.638 151.445 439.199 152.155 438.105 153.574C437.012 154.993 436.465 157.025 436.465 159.668ZM164.062 206.258C164.062 203.016 164.831 200.411 166.367 198.445C167.904 196.466 169.915 195.477 172.402 195.477C174.876 195.477 176.836 196.323 178.281 198.016V187H181.895V217H178.574L178.398 214.734C176.953 216.505 174.941 217.391 172.363 217.391C169.915 217.391 167.917 216.388 166.367 214.383C164.831 212.378 164.062 209.76 164.062 206.531V206.258ZM167.676 206.668C167.676 209.064 168.171 210.939 169.16 212.293C170.15 213.647 171.517 214.324 173.262 214.324C175.553 214.324 177.227 213.296 178.281 211.238V201.531C177.201 199.539 175.54 198.543 173.301 198.543C171.53 198.543 170.15 199.227 169.16 200.594C168.171 201.961 167.676 203.986 167.676 206.668ZM186.562 206.238C186.562 204.168 186.966 202.306 187.773 200.652C188.594 198.999 189.727 197.723 191.172 196.824C192.63 195.926 194.29 195.477 196.152 195.477C199.03 195.477 201.354 196.473 203.125 198.465C204.909 200.457 205.801 203.107 205.801 206.414V206.668C205.801 208.725 205.404 210.574 204.609 212.215C203.828 213.842 202.702 215.112 201.23 216.023C199.772 216.935 198.092 217.391 196.191 217.391C193.327 217.391 191.003 216.395 189.219 214.402C187.448 212.41 186.562 209.773 186.562 206.492V206.238ZM190.195 206.668C190.195 209.012 190.736 210.893 191.816 212.312C192.91 213.732 194.368 214.441 196.191 214.441C198.027 214.441 199.486 213.725 200.566 212.293C201.647 210.848 202.188 208.829 202.188 206.238C202.188 203.921 201.634 202.046 200.527 200.613C199.434 199.168 197.975 198.445 196.152 198.445C194.368 198.445 192.93 199.155 191.836 200.574C190.742 201.993 190.195 204.025 190.195 206.668ZM232.559 211.395C232.559 210.418 232.188 209.663 231.445 209.129C230.716 208.582 229.434 208.113 227.598 207.723C225.775 207.332 224.323 206.863 223.242 206.316C222.174 205.77 221.38 205.118 220.859 204.363C220.352 203.608 220.098 202.71 220.098 201.668C220.098 199.936 220.827 198.471 222.285 197.273C223.757 196.076 225.632 195.477 227.91 195.477C230.306 195.477 232.246 196.095 233.73 197.332C235.228 198.569 235.977 200.151 235.977 202.078H232.344C232.344 201.089 231.921 200.236 231.074 199.52C230.241 198.803 229.186 198.445 227.91 198.445C226.595 198.445 225.566 198.732 224.824 199.305C224.082 199.878 223.711 200.626 223.711 201.551C223.711 202.423 224.056 203.081 224.746 203.523C225.436 203.966 226.68 204.389 228.477 204.793C230.286 205.197 231.751 205.678 232.871 206.238C233.991 206.798 234.818 207.475 235.352 208.27C235.898 209.051 236.172 210.008 236.172 211.141C236.172 213.029 235.417 214.546 233.906 215.691C232.396 216.824 230.436 217.391 228.027 217.391C226.335 217.391 224.837 217.091 223.535 216.492C222.233 215.893 221.211 215.06 220.469 213.992C219.74 212.911 219.375 211.746 219.375 210.496H222.988C223.053 211.707 223.535 212.671 224.434 213.387C225.345 214.09 226.543 214.441 228.027 214.441C229.395 214.441 230.488 214.168 231.309 213.621C232.142 213.061 232.559 212.319 232.559 211.395ZM249.648 217.391C246.784 217.391 244.453 216.453 242.656 214.578C240.859 212.69 239.961 210.171 239.961 207.02V206.355C239.961 204.259 240.358 202.391 241.152 200.75C241.96 199.096 243.079 197.807 244.512 196.883C245.957 195.945 247.52 195.477 249.199 195.477C251.947 195.477 254.082 196.382 255.605 198.191C257.129 200.001 257.891 202.592 257.891 205.965V207.469H243.574C243.626 209.552 244.232 211.238 245.391 212.527C246.562 213.803 248.047 214.441 249.844 214.441C251.12 214.441 252.201 214.181 253.086 213.66C253.971 213.139 254.746 212.449 255.41 211.59L257.617 213.309C255.846 216.03 253.19 217.391 249.648 217.391ZM249.199 198.445C247.741 198.445 246.517 198.979 245.527 200.047C244.538 201.102 243.926 202.586 243.691 204.5H254.277V204.227C254.173 202.391 253.678 200.971 252.793 199.969C251.908 198.953 250.71 198.445 249.199 198.445ZM275.137 214.91C273.73 216.564 271.667 217.391 268.945 217.391C266.693 217.391 264.974 216.74 263.789 215.438C262.617 214.122 262.025 212.182 262.012 209.617V195.867H265.625V209.52C265.625 212.723 266.927 214.324 269.531 214.324C272.292 214.324 274.128 213.296 275.039 211.238V195.867H278.652V217H275.215L275.137 214.91ZM308.164 209.441C308.164 208.439 307.806 207.658 307.09 207.098C306.387 206.538 305.143 205.958 303.359 205.359C301.576 204.76 300.117 204.181 298.984 203.621C295.299 201.811 293.457 199.324 293.457 196.16C293.457 194.585 293.913 193.198 294.824 192C295.749 190.789 297.051 189.852 298.73 189.188C300.41 188.51 302.298 188.172 304.395 188.172C306.439 188.172 308.268 188.536 309.883 189.266C311.51 189.995 312.773 191.036 313.672 192.391C314.57 193.732 315.02 195.268 315.02 197H308.184C308.184 195.841 307.826 194.943 307.109 194.305C306.406 193.667 305.449 193.348 304.238 193.348C303.014 193.348 302.044 193.621 301.328 194.168C300.625 194.702 300.273 195.385 300.273 196.219C300.273 196.948 300.664 197.612 301.445 198.211C302.227 198.797 303.6 199.409 305.566 200.047C307.533 200.672 309.147 201.349 310.41 202.078C313.483 203.849 315.02 206.29 315.02 209.402C315.02 211.889 314.082 213.842 312.207 215.262C310.332 216.681 307.76 217.391 304.492 217.391C302.188 217.391 300.098 216.98 298.223 216.16C296.361 215.327 294.954 214.194 294.004 212.762C293.066 211.316 292.598 209.656 292.598 207.781H299.473C299.473 209.305 299.863 210.431 300.645 211.16C301.439 211.876 302.721 212.234 304.492 212.234C305.625 212.234 306.517 211.993 307.168 211.512C307.832 211.017 308.164 210.327 308.164 209.441ZM342.617 203.367C342.617 206.141 342.103 208.595 341.074 210.73C340.046 212.866 338.581 214.513 336.68 215.672C334.792 216.818 332.637 217.391 330.215 217.391C327.793 217.391 325.645 216.837 323.77 215.73C321.895 214.611 320.43 213.016 319.375 210.945C318.333 208.875 317.786 206.499 317.734 203.816V202.215C317.734 199.428 318.242 196.974 319.258 194.852C320.286 192.716 321.751 191.069 323.652 189.91C325.566 188.751 327.741 188.172 330.176 188.172C332.585 188.172 334.733 188.745 336.621 189.891C338.509 191.036 339.974 192.671 341.016 194.793C342.07 196.902 342.604 199.324 342.617 202.059V203.367ZM335.645 202.176C335.645 199.35 335.169 197.208 334.219 195.75C333.281 194.279 331.934 193.543 330.176 193.543C326.738 193.543 324.922 196.121 324.727 201.277L324.707 203.367C324.707 206.154 325.169 208.296 326.094 209.793C327.018 211.29 328.392 212.039 330.215 212.039C331.947 212.039 333.281 211.303 334.219 209.832C335.156 208.361 335.632 206.245 335.645 203.484V202.176ZM369.902 217H363.086L353.008 199.305V217H346.152V188.562H353.008L363.066 206.258V188.562H369.902V217ZM398.008 217H391.191V205.125H381.094V217H374.238V188.562H381.094V199.852H391.191V188.562H398.008V217ZM426.445 203.367C426.445 206.141 425.931 208.595 424.902 210.73C423.874 212.866 422.409 214.513 420.508 215.672C418.62 216.818 416.465 217.391 414.043 217.391C411.621 217.391 409.473 216.837 407.598 215.73C405.723 214.611 404.258 213.016 403.203 210.945C402.161 208.875 401.615 206.499 401.562 203.816V202.215C401.562 199.428 402.07 196.974 403.086 194.852C404.115 192.716 405.579 191.069 407.48 189.91C409.395 188.751 411.569 188.172 414.004 188.172C416.413 188.172 418.561 188.745 420.449 189.891C422.337 191.036 423.802 192.671 424.844 194.793C425.898 196.902 426.432 199.324 426.445 202.059V203.367ZM419.473 202.176C419.473 199.35 418.997 197.208 418.047 195.75C417.109 194.279 415.762 193.543 414.004 193.543C410.566 193.543 408.75 196.121 408.555 201.277L408.535 203.367C408.535 206.154 408.997 208.296 409.922 209.793C410.846 211.29 412.22 212.039 414.043 212.039C415.775 212.039 417.109 211.303 418.047 209.832C418.984 208.361 419.46 206.245 419.473 203.484V202.176ZM234.688 261.441C235.977 261.441 237.103 261.051 238.066 260.27C239.03 259.488 239.564 258.512 239.668 257.34H243.086C243.021 258.551 242.604 259.703 241.836 260.797C241.068 261.891 240.039 262.763 238.75 263.414C237.474 264.065 236.12 264.391 234.688 264.391C231.81 264.391 229.518 263.434 227.812 261.52C226.12 259.592 225.273 256.962 225.273 253.629V253.023C225.273 250.966 225.651 249.137 226.406 247.535C227.161 245.934 228.242 244.69 229.648 243.805C231.068 242.919 232.741 242.477 234.668 242.477C237.038 242.477 239.004 243.186 240.566 244.605C242.142 246.025 242.982 247.867 243.086 250.133H239.668C239.564 248.766 239.043 247.646 238.105 246.773C237.181 245.888 236.035 245.445 234.668 245.445C232.832 245.445 231.406 246.109 230.391 247.438C229.388 248.753 228.887 250.66 228.887 253.16V253.844C228.887 256.279 229.388 258.154 230.391 259.469C231.393 260.784 232.826 261.441 234.688 261.441ZM246.191 253.238C246.191 251.168 246.595 249.306 247.402 247.652C248.223 245.999 249.355 244.723 250.801 243.824C252.259 242.926 253.919 242.477 255.781 242.477C258.659 242.477 260.983 243.473 262.754 245.465C264.538 247.457 265.43 250.107 265.43 253.414V253.668C265.43 255.725 265.033 257.574 264.238 259.215C263.457 260.842 262.331 262.112 260.859 263.023C259.401 263.935 257.721 264.391 255.82 264.391C252.956 264.391 250.632 263.395 248.848 261.402C247.077 259.41 246.191 256.773 246.191 253.492V253.238ZM249.824 253.668C249.824 256.012 250.365 257.893 251.445 259.312C252.539 260.732 253.997 261.441 255.82 261.441C257.656 261.441 259.115 260.725 260.195 259.293C261.276 257.848 261.816 255.829 261.816 253.238C261.816 250.921 261.263 249.046 260.156 247.613C259.062 246.168 257.604 245.445 255.781 245.445C253.997 245.445 252.559 246.155 251.465 247.574C250.371 248.993 249.824 251.025 249.824 253.668ZM273.359 242.867L273.457 245.211C275.007 243.388 277.096 242.477 279.727 242.477C282.682 242.477 284.694 243.609 285.762 245.875C286.465 244.859 287.376 244.039 288.496 243.414C289.629 242.789 290.964 242.477 292.5 242.477C297.135 242.477 299.492 244.931 299.57 249.84V264H295.957V250.055C295.957 248.544 295.612 247.418 294.922 246.676C294.232 245.921 293.073 245.543 291.445 245.543C290.104 245.543 288.991 245.947 288.105 246.754C287.22 247.548 286.706 248.622 286.562 249.977V264H282.93V250.152C282.93 247.079 281.426 245.543 278.418 245.543C276.048 245.543 274.427 246.552 273.555 248.57V264H269.941V242.867H273.359ZM313.809 264.391C310.944 264.391 308.613 263.453 306.816 261.578C305.02 259.69 304.121 257.171 304.121 254.02V253.355C304.121 251.259 304.518 249.391 305.312 247.75C306.12 246.096 307.24 244.807 308.672 243.883C310.117 242.945 311.68 242.477 313.359 242.477C316.107 242.477 318.242 243.382 319.766 245.191C321.289 247.001 322.051 249.592 322.051 252.965V254.469H307.734C307.786 256.552 308.392 258.238 309.551 259.527C310.723 260.803 312.207 261.441 314.004 261.441C315.28 261.441 316.361 261.181 317.246 260.66C318.132 260.139 318.906 259.449 319.57 258.59L321.777 260.309C320.007 263.03 317.35 264.391 313.809 264.391ZM313.359 245.445C311.901 245.445 310.677 245.979 309.688 247.047C308.698 248.102 308.086 249.586 307.852 251.5H318.438V251.227C318.333 249.391 317.839 247.971 316.953 246.969C316.068 245.953 314.87 245.445 313.359 245.445ZM334.727 261.441C336.016 261.441 337.142 261.051 338.105 260.27C339.069 259.488 339.603 258.512 339.707 257.34H343.125C343.06 258.551 342.643 259.703 341.875 260.797C341.107 261.891 340.078 262.763 338.789 263.414C337.513 264.065 336.159 264.391 334.727 264.391C331.849 264.391 329.557 263.434 327.852 261.52C326.159 259.592 325.312 256.962 325.312 253.629V253.023C325.312 250.966 325.69 249.137 326.445 247.535C327.201 245.934 328.281 244.69 329.688 243.805C331.107 242.919 332.78 242.477 334.707 242.477C337.077 242.477 339.043 243.186 340.605 244.605C342.181 246.025 343.021 247.867 343.125 250.133H339.707C339.603 248.766 339.082 247.646 338.145 246.773C337.22 245.888 336.074 245.445 334.707 245.445C332.871 245.445 331.445 246.109 330.43 247.438C329.427 248.753 328.926 250.66 328.926 253.16V253.844C328.926 256.279 329.427 258.154 330.43 259.469C331.432 260.784 332.865 261.441 334.727 261.441ZM335.312 264.176L335.078 265.191C337.07 265.543 338.066 266.669 338.066 268.57C338.066 269.833 337.546 270.829 336.504 271.559C335.462 272.301 334.01 272.672 332.148 272.672L332.012 270.582C333.04 270.582 333.835 270.413 334.395 270.074C334.967 269.736 335.254 269.26 335.254 268.648C335.254 268.076 335.046 267.652 334.629 267.379C334.212 267.105 333.366 266.91 332.09 266.793L332.715 264.176H335.312ZM360.234 264C360.026 263.583 359.857 262.841 359.727 261.773C358.047 263.518 356.042 264.391 353.711 264.391C351.628 264.391 349.915 263.805 348.574 262.633C347.246 261.448 346.582 259.951 346.582 258.141C346.582 255.94 347.415 254.234 349.082 253.023C350.762 251.799 353.118 251.188 356.152 251.188H359.668V249.527C359.668 248.264 359.29 247.262 358.535 246.52C357.78 245.764 356.667 245.387 355.195 245.387C353.906 245.387 352.826 245.712 351.953 246.363C351.081 247.014 350.645 247.802 350.645 248.727H347.012C347.012 247.672 347.383 246.656 348.125 245.68C348.88 244.69 349.896 243.909 351.172 243.336C352.461 242.763 353.874 242.477 355.41 242.477C357.845 242.477 359.753 243.089 361.133 244.312C362.513 245.523 363.229 247.197 363.281 249.332V259.059C363.281 260.999 363.529 262.542 364.023 263.688V264H360.234ZM354.238 261.246C355.371 261.246 356.445 260.953 357.461 260.367C358.477 259.781 359.212 259.02 359.668 258.082V253.746H356.836C352.409 253.746 350.195 255.042 350.195 257.633C350.195 258.766 350.573 259.651 351.328 260.289C352.083 260.927 353.053 261.246 354.238 261.246ZM372.988 255.973H369.727L369.473 235.562H373.262L372.988 255.973ZM369.336 262.184C369.336 261.598 369.512 261.109 369.863 260.719C370.228 260.315 370.762 260.113 371.465 260.113C372.168 260.113 372.702 260.315 373.066 260.719C373.431 261.109 373.613 261.598 373.613 262.184C373.613 262.77 373.431 263.258 373.066 263.648C372.702 264.026 372.168 264.215 371.465 264.215C370.762 264.215 370.228 264.026 369.863 263.648C369.512 263.258 369.336 262.77 369.336 262.184Z" fill="white"/>
</svg>
