<svg width="218" height="208" viewBox="0 0 218 208" fill="none" xmlns="http://www.w3.org/2000/svg">
<ellipse cx="109" cy="104" rx="109" ry="104" fill="#F4A936"/>
<g clip-path="url(#clip0)">
<path d="M87.5412 92.337H74.8296C73.6595 92.337 72.7115 93.2395 72.7115 94.3535V106.455C72.7115 107.569 73.6595 108.471 74.8296 108.471H87.5412C88.7113 108.471 89.6593 107.569 89.6593 106.455V94.3535C89.6593 93.2395 88.7113 92.337 87.5412 92.337ZM85.4221 104.437H76.9487V96.3708H85.4221V104.437Z" fill="white"/>
<path d="M108.726 92.337H96.0146C94.8454 92.337 93.8965 93.2395 93.8965 94.3535V106.455C93.8965 107.569 94.8454 108.471 96.0146 108.471H108.726C109.896 108.471 110.845 107.569 110.845 106.455V94.3535C110.845 93.2395 109.896 92.337 108.726 92.337ZM106.608 104.437H98.1336V96.3708H106.608V104.437Z" fill="white"/>
<path d="M129.912 92.337H117.2C116.03 92.337 115.081 93.2395 115.081 94.3535V106.455C115.081 107.569 116.03 108.471 117.2 108.471H129.911C131.081 108.471 132.03 107.569 132.03 106.455V94.3535C132.03 93.2395 131.081 92.337 129.912 92.337ZM127.793 104.437H119.319V96.3708H127.793V104.437Z" fill="white"/>
<path d="M138.385 108.471H151.097C152.267 108.471 153.215 107.569 153.215 106.455V94.3535C153.215 93.2395 152.267 92.337 151.097 92.337H138.385C137.215 92.337 136.267 93.2395 136.267 94.3535V106.455C136.267 107.569 137.215 108.471 138.385 108.471ZM140.504 96.3708H148.978V104.437H140.504V96.3708Z" fill="white"/>
<path d="M87.5412 112.505H74.8296C73.6595 112.505 72.7115 113.408 72.7115 114.522V126.623C72.7115 127.737 73.6595 128.64 74.8296 128.64H87.5412C88.7113 128.64 89.6593 127.737 89.6593 126.623V114.522C89.6593 113.408 88.7113 112.505 87.5412 112.505ZM85.4221 124.606H76.9487V116.539H85.4221V124.606Z" fill="white"/>
<path d="M108.726 112.505H96.0146C94.8454 112.505 93.8965 113.408 93.8965 114.522V126.623C93.8965 127.737 94.8454 128.64 96.0146 128.64H108.726C109.896 128.64 110.845 127.737 110.845 126.623V114.522C110.845 113.408 109.896 112.505 108.726 112.505ZM106.608 124.606H98.1336V116.539H106.608V124.606Z" fill="white"/>
<path d="M129.912 112.505H117.2C116.03 112.505 115.081 113.408 115.081 114.522V126.623C115.081 127.737 116.03 128.64 117.2 128.64H129.911C131.081 128.64 132.03 127.737 132.03 126.623V114.522C132.03 113.408 131.081 112.505 129.912 112.505ZM127.793 124.606H119.319V116.539H127.793V124.606Z" fill="white"/>
<path d="M138.385 128.64H151.097C152.267 128.64 153.215 127.737 153.215 126.623V114.522C153.215 113.408 152.267 112.505 151.097 112.505H138.385C137.215 112.505 136.267 113.408 136.267 114.522V126.623C136.267 127.737 137.215 128.64 138.385 128.64ZM140.504 116.539H148.978V124.606H140.504V116.539Z" fill="white"/>
<path d="M87.5412 132.674H74.8296C73.6595 132.674 72.7115 133.576 72.7115 134.69V146.792C72.7115 147.906 73.6595 148.808 74.8296 148.808H87.5412C88.7113 148.808 89.6593 147.906 89.6593 146.792V134.69C89.6593 133.576 88.7113 132.674 87.5412 132.674ZM85.4221 144.774H76.9487V136.707H85.4221V144.774Z" fill="white"/>
<path d="M108.726 132.674H96.0146C94.8454 132.674 93.8965 133.576 93.8965 134.69V146.792C93.8965 147.906 94.8454 148.808 96.0146 148.808H108.726C109.896 148.808 110.845 147.906 110.845 146.792V134.69C110.845 133.576 109.896 132.674 108.726 132.674ZM106.608 144.774H98.1336V136.707H106.608V144.774Z" fill="white"/>
<path d="M129.912 132.674H117.2C116.03 132.674 115.081 133.576 115.081 134.69V146.792C115.081 147.906 116.03 148.808 117.2 148.808H129.911C131.081 148.808 132.03 147.906 132.03 146.792V134.69C132.03 133.576 131.081 132.674 129.912 132.674ZM127.793 144.774H119.319V136.707H127.793V144.774Z" fill="white"/>
<path d="M165.927 133.386V62.084C165.927 60.97 164.978 60.0676 163.807 60.0676H153.215V58.0502C153.215 54.7092 150.37 52 146.86 52C143.349 52 140.504 54.7092 140.504 58.0502V60.0676H136.267V58.0502C136.267 54.7092 133.421 52 129.912 52C126.401 52 123.556 54.7092 123.556 58.0502V60.0676H119.319V58.0502C119.319 54.7092 116.474 52 112.963 52C109.453 52 106.608 54.7092 106.608 58.0502V60.0676H102.371V58.0502C102.371 54.7092 99.525 52 96.0146 52C92.505 52 89.6593 54.7092 89.6593 58.0502V60.0676H85.4221V58.0502C85.4221 54.7092 82.5773 52 79.0668 52C75.5563 52 72.7115 54.7092 72.7115 58.0502V60.0676H62.1181C60.9489 60.0676 60 60.97 60 62.084V158.892C60 160.006 60.9489 160.91 62.1181 160.91H137.015C142.854 170.551 155.798 173.862 165.927 168.304C176.055 162.744 179.532 150.422 173.693 140.78C171.833 137.707 169.154 135.157 165.927 133.386ZM144.742 58.0502C144.742 56.9362 145.69 56.0338 146.86 56.0338C148.03 56.0338 148.978 56.9362 148.978 58.0502V66.1178C148.978 67.2318 148.03 68.1352 146.86 68.1352C145.69 68.1352 144.742 67.2318 144.742 66.1178V58.0502ZM127.793 58.0502C127.793 56.9362 128.742 56.0338 129.912 56.0338C131.081 56.0338 132.03 56.9362 132.03 58.0502V66.1178C132.03 67.2318 131.081 68.1352 129.912 68.1352C128.742 68.1352 127.793 67.2318 127.793 66.1178V58.0502ZM110.845 58.0502C110.845 56.9362 111.793 56.0338 112.963 56.0338C114.133 56.0338 115.081 56.9362 115.081 58.0502V66.1178C115.081 67.2318 114.133 68.1352 112.963 68.1352C111.793 68.1352 110.845 67.2318 110.845 66.1178V58.0502ZM93.8964 58.0502C93.8964 56.9362 94.8454 56.0338 96.0146 56.0338C97.1847 56.0338 98.1336 56.9362 98.1336 58.0502V66.1178C98.1336 67.2318 97.1847 68.1352 96.0146 68.1352C94.8454 68.1352 93.8964 67.2318 93.8964 66.1178V58.0502ZM76.9487 58.0502C76.9487 56.9362 77.8967 56.0338 79.0668 56.0338C80.237 56.0338 81.1849 56.9362 81.1849 58.0502V66.1178C81.1849 67.2318 80.237 68.1352 79.0668 68.1352C77.8967 68.1352 76.9487 67.2318 76.9487 66.1178V58.0502ZM64.2372 64.1014H72.7115V66.1178C72.7115 69.4598 75.5563 72.168 79.0668 72.168C82.5773 72.168 85.4221 69.4598 85.4221 66.1178V64.1014H89.6593V66.1178C89.6593 69.4598 92.505 72.168 96.0146 72.168C99.525 72.168 102.371 69.4598 102.371 66.1178V64.1014H106.608V66.1178C106.608 69.4598 109.453 72.168 112.963 72.168C116.474 72.168 119.319 69.4598 119.319 66.1178V64.1014H123.556V66.1178C123.556 69.4598 126.401 72.168 129.912 72.168C133.421 72.168 136.267 69.4598 136.267 66.1178V64.1014H140.504V66.1178C140.504 69.4598 143.35 72.168 146.86 72.168C150.37 72.168 153.216 69.4598 153.216 66.1178V64.1014H161.689V80.2356H64.2372V64.1014ZM64.2372 156.876V84.2694H161.689V131.586C150.528 128.245 138.634 134.151 135.125 144.777C133.825 148.715 133.825 152.938 135.125 156.876H64.2372ZM155.334 166.96C145.974 166.96 138.385 159.737 138.385 150.826C138.385 141.915 145.974 134.69 155.334 134.69C164.694 134.69 172.282 141.915 172.282 150.826C172.271 159.732 164.69 166.95 155.334 166.96Z" fill="white"/>
<path d="M162.484 143.199L153.374 150.141L148.36 145.365C147.532 144.578 146.19 144.578 145.363 145.366C144.536 146.154 144.537 147.432 145.364 148.219L151.72 154.27C152.483 154.997 153.699 155.061 154.542 154.419L165.134 146.351C166.049 145.656 166.197 144.386 165.466 143.515C164.734 142.645 163.4 142.503 162.486 143.199H162.484Z" fill="white"/>
</g>
<defs>
<clipPath id="clip0">
<rect width="125" height="119" fill="white" transform="translate(60 52)"/>
</clipPath>
</defs>
</svg>
