<svg width="110" height="94" viewBox="0 0 110 94" fill="none" xmlns="http://www.w3.org/2000/svg">
<path d="M109.842 35.3561C109.463 34.3208 108.455 33.5664 107.241 33.4099L73.1404 29.0129L57.89 1.59393C57.3471 0.617859 56.2269 0 55.0001 0C53.7736 0 52.6532 0.618049 52.1103 1.59393L36.8589 29.013L2.75921 33.4099C1.54535 33.5664 0.53687 34.321 0.157886 35.3561C-0.221312 36.3913 0.0949372 37.5277 0.973217 38.2874L25.6476 59.6303L19.8236 89.767C19.6163 90.8397 20.1134 91.924 21.1058 92.5636C22.0979 93.2032 23.4132 93.2877 24.4996 92.7813L54.9999 78.5529L85.4993 92.7815C85.9709 93.0015 86.4856 93.11 86.9987 93.11C87.6668 93.11 88.332 92.9258 88.8932 92.5638C89.8855 91.924 90.3827 90.8399 90.1754 89.767L84.3497 59.6303L109.027 38.2876C109.905 37.5277 110.221 36.3913 109.842 35.3561ZM78.6376 56.5841C77.8779 57.241 77.5312 58.1877 77.7108 59.1154L82.719 85.0228L56.4999 72.791C55.5611 72.3531 54.4394 72.3531 53.5005 72.791L27.2799 85.0229L32.2866 59.1152C32.4658 58.1876 32.1193 57.2412 31.36 56.5843L10.1483 38.2365L39.4626 34.4563C40.5124 34.321 41.4194 33.7361 41.8891 32.8921L54.9999 9.32049L68.1103 32.892C68.5799 33.7359 69.487 34.321 70.5367 34.4563L99.8515 38.2363L78.6376 56.5841Z" fill="#F7D8A4"/>
</svg>
