<svg width="108" height="82" viewBox="0 0 108 82" fill="none" xmlns="http://www.w3.org/2000/svg">
<rect width="108" height="82" rx="20" fill="#F4A936"/>
<path d="M82.9875 63.05L68.8125 48.35C68.1375 47.65 67.125 47.3 66.1125 47.3C68.8125 43.8 70.5 38.9 70.5 34C70.5 22.45 61.3875 13 50.25 13C39.1125 13 30 22.45 30 34C30 45.55 39.1125 55 50.25 55C54.975 55 59.7 53.25 63.075 50.1C63.075 51.15 63.075 52.2 64.0875 52.9L78.2625 67.6C78.9375 68.3 79.95 68.65 80.625 68.65C81.3 68.65 82.3125 68.3 82.9875 67.6C84.3375 66.55 84.3375 64.45 82.9875 63.05ZM50.25 49.75C41.8125 49.75 35.0625 42.75 35.0625 34C35.0625 25.25 41.8125 18.25 50.25 18.25C58.6875 18.25 65.4375 25.25 65.4375 34C65.4375 42.75 58.6875 49.75 50.25 49.75Z" fill="white"/>
</svg>
