<svg width="412" height="285" viewBox="0 0 412 285" fill="none" xmlns="http://www.w3.org/2000/svg">
<path d="M67.0702 127.662C66.9223 127.932 66.954 127.876 67.0702 127.662V127.662Z" fill="white"/>
<path d="M61.4239 114.541C61.1692 114.781 60.9727 115.082 60.8508 115.419C60.6703 116.004 61.0206 115.352 61.4239 114.541Z" fill="white"/>
<path d="M50.3852 161.657C50.0199 162.147 49.7133 162.684 49.4724 163.254C49.3344 163.716 49.6847 162.996 50.3852 161.657Z" fill="white"/>
<path d="M58.781 115.678C58.7159 115.772 58.6557 115.87 58.6006 115.97C58.4308 116.319 58.5475 116.117 58.781 115.678Z" fill="white"/>
<path d="M119.218 138.453C120.099 138.971 122.094 139.882 122.094 139.882L118.209 137.002L121.585 138.127C121.585 138.127 117.445 134.751 118.401 135.033C118.816 135.194 119.22 135.386 119.611 135.606C118.316 134.582 116.702 133.131 116.702 133.131C116.702 133.131 116.628 131.342 117.265 132.006C117.902 132.67 121.627 135.348 121.627 135.348L119.791 130.52L123.824 136.327L121.277 129.057L118.761 125.096C118.149 124.67 117.469 124.361 116.755 124.185C116.129 124.185 115.439 123.735 114.813 123.735H114.187L114.675 122.137L112.117 122.351L115.301 121.473L112.297 121.09C112.297 121.09 115.482 119.965 114.601 119.684C113.72 119.403 108.912 118.559 108.912 118.559L112.966 118.199L112.213 117.94L114.643 116.814C114.643 116.814 109.018 116.814 109.952 116.522C111.604 116.186 113.273 115.953 114.951 115.824L111.565 114.699L114.059 113.36L111.745 113.439L113.231 111.312L111.172 111.919C111.172 111.919 113.847 109.32 113.157 109.523C112.467 109.725 109.973 110.648 109.973 110.648C109.973 110.648 113.157 107.576 112.266 107.914C111.374 108.251 109.336 109.331 109.336 109.331L110.132 106.743C109.952 107.34 108.275 108.735 108.275 108.735L108.763 107.148C108.763 107.148 113.497 105.258 112.308 105.067C111.119 104.875 106.683 104.448 106.067 105.067C105.451 105.685 104.326 106.676 104.326 106.676L105.494 102.715L102.394 106.709L102.49 102.332L101.429 107.047L100.983 105.787L100.134 108.577L99.5605 107.058L98.8812 109.253L97.9578 110.907L96.5354 113.506C96.5354 114.17 96.5354 115.689 96.5354 115.689L96.2595 117.343L95.0919 119.808H93.8395L96.0578 105.809L93.6166 113.776L95.0601 105.685C95.0601 105.685 92.1943 115.712 92.311 114.688C92.4278 113.664 93.2451 104.211 93.2451 104.211C93.2451 104.211 91.1222 112.088 90.9949 112.865C91.1541 112.088 90.496 104.369 90.496 104.369L89.6575 109.804C89.6575 109.804 89.2966 102.186 88.9888 103.187C88.681 104.189 87.7576 106.563 87.7576 106.563L86.4945 101.59C86.4945 101.59 87.0995 107.081 86.9615 106.158C86.8235 105.235 84.5415 98.4838 84.4884 99.4065C84.4354 100.329 85.1465 104.695 84.637 104.301C83.6029 102.655 82.6738 100.937 81.8561 99.1589L82.6416 104.054L79.935 100.678L81.4528 104.504L79.9668 103.3L78.1306 101.815L74.8083 102.749C74.8083 102.749 77.2071 103.48 76.5809 103.48C75.9547 103.48 73.0782 103.367 73.8318 103.626C74.5854 103.885 78.2686 104.752 77.2071 104.752C76.1457 104.752 71.9638 104.92 71.9638 104.92C71.9638 104.92 77.5256 105.742 76.0927 106.349C74.6597 106.957 72.6112 108.229 73.4816 108.094C74.3519 107.959 77.6635 107.34 77.6635 107.34C77.6635 107.34 73.6302 111.008 75.6787 109.736C77.6389 108.799 79.7216 108.18 81.8561 107.902C81.8561 107.902 77.8121 110.907 78.8736 110.153C79.935 109.399 83.4164 108.195 83.0449 108.735C82.6734 109.275 80.0093 111.863 80.8159 111.267C81.6226 110.67 86.1867 110.693 85.1253 110.772L81.2617 113.18L84.9448 112.685C84.9448 112.685 81.336 114.935 82.5885 114.935C83.841 114.935 87.0889 115.172 87.0889 115.172C87.0889 115.172 83.9046 116.713 84.5309 116.713C85.1571 116.713 87.9062 117.22 87.9062 117.22L85.2951 118.952L87.609 118.874L85.38 121.406L87.5559 121.057C87.5559 121.057 86.0169 124.714 86.4945 123.78C87.1071 122.995 87.8707 122.359 88.7341 121.912L89.3603 123.228C89.3603 123.228 87.8213 125.558 88.6279 125.625C89.2953 125.576 89.939 125.343 90.496 124.95L89.148 128.664C89.148 128.664 83.841 121.09 83.0343 119.504C82.2276 117.917 80.9964 114.62 80.9964 114.62L81.145 117.535C80.223 115.196 78.6681 113.199 76.6764 111.796C73.9028 109.949 70.9878 108.353 67.9622 107.025C67.0176 106.698 69.0236 106.755 64.2048 106.394C59.386 106.034 58.3352 107.227 58.3352 107.227C58.3352 107.227 61.5195 107.767 62.496 107.869C61.3785 108.294 60.3102 108.853 59.3117 109.534C59.3117 109.534 63.3026 108.712 62.0608 109.388C60.7139 110.376 59.4656 111.507 58.3352 112.763L60.5217 112.415C60.5217 112.415 59.3223 114.665 58.781 115.644C59.8546 114.494 61.0433 113.471 62.3261 112.595C62.3261 112.595 61.8485 113.641 61.4239 114.508C62.1881 113.697 63.3663 113.124 63.0903 113.517C62.8144 113.911 60.4156 116.117 62.0289 115.115C63.2028 114.403 64.4313 113.797 65.7014 113.304C65.7014 113.304 63.4088 116.038 64.0244 115.363C64.8828 114.825 65.8367 114.48 66.8265 114.35C66.8265 114.35 64.0987 117.152 65.4042 116.286C66.6423 115.644 67.9674 115.211 69.3314 115.003C69.3314 115.003 66.4126 117.737 67.7181 116.859C68.1132 116.62 68.5336 116.431 68.9706 116.297C70.052 115.968 71.1555 115.727 72.2716 115.577L71.0934 117.366L72.8766 116.781C74.1503 116.353 75.5726 115.892 74.9994 116.083C74.0654 116.421 76.0608 117.996 76.0608 117.996L74.0017 118.604L77.0585 118.784C78.263 119.738 79.5213 120.614 80.8266 121.406C80.8266 121.406 68.9918 116.657 65.2026 120.19C61.4133 123.724 59.0039 128.844 59.6938 127.977C60.3838 127.111 62.6021 124.601 62.6021 124.601C62.6021 124.601 61.01 128.461 62.0608 127.054C63.1116 125.648 67.4634 121.653 67.4634 121.653L65.054 126.773L68.4823 125.096L67.0813 127.651C67.6226 126.706 70.6688 124.748 70.6688 124.748C70.6688 124.748 68.3125 129.001 69.0555 127.932C69.9564 127.046 71.0182 126.365 72.176 125.929L71.0616 127.527C71.433 126.998 73.8531 125.186 73.4816 125.715C73.1101 126.244 70.6264 128.922 71.9319 128.045C72.6368 127.562 73.3874 127.158 74.1715 126.841L73.7469 128.236C74.1715 126.841 76.0502 126.165 75.8698 126.762C75.6221 127.352 75.3123 127.911 74.9463 128.427C74.9463 128.427 76.687 126.818 76.5066 127.426C76.3262 128.033 74.6491 130.081 75.5089 129.282C76.3686 128.484 78.8099 127.336 78.1942 128C77.5786 128.664 76.0183 129.676 77.1328 129.406C78.057 129.211 78.9937 129.091 79.935 129.046L79.2557 129.913C79.7248 129.929 80.1894 130.016 80.6355 130.171C81.3151 130.438 81.9811 130.743 82.631 131.083C82.631 131.083 70.2549 128.832 67.007 129.215C63.759 129.598 63.016 130.036 62.0183 130.565C61.0206 131.094 64.5869 131.015 64.5869 131.015L58.7173 132.512L63.154 132.287L57.6665 133.907L62.5384 134.279L58.3671 135.696C58.3671 135.696 61.0524 136.405 60.4262 136.405C59.8 136.405 57.7514 137.024 55.756 137.441C53.7605 137.857 53.1449 139.174 51.5103 139.691C49.8758 140.209 47.3496 143.067 47.3496 143.067L49.2177 142.392L47.1798 145.059L45.7469 146.927C45.7469 146.927 45.8212 148.705 46.3731 148.243C46.925 147.782 48.6764 146.173 48.6764 146.173L47.5088 148.626L49.3132 147.501C49.3132 147.501 46.7128 152.553 47.4557 151.495C48.1987 150.438 50.4383 147.894 50.4383 147.894C50.4383 147.894 47.9758 153.206 48.3155 152.677C48.6551 152.148 52.5611 146.218 52.5611 146.218C52.5611 146.218 50.778 150.719 51.3299 150.201C51.8818 149.684 54.684 146.071 54.684 146.071C54.684 146.071 53.389 148.93 54.1957 148.322C55.2466 147.275 56.2222 146.147 57.1146 144.946C57.1146 144.946 55.3845 148.536 56.3185 147.534C57.2526 146.533 58.9827 144.271 58.9827 144.271C58.9827 144.271 57.571 148.851 58.0699 147.917C58.5687 146.983 61.2541 143.517 61.2541 143.517C61.2541 143.517 60.2776 146.15 60.543 146.218C59.7787 147.107 58.8553 148.21 57.7302 149.594C54.8899 153.341 52.4015 157.374 50.3003 161.634C51.6802 159.597 54.0896 156.705 54.0896 156.705C54.0896 156.705 52.2427 160.7 53.2935 159.293C54.3443 157.887 55.7772 155.918 55.7772 155.918C55.7772 155.918 54.9918 158.483 54.8538 158.911C55.0448 158.314 58.2609 153.915 58.2609 153.915C58.2609 153.915 57.4967 156.424 57.1995 157.504C57.4941 156.605 57.8488 155.728 58.2609 154.882C59.0888 153.206 60.0016 151.653 60.0016 151.653L61.7424 150.055C61.7424 150.055 60.8508 152.947 60.5217 154.038C61.1374 152.047 64.7674 146.915 64.7674 146.915C64.7674 146.915 62.9842 152.035 63.4194 151.304C63.8546 150.573 66.6036 146.24 66.6036 146.24C66.6036 146.24 64.5763 151.484 64.8204 150.741C65.0646 149.999 59.9804 155.67 57.8364 162.647L61.5725 159.969C61.5725 159.969 55.6711 165.595 56.5414 165.494C57.4118 165.392 60.9675 163.243 60.596 163.817C60.2245 164.391 56.5733 170.13 56.5733 170.13C56.5733 170.13 61.0418 165.73 60.3625 166.596C59.6832 167.463 57.1783 171.649 57.1783 171.649C57.1783 171.649 60.4687 168.386 59.8424 169.05C59.0336 170.51 58.3549 172.047 57.8151 173.641L60.1715 170.704C60.1715 170.704 58.6961 174.158 59.248 173.697C59.5771 173.416 61.2329 172.088 62.5384 171.03C56.2973 181.371 46.8932 197.058 41.0342 207.264C31.6407 223.625 10.837 264.99 7.42988 269.975C6.11373 271.911 3.18424 277.582 0 283.794C3.5345 283.422 7.42988 283.107 11.2934 282.938C12.652 280.226 13.7453 277.953 14.3185 276.547C16.8977 270.178 32.0547 235.013 32.7446 234.146C33.4345 233.28 39.5058 218.201 48.6658 201.784C57.8257 185.366 63.9713 172.932 67.1343 169.398C68.4717 167.913 70.6052 165.482 72.6325 163.176L72.038 164.301L73.9168 161.747L74.6491 160.914C74.0335 162.163 72.5263 165.336 73.8425 163.817C75.4558 161.949 77.9395 158.63 77.9395 158.63L72.4308 167.733C72.4308 167.733 71.8895 170.85 71.4649 172.234C71.0403 173.618 70.0532 176.15 70.0532 176.15L73.1525 172.155L70.7856 178.997C70.7856 178.997 72.3989 177.129 72.1548 177.872C71.9107 178.614 69.5119 183.779 69.5119 183.779L73.5877 177.264L72.6112 180.449L73.9911 176.296L75.3709 172.155L78.035 168.892C78.035 168.892 75.7636 175.644 76.1988 174.867C76.634 174.091 80.6992 165.629 80.6992 165.629L77.9501 174.631L77.0267 178.277L82.3974 167.575C82.3974 167.575 81.1025 171.806 80.8053 172.752C81.2405 171.356 84.4884 162.793 84.4884 162.793C84.4418 162.143 84.6403 161.499 85.0404 161.004C85.7197 160.137 87.0358 160.587 87.0358 160.587L84.4778 170.276L87.195 166.158C87.195 166.158 84.8493 173.809 84.6901 174.316C84.8705 173.719 87.7894 169.657 87.7894 169.657L85.3376 177.624L87.0146 176.218L86.0912 179.211L87.0252 178.209L85.8683 181.99L87.5984 180.392L86.261 184.77L91.0904 178.513L91.8652 182.08L92.9267 177.174L93.5953 174.98L94.8584 176.296L94.954 173.247L96.0154 174.698L95.421 171.199L96.3019 171.716L95.5377 168.813L97.2997 170.512L96.3338 166.878L97.5863 167.53L96.5248 164.965L97.9578 165.674L96.5779 163.423L98.0745 163.941L95.8031 160.565L97.0025 161.42L95.5483 158.708L95.1556 157.257L97.427 160.633C97.427 160.633 97.6287 162.028 98.1913 162.219C98.8422 162.285 99.499 162.213 100.123 162.005C100.123 162.005 99.0616 164.729 99.6454 164.931C100.229 165.134 100.134 163.997 100.208 165.122C100.282 166.248 98.8706 170.827 98.8706 170.827L100.176 169.297L99.4543 174.327L100.516 172.932L99.5392 176.116L100.601 174.721L99.38 178.704L101.174 176.24V180.212C101.174 180.212 102.49 180.01 103.509 172.65C103.751 170.88 103.872 169.094 103.87 167.305L104.029 166.878C104.029 166.878 103.88 173.438 103.891 174.102C103.902 174.766 105.356 169.32 105.356 169.32C105.356 169.32 105.653 175.812 105.844 177.86C106.035 179.908 107.627 172.088 107.627 172.088C108.395 169.092 108.65 165.974 108.381 162.883C108.029 160.385 107.354 157.95 106.375 155.648C107.001 154.86 108.444 153.206 108.444 153.206L107.532 156.863L109.325 154.398L107.935 158.978L109.973 155.715C109.973 155.715 109.124 159.822 109.495 159.293C109.867 158.765 110.907 155.377 110.854 156.233C110.801 157.088 110.068 160.813 110.068 160.813C110.068 160.813 111.3 156.829 111.491 158.224C111.622 159.63 111.671 161.043 111.639 162.455C111.639 162.455 112.552 157.482 112.616 158.607C112.68 159.732 113.401 163.502 113.401 163.502C113.401 163.502 113.497 158.472 113.943 159.721C114.388 160.97 115.726 166.068 115.535 164.683C115.344 163.299 114.993 158.99 115.248 160.182C115.503 161.375 116.31 164.942 116.31 164.942C116.31 164.942 115.524 159.383 116.607 161.96C117.161 163.322 117.795 164.645 118.507 165.921L117.785 160.824L119.738 163.266L117.392 158.044L119.515 160.081L116.734 154.939C114.272 150.786 117.594 153.476 112 148.018C106.407 142.561 108.158 143.607 104.337 140.524C100.516 137.441 105.398 141.109 105.398 141.109L104.337 138.532L105.536 139.387L106.003 135.145L108.36 141.683L108.901 138.566C108.901 138.566 109.962 143.326 110.111 142.729C110.283 141.303 110.378 139.868 110.398 138.431L111.459 142.527C111.459 142.527 111.99 138.026 112.52 139.151C113.051 140.276 114.303 144.834 114.303 144.834L115.715 140.918L116.564 146.274L117.541 143.09L118.252 146.859L119.918 143.483L120.311 146.927L119.897 140.175L121.776 140.816C121.776 140.816 118.337 137.925 119.218 138.453ZM101.938 155.603C101.934 155.543 101.934 155.482 101.938 155.422L102.076 155.22L101.938 155.603ZM103.859 166.135C103.859 165.797 103.859 165.46 103.859 165.122C104.252 164.503 104.549 163.997 104.549 163.997C104.549 163.997 104.231 164.909 103.859 166.113V166.135ZM107.245 152.396C107.245 152.396 106.566 154.308 106.247 155.355C106.141 155.085 106.024 154.815 105.918 154.534C106.555 153.543 107.245 152.373 107.245 152.373V152.396ZM105.929 151.945C105.929 151.945 105.706 152.688 105.483 153.498C105.419 153.33 105.356 153.172 105.281 153.014L105.929 151.945ZM104.485 149.909C104.404 150.19 104.337 150.475 104.284 150.764C104.22 150.606 104.146 150.46 104.082 150.314C104.401 149.774 104.602 149.504 104.485 149.886V149.909ZM104.294 159.969L103.573 162.332C103.573 161.927 103.466 161.544 103.413 161.206C103.912 160.475 104.294 159.946 104.294 159.946V159.969ZM103.403 156.795L102.883 158.483C102.808 158.202 102.745 157.932 102.67 157.673L103.403 156.795Z" fill="white"/>
<path d="M119.611 135.651C120.049 136.038 120.526 136.374 121.033 136.653C121.532 136.833 120.555 136.18 119.611 135.651Z" fill="white"/>
<path d="M291.156 88.7389C291.156 89.2678 291.74 87.8612 292.44 85.9933C291.865 86.8224 291.43 87.7515 291.156 88.7389Z" fill="white"/>
<path d="M312.904 94.6916C312.693 95.384 312.527 96.0908 312.406 96.8071C312.289 97.7636 312.586 96.3457 312.904 94.6916Z" fill="white"/>
<path d="M393.317 84.2828C393.657 85.1943 394.007 85.982 394.007 85.982L393.317 84.2828Z" fill="white"/>
<path d="M385.494 60.3596C386.179 61.2999 386.974 62.1432 387.861 62.8689C389.008 63.6116 387.087 61.7887 385.494 60.3596Z" fill="white"/>
<path d="M396.851 284.93C393.601 277.556 390.814 269.963 388.509 262.199C378.033 227.226 376.058 191.645 373.776 178.929C371.494 166.214 360.551 131.195 358.588 126.559C356.811 121.987 355.474 117.237 354.597 112.381L358.991 119.965L358.651 118.21L358.078 115.25L358.025 112.257L361.209 117.985L359.808 108.341L361.252 110.592L359.415 104.594L360.211 105.168L359.904 101.083L359.808 99.8341L359.596 96.3682L360.806 100.442L361.411 95.7156L362.143 100.217L364.807 96.2444L364.298 100.295C364.933 99.4338 365.613 98.611 366.336 97.8311C365.795 98.675 363.714 103.187 363.714 103.187L367.196 99.564L364.584 106.529L367.917 102.411L365.211 108.454L368.565 104.11L365.179 112.111L368.947 106.237C368.947 106.237 365.189 113.72 366.092 113.394C366.994 113.067 371.399 107.767 371.399 107.767L370.231 113.562L372.683 109.556L372.025 114.733L373.925 109.962L373.288 116.713L374.976 111.908L374.657 117.827L376.016 117.332L377.247 119.583L378.117 114.429V121.315L378.691 116.814L380.092 121.147L380.729 117.771L381.673 122.272L382.098 118.896L383.159 122.486L381.45 115.43L381.036 113.697L379.858 110.592L381.472 111.514L380.145 108.341C380.145 108.341 378.309 105.787 379.37 105.944C380.437 106.205 381.476 106.582 382.469 107.07L378.595 103.727L373.129 97.4485L376.101 97.8648C376.101 97.8648 372.163 94.7816 373.012 94.9054C373.861 95.0292 376.387 95.6143 376.387 95.6143L371.972 92.9249L377.279 91.7996L378.16 96.7508L379.657 93.5213L379.232 98.5062L381.355 95.3667L380.463 102.355L382.894 98.5738L382.278 105.134L383.701 100.746L383.849 108.105L385.409 102.602L386.779 110.592L388.583 104.887L389.644 111.458L390.589 107.463L391.226 110.997L391.693 109.005L392.945 111.908L394.527 115.599L395.96 116.263L395.121 109.264L398.306 116.364L398.539 111.132L401.585 117.748L400.927 112.583L400.715 110.986L399.93 106.968L401.702 108.364L399.823 105.382L400.885 105.528C400.885 105.528 392.786 101.162 394.06 101.342C395.334 101.522 401.426 104.718 401.426 104.718C401.426 104.718 396.936 100.858 394.187 98.6413C391.438 96.4245 391.29 95.9294 389.061 93.0937C386.832 90.258 384.316 87.8274 383.191 86.5221C381.99 85.0296 380.638 83.6823 379.158 82.5049C377.597 81.2221 378.33 81.3796 377.587 80.8057C377.205 80.5244 376.451 80.063 374.827 79.1403C371.787 77.3928 368.855 75.4421 366.049 73.3002L373.585 75.2919L380.569 81.5597C380.569 81.5597 374.254 75.1569 375.071 75.5057C376.774 76.6433 378.421 77.8714 380.007 79.1853C380.007 79.1853 377.035 75.3256 377.884 75.8995C378.733 76.4734 384.422 82.3361 384.422 82.3361C384.422 82.3361 380.835 76.5409 382.299 77.2049C383.764 77.8688 387.607 83.0113 387.607 83.0113C387.607 83.0113 384.284 76.811 385.813 78.3976C387.341 79.9843 393.54 89.1327 393.54 89.1327C393.54 89.1327 388.233 79.4441 389.294 79.8155C390.066 80.0328 390.874 80.0712 391.661 79.928L393.434 84.3053C392.924 82.9325 392.436 81.2783 393.19 81.5146C394.431 81.9197 398.051 87.4898 398.051 87.4898C398.051 87.4898 394.973 81.087 396.395 81.7509C397.817 82.4149 401.193 89.9992 401.193 89.9992L400.704 85.3406C400.704 85.3406 402.381 90.8544 402.498 89.9542C402.615 89.054 401.989 83.6864 401.989 83.6864L404.313 89.3128L404.43 84.9805L405.98 89.7854L406.043 85.892L407.858 90.2805C407.858 90.2805 406.436 86.1845 407.593 87.2648C408.714 88.5816 409.693 90.0271 410.512 91.5746C410.512 91.5746 406.478 84.1253 407.328 84.249C408.396 84.5829 409.427 85.0356 410.406 85.5994C410.406 85.5994 404.207 79.9055 405.693 80.1193C406.616 80.2486 407.528 80.4555 408.421 80.7382L401.914 77.5087L406.107 78.5664C406.107 78.5664 396.65 74.6955 397.287 74.7855L394.527 74.3917C394.527 74.3917 394.283 71.1509 388.233 67.7638C382.183 64.3768 377.619 62.8126 376.557 62.6551C375.496 62.4975 380.898 62.5876 380.898 62.5876C380.898 62.5876 376.95 61.3385 377.82 61.2373C379.679 61.3233 381.531 61.5111 383.371 61.7999C383.371 61.7999 378.139 58.7616 378.988 58.8742C379.837 58.9867 385.526 61.8787 385.526 61.8787L383.828 58.8292C383.828 58.8292 384.603 59.5156 385.494 60.337C383.531 57.8614 381.344 54.5756 381.344 54.5756L386.959 59.7406C386.959 59.7406 384.072 55.2396 385.112 55.5771C386.152 55.9147 389.018 58.8854 389.018 58.8854C389.018 58.8854 388.02 55.7909 387.607 54.6544C388.481 55.7525 389.436 56.7759 390.462 57.7151L389.591 54.3393L392.468 58.8404L392.659 55.6559L395.482 60.6409L394.941 56.5786L396.958 59.3806C396.958 59.3806 395.588 54.8795 396.512 56.1173C397.475 57.6396 398.357 59.2174 399.155 60.8434C399.155 60.8434 398.422 56.3423 399.579 57.4676C400.932 59.0648 402.164 60.773 403.262 62.5763C403.262 62.5763 401.479 56.1285 402.201 56.95C402.833 57.724 403.378 58.5737 403.825 59.4818C403.825 59.4818 402.901 56.5899 403.719 56.9387C404.774 57.6575 405.756 58.4909 406.648 59.4256C406.648 59.4256 405.237 56.9275 406.054 57.2763C406.871 57.6251 408.495 58.5366 408.495 58.5366C408.495 58.5366 405.502 56.5111 407.752 57.5126C409.115 58.1282 410.396 58.9302 411.563 59.8982L407.137 55.5884L411.69 57.1638C411.69 57.1638 405.481 53.2928 406.118 53.3829C406.754 53.4729 409.153 53.3829 408.325 53.0115C407.497 52.6402 402.466 51.4924 404.005 51.2448C405.094 51.0559 406.161 50.7467 407.19 50.3221L401.691 49.3094C401.691 49.3094 404.6 48.5779 403.538 48.4204C402.477 48.2629 394.686 48.3079 394.686 48.3079C394.686 48.3079 402.434 46.89 391.735 47.6552C389.613 47.8128 387.638 48.0041 385.845 48.2179L385.006 47.8465L388.923 47.7115L383.722 46.0573C384.995 46.2374 383.042 44.5832 383.042 44.5832L375.411 43.2104C375.411 43.2104 379.72 43.3679 378.903 43.0191C378.086 42.6703 375.952 42.3777 371.887 42.0176C369.711 41.8376 366.58 43.4242 364.096 44.9321C363.035 44.8533 361.581 44.9321 361.581 44.9321C362.734 44.3424 363.949 43.9005 365.2 43.6155C366.262 43.5367 363.502 43.3679 363.502 43.3679C365.505 42.905 367.469 42.2651 369.371 41.455C370.55 40.701 367.121 40.4422 367.121 40.4422L370.507 39.317L377.597 39.6433C377.597 39.6433 368.82 37.2352 370.454 36.3237C372.089 35.4123 371.993 36.0874 372.842 36.2112L375.39 36.5713C375.39 36.5713 382.926 38.563 385.685 38.9569C388.445 39.3507 379.572 36.0199 379.572 36.0199L384.03 36.6613C383.192 36.1373 382.306 35.7038 381.387 35.3673C380.75 35.2772 384.178 35.5361 384.178 35.5361C382.924 34.8581 381.622 34.2862 380.283 33.8256C379.434 33.7131 384.528 32.8354 384.528 32.8354L378.16 31.9239L383.998 30.236C383.998 30.236 372.577 31.5864 368.639 31.9352C364.701 32.284 365.646 33.3418 364.319 33.6118C362.992 33.8819 360.477 38.338 360.477 38.338L361.697 35.5361C361.697 35.5361 357.781 39.1032 356.762 40.3297C355.743 41.5563 351.625 50.1421 351.625 50.1421C351.441 48.3308 351.165 46.5314 350.797 44.752C351.56 44.0331 352.437 43.4617 353.387 43.0641C354.745 42.569 350.871 42.4677 350.871 42.4677L353.408 41.2299L350.521 40.1047L351.264 39.2945C352.017 38.4843 352.718 38.1692 356.337 36.8076C359.957 35.446 358.959 34.8946 358.959 34.8946L356.995 35.0634L354.682 34.5121L353.62 34.7821L350.669 35.5361L353.854 32.5541L348.281 33.8256C348.281 33.8256 351.051 30.7874 353.747 30.0222C356.443 29.257 356.38 29.7071 356.38 29.7071L361.687 32.0702L359.638 29.4821L362.547 28.7507C362.547 28.7507 360.349 27.2991 359.362 26.6914C358.375 26.0838 362.547 25.7687 363.417 25.4424C364.287 25.116 360.233 24.981 358.534 24.7447C356.836 24.5084 360.763 22.4942 360.763 22.4942L357.675 22.9668L359.628 21.1776L358.492 19.8723L356.242 20.9976L354.119 22.0215L356.157 19.5685C352.927 21.6057 349.986 24.1175 347.421 27.029C343.611 31.5301 343.112 33.7806 343.112 33.7806L342.051 30.191L341.18 35.3448L339.058 29.9997L339.344 34.6246L337.699 30.4948L337.529 31.8452L339.864 39.0469L339.663 40.6335L340.48 44.4144L338.813 48.9943L341.255 46.8113L339.928 52.1338L342.401 49.7257C341.502 51.0915 340.673 52.5076 339.917 53.968C339.588 54.8344 340.979 52.7302 340.979 52.7302L338.675 57.2313C338.675 57.2313 342.051 54.4969 342.741 54.148C343.431 53.7992 342.178 55.2058 341.414 57.8502C341.192 58.6159 341.046 59.4041 340.979 60.202C339.207 59.0614 337.355 58.0682 335.438 57.2313C325.004 52.5277 323.943 52.3814 321.725 52.7302C319.844 53.2431 318.052 54.0712 316.418 55.1833C316.418 55.1833 320.6 54.6319 319.931 54.7669C319.262 54.902 315.176 58.2103 315.866 57.8502C316.556 57.4901 320.801 56.4886 320.801 56.4886L317.702 60.4045C317.702 60.4045 321.258 57.9402 320.748 58.5479C320.131 59.498 319.575 60.4904 319.082 61.5186L321.205 59.9882L320.44 62.6326L322.34 61.0797L321.767 65.5808L322.213 66.7061L321.374 66.8749C313.573 68.7428 307.756 68.6078 304.19 71.0721C300.624 73.5365 295.996 77.7 294.86 79.8267C294.255 80.952 293.247 83.7877 292.43 85.9595C294.064 83.18 296.675 79.3991 296.675 79.3991C296.675 79.3991 295.518 86.8034 296.017 84.5754C296.516 82.3474 299.722 77.5424 299.722 77.5424C299.722 77.5424 297.238 81.7735 298.979 79.9618C300.719 78.1501 302.683 76.3609 302.683 76.3609C302.683 76.3609 299.212 83.2026 301.505 80.5469C303.797 77.8913 305.75 75.877 305.75 75.877C305.75 75.877 304.286 78.8815 305.549 77.4637C306.812 76.0458 308.308 74.4142 308.308 74.4142C308.308 74.4142 304.753 80.3218 306.313 78.2514C307.493 76.7454 308.758 75.3174 310.102 73.9753C310.102 73.9753 308.139 79.2078 309.158 77.97C310.228 76.8277 311.374 75.7673 312.586 74.7968C312.586 74.7968 309.996 79.928 310.803 78.6677C311.227 78.0038 312.299 76.5859 313.212 75.4044L314.698 73.4915H316.641C316.641 73.4915 312.501 78.859 314.433 77.3061L315.314 76.5634C314.734 77.9621 314.283 79.4167 313.966 80.907C311.981 89.7966 310.548 97.6173 310.877 96.7508C311.206 95.8844 313.615 90.4831 313.531 91.1245C313.531 91.4508 313.191 93.1049 312.894 94.579C313.669 91.8446 315.017 87.9062 315.017 87.9062C315.017 87.9062 313.87 96.9084 314.369 94.6578C314.868 92.4073 316.97 86.0832 316.97 86.0832L316.343 91.0344C316.545 89.4591 318.976 82.2461 318.976 82.2461C318.976 82.2461 316.948 91.3608 318.36 88.8064C318.789 88.0005 319.168 87.1661 319.496 86.3083C319.588 86.3235 319.682 86.3035 319.761 86.252C321.152 85.5319 323.625 79.6917 323.625 79.6917C323.625 79.6917 322.149 86.1395 323.104 83.7539C323.886 81.9174 324.765 80.1291 325.737 78.3976C325.737 78.3976 323.996 85.2505 324.675 83.5176C325.355 81.7847 327.86 76.8673 327.86 76.8673C327.86 76.8673 326.151 83.4951 326.798 82.2123C327.451 80.9681 328.178 79.7691 328.974 78.6227C328.974 78.6227 326.448 84.913 327.499 83.4614C328.413 82.2941 329.418 81.21 330.503 80.2206L332.689 80.0743C332.689 80.0743 323.02 88.0862 319.453 94.0051C315.887 99.9241 312.48 104.695 312.023 108.521C311.578 112.01 310.644 119.38 310.569 120.01C310.675 119.11 314.029 109.725 314.029 109.725C314.029 109.725 312.193 119.099 313.361 116.747C314.409 114.262 315.31 111.71 316.057 109.106C316.057 109.106 314.656 120.134 315.664 117.298C316.672 114.463 318.402 106.046 318.402 106.046C318.402 106.046 317.893 115.138 318.7 113.922C319.506 112.707 321.958 103.615 321.958 103.615L321.576 109.984L323.497 103.379C323.497 103.379 323.264 108.611 324.017 107.801C324.771 106.991 326.735 101.77 326.735 101.77L326.331 104.932L329.844 96.0306C329.844 96.0306 329.123 101.657 329.452 100.791C329.781 99.9241 332.127 93.375 332.127 93.375C332.127 93.375 330.98 98.9451 331.553 97.8761C332.126 96.8071 335.236 87.6249 335.236 87.6249V94.2752L335.512 93.51L336.892 89.6954C336.892 89.6954 339.015 89.9992 338.24 91.0344C337.465 92.0697 335.13 96.7846 335.13 96.7846C335.13 96.7846 333.358 102.265 332.859 104.481C332.36 106.698 331.797 109.151 331.797 109.151L335.449 102.568L333.761 108.971L335.438 106.001L334.674 112.088L335.863 109.5L335.035 116.038C335.035 116.038 336.478 111.424 336.584 112.358C336.691 113.292 336.977 121.124 336.977 121.124C338.23 121.529 339.461 128.821 339.556 128.146C339.652 127.471 340.363 123.442 340.363 123.442C340.363 123.442 340.119 130.52 340.437 129.642C340.756 128.765 342.083 121.856 342.083 121.856C342.083 121.856 342.284 128.765 342.412 129.462C342.539 130.16 343.473 128.011 343.473 128.011L344.768 131.387C346.111 129.658 347.352 127.843 348.483 125.952C349.059 124.702 349.449 123.366 349.64 121.991L349.077 119.616L350.935 120.337L347.294 116.612L351.158 118.536L345.851 114.339L350.51 116.848L349.449 115.081L351.572 115.577C354.628 127.538 359.055 145.678 364.213 167.182C370.21 192.174 376.844 246.749 376.844 246.749C376.844 246.749 382.565 267.432 388.519 284.896L396.851 284.93ZM376.78 49.7482L376.483 49.8158L375.751 49.2756L376.78 49.7482ZM373.978 50.4346L373.309 50.6259C372.513 50.2096 371.791 49.8608 371.791 49.8608L373.978 50.4346ZM371.653 51.0986L371.409 51.1773L371.049 51.3011L369.34 50.4234C369.34 50.4234 370.401 50.6935 371.653 51.0423V51.0986ZM368.82 52.2238L367.928 52.6739L367.62 52.055L368.82 52.2238ZM324.081 66.5485L325.429 64.1517L327.414 62.1375L326.883 66.301C325.928 66.2447 324.994 66.3235 324.081 66.4473V66.5485ZM337.731 66.6723C334.222 66.2972 330.694 66.1694 327.17 66.2897C327.435 65.8509 327.817 65.2207 328.231 64.5793C329.112 63.1615 330.078 61.6874 330.036 62.0587C329.951 62.7339 331.277 62.4638 331.277 62.4638C331.277 62.4638 330.131 66.4247 330.449 65.5583C330.956 64.644 331.573 63.8041 332.286 63.0602V64.8944L333.443 64.343L334.133 64.0167H335.863L335.47 65.3332C335.47 65.3332 338.548 63.2515 338.007 64.0954C337.465 64.9394 336.691 65.9747 336.691 65.9747L338.75 65.1194L337.731 66.6723ZM349.003 110.164L350.33 110.884C350.595 111.874 350.871 112.932 351.158 114.046L349.003 110.164Z" fill="white"/>
<path d="M130.373 69.1592C130.373 69.688 129.779 68.2815 129.078 66.4135C129.66 67.2404 130.098 68.17 130.373 69.1592Z" fill="white"/>
<path d="M108.614 75.1119C108.824 75.8056 108.994 76.5121 109.124 77.2274C109.241 78.1839 108.996 76.7548 108.614 75.1119Z" fill="white"/>
<path d="M28.2017 64.7031C27.8621 65.6146 27.5118 66.4023 27.5118 66.4023L28.2017 64.7031Z" fill="white"/>
<path d="M36.0243 40.8249C35.3335 41.7537 34.5306 42.5822 33.6362 43.2892C32.5748 44.0319 34.4641 42.2089 36.0243 40.8249Z" fill="white"/>
<path d="M129.078 66.4135C128.272 64.2418 127.263 61.4286 126.648 60.2808C125.512 58.154 120.874 54.0018 117.318 51.5262C113.762 49.0506 107.946 49.1969 100.134 47.3289C99.8683 47.2614 99.5817 47.2164 99.2951 47.1601L99.7515 46.0349L99.1784 41.5338L101.11 43.0979L100.335 40.4535L102.458 41.9839C101.961 40.9561 101.4 39.9638 100.781 39.0132C100.272 38.3943 103.827 40.8699 103.827 40.8699L100.739 36.9539C100.739 36.9539 104.984 37.9554 105.674 38.3155C106.364 38.6756 102.267 35.3673 101.598 35.2322C100.93 35.0972 105.112 35.6486 105.112 35.6486C103.477 34.5336 101.686 33.7017 99.8046 33.1843C97.5969 32.8129 96.5354 32.9705 86.1018 37.6853C84.1857 38.5277 82.3334 39.5246 80.5612 40.6673C80.4948 39.8693 80.3489 39.081 80.126 38.3155C79.3618 35.6711 78.0987 34.242 78.7886 34.6021C79.4785 34.9622 82.8645 37.6966 82.8645 37.6966L80.5612 33.1955C80.5612 33.1955 81.9092 35.2998 81.6226 34.4221C81.336 33.5443 79.1389 30.191 79.1389 30.191L81.612 32.5991L80.3383 27.2316L82.7795 29.4146L81.1131 24.8347L81.9304 21.0426L81.7287 19.4672L84.0639 12.2655L83.8834 10.9039L82.2488 15.0449L82.4611 10.4425L80.3383 15.7876L79.4679 10.6338L78.4065 14.2234C78.4065 14.2234 77.9077 11.9729 74.0866 7.4718C71.5226 4.55593 68.5815 2.04029 65.3512 0L67.3997 2.46435L65.2769 1.42909L63.016 0.30382L61.891 1.60914L63.8439 3.39832L60.7552 2.9257C60.7552 2.9257 64.6825 4.88368 62.9842 5.17625C61.2859 5.46882 57.1889 5.54759 58.1017 5.87392C59.0145 6.20025 63.154 6.53782 62.1457 7.13422C61.1373 7.73061 58.9615 9.19347 58.9615 9.19347L61.8697 9.92488L59.8106 12.513L65.1176 10.15C65.1176 10.15 65.054 9.69984 67.7499 10.465C70.4459 11.2302 73.2056 14.2684 73.2056 14.2684L67.6438 12.9969L70.828 15.9789L67.8879 15.2249L66.8265 14.9549L64.5233 15.5062L62.549 15.3375C62.549 15.3375 61.5513 15.9338 65.1707 17.2504C68.7901 18.567 69.4907 18.9271 70.2443 19.7373L70.9979 20.5475L68.1108 21.6727L70.6476 22.9105C70.6476 22.9105 66.7628 23.0118 68.1321 23.4957C69.0833 23.8952 69.9602 24.4705 70.7219 25.1948C70.3536 26.9742 70.0772 28.7736 69.894 30.5849C69.894 30.5849 65.7757 21.999 64.7568 20.7725C63.7378 19.546 59.8212 15.9789 59.8212 15.9789L61.0418 18.7808C61.0418 18.7808 58.5263 14.2797 57.1995 14.0546C55.8727 13.8296 56.8174 12.7381 52.8796 12.378C48.9417 12.0179 37.5209 10.6676 37.5209 10.6676L43.3587 12.3667L36.9902 13.2669C36.9902 13.2669 42.085 14.1447 41.2359 14.2684C39.8968 14.724 38.5942 15.2922 37.3405 15.9676C37.3405 15.9676 40.7688 15.7088 40.132 15.7988C39.2104 16.1435 38.3218 16.5806 37.4785 17.1041L41.9364 16.4627C41.9364 16.4627 33.063 19.8385 35.8227 19.3997C38.5823 18.9608 46.1184 17.0141 46.1184 17.0141L48.6658 16.654C49.5149 16.5302 49.43 15.8551 51.0645 16.7665C52.6991 17.678 43.9106 20.0748 43.9106 20.0748L51.0115 19.7485L54.3974 20.8738C54.3974 20.8738 50.969 21.1326 52.1472 21.8865C54.0482 22.6911 56.0076 23.3308 58.0062 23.7995C58.0062 23.7995 55.2253 23.9683 56.3079 24.047C57.5632 24.3305 58.7819 24.7725 59.938 25.3636C59.938 25.3636 58.452 25.3636 57.4118 25.3636C54.9599 23.8557 51.8075 22.2579 49.621 22.4492C45.5558 22.798 43.433 23.1018 42.6157 23.4507C41.7984 23.7995 46.0971 23.6419 46.0971 23.6419L38.4762 24.9585C38.4762 24.9585 36.5338 26.6127 37.8075 26.4326L32.5747 28.0755L36.4807 28.2105L35.6528 28.5819C33.8591 28.3681 31.906 28.1768 29.7514 28.0193C19.063 27.2541 26.8113 28.6719 26.8113 28.6719C26.8113 28.6719 19.0205 28.6719 17.9591 28.7844C16.8977 28.897 19.806 29.6734 19.806 29.6734L14.3078 30.6862C15.336 31.1105 16.4032 31.4197 17.4921 31.6089C19.0417 31.8452 14 33.0267 13.1827 33.3756C12.3655 33.7244 14.7536 33.8369 15.3905 33.7469C16.0273 33.6569 9.80745 37.5165 9.80745 37.5165L14.3715 35.9524L9.94543 40.251C11.1093 39.2878 12.3867 38.4896 13.7453 37.8766C15.9955 36.8639 13.0129 38.9006 13.0129 38.9006C13.0129 38.9006 14.6263 37.9779 15.4435 37.6403C16.2608 37.3027 14.8598 39.7784 14.8598 39.7784C15.7505 38.8451 16.7325 38.0152 17.7893 37.3027C18.6066 36.9539 17.6725 39.8346 17.6725 39.8346C18.1201 38.9306 18.665 38.0848 19.2965 37.314C20.0607 36.5151 18.2351 42.9404 18.2351 42.9404C19.3506 41.1451 20.5962 39.4445 21.9606 37.8541C23.1282 36.7289 22.3958 41.2299 22.3958 41.2299C23.1953 39.6013 24.0776 38.0198 25.0387 36.4925C25.9515 35.221 24.5823 39.7671 24.5823 39.7671L26.6096 36.9652L26.0577 41.1624L28.8916 36.1775L29.0721 39.362L31.9591 34.8609L31.0888 38.2367C32.1121 37.2944 33.0665 36.2712 33.944 35.176C33.53 36.3013 32.5323 39.407 32.5323 39.407C32.5323 39.407 35.4087 36.4701 36.4383 36.0987C37.4679 35.7274 34.5914 40.2622 34.5914 40.2622L40.2063 35.0972C40.2063 35.0972 38.0198 38.383 36.0456 40.8586L37.712 39.3507L36.1517 42.3215C36.1517 42.3215 41.8409 39.452 42.69 39.3282C43.5391 39.2045 38.2958 42.2539 38.2958 42.2539C40.1358 41.9657 41.9887 41.7779 43.8469 41.6913C44.7279 41.7926 40.7795 43.0416 40.7795 43.0416C40.7795 43.0416 46.1714 42.9629 45.11 43.1091C44.0486 43.2554 39.4951 44.8308 33.4345 48.2179C27.3738 51.605 27.1403 54.8457 27.1403 54.8457L24.3806 55.2396C25.0175 55.1495 15.5603 59.0205 15.5603 59.0205L19.806 57.9627L13.2146 61.0797C14.1122 60.8042 15.0274 60.5974 15.953 60.4608C17.439 60.2583 11.2404 65.9522 11.2404 65.9522C12.2148 65.3879 13.243 64.9353 14.3078 64.6018C15.157 64.4781 11.1236 71.9273 11.1236 71.9273C11.941 70.382 12.9162 68.9367 14.0319 67.6176C15.1994 66.4923 13.7665 70.6333 13.7665 70.6333L15.5921 66.2447L15.6558 70.1382L17.2055 65.3333L17.3222 69.6656L19.6361 64.0392C19.6361 64.0392 19.0205 69.4067 19.1373 70.307C19.254 71.2072 20.931 65.6934 20.931 65.6934L20.4428 70.352C20.4428 70.352 23.7969 62.7564 25.2298 62.0925C26.6627 61.4286 23.5846 67.8314 23.5846 67.8314C23.5846 67.8314 27.204 62.2725 28.4458 61.8674C29.1888 61.6199 28.7112 63.2853 28.1911 64.6581L29.9743 60.2695C30.7608 60.4196 31.5687 60.385 32.3412 60.1683C33.4026 59.7857 28.0956 69.4855 28.0956 69.4855C28.0956 69.4855 34.2836 60.3483 35.8121 58.7504C37.3405 57.1525 34.0183 63.364 34.0183 63.364C34.0183 63.364 37.9136 58.2215 39.3253 57.5576C40.737 56.8937 37.2025 62.6776 37.2025 62.6776C37.2025 62.6776 42.9447 56.815 43.7408 56.2523C44.5369 55.6897 41.5543 59.5381 41.5543 59.5381C43.1394 58.2181 44.7905 56.9898 46.5005 55.8585C47.3178 55.5096 40.9917 61.9124 40.9917 61.9124L47.9864 55.6447L55.5225 53.6529C52.7174 55.7934 49.7854 57.7404 46.7446 59.4818C45.1206 60.4158 44.3564 60.8772 43.9849 61.1585C43.2313 61.7211 43.9849 61.5636 42.414 62.8577C40.9316 64.032 39.5786 65.3795 38.3807 66.8749C37.245 68.1802 34.7506 70.5995 32.5111 73.4352C30.2715 76.2709 30.1229 76.811 27.3738 78.9828C24.6248 81.1546 20.1456 85.0593 20.1456 85.0593C20.1456 85.0593 26.2275 81.8973 27.5118 81.6834C28.7961 81.4697 20.6869 85.8695 20.6869 85.8695L21.7483 85.7232L19.7529 88.7502L21.5254 87.3548L20.74 91.4621L20.5383 93.0712L19.8378 98.2137L22.8947 91.5858L23.1282 96.8296L26.3124 89.7291L25.4739 96.7283L26.8962 96.0644L28.4883 92.3735L29.7408 89.4703L30.2078 91.4621L30.8446 87.9287L31.7787 91.9234L32.8401 85.3518L34.6445 91.0457L36.0137 83.0563L37.574 88.5701L37.7226 81.2108L39.1449 85.5881L38.6354 79.0841L41.066 82.8087L40.1851 75.832L42.3079 78.9715L41.8939 73.9866L43.3905 77.2049L44.2715 72.2649L49.5786 73.3902L45.1631 76.0796C45.1631 76.0796 47.6786 75.4945 48.5278 75.3707C49.3769 75.2469 45.4497 78.3301 45.4497 78.3301L48.4216 77.9138L42.9447 84.1928L39.0387 87.5011C40.0324 87.0135 41.0711 86.6364 42.1381 86.3758C43.1995 86.2183 41.3632 88.7727 41.3632 88.7727L40.0046 91.9009L41.618 90.9782L40.5566 94.1177L40.1426 95.8506L38.4337 102.906L39.4951 99.3165L39.9303 102.692L40.875 98.1912L41.5118 101.567L42.9129 97.2347L43.4861 101.736V94.8379L44.3564 99.9916L45.5877 97.7411L46.9463 98.2362L46.6278 92.3173L48.3155 97.1222L47.668 90.3705L49.5786 95.1417L48.9205 89.9654L51.3724 93.9714L50.2048 88.1763C50.2048 88.1763 54.5566 93.5101 55.5119 93.8026C56.4671 94.0952 52.6567 86.6347 52.6567 86.6347L56.3504 92.5873L52.9539 84.5867L56.3185 88.919L53.6119 82.8875L56.9872 86.961L54.3655 79.9955L57.8576 83.6189C57.8576 83.6189 55.7348 79.1178 55.2359 78.2626C54.737 77.4074 57.2738 80.727 57.2738 80.727L56.7537 76.676L59.4285 80.6482L60.1608 76.1471L60.7552 80.8845L61.9759 76.811L61.7636 80.2769L61.6681 81.5259L61.3602 85.6107L62.1457 85.0368L60.3201 91.0345L61.753 88.7839L60.3837 98.3825L63.568 92.6548V95.6481L62.9948 98.6075L62.6552 100.363L67.0388 92.7786C66.1679 97.6354 64.8343 102.386 63.0585 106.957C61.0524 111.593 50.1411 146.623 47.8591 159.327C45.577 172.031 43.6134 207.624 33.1267 242.597C27.6179 260.984 21.1221 273.925 15.5709 282.826C19.1174 282.743 22.6649 282.934 26.185 283.4C33.5194 268.085 44.8234 227.136 44.8234 227.136C44.8234 227.136 51.4573 172.527 57.433 147.602C62.5809 126.109 66.9857 107.959 70.0744 95.9969L72.1973 95.513L71.1359 97.2685L75.7955 94.7704L70.4884 98.9676L74.3519 97.0434L70.7113 100.768L72.5687 100.048L71.847 102.49C72.0379 103.864 72.4244 105.199 72.9933 106.451C74.1278 108.34 75.3684 110.155 76.7083 111.886L78.0138 108.51C78.0138 108.51 78.9372 110.67 79.0752 109.962C79.2132 109.253 79.4043 102.355 79.4043 102.355C79.4043 102.355 80.7098 109.275 81.0388 110.142C81.3679 111.008 81.1237 103.941 81.1237 103.941C81.1237 103.941 81.8455 107.959 81.9304 108.645C82.0153 109.331 83.2572 102.028 84.499 101.623C84.499 101.623 84.8068 93.7464 84.9024 92.8574C84.9979 91.9684 86.452 96.5258 86.452 96.5258L85.6241 89.9992L86.8129 92.5873L86.0381 86.4996L87.7151 89.4703L86.0381 83.0675L89.6893 89.6504C89.6893 89.6504 89.1586 87.2085 88.6279 84.9805C88.0972 82.7525 86.3565 77.2836 86.3565 77.2836C86.3565 77.2836 84.0214 72.5687 83.2466 71.5335C82.4717 70.4982 84.5946 70.1944 84.5946 70.1944L85.9744 74.0091L86.2504 74.7743V68.1239C86.2504 68.1239 89.3603 77.3061 89.9335 78.3752C90.5066 79.4442 89.3603 73.8741 89.3603 73.8741C89.3603 73.8741 91.706 80.4119 92.0351 81.2784C92.3641 82.1448 91.6423 76.5185 91.6423 76.5185L95.1556 85.4194L94.7523 82.2686C94.7523 82.2686 96.7159 87.4899 97.4589 88.3C98.2019 89.1102 97.979 83.8777 97.979 83.8777L99.9001 90.4831L99.5286 84.114C99.5286 84.114 101.97 93.1162 102.787 94.4215C103.604 95.7268 103.084 86.5446 103.084 86.5446C103.084 86.5446 104.804 95.0067 105.812 97.7973C106.821 100.588 105.43 89.5941 105.43 89.5941C106.17 92.2006 107.071 94.753 108.126 97.2347C109.294 99.5978 107.447 90.2243 107.447 90.2243C107.447 90.2243 110.801 99.609 110.918 100.509C110.843 99.8791 109.856 92.5086 109.463 89.0202C108.975 85.1943 105.557 80.4119 102.034 74.493C98.5097 68.574 88.8296 60.6296 88.8296 60.6296L90.9524 60.7759C92.0389 61.7672 93.047 62.8511 93.9668 64.0167C95.0282 65.4795 92.4809 59.1893 92.4809 59.1893C93.2819 60.3346 94.0123 61.5336 94.6674 62.7789C95.2618 64.0617 93.6059 57.4338 93.6059 57.4338C93.6059 57.4338 96.1852 62.34 96.7902 64.073C97.3952 65.8059 95.7288 58.953 95.7288 58.953C96.7021 60.6874 97.581 62.4796 98.3611 64.3205C99.3057 66.7061 97.841 60.2583 97.841 60.2583C97.841 60.2583 100.314 66.0984 101.705 66.8186C101.782 66.8645 101.871 66.8841 101.959 66.8749C102.294 67.7309 102.677 68.565 103.106 69.373C104.517 71.9161 102.49 62.8126 102.49 62.8126C102.49 62.8126 104.921 70.0257 105.122 71.601L104.496 66.6498C104.496 66.6498 106.619 72.9964 107.097 75.2244C107.574 77.4524 106.449 68.4728 106.449 68.4728C106.449 68.4728 107.808 72.4112 108.572 75.1456C108.285 73.6715 107.977 72.0174 107.935 71.691C107.85 71.0159 110.27 76.4059 110.599 77.3174C110.928 78.2289 109.538 70.3745 107.5 61.4848C107.192 59.9932 106.744 58.538 106.162 57.1413L107.043 57.884C108.975 59.4368 104.836 54.0693 104.836 54.0693H106.767C106.767 54.0693 107.457 54.9358 108.264 55.9823C109.071 57.0288 110.249 58.5704 110.673 59.2455C111.48 60.5058 108.88 55.3746 108.88 55.3746C110.094 56.3471 111.243 57.4074 112.319 58.5479C113.38 59.7744 111.374 54.5532 111.374 54.5532C112.718 55.8952 113.984 57.3232 115.163 58.8292C116.724 60.8997 113.157 54.992 113.157 54.992C113.157 54.992 114.664 56.6124 115.927 58.0302C117.191 59.4481 115.726 56.4549 115.726 56.4549C115.726 56.4549 117.711 58.4691 119.971 61.1247C122.232 63.7804 118.793 56.9387 118.793 56.9387C118.793 56.9387 120.746 58.7167 122.498 60.5283C124.249 62.34 121.755 58.1203 121.755 58.1203C121.755 58.1203 124.939 62.9364 125.459 65.1532C125.979 67.37 124.801 59.977 124.801 59.977C124.801 59.977 127.454 63.6341 129.078 66.4135ZM45.0463 30.1798L44.7491 30.1123L45.8106 29.6396C45.8106 29.6396 45.4497 29.8647 45.0463 30.1798ZM48.2306 30.99L47.5513 30.7987L49.7484 30.2135C49.7484 30.2135 49.0054 30.5736 48.22 30.99H48.2306ZM50.4914 31.6651L50.1305 31.5414L49.8864 31.4626C51.1282 31.1137 52.2003 30.7874 52.2003 30.7874L50.4914 31.6651ZM53.6119 32.993L52.7204 32.5428L53.9091 32.3741L53.6119 32.993ZM70.3823 94.3653L71.1995 91.2033L72.5369 90.4718L70.3823 94.3653ZM83.8091 46.9801L82.822 45.4497L84.8811 46.2937C84.8811 46.2937 84.0957 45.2584 83.5544 44.4257C83.0131 43.593 86.0911 45.6635 86.0911 45.6635L85.709 44.347H87.4391L88.1184 44.6733L89.2754 45.2359V43.4017C89.9848 44.1416 90.5987 44.9778 91.101 45.8886C91.4301 46.7663 90.2837 42.8053 90.2837 42.8053C90.2837 42.8053 91.6105 43.0641 91.5256 42.389C91.5256 42.0289 92.4384 43.5143 93.33 44.9096L94.3914 46.6313C90.857 46.4982 87.3182 46.6148 83.7985 46.9801H83.8091ZM94.6461 46.62L94.126 42.4565L96.1109 44.4707L97.4589 46.8563C96.5355 46.7438 95.5908 46.665 94.6355 46.62H94.6461Z" fill="white"/>
</svg>
