<svg width="182" height="348" viewBox="0 0 182 348" fill="none" xmlns="http://www.w3.org/2000/svg">
<path d="M132.569 278.407C132.347 279.18 132.33 280.001 132.517 280.784C132.732 281.255 134.113 282.831 136.91 283.4C139.707 283.97 143.568 283.4 145.224 283.293C148.079 283.398 150.926 283.663 153.753 284.085C156.327 284.45 158.36 283.863 159.33 282.884C159.489 282.689 159.606 282.461 159.672 282.215C159.739 281.97 159.754 281.712 159.716 281.46C159.712 280.809 159.62 280.162 159.441 279.538L132.569 278.407Z" fill="#37474F"/>
<path d="M159.013 276.707C159.064 276.93 159.107 277.161 159.15 277.384C159.405 278.532 159.486 279.716 159.39 280.89C159.182 281.283 158.897 281.626 158.552 281.896C158.208 282.166 157.812 282.357 157.391 282.457C155.564 283.035 153.618 283.075 151.771 282.572C149.587 282.243 147.38 282.103 145.173 282.154C143.257 282.39 141.328 282.488 139.399 282.448C137.949 282.386 136.518 282.086 135.16 281.558C134.019 281.05 132.852 280.401 132.586 279.19C132.243 276.627 133.281 275.488 134.457 274.74C135.632 273.993 137.288 274.082 139.073 273.957C140.686 273.841 141.861 273.841 143.294 273.726C144.523 273.604 145.738 273.363 146.923 273.005C147.996 272.658 149.163 271.421 149.617 271.367C149.617 271.367 156.79 271.305 157.477 271.367C158.163 271.43 158.506 273.975 158.609 274.527C158.712 275.079 158.695 275.417 158.807 275.844C158.875 276.147 158.944 276.431 159.013 276.707Z" fill="#455A64"/>
<path d="M161.621 237.521C161.518 239.301 161.286 241.081 161.08 242.861C160.728 245.851 160.36 248.832 159.991 251.823C159.579 255.074 159.158 258.338 158.729 261.613C158.386 264.212 158.043 266.802 157.683 269.391C157.58 270.13 157.477 270.878 157.357 271.625C157.252 272.249 156.981 272.829 156.574 273.301C156.168 273.773 155.642 274.117 155.057 274.295C154.134 274.559 153.183 274.709 152.226 274.74C151.147 274.774 150.086 275.028 149.103 275.488C149.575 274.046 151.308 273.566 150.621 272.747C150.158 272.186 149.351 272.337 149.3 271.501C149.248 270.664 149.223 270.184 149.188 269.454C149.051 267.077 146.803 235.963 146.76 235.26C148.622 234.308 161.621 237.521 161.621 237.521Z" fill="#FFA8A7"/>
<path d="M162.299 254.689C162.073 255.995 162.156 257.339 162.539 258.605C163.277 260.67 164.838 261.613 165.756 262.432C166.725 263.419 167.618 264.485 168.425 265.618C169.283 266.748 169.514 267.487 170.913 268.68C171.616 269.15 172.409 269.456 173.237 269.576C174.066 269.696 174.909 269.627 175.709 269.374C176.885 268.866 177.288 268.484 177.219 266.588C177.151 264.692 171.428 264.087 171.428 264.087L162.299 254.689Z" fill="#37474F"/>
<path d="M176.473 261.07C176.962 261.257 177.091 262.174 177.159 263.998C177.219 265.378 177.803 267.389 175.881 268.261C175.022 268.599 174.09 268.678 173.19 268.491C172.29 268.304 171.459 267.857 170.793 267.202C169.48 265.574 168.596 264.15 166.726 262.165C165.104 260.447 162.873 259.628 162.187 256.184C162.081 255.824 162.046 255.444 162.086 255.07C162.126 254.695 162.238 254.332 162.417 254.004C162.596 253.676 162.838 253.389 163.127 253.161C163.417 252.933 163.748 252.769 164.1 252.677C166.297 252.135 167.438 252.784 171.05 255.098C172.277 255.855 175.958 260.857 176.473 261.07Z" fill="#455A64"/>
<path d="M178.987 228.38C179.261 240.013 177.494 251.689 176.679 261.755C176.533 262.734 171.582 263.589 169.995 260.696C169.892 260.483 165.705 228.914 165.705 228.914L178.987 228.38Z" fill="#FFA8A7"/>
<path d="M179.012 213.695C179.012 213.695 178.824 202.214 179.012 193.457C179.133 187.957 178.849 184.895 178.635 181.059C178.245 176.154 177.468 171.29 176.31 166.516C176.31 166.516 145.645 162.85 145.284 173.788C144.855 186.889 145.447 215.564 145.568 218.991C145.842 227.001 146.091 231.834 146.76 239.39C151.436 240.573 158.36 239.844 162.05 238.411C162.179 234.735 162.264 232.643 162.264 232.643L163.071 213.695C163.071 213.695 163.345 217.122 163.714 221.812C163.977 225.699 164.485 229.564 165.233 233.382C168.167 234.797 176.91 234.717 179.261 232.038C179.261 225.194 179.012 213.695 179.012 213.695Z" fill="#37474F"/>
<path d="M145.13 197.675C149.283 198.699 157.691 198.565 157.691 198.565C157.691 198.565 157.597 217.469 156.833 219.489C156.07 221.509 146.194 221.056 145.13 219.373C144.668 212.149 144.668 204.9 145.13 197.675Z" fill="#263238"/>
<path d="M173.856 185.073C173.856 185.073 172.063 190.333 165.405 192.576L163.088 213.695L163.731 198.895L164.203 190.929C167.921 190.044 171.29 188.001 173.856 185.073Z" fill="#263238"/>
<path d="M166.52 127.873L149.197 132.02C149.197 132.02 141.355 119.24 140.265 116.303C139.176 113.366 139.013 111.506 137.691 109.058C136.37 106.611 131.179 105.632 131.179 105.632C131.179 105.632 128.682 110.509 128.442 113.072C128.442 113.072 130.012 117.816 131.488 119.836C132.964 121.856 133.779 122.008 134.817 124.286C135.855 126.564 139.682 135.918 142.067 140.947C144.143 145.299 146.486 144.952 150.561 143.617C154.637 142.282 167.67 138.277 167.67 138.277L166.52 127.873Z" fill="#F28F8F"/>
<path d="M121.046 107.99L120.943 107.928C120.574 107.768 120.172 107.709 119.776 107.758C119.379 107.806 119.001 107.96 118.678 108.204C117.722 108.85 116.926 109.722 116.355 110.747C115.785 111.772 115.454 112.922 115.392 114.104C115.388 114.466 115.437 114.826 115.538 115.172C115.643 115.547 115.848 115.883 116.13 116.142C116.193 116.2 116.262 116.251 116.336 116.294H116.396L116.902 116.605L116.653 116.4C116.414 116.134 116.229 115.82 116.111 115.477C115.993 115.134 115.944 114.77 115.967 114.407C116.029 113.225 116.359 112.075 116.93 111.049C117.501 110.024 118.297 109.153 119.253 108.506C119.545 108.304 119.873 108.165 120.219 108.1C120.564 108.034 120.918 108.042 121.261 108.123C121.353 108.153 121.442 108.192 121.527 108.239L121.046 107.99Z" fill="#FFC100"/>
<path d="M115.503 115.208C115.403 114.862 115.353 114.501 115.357 114.14C115.42 112.958 115.75 111.808 116.321 110.782C116.892 109.757 117.688 108.886 118.644 108.239C118.967 107.995 119.345 107.842 119.741 107.793C120.138 107.745 120.54 107.804 120.909 107.963L119.776 107.287C119.515 107.133 119.219 107.053 118.918 107.055C118.397 107.075 117.891 107.238 117.451 107.527C116.495 108.174 115.699 109.045 115.128 110.07C114.557 111.096 114.227 112.246 114.165 113.428C114.122 113.848 114.187 114.272 114.355 114.657C114.522 115.041 114.785 115.373 115.117 115.617L116.284 116.311C116.211 116.268 116.142 116.218 116.078 116.16C115.806 115.904 115.607 115.574 115.503 115.208ZM125.147 110.5L121.621 108.39L121.526 108.337C121.442 108.289 121.353 108.251 121.261 108.221C120.918 108.14 120.564 108.132 120.219 108.197C119.873 108.263 119.545 108.402 119.253 108.604C118.297 109.251 117.501 110.122 116.93 111.147C116.359 112.172 116.029 113.323 115.967 114.505C115.944 114.868 115.993 115.232 116.111 115.575C116.229 115.918 116.414 116.232 116.653 116.498L116.902 116.703H116.953L120.514 118.83C120.774 118.987 121.071 119.067 121.372 119.062C121.893 119.041 122.399 118.878 122.839 118.59C123.795 117.943 124.591 117.072 125.162 116.047C125.733 115.022 126.063 113.871 126.125 112.689C126.165 112.267 126.095 111.842 125.923 111.457C125.751 111.072 125.483 110.742 125.147 110.5Z" fill="#455A64"/>
<path d="M124.178 117.442C123.792 117.903 123.337 118.297 122.831 118.608C122.389 118.893 121.883 119.053 121.363 119.071C121.063 119.079 120.767 119.002 120.505 118.848L116.945 116.721H116.902C116.811 116.66 116.725 116.592 116.644 116.516C116.405 116.25 116.221 115.936 116.103 115.593C115.985 115.25 115.935 114.886 115.958 114.523C115.971 113.918 116.07 113.318 116.25 112.743L124.178 117.442Z" fill="#37474F"/>
<path d="M116.293 116.329L115.134 115.635C114.803 115.388 114.541 115.055 114.373 114.669C114.206 114.283 114.14 113.858 114.182 113.437C114.19 112.831 114.291 112.23 114.482 111.657L115.675 112.369C115.488 112.943 115.386 113.543 115.375 114.149C115.371 114.51 115.42 114.871 115.52 115.217C115.624 115.593 115.829 115.929 116.112 116.187L116.293 116.329Z" fill="#37474F"/>
<path d="M124.178 124.215C123.805 124.368 123.405 124.437 123.004 124.419C122.603 124.401 122.211 124.295 121.853 124.108L119.622 122.773C119.252 122.521 118.943 122.184 118.721 121.786C118.499 121.389 118.37 120.944 118.343 120.486V114.256C118.347 114.094 118.367 113.933 118.403 113.775C118.403 113.713 118.403 113.659 118.446 113.606C118.444 113.556 118.444 113.505 118.446 113.455L118.523 113.268C118.547 113.225 118.567 113.18 118.584 113.134C118.61 113.092 118.633 113.047 118.652 113.001L123.431 115.867C123.2 116.259 123.07 116.706 123.054 117.166V123.396C123.122 124.099 123.62 124.446 124.178 124.215Z" fill="#263238"/>
<path d="M136.267 109.227V115.457C136.244 115.916 136.117 116.363 135.894 116.761C135.672 117.159 135.361 117.496 134.988 117.744L124.401 124.09H124.332H124.263H124.203C123.603 124.322 123.148 123.974 123.148 123.2V116.97C123.175 116.512 123.304 116.066 123.526 115.669C123.748 115.272 124.056 114.934 124.426 114.683C125.027 114.31 125.54 113.804 125.928 113.2C126.317 112.597 126.572 111.912 126.674 111.194C126.716 110.964 126.798 110.744 126.915 110.544C127.03 110.348 127.185 110.181 127.369 110.055L129.686 108.675C129.758 108.632 129.839 108.61 129.922 108.61C130.005 108.61 130.086 108.632 130.158 108.675H130.201C130.326 108.771 130.424 108.9 130.484 109.049C130.582 109.25 130.719 109.428 130.885 109.572C131.051 109.717 131.244 109.824 131.452 109.889C131.66 109.954 131.878 109.975 132.093 109.95C132.309 109.925 132.517 109.854 132.706 109.743L135.014 108.355C135.692 107.954 136.241 108.248 136.293 109.005L136.267 109.227Z" fill="#37474F"/>
<path opacity="0.3" d="M123.5 115.795C123.713 115.391 124.023 115.051 124.401 114.807C125.001 114.435 125.514 113.928 125.903 113.325C126.291 112.722 126.546 112.036 126.649 111.319C126.691 111.089 126.772 110.869 126.889 110.669C127.004 110.473 127.159 110.306 127.344 110.179L129.66 108.8C129.66 108.8 127.678 110.073 127.404 110.277C127.072 110.561 126.849 110.959 126.777 111.399C126.674 112.122 126.414 112.811 126.017 113.415C125.62 114.019 125.097 114.523 124.487 114.888C124.097 115.111 123.76 115.421 123.5 115.795Z" fill="white"/>
<path d="M124.324 109.129L122.11 107.812C121.992 108.011 121.91 108.232 121.87 108.462C121.767 109.178 121.511 109.862 121.123 110.464C120.734 111.065 120.221 111.57 119.622 111.942C119.26 112.191 118.965 112.53 118.764 112.93L123.543 115.795C123.756 115.391 124.066 115.051 124.444 114.807C125.044 114.435 125.557 113.928 125.946 113.325C126.334 112.722 126.589 112.036 126.692 111.319C126.734 111.089 126.815 110.869 126.932 110.669L124.324 109.129Z" fill="#455A64"/>
<path d="M124.324 109.129L122.11 107.812C121.992 108.011 121.91 108.232 121.87 108.462C121.851 108.621 121.819 108.779 121.775 108.933C121.775 108.933 121.775 108.987 121.775 109.022C121.74 109.153 121.697 109.28 121.647 109.405C121.63 109.466 121.61 109.525 121.587 109.583L121.458 109.886L121.329 110.126C121.235 110.295 121.132 110.455 121.029 110.616C120.659 111.15 120.185 111.599 119.639 111.933C119.277 112.182 118.982 112.522 118.781 112.921C119.047 112.557 119.383 112.254 119.768 112.031C120.347 111.71 120.855 111.267 121.261 110.731L125.851 113.472C126.3 112.833 126.594 112.092 126.709 111.31C126.751 111.08 126.832 110.86 126.949 110.66L124.324 109.129Z" fill="#37474F"/>
<path d="M134.988 106.94L132.758 105.605C132.361 105.388 131.919 105.275 131.471 105.275C131.022 105.275 130.581 105.388 130.184 105.605L127.867 106.984C127.73 107.066 127.583 107.126 127.43 107.162L127.498 107.207L130.072 108.755H130.115C130.24 108.851 130.338 108.98 130.398 109.129C130.496 109.33 130.633 109.508 130.799 109.652C130.966 109.797 131.158 109.905 131.366 109.969C131.574 110.034 131.792 110.055 132.008 110.03C132.223 110.005 132.432 109.934 132.62 109.823L134.928 108.435C135.606 108.035 136.155 108.328 136.207 109.085C136.168 108.656 136.038 108.242 135.828 107.872C135.617 107.501 135.331 107.183 134.988 106.94Z" fill="#455A64"/>
<path d="M127.541 107.207L127.472 107.162L125.396 105.916C125.325 105.872 125.243 105.848 125.16 105.848C125.077 105.848 124.995 105.872 124.924 105.916L122.608 107.296C122.423 107.426 122.268 107.596 122.153 107.794L124.366 109.111L126.94 110.651C127.055 110.455 127.211 110.288 127.395 110.162L129.712 108.782C129.784 108.739 129.865 108.717 129.948 108.717C130.031 108.717 130.112 108.739 130.184 108.782L127.541 107.207Z" fill="#455A64"/>
<path d="M127.781 110.66L129.497 109.619C129.669 109.512 129.815 109.619 129.815 109.806V110.829C129.809 110.943 129.778 111.055 129.722 111.154C129.667 111.253 129.59 111.337 129.497 111.399L127.781 112.449C127.61 112.556 127.464 112.449 127.464 112.262V111.239C127.47 111.123 127.502 111.011 127.557 110.911C127.612 110.81 127.689 110.724 127.781 110.66Z" fill="#FFC100"/>
<path d="M131.694 108.373L131.462 108.31L130.939 107.99C130.826 107.936 130.703 107.908 130.578 107.908C130.454 107.908 130.331 107.936 130.218 107.99H130.098V108.213C130.105 108.264 130.124 108.313 130.154 108.355C130.184 108.397 130.224 108.431 130.27 108.453L130.853 108.8C130.965 108.859 131.088 108.889 131.213 108.889C131.339 108.889 131.462 108.859 131.574 108.8C131.609 108.784 131.64 108.758 131.663 108.725C131.686 108.692 131.699 108.653 131.702 108.613V108.399L131.694 108.373Z" fill="#FFC100"/>
<path opacity="0.2" d="M131.694 108.373L131.462 108.31L130.939 107.99C130.826 107.936 130.703 107.908 130.578 107.908C130.454 107.908 130.331 107.936 130.218 107.99H130.098V108.213C130.105 108.264 130.124 108.313 130.154 108.355C130.184 108.397 130.224 108.431 130.27 108.453L130.853 108.8C130.965 108.859 131.088 108.889 131.213 108.889C131.339 108.889 131.462 108.859 131.574 108.8C131.609 108.784 131.64 108.758 131.663 108.725C131.686 108.692 131.699 108.653 131.702 108.613V108.399L131.694 108.373Z" fill="black"/>
<path d="M130.218 107.75C130.029 107.865 130.046 108.061 130.261 108.186L130.844 108.533C130.955 108.594 131.079 108.626 131.205 108.626C131.33 108.626 131.454 108.594 131.565 108.533C131.754 108.426 131.728 108.23 131.522 108.106L130.939 107.759C130.828 107.699 130.705 107.667 130.579 107.665C130.454 107.663 130.33 107.692 130.218 107.75Z" fill="#FFC100"/>
<path d="M123.697 113.143L123.354 113.054L122.573 112.582C122.407 112.495 122.223 112.449 122.037 112.449C121.851 112.449 121.667 112.495 121.501 112.582L121.329 112.529V112.858C121.337 112.936 121.365 113.01 121.411 113.073C121.456 113.136 121.517 113.184 121.587 113.214L122.445 113.73C122.607 113.827 122.789 113.882 122.976 113.889C123.162 113.897 123.348 113.858 123.517 113.775C123.571 113.75 123.617 113.711 123.65 113.66C123.684 113.61 123.703 113.551 123.706 113.49V113.17L123.697 113.143Z" fill="#FFC100"/>
<path opacity="0.2" d="M123.697 113.143L123.354 113.054L122.573 112.582C122.407 112.495 122.223 112.449 122.037 112.449C121.851 112.449 121.667 112.495 121.501 112.582L121.329 112.529V112.858C121.337 112.936 121.365 113.01 121.411 113.073C121.456 113.136 121.517 113.184 121.587 113.214L122.445 113.73C122.607 113.827 122.789 113.882 122.976 113.889C123.162 113.897 123.348 113.858 123.517 113.775C123.571 113.75 123.617 113.711 123.65 113.66C123.684 113.61 123.703 113.551 123.706 113.49V113.17L123.697 113.143Z" fill="black"/>
<path d="M121.501 112.226C121.226 112.396 121.252 112.68 121.569 112.876L122.427 113.392C122.591 113.484 122.773 113.536 122.959 113.544C123.145 113.551 123.33 113.515 123.5 113.437C123.774 113.268 123.749 112.983 123.431 112.787L122.573 112.271C122.41 112.179 122.228 112.127 122.042 112.12C121.856 112.112 121.671 112.148 121.501 112.226Z" fill="#FFC100"/>
<path d="M133.736 106.557C133.409 106.386 133.047 106.297 132.68 106.297C132.314 106.297 131.952 106.386 131.625 106.557H131.179V107.198C131.191 107.335 131.238 107.467 131.315 107.579C131.392 107.692 131.496 107.781 131.617 107.839C131.947 108.01 132.311 108.1 132.68 108.1C133.05 108.1 133.414 108.01 133.744 107.839C133.865 107.781 133.969 107.692 134.046 107.579C134.123 107.467 134.17 107.335 134.182 107.198V106.557H133.736Z" fill="#FFC100"/>
<path opacity="0.4" d="M133.736 106.557C133.409 106.386 133.047 106.297 132.68 106.297C132.314 106.297 131.952 106.386 131.625 106.557H131.179V107.198C131.191 107.335 131.238 107.467 131.315 107.579C131.392 107.692 131.496 107.781 131.617 107.839C131.947 108.01 132.311 108.1 132.68 108.1C133.05 108.1 133.414 108.01 133.744 107.839C133.865 107.781 133.969 107.692 134.046 107.579C134.123 107.467 134.17 107.335 134.182 107.198V106.557H133.736Z" fill="black"/>
<path d="M131.617 105.926C131.49 105.973 131.381 106.06 131.304 106.174C131.227 106.287 131.186 106.423 131.186 106.562C131.186 106.702 131.227 106.837 131.304 106.951C131.381 107.065 131.49 107.152 131.617 107.199C131.947 107.37 132.311 107.46 132.68 107.46C133.05 107.46 133.414 107.37 133.744 107.199C133.871 107.152 133.98 107.065 134.057 106.951C134.134 106.837 134.175 106.702 134.175 106.562C134.175 106.423 134.134 106.287 134.057 106.174C133.98 106.06 133.871 105.973 133.744 105.926C133.415 105.75 133.051 105.659 132.68 105.659C132.31 105.659 131.946 105.75 131.617 105.926Z" fill="#FFC100"/>
<path opacity="0.2" d="M131.617 105.926C131.49 105.973 131.381 106.06 131.304 106.174C131.227 106.287 131.186 106.423 131.186 106.562C131.186 106.702 131.227 106.837 131.304 106.951C131.381 107.065 131.49 107.152 131.617 107.199C131.947 107.37 132.311 107.46 132.68 107.46C133.05 107.46 133.414 107.37 133.744 107.199C133.871 107.152 133.98 107.065 134.057 106.951C134.134 106.837 134.175 106.702 134.175 106.562C134.175 106.423 134.134 106.287 134.057 106.174C133.98 106.06 133.871 105.973 133.744 105.926C133.415 105.75 133.051 105.659 132.68 105.659C132.31 105.659 131.946 105.75 131.617 105.926Z" fill="black"/>
<path d="M129.386 107.34C129.296 107.297 129.198 107.274 129.098 107.274C128.999 107.274 128.901 107.297 128.811 107.34H128.674V107.527C128.674 107.589 128.717 107.652 128.802 107.705C128.894 107.754 128.995 107.779 129.098 107.779C129.201 107.779 129.303 107.754 129.394 107.705C129.48 107.652 129.523 107.589 129.523 107.527V107.34H129.386Z" fill="#FFC100"/>
<path opacity="0.2" d="M129.386 107.34C129.296 107.297 129.198 107.274 129.098 107.274C128.999 107.274 128.901 107.297 128.811 107.34H128.674V107.527C128.674 107.589 128.717 107.652 128.802 107.705C128.894 107.754 128.995 107.779 129.098 107.779C129.201 107.779 129.303 107.754 129.394 107.705C129.48 107.652 129.523 107.589 129.523 107.527V107.34H129.386Z" fill="black"/>
<path d="M130.716 106.806V106.628H130.578C130.488 106.585 130.39 106.562 130.291 106.562C130.192 106.562 130.094 106.585 130.004 106.628H129.875V106.806C129.876 106.846 129.888 106.885 129.909 106.918C129.931 106.951 129.96 106.977 129.995 106.993C130.088 107.042 130.191 107.067 130.295 107.067C130.4 107.067 130.502 107.042 130.596 106.993C130.629 106.975 130.658 106.949 130.679 106.916C130.7 106.883 130.713 106.846 130.716 106.806Z" fill="#FFC100"/>
<path opacity="0.2" d="M130.716 106.806V106.628H130.578C130.488 106.585 130.39 106.562 130.291 106.562C130.192 106.562 130.094 106.585 130.004 106.628H129.875V106.806C129.876 106.846 129.888 106.885 129.909 106.918C129.931 106.951 129.96 106.977 129.995 106.993C130.088 107.042 130.191 107.067 130.295 107.067C130.4 107.067 130.502 107.042 130.596 106.993C130.629 106.975 130.658 106.949 130.679 106.916C130.7 106.883 130.713 106.846 130.716 106.806Z" fill="black"/>
<path d="M128.768 107.162C128.732 107.174 128.7 107.198 128.677 107.23C128.655 107.262 128.643 107.301 128.643 107.34C128.643 107.38 128.655 107.419 128.677 107.451C128.7 107.483 128.732 107.506 128.768 107.518C128.86 107.567 128.961 107.592 129.064 107.592C129.167 107.592 129.268 107.567 129.36 107.518C129.532 107.42 129.532 107.26 129.36 107.162C129.268 107.114 129.167 107.089 129.064 107.089C128.961 107.089 128.86 107.114 128.768 107.162Z" fill="#FFC100"/>
<path d="M129.995 106.45C129.959 106.462 129.927 106.486 129.904 106.518C129.882 106.55 129.87 106.589 129.87 106.628C129.87 106.668 129.882 106.706 129.904 106.738C129.927 106.77 129.959 106.794 129.995 106.806C130.088 106.855 130.191 106.88 130.295 106.88C130.4 106.88 130.502 106.855 130.596 106.806C130.632 106.794 130.664 106.77 130.686 106.738C130.709 106.706 130.721 106.668 130.721 106.628C130.721 106.589 130.709 106.55 130.686 106.518C130.664 106.486 130.632 106.462 130.596 106.45C130.502 106.402 130.4 106.376 130.295 106.376C130.191 106.376 130.088 106.402 129.995 106.45Z" fill="#FFC100"/>
<path d="M134.662 113.926C134.777 113.714 134.839 113.475 134.843 113.232C134.85 113.142 134.837 113.051 134.806 112.966C134.775 112.881 134.726 112.805 134.662 112.743L135.143 111.853C135.264 111.962 135.359 112.1 135.418 112.255C135.478 112.409 135.501 112.577 135.486 112.743C135.472 113.244 135.336 113.734 135.091 114.167L134.662 113.926Z" fill="#263238"/>
<path d="M133.401 115.582C133.301 115.584 133.201 115.563 133.109 115.519L133.599 114.629C133.65 114.64 133.702 114.64 133.753 114.629C133.877 114.625 133.998 114.588 134.105 114.523C134.303 114.398 134.469 114.224 134.585 114.015L135.023 114.273C134.778 114.704 134.437 115.068 134.028 115.333C133.844 115.473 133.628 115.559 133.401 115.582Z" fill="#263238"/>
<path d="M132.981 115.448C132.863 115.336 132.772 115.198 132.714 115.044C132.656 114.889 132.633 114.723 132.646 114.558C132.661 114.057 132.797 113.567 133.041 113.134L133.47 113.392C133.357 113.605 133.295 113.843 133.29 114.087C133.282 114.178 133.295 114.271 133.326 114.357C133.357 114.443 133.406 114.521 133.47 114.585L132.981 115.448Z" fill="#263238"/>
<path d="M134.705 113.277C134.696 113.506 134.631 113.73 134.517 113.926C134.407 114.129 134.251 114.3 134.062 114.425C133.998 114.471 133.923 114.5 133.844 114.508C133.766 114.516 133.687 114.502 133.616 114.469C133.55 114.422 133.498 114.357 133.465 114.282C133.432 114.207 133.419 114.124 133.427 114.042C133.433 113.809 133.498 113.582 133.616 113.383C133.723 113.184 133.876 113.016 134.062 112.894C134.124 112.84 134.2 112.807 134.281 112.799C134.362 112.791 134.443 112.81 134.513 112.852C134.583 112.893 134.639 112.957 134.674 113.033C134.708 113.109 134.719 113.194 134.705 113.277Z" fill="#263238"/>
<path d="M133.109 113.001C133.349 112.563 133.691 112.196 134.105 111.933C134.293 111.811 134.509 111.743 134.731 111.737C134.828 111.736 134.924 111.754 135.014 111.79L134.534 112.68C134.483 112.672 134.43 112.672 134.379 112.68C134.255 112.684 134.134 112.72 134.028 112.787C133.83 112.92 133.663 113.096 133.538 113.303L133.109 113.001Z" fill="#263238"/>
<path d="M132.698 116.89L133.041 116.685C133.109 116.685 133.169 116.685 133.169 116.765V117.175C133.167 117.22 133.153 117.263 133.131 117.302C133.109 117.341 133.078 117.373 133.041 117.397L132.698 117.611C132.684 117.619 132.669 117.623 132.654 117.623C132.639 117.623 132.624 117.618 132.611 117.61C132.597 117.602 132.587 117.59 132.579 117.576C132.572 117.562 132.568 117.547 132.569 117.531V117.121C132.572 117.075 132.585 117.03 132.607 116.99C132.63 116.95 132.66 116.916 132.698 116.89Z" fill="#263238"/>
<path d="M135.091 115.422L135.435 115.217C135.503 115.217 135.555 115.217 135.555 115.297V115.706C135.553 115.752 135.541 115.796 135.52 115.836C135.499 115.876 135.47 115.911 135.435 115.938L135.091 116.142C135.014 116.187 134.963 116.142 134.963 116.062V115.653C134.964 115.606 134.977 115.561 134.999 115.521C135.022 115.48 135.053 115.446 135.091 115.422Z" fill="#263238"/>
<path d="M132.698 111.132L133.041 110.927C133.11 110.927 133.17 110.927 133.17 111.007V111.417C133.166 111.463 133.153 111.507 133.13 111.547C133.108 111.587 133.078 111.622 133.041 111.648L132.698 111.853C132.629 111.853 132.569 111.853 132.569 111.773V111.363C132.573 111.317 132.586 111.272 132.608 111.232C132.63 111.192 132.661 111.158 132.698 111.132Z" fill="#263238"/>
<path d="M135.091 109.708L135.435 109.494C135.503 109.494 135.555 109.494 135.555 109.574V109.984C135.553 110.029 135.542 110.074 135.521 110.114C135.5 110.154 135.471 110.189 135.435 110.215L135.091 110.42C135.014 110.464 134.963 110.42 134.963 110.34V109.93C134.963 109.885 134.976 109.84 134.998 109.801C135.021 109.762 135.053 109.73 135.091 109.708Z" fill="#263238"/>
<path d="M131.488 112.44V117.967C131.48 118.104 131.442 118.237 131.376 118.355C131.311 118.474 131.22 118.576 131.11 118.652L124.701 122.488C124.495 122.613 124.324 122.488 124.324 122.257V116.73C124.331 116.593 124.37 116.46 124.435 116.341C124.501 116.223 124.592 116.121 124.701 116.045L131.11 112.209C131.342 112.093 131.488 112.2 131.488 112.44Z" fill="#FFC100"/>
<path d="M124.916 117.433C124.898 117.431 124.882 117.423 124.869 117.41C124.857 117.397 124.849 117.38 124.847 117.362V116.641C124.842 116.631 124.839 116.621 124.839 116.61C124.839 116.599 124.842 116.588 124.847 116.578L125.448 116.222C125.453 116.215 125.46 116.209 125.468 116.205C125.477 116.201 125.486 116.199 125.495 116.199C125.504 116.199 125.513 116.201 125.521 116.205C125.529 116.209 125.536 116.215 125.542 116.222C125.549 116.228 125.555 116.236 125.559 116.244C125.563 116.253 125.565 116.262 125.565 116.271C125.565 116.281 125.563 116.29 125.559 116.299C125.555 116.307 125.549 116.315 125.542 116.32L124.984 116.659V117.335C124.987 117.346 124.987 117.358 124.985 117.369C124.982 117.38 124.978 117.391 124.971 117.4C124.965 117.409 124.957 117.417 124.947 117.423C124.937 117.428 124.927 117.432 124.916 117.433Z" fill="#FAFAFA"/>
<path d="M124.916 121.723C124.91 121.713 124.908 121.702 124.908 121.692C124.908 121.681 124.91 121.67 124.916 121.66V120.939C124.917 120.921 124.925 120.904 124.938 120.891C124.95 120.878 124.967 120.87 124.984 120.868C125.003 120.868 125.022 120.875 125.036 120.889C125.05 120.902 125.059 120.92 125.061 120.939V121.527L125.551 121.233C125.563 121.221 125.58 121.214 125.598 121.214C125.615 121.214 125.632 121.221 125.645 121.233C125.652 121.24 125.658 121.248 125.662 121.257C125.666 121.266 125.668 121.276 125.668 121.287C125.668 121.297 125.666 121.307 125.662 121.316C125.658 121.325 125.652 121.333 125.645 121.34L125.053 121.696L124.916 121.723Z" fill="#FAFAFA"/>
<path d="M130.887 113.855C130.87 113.853 130.853 113.845 130.841 113.832C130.828 113.819 130.82 113.802 130.819 113.784V113.197L130.33 113.49C130.315 113.502 130.297 113.508 130.278 113.508C130.259 113.508 130.241 113.502 130.227 113.49C130.214 113.476 130.207 113.456 130.207 113.437C130.207 113.417 130.214 113.398 130.227 113.383L130.819 113.027C130.829 113.018 130.843 113.013 130.857 113.013C130.871 113.013 130.885 113.018 130.896 113.027C130.9 113.037 130.903 113.048 130.903 113.059C130.903 113.069 130.9 113.08 130.896 113.09V113.811C130.897 113.826 130.894 113.841 130.887 113.855Z" fill="#FAFAFA"/>
<path d="M130.295 118.51C130.284 118.515 130.273 118.517 130.261 118.517C130.249 118.517 130.237 118.515 130.227 118.51C130.215 118.497 130.208 118.479 130.208 118.461C130.208 118.443 130.215 118.425 130.227 118.412L130.784 118.074V117.406C130.784 117.386 130.791 117.367 130.804 117.353C130.816 117.338 130.834 117.328 130.853 117.326C130.873 117.326 130.893 117.335 130.908 117.35C130.922 117.365 130.93 117.385 130.93 117.406V118.118C130.935 118.128 130.937 118.139 130.937 118.149C130.937 118.16 130.935 118.171 130.93 118.181L130.33 118.545L130.295 118.51Z" fill="#FAFAFA"/>
<path d="M134.774 113.998C134.887 113.785 134.949 113.546 134.954 113.303C134.959 113.212 134.946 113.12 134.915 113.034C134.884 112.949 134.836 112.87 134.774 112.805L135.254 111.915C135.375 112.025 135.469 112.163 135.529 112.317C135.588 112.472 135.612 112.639 135.598 112.805C135.583 113.306 135.447 113.796 135.203 114.229L134.774 113.998Z" fill="#FFC100"/>
<path d="M133.513 115.653C133.413 115.651 133.314 115.63 133.221 115.591L133.71 114.701C133.761 114.711 133.814 114.711 133.865 114.701C133.989 114.696 134.11 114.66 134.216 114.594C134.411 114.464 134.575 114.291 134.697 114.087L135.134 114.345C134.89 114.776 134.548 115.139 134.139 115.404C133.956 115.544 133.739 115.63 133.513 115.653Z" fill="#FFC100"/>
<path d="M133.058 115.511C132.94 115.399 132.848 115.26 132.79 115.106C132.732 114.952 132.709 114.786 132.723 114.621C132.738 114.119 132.874 113.629 133.118 113.197L133.547 113.455C133.433 113.667 133.371 113.906 133.367 114.149C133.361 114.24 133.374 114.332 133.405 114.418C133.436 114.504 133.484 114.582 133.547 114.647L133.058 115.511Z" fill="#FFC100"/>
<path d="M134.817 113.33C134.806 113.562 134.741 113.788 134.628 113.989C134.518 114.188 134.362 114.357 134.173 114.478C134.113 114.535 134.036 114.57 133.955 114.578C133.874 114.587 133.792 114.568 133.722 114.526C133.651 114.484 133.596 114.419 133.563 114.342C133.53 114.264 133.521 114.178 133.538 114.095C133.552 113.867 133.616 113.646 133.726 113.448C133.836 113.25 133.989 113.082 134.173 112.956C134.238 112.906 134.314 112.875 134.394 112.866C134.474 112.857 134.555 112.869 134.628 112.903C134.692 112.951 134.743 113.016 134.776 113.091C134.809 113.166 134.823 113.248 134.817 113.33Z" fill="#FFC100"/>
<path d="M133.221 113.063C133.463 112.63 133.805 112.266 134.216 112.004C134.404 111.879 134.62 111.809 134.843 111.799C134.94 111.796 135.038 111.818 135.126 111.861L134.645 112.752C134.594 112.743 134.542 112.743 134.491 112.752C134.367 112.755 134.245 112.791 134.139 112.858C133.94 112.985 133.772 113.159 133.65 113.366L133.221 113.063Z" fill="#FFC100"/>
<path d="M132.809 116.89L133.152 116.685C133.221 116.641 133.281 116.685 133.281 116.756V117.166C133.278 117.212 133.265 117.257 133.243 117.297C133.22 117.337 133.189 117.372 133.152 117.397L132.809 117.602C132.741 117.602 132.68 117.602 132.68 117.531V117.121C132.683 117.075 132.697 117.03 132.719 116.99C132.741 116.95 132.772 116.916 132.809 116.89Z" fill="#FFC100"/>
<path d="M135.203 115.493L135.538 115.288C135.615 115.288 135.666 115.288 135.666 115.368V115.778C135.666 115.823 135.654 115.868 135.631 115.907C135.608 115.946 135.576 115.978 135.538 116L135.203 116.205C135.126 116.249 135.074 116.205 135.074 116.134V115.724C135.075 115.677 135.087 115.632 135.11 115.591C135.132 115.551 135.164 115.517 135.203 115.493Z" fill="#FFC100"/>
<path d="M132.809 111.203L133.152 110.998C133.221 110.998 133.281 110.998 133.281 111.069V111.488C133.278 111.533 133.265 111.576 133.243 111.615C133.22 111.654 133.189 111.686 133.152 111.71L132.809 111.915C132.741 111.959 132.68 111.915 132.68 111.844V111.434C132.683 111.388 132.697 111.343 132.719 111.303C132.741 111.263 132.772 111.229 132.809 111.203Z" fill="#FFC100"/>
<path d="M135.203 109.77L135.538 109.565C135.615 109.521 135.666 109.565 135.666 109.645V110.055C135.665 110.101 135.652 110.147 135.63 110.187C135.607 110.228 135.576 110.262 135.538 110.286L135.203 110.491C135.126 110.491 135.074 110.491 135.074 110.411V110.001C135.075 109.955 135.087 109.909 135.11 109.869C135.132 109.828 135.164 109.794 135.203 109.77Z" fill="#FFC100"/>
<path d="M171.934 127.054C175.812 127.17 178.283 127.89 179.828 129.724C181.372 131.557 183.302 136.693 179.407 143.554L171.934 127.054Z" fill="#455A64"/>
<path d="M158.249 122.301L158.309 132.581L168.33 132.474L168.493 120.539L158.249 122.301Z" fill="#FFA8A7"/>
<path d="M178.729 132.02C177.931 129.297 174.551 127.054 171.007 126.947C170.227 126.947 168.433 126.947 168.433 126.947C168.03 128.629 162.513 129.448 158.275 128.416C156.996 128.763 151.651 129.368 150.553 129.733C147.498 130.783 145.877 134.548 145.405 144.863C145.405 144.863 144.547 166.107 144.856 180.027C150.218 182.955 159.725 182.697 165.619 182.109C174.886 181.139 178.257 177.214 178.257 177.214C177.871 171.554 177.94 164.754 178.094 159.147C178.206 154.955 178.867 150.701 179.227 145.949C179.802 138.873 179.278 133.907 178.729 132.02Z" fill="#FFC100"/>
<path opacity="0.3" d="M178.729 132.02C177.931 129.297 174.551 127.054 171.007 126.947C170.227 126.947 168.433 126.947 168.433 126.947C168.03 128.629 162.513 129.448 158.275 128.416C156.996 128.763 151.651 129.368 150.553 129.733C147.498 130.783 145.877 134.548 145.405 144.863C145.405 144.863 144.547 166.107 144.856 180.027C150.218 182.955 159.725 182.697 165.619 182.109C174.886 181.139 178.257 177.214 178.257 177.214C177.871 171.554 177.94 164.754 178.094 159.147C178.206 154.955 178.867 150.701 179.227 145.949C179.802 138.873 179.278 133.907 178.729 132.02Z" fill="black"/>
<path d="M150.759 109.103C150.759 109.103 148.099 113.268 148.348 113.642C148.596 114.015 150.681 114.282 150.681 114.282L150.759 109.103Z" fill="#F28F8F"/>
<path d="M157.94 95.8326C153.17 96.6603 151.411 99.624 150.698 108.23C150.553 110.999 150.553 113.774 150.698 116.543C150.999 120.29 151.677 121.233 152.414 122.07C153.152 122.906 157.562 123.165 159.493 122.693C161.964 122.097 167.567 120.308 170.321 116.32C173.556 111.639 173.95 105.774 171.462 102.321C165.662 94.2306 159.896 95.53 157.94 95.8326Z" fill="#FFA8A7"/>
<path d="M152.397 122.07C152.938 122.702 156.207 123.04 158.249 122.871V121.66C156.342 122.188 154.355 122.327 152.397 122.07Z" fill="#F28F8F"/>
<path d="M154.585 103.46C154.45 104.455 154.644 105.468 155.135 106.334C155.626 107.2 156.384 107.868 157.288 108.23C157.019 108.924 156.879 109.664 156.876 110.411C156.83 110.78 156.893 111.156 157.056 111.488C157.109 111.607 157.194 111.708 157.3 111.779C157.407 111.85 157.53 111.888 157.657 111.888C157.783 111.888 157.907 111.85 158.014 111.779C158.12 111.708 158.205 111.607 158.257 111.488C158.546 110.869 158.906 110.289 159.33 109.761C159.862 109.16 160.589 108.783 161.372 108.702C164.349 108.488 164.564 112.538 163.303 114.158C161.252 116.828 159.673 114.888 159.673 114.888C159.673 114.888 159.167 118.225 162.556 121.536C163.333 122.125 164.256 122.471 165.216 122.533C166.293 122.75 167.407 122.664 168.442 122.283C170.106 119.489 173.641 114.799 174.903 112.324C176.164 109.85 177.545 107.189 176.928 104.421C176.806 103.816 176.565 103.243 176.222 102.738C175.878 102.232 175.438 101.806 174.928 101.484C175.304 100.713 175.509 99.8647 175.529 99.001C175.53 98.6304 175.444 98.265 175.279 97.9364C175.113 97.6078 174.873 97.3259 174.579 97.1149C174.286 96.9038 173.947 96.77 173.592 96.7249C173.237 96.6799 172.877 96.7249 172.543 96.8561C172.75 96.2916 172.766 95.6711 172.589 95.0959C172.411 94.5207 172.051 94.0248 171.568 93.6892C171.084 93.3535 170.504 93.1979 169.924 93.2478C169.344 93.2976 168.797 93.55 168.373 93.9636C168.394 93.3443 168.206 92.7368 167.842 92.2455C167.478 91.7541 166.96 91.4094 166.378 91.2705C165.795 91.1316 165.185 91.2072 164.65 91.4842C164.116 91.7612 163.691 92.2224 163.448 92.7888C163.114 92.2341 162.638 91.7857 162.074 91.4931C161.509 91.2004 160.878 91.0748 160.25 91.13C159.621 91.1852 159.019 91.419 158.51 91.8059C158.001 92.1928 157.605 92.7176 157.365 93.3228C156.348 92.6453 155.129 92.3733 153.933 92.5574C153.345 92.6525 152.789 92.9008 152.318 93.2789C151.847 93.6571 151.475 94.153 151.239 94.7201C151.02 95.2944 150.986 95.9265 151.14 96.5227C151.295 97.119 151.63 97.6478 152.097 98.0309C151.007 98.0932 150.158 99.5973 150.158 100.701C150.218 101.591 150.759 104.51 154.585 103.46Z" fill="#263238"/>
<path d="M121.672 119.302C121.672 118.661 121.724 118.029 121.75 117.397C121.776 116.789 121.895 116.188 122.101 115.617C122.35 114.923 122.822 114.345 123.028 113.633C123.131 113.346 123.131 113.03 123.028 112.743C122.995 112.644 122.938 112.555 122.863 112.485C122.788 112.415 122.697 112.365 122.598 112.341C122.5 112.317 122.397 112.32 122.3 112.348C122.203 112.376 122.114 112.429 122.041 112.502C121.335 113.185 120.662 113.903 120.025 114.656C119.509 115.487 119.213 116.445 119.167 117.433C119.077 118.167 118.808 118.865 118.386 119.462C117.993 119.841 117.624 120.245 117.279 120.672C117.129 120.98 116.96 121.278 116.773 121.562C116.564 121.779 116.334 121.973 116.087 122.141C115.474 122.621 115.031 123.296 114.826 124.063C114.688 125.043 114.758 126.043 115.031 126.991C115.207 128.071 115.447 129.138 115.752 130.187C116.001 131.077 116.276 131.967 116.567 132.803C117.091 134.352 122.985 151.128 125.01 153.843C126.46 155.774 128.519 156.584 131.78 154.982C137.648 152.107 147.936 145.584 147.936 145.584C154.68 141.587 154.302 132.687 151.951 129.368C147.284 130.133 145.456 130.133 142.067 133.346C135.46 139.576 130.055 144.311 130.055 144.311C128.845 142.015 127.747 140.172 126.469 137.574C125.448 135.5 123.714 133.213 123.989 130.765C124.262 129.497 124.646 128.257 125.139 127.063C125.619 125.478 126.065 123.894 126.572 122.31C126.707 122.005 126.726 121.658 126.623 121.34C126.482 121.138 126.271 121.001 126.035 120.956C125.798 120.911 125.554 120.963 125.353 121.1C124.896 121.407 124.521 121.829 124.264 122.328L123.285 123.876C123.131 124.117 122.925 124.393 122.642 124.357C121.87 124.259 121.921 122.915 121.853 122.346C121.729 121.336 121.669 120.319 121.672 119.302Z" fill="#FFA8A7"/>
<path d="M129.961 144.329C128.159 145.842 126.743 149.161 126.743 149.161C127.018 146.928 127.912 144.826 129.317 143.109L129.961 144.329Z" fill="#F28F8F"/>
<path d="M153.333 129.234C150.407 129.475 146.348 129.67 143.757 131.566C141.166 133.462 132.329 141.757 132.329 141.757C131.777 142.738 131.417 143.822 131.27 144.948C131.123 146.073 131.191 147.218 131.471 148.316C132.414 152.517 135.143 154.315 136.25 153.754L149.36 145.37C149.36 145.37 156.516 140.03 153.333 129.234Z" fill="#455A64"/>
<path d="M63.3025 205.341C65.233 206.48 67.1464 206.444 69.4887 205.492L70.9731 192.356L62.8135 190.469L63.3025 205.341Z" fill="#B16668"/>
<path d="M86.949 198.043C88.5192 201.79 90.7671 200.553 94.1905 198.256L94.3364 185.298L85.4475 184.719L86.949 198.043Z" fill="#B16668"/>
<path d="M78.1888 216.368C78.4274 217.089 78.4453 217.869 78.2403 218.602C78.0001 219.029 76.7131 220.382 74.079 220.738C71.445 221.094 69.2913 220.836 67.7555 219.937C67.0972 219.628 66.5226 219.155 66.0826 218.56C65.6426 217.966 65.3508 217.268 65.233 216.528C65.0185 215.042 65.1043 213.591 64.375 212.479C63.6457 211.366 62.7963 210.467 62.5389 209.906C62.2042 208.882 62.0872 207.796 62.1957 206.72L78.1888 216.368Z" fill="#263238"/>
<path d="M70.7671 204.468C70.8325 205.032 70.9651 205.585 71.1618 206.115C71.6076 207.248 72.1838 208.321 72.8778 209.31C73.2212 209.832 73.5997 210.329 74.0104 210.796C74.8684 211.686 75.8122 212.416 76.6616 213.271C77.5662 214.077 78.1727 215.184 78.3776 216.403C78.5921 218.45 76.4814 219.269 74.8426 219.661C73.0692 220.079 71.2278 220.079 69.4544 219.661C68.5214 219.463 67.6633 218.989 66.983 218.298C66.3027 217.606 65.8292 216.726 65.6191 215.763C65.499 215.202 65.499 214.614 65.4046 214.045C65.1224 212.746 64.5326 211.541 63.6886 210.538C63.1966 209.957 62.7679 209.321 62.4102 208.643C61.8268 207.405 62.1614 205.973 62.4102 204.664C62.6419 203.552 62.8049 202.217 63.1824 202.297V203.018C63.3111 203.249 63.6028 203.392 63.6972 203.667C63.7902 203.952 63.905 204.229 64.0404 204.495C64.2515 204.904 64.5777 205.236 64.9756 205.447L64.9241 203.116C64.8976 202.878 64.9458 202.638 65.0614 202.43C65.2261 202.254 65.444 202.141 65.6792 202.11C67.0488 201.689 68.472 201.485 69.9005 201.505C70.0078 201.5 70.1149 201.518 70.2153 201.558C70.3156 201.598 70.407 201.658 70.484 201.736C70.5737 201.892 70.6156 202.072 70.6041 202.252C70.6179 202.994 70.6724 203.734 70.7671 204.468Z" fill="#37474F"/>
<path d="M73.1695 209.729C72.3973 209.195 70.75 209.275 69.8491 209.426C68.9351 209.562 68.0681 209.932 67.3266 210.503C67.2219 210.597 67.0878 210.649 66.949 210.649C66.8103 210.649 66.6762 210.597 66.5715 210.503C66.5071 210.45 66.4551 210.382 66.4194 210.305C66.3837 210.228 66.3652 210.143 66.3652 210.058C66.3652 209.972 66.3837 209.888 66.4194 209.811C66.4551 209.734 66.5071 209.666 66.5715 209.613C67.3797 208.918 68.3618 208.477 69.4029 208.34C71.6166 208.055 72.2944 208.411 72.2944 208.411C72.2944 208.411 73.3497 209.061 73.1695 209.729Z" fill="#F5F5F5"/>
<path d="M74.9713 211.731C74.0104 211.215 72.2 211.393 71.2991 211.544C70.403 211.688 69.5594 212.075 68.8538 212.665C68.7491 212.76 68.615 212.812 68.4763 212.812C68.3375 212.812 68.2034 212.76 68.0988 212.665C68.0344 212.612 67.9824 212.544 67.9466 212.467C67.9109 212.39 67.8924 212.306 67.8924 212.22C67.8924 212.135 67.9109 212.051 67.9466 211.974C67.9824 211.897 68.0344 211.829 68.0988 211.775C68.9202 211.049 69.9222 210.577 70.9902 210.414C73.2038 210.12 73.8044 210.565 73.8044 210.565C74.072 210.654 74.3163 210.805 74.5186 211.007C74.7209 211.209 74.8757 211.457 74.9713 211.731Z" fill="#F5F5F5"/>
<path d="M68.4162 206.177C69.3432 205.956 70.3097 205.986 71.2219 206.266C71.6251 206.471 71.9168 207.103 71.668 207.281C70.869 206.995 70.0134 206.921 69.1798 207.067C68.3475 207.194 67.543 207.471 66.8032 207.886C66.623 207.984 66.3999 208.118 66.2112 208.242C66.1502 208.282 66.0822 208.308 66.0111 208.32C65.94 208.332 65.8673 208.328 65.7975 208.31C65.7277 208.292 65.6622 208.259 65.605 208.214C65.5478 208.168 65.5001 208.111 65.4647 208.046C65.4059 207.934 65.3901 207.803 65.4203 207.68C65.4505 207.556 65.5246 207.448 65.6277 207.379C66.4626 206.774 67.4139 206.364 68.4162 206.177Z" fill="#F5F5F5"/>
<path d="M108.682 205.554C108.905 206.144 108.905 206.799 108.682 207.388C108.459 207.931 105.851 209.657 102.204 209.595C99.4998 209.546 96.8573 208.747 94.5509 207.281C93.107 206.501 91.4804 206.159 89.8576 206.293C88.0558 206.293 85.6448 205.474 85.2073 204.629C84.9634 203.857 84.9426 203.028 85.1472 202.244L108.682 205.554Z" fill="#263238"/>
<path d="M93.4698 195.248L94.3964 194.839C94.5558 194.738 94.7455 194.704 94.9284 194.741C95.1686 194.821 95.2716 195.097 95.3488 195.346C95.4567 195.897 95.6147 196.437 95.8207 196.957C96.1133 197.378 96.4801 197.737 96.9018 198.016C97.8391 198.718 98.8458 199.315 99.9048 199.796C101.123 200.392 102.316 200.846 103.568 201.354C104.821 201.861 106.529 202.128 107.541 202.76C107.905 202.992 108.209 203.313 108.427 203.695C108.644 204.077 108.768 204.508 108.789 204.951C108.809 205.394 108.725 205.835 108.543 206.236C108.362 206.638 108.088 206.987 107.747 207.254C106.391 208.144 102.753 209.31 98.8237 208.385C96.6873 207.877 94.2334 205.67 91.4535 205.59C89.686 205.546 86.3055 205.207 85.1386 203.89C84.6839 203.294 85.1386 201.318 85.5247 199.609C85.7499 198.528 85.9161 197.435 86.0223 196.334C86.1167 195.444 86.2197 194.919 86.5972 194.928C86.7688 195.889 87.1721 195.934 87.5067 196.423C87.77 196.882 88.005 197.357 88.2103 197.847C88.4112 198.344 88.7521 198.766 89.1884 199.057C89.41 199.196 89.6693 199.255 89.9265 199.226C90.1837 199.197 90.4247 199.082 90.6127 198.897C91.1017 198.31 90.7413 197.358 91.0845 196.672C91.3793 196.246 91.8017 195.933 92.2858 195.782L93.4698 195.248Z" fill="#37474F"/>
<path d="M98.2145 198.897C98.0744 198.653 97.8777 198.45 97.6424 198.306C97.4071 198.161 97.1407 198.08 96.8674 198.069C95.7318 198.133 94.6565 198.62 93.8387 199.44C93.7592 199.515 93.6986 199.61 93.6622 199.715C93.6259 199.82 93.6148 199.932 93.6301 200.043C93.6453 200.154 93.6863 200.259 93.7496 200.349C93.8129 200.439 93.8965 200.512 93.9931 200.561C94.1136 200.622 94.249 200.642 94.381 200.62C94.513 200.597 94.6352 200.533 94.731 200.437C95.6544 199.472 96.9043 198.92 98.2145 198.897Z" fill="#F5F5F5"/>
<path d="M100.763 200.206C100.576 199.96 100.335 199.765 100.06 199.636C99.7856 199.508 99.485 199.45 99.1841 199.467C97.9559 199.591 96.7969 200.114 95.8722 200.962C95.7956 201.034 95.737 201.125 95.7014 201.226C95.6658 201.327 95.6542 201.435 95.6677 201.542C95.6812 201.649 95.7193 201.75 95.7788 201.838C95.8383 201.926 95.9175 201.998 96.0095 202.048C96.1276 202.105 96.2598 202.124 96.3885 202.102C96.5172 202.08 96.6364 202.017 96.7302 201.923C97.2358 201.342 97.8605 200.887 98.5584 200.589C99.2563 200.292 100.01 200.161 100.763 200.206Z" fill="#F5F5F5"/>
<path d="M103.534 201.362C103.325 201.137 103.07 200.961 102.789 200.847C102.507 200.733 102.205 200.685 101.904 200.704C100.72 200.84 99.608 201.364 98.7293 202.199C98.6527 202.271 98.5941 202.362 98.5585 202.463C98.5229 202.564 98.5114 202.672 98.5249 202.779C98.5384 202.886 98.5765 202.987 98.636 203.075C98.6955 203.163 98.7746 203.235 98.8666 203.285C98.9842 203.345 99.117 203.365 99.2463 203.343C99.3756 203.32 99.4949 203.257 99.5873 203.16C100.064 202.562 100.67 202.088 101.355 201.775C102.04 201.463 102.787 201.322 103.534 201.362Z" fill="#F5F5F5"/>
<path d="M65.396 104.041C64.6152 118.432 63.4312 154.442 63.4312 154.442C63.2424 156.222 62.6418 161.562 62.3673 167.97C61.964 177.324 62.8049 197.963 62.8049 197.963C63.9858 198.601 65.2801 198.981 66.6082 199.081C67.9362 199.18 69.2698 198.996 70.5268 198.541C70.5268 198.541 75.4689 168.085 77.0476 158.892C78.4462 150.81 81.1317 131.302 81.1317 131.302L82.5903 155.225C82.3581 159.526 82.4758 163.84 82.9421 168.121C83.4826 172.384 85.9537 190.887 85.9537 190.887C88.7141 191.629 91.6163 191.582 94.3535 190.754C94.3535 190.754 95.3831 159.693 95.5461 155.759C95.7263 151.309 96.3183 100.962 96.3183 100.962L65.396 104.041Z" fill="#455A64"/>
<path d="M81.1146 131.337L83.4312 119.58C83.4312 119.58 89.1369 119.207 92.3544 116.02C92.3544 116.02 91.7281 119.233 84.5209 120.995L82.2043 132.886L82.0327 143.931L81.1146 131.337Z" fill="#263238"/>
<path d="M121.441 47.1789C122.796 46.0664 124.675 44.2241 126.348 44.2508C128.021 44.2775 128.382 44.6958 128.382 44.6958L127.627 47.6773L121.441 47.1789Z" fill="#9A4A4D"/>
<path d="M123.774 46.8585C123.774 46.8585 120.342 50.0892 119.802 52.421C119.433 54.0408 112.938 69.8917 112.938 69.8917C101.938 65.6464 98.5577 62.3534 92.1056 61.8817C88.3647 69.0729 94.6024 75.2317 94.6024 75.2317C94.6024 75.2317 108.425 79.0587 113.084 80.2869C117.502 81.4439 118.901 81.4884 120.36 77.9106C121.562 74.7386 122.493 71.4625 123.139 68.1206C124.469 62.1576 124.65 59.7368 125.671 57.8055C128.322 56.9155 128.433 55.2512 129.858 54.5214L123.774 46.8585Z" fill="#B16668"/>
<path d="M91.5222 61.5791C94.3107 61.766 95.8121 62.0686 100.042 63.902C104.272 65.7354 112.758 69.5179 112.758 69.5179L116.267 61.5791C116.267 61.5791 116.996 63.2612 119.845 64.4449C122.693 65.6286 123.749 64.9344 123.749 64.9344C123.749 64.9344 122.573 70.9597 121.415 75.4275C120.136 80.3225 119.304 82.0758 115.649 81.3994C111.994 80.723 93.8216 75.4275 93.8216 75.4275C93.8216 75.4275 89.6346 68.5122 91.5222 61.5791Z" fill="#FFC100"/>
<path opacity="0.1" d="M91.5222 61.5791C94.3107 61.766 95.8121 62.0686 100.042 63.902C104.272 65.7354 112.758 69.5179 112.758 69.5179L116.267 61.5791C116.267 61.5791 116.996 63.2612 119.845 64.4449C122.693 65.6286 123.749 64.9344 123.749 64.9344C123.749 64.9344 122.573 70.9597 121.415 75.4275C120.136 80.3225 119.304 82.0758 115.649 81.3994C111.994 80.723 93.8216 75.4275 93.8216 75.4275C93.8216 75.4275 89.6346 68.5122 91.5222 61.5791Z" fill="black"/>
<path opacity="0.1" d="M112.783 69.5178C111.991 71.4004 111.459 73.3901 111.205 75.4275C111.205 75.4275 110.63 71.7606 111.737 69.0461L112.783 69.5178Z" fill="black"/>
<path d="M115.992 62.2644C115.992 62.2644 117.356 66.4474 123.551 66.0469L124.341 62.1398C124.341 62.1398 119.879 62.3534 117.477 58.6866L115.992 62.2644Z" fill="#FFC100"/>
<path opacity="0.7" d="M115.992 62.2644C115.992 62.2644 117.356 66.4474 123.551 66.0469L124.341 62.1398C124.341 62.1398 119.879 62.3534 117.477 58.6866L115.992 62.2644Z" fill="white"/>
<path d="M126.297 11.5433L145.576 0L139.673 10.5999L145.576 14.1332L126.297 25.6854V11.5433Z" fill="#FFC100"/>
<path d="M126.194 64.4449C126.05 64.4438 125.907 64.4131 125.774 64.3548C125.641 64.2965 125.521 64.2116 125.42 64.105C125.319 63.9984 125.239 63.8721 125.185 63.7335C125.13 63.5948 125.103 63.4464 125.104 63.2968L125.302 8.11683C125.302 7.37813 127.498 7.39593 127.498 8.11683L127.292 63.2968C127.293 63.4472 127.266 63.5963 127.211 63.7355C127.156 63.8748 127.076 64.0014 126.974 64.1081C126.871 64.2148 126.75 64.2996 126.616 64.3574C126.482 64.4152 126.339 64.4449 126.194 64.4449Z" fill="black"/>
<path d="M127.249 47.971C127.37 47.6576 127.414 47.3184 127.378 46.9831L127.438 44.3131C127.841 44.3678 128.221 44.5373 128.536 44.8026C128.987 45.2438 129.354 45.7691 129.617 46.3512C130.518 48.0778 131.857 51.2462 131.23 52.7325" fill="#9A4A4D"/>
<path d="M118.515 55.9809C119.278 53.8805 119.373 50.4095 120.076 48.763C120.78 47.1165 122.453 46.4846 124.538 46.093C125.766 45.9173 126.95 45.4941 128.021 44.847C128.201 45.1445 128.296 45.4884 128.296 45.8394C128.296 46.1904 128.201 46.5343 128.021 46.8317C127.324 47.6103 126.468 48.2183 125.516 48.6117C123.414 49.6975 126.374 51.4686 124.615 55.0553C124.495 57.0222 118.515 55.9809 118.515 55.9809Z" fill="#B16668"/>
<path d="M131.23 52.7592C130.857 53.4901 130.317 54.1153 129.657 54.5806C128.998 55.0459 128.239 55.3372 127.447 55.4292C127.023 55.3946 126.617 55.2407 126.271 54.9842C125.936 54.7172 125.773 54.2989 125.413 54.0319C125.242 53.8984 125.044 53.7916 124.881 53.6403C124.708 53.5032 124.591 53.3027 124.555 53.0796C124.555 52.8304 124.667 52.5723 124.607 52.332C124.567 52.1915 124.482 52.0692 124.366 51.9849C124.186 51.8247 123.972 51.7179 123.8 51.5577C123.705 51.4878 123.63 51.3915 123.584 51.2798C123.539 51.1682 123.524 51.0455 123.543 50.9258C123.616 50.7323 123.753 50.5717 123.929 50.4719C124.553 50.0613 125.201 49.6898 125.868 49.3594C126.445 49.0586 126.92 48.5839 127.232 47.9977" fill="#9A4A4D"/>
<path d="M125.207 52.421C125.121 54.5481 123.054 55.4737 121.775 55.7585C122.274 55.8446 122.785 55.8226 123.275 55.6939C123.765 55.5653 124.224 55.3327 124.624 55.0109L125.13 58.9447L125.207 52.421Z" fill="#9A4A4D"/>
<path d="M65.1215 62.7628C64.4179 62.9319 62.5475 64.7831 61.9297 67.5866C61.6498 69.5816 61.6498 71.6081 61.9297 73.603L65.0614 90.4418L64.9927 108.384C69.3771 113.333 86.9232 114.926 96.5071 107.663C96.5071 107.663 96.4042 76.2908 95.958 71.2534C95.5547 66.6432 94.508 62.656 91.9168 61.7037C89.3256 60.7514 86.4599 60.1284 84.5466 59.4609L74.8598 59.0515L65.1215 62.7628Z" fill="#FFC100"/>
<path d="M80.7628 77.0295L88.6908 75.4453C88.8501 75.4103 89.0149 75.4117 89.1737 75.4493C89.3326 75.4869 89.4816 75.5599 89.6106 75.6631C89.7395 75.7664 89.8453 75.8975 89.9205 76.0474C89.9958 76.1973 90.0387 76.3623 90.0464 76.5311L90.3467 80.8832C90.3663 81.2496 90.2584 81.6111 90.0427 81.9019C89.8269 82.1926 89.5177 82.3933 89.1712 82.4674L81.2261 84.0516C81.0673 84.0882 80.9027 84.0882 80.7438 84.0518C80.585 84.0153 80.4357 83.9432 80.3066 83.8406C80.1774 83.738 80.0714 83.6073 79.9961 83.4578C79.9208 83.3082 79.8779 83.1433 79.8705 82.9747L79.5702 78.6137C79.5531 78.2453 79.664 77.8827 79.8829 77.5919C80.1018 77.3012 80.414 77.1016 80.7628 77.0295Z" fill="#FAFAFA"/>
<path d="M74.0018 59.541V60.5111C74.0018 60.5111 79.0039 69.5179 85.1558 74.7511L84.0404 75.0448C79.4797 71.06 75.7837 66.119 73.1953 60.5467C73.1953 60.5467 73.1695 59.452 74.0018 59.541Z" fill="#455A64"/>
<path d="M83.8001 59.8703C84.2377 61.3922 85.6362 69.7137 84.0575 75.0003L85.1729 74.7066C86.2712 70.8885 85.4989 62.2466 84.5551 59.4342C84.5551 59.4342 84.2892 58.7133 83.6971 58.6599L83.8001 59.8703Z" fill="#37474F"/>
<path d="M84.0833 75.196L85.1987 74.9023L85.4818 76.8781L84.3493 77.1719L84.0833 75.196Z" fill="#455A64"/>
<path d="M81.4664 80.1L88.1245 78.765C88.4762 78.7027 88.7422 78.4446 88.725 78.1953C88.7079 77.9461 88.4076 77.8126 88.0558 77.8749L81.3892 79.21C81.0374 79.2812 80.7714 79.5393 80.7971 79.7796C80.8229 80.0199 81.1146 80.1712 81.4664 80.1Z" fill="#E0E0E0"/>
<path d="M81.6723 81.8889L88.339 80.5628C88.6822 80.4916 88.9481 80.2335 88.931 79.9932C88.9138 79.7529 88.6135 79.6016 88.2617 79.6728L81.5951 80.9989C81.2519 81.0701 80.9859 81.3282 81.003 81.5685C81.0202 81.8088 81.3205 81.9601 81.6723 81.8889Z" fill="#E0E0E0"/>
<path d="M75.7263 39.071C75.8308 40.8261 76.4342 42.5099 77.4604 43.9097C78.4866 45.3094 79.8895 46.3625 81.4922 46.9359C83.0948 47.5094 84.8253 47.5775 86.4652 47.1317C88.1052 46.6858 89.581 45.7461 90.7065 44.431C91.832 43.1159 92.5567 41.4844 92.7891 39.7425C93.0215 38.0006 92.7511 36.2262 92.0123 34.6435C91.2734 33.0608 90.0991 31.7406 88.6375 30.8495C87.1759 29.9585 85.4927 29.5365 83.8001 29.637C82.6719 29.7039 81.5676 30.0013 80.5506 30.5122C79.5335 31.0231 78.6238 31.7373 77.8736 32.6139C77.1234 33.4905 76.5475 34.5122 76.179 35.6202C75.8105 36.7283 75.6567 37.901 75.7263 39.071Z" fill="#263238"/>
<path d="M73.1438 40.9222L70.9988 34.9948C70.041 35.3098 69.217 35.9572 68.665 36.8282C67.807 38.2433 68.2275 42.1059 69.8577 45.7282C69.8577 45.7282 71.6337 52.3943 72.2515 53.4712C72.6605 54.1341 73.2994 54.6088 74.0361 54.7972L73.1438 40.9222Z" fill="#263238"/>
<path d="M73.2725 45.8351C72.7662 46.1911 71.9597 45.1943 71.2733 44.5357C70.5869 43.8771 68.4248 43.0405 67.5067 45.4257C66.5886 47.8109 68.502 50.7034 70.1236 51.362C72.1399 52.1808 73.0065 51.1128 73.2038 50.472L73.7444 60.6269C73.7444 60.6269 80.4882 63.555 83.0451 64.9701C83.8344 63.9466 84.6495 61.7216 83.7915 59.906L83.5942 56.6575C84.8805 56.7979 86.1775 56.7979 87.4638 56.6575C89.5401 56.1858 90.7671 54.388 91.2733 51.985C92.0798 48.1313 92.2857 45.043 90.9902 37.6382C89.5659 29.5214 80.3939 30.002 75.632 33.5442C70.8701 37.0864 73.2725 45.8351 73.2725 45.8351Z" fill="#B16668"/>
<path d="M73.3668 46.547C72.5088 46.3512 71.8482 45.0073 71.2733 44.5356C70.3209 43.7346 71.0416 35.9471 71.0416 35.9471C70.7659 35.2935 70.6799 34.5708 70.7942 33.8673C70.9085 33.1638 71.2181 32.5102 71.6851 31.9866C72.8434 30.5003 74.9027 30.2066 78.3947 29.4234C80.1107 29.0318 82.1699 28.7648 83.8773 28.3376C85.6575 27.9468 87.3682 27.2713 88.9481 26.3351C89.228 26.1196 89.5691 26.0069 89.9176 26.0147C90.0536 26.0435 90.1818 26.1032 90.2931 26.1893C90.4043 26.2755 90.4958 26.386 90.5611 26.5131C90.689 26.7718 90.7538 27.059 90.7499 27.3497C90.7577 27.65 90.7231 27.9498 90.647 28.2397C90.6041 28.4177 90.2952 28.9517 90.3724 29.1297C90.5697 29.4857 91.8996 28.7826 92.1656 28.6847C92.229 28.6584 92.2996 28.6584 92.363 28.6847C92.4111 28.7169 92.452 28.7594 92.4831 28.8093C92.6972 29.2748 92.8083 29.7842 92.8083 30.3C92.8083 30.8159 92.6972 31.3252 92.4831 31.7908C91.4837 33.8114 89.8535 35.421 87.8585 36.3565C85.7927 37.3755 83.5079 37.8232 81.2261 37.6559C80.2581 37.5953 79.2997 37.4222 78.369 37.1397C78.2041 37.5019 78.0119 37.8501 77.7941 38.181C77.5502 38.5183 77.2613 38.818 76.9361 39.071C76.6128 39.3298 76.2504 39.5313 75.8636 39.6673C75.4689 39.8008 75.0828 39.7741 74.8769 40.2369C74.7709 40.5415 74.7328 40.8671 74.7654 41.1892L74.8426 44.0283C74.8749 44.509 74.8373 44.992 74.731 45.4612C74.6776 45.6949 74.5721 45.9124 74.4232 46.0963C74.2742 46.2802 74.0858 46.4254 73.873 46.5203C73.7107 46.5818 73.5343 46.5911 73.3668 46.547Z" fill="#263238"/>
<path d="M83.5942 56.6219C83.5942 56.6219 78.8409 55.9277 77.1506 55.1267C76.1556 54.6644 75.3182 53.9013 74.7482 52.9373C75.0565 53.918 75.5494 54.8255 76.1983 55.6073C77.4852 57.1203 83.6714 57.9124 83.6714 57.9124L83.5942 56.6219Z" fill="#9A4A4D"/>
<path d="M82.0241 44.2419C82.0287 44.4339 81.9789 44.623 81.8807 44.7858C81.7826 44.9486 81.6404 45.0778 81.472 45.1575C81.3035 45.2371 81.1162 45.2636 80.9334 45.2336C80.7505 45.2037 80.5802 45.1186 80.4436 44.9891C80.307 44.8595 80.2102 44.6911 80.1652 44.5048C80.1201 44.3186 80.1288 44.1227 80.1903 43.9416C80.2517 43.7605 80.3632 43.6021 80.5108 43.4862C80.6583 43.3703 80.8355 43.3019 81.0202 43.2896C81.1464 43.2836 81.2725 43.3035 81.3913 43.3482C81.5101 43.3928 81.6193 43.4613 81.7125 43.5498C81.8058 43.6383 81.8813 43.7449 81.9347 43.8637C81.9882 43.9824 82.0185 44.111 82.0241 44.2419Z" fill="#263238"/>
<path d="M80.7371 41.3049L78.7294 42.8268C78.5349 42.5408 78.4556 42.1873 78.5085 41.8416C78.5614 41.4959 78.7422 41.1852 79.0125 40.9756C79.1456 40.8768 79.2965 40.8068 79.4563 40.7699C79.616 40.7329 79.7813 40.7297 79.9422 40.7604C80.1032 40.7911 80.2565 40.8552 80.3931 40.9487C80.5297 41.0423 80.6467 41.1634 80.7371 41.3049Z" fill="#263238"/>
<path d="M80.78 50.2672L84.1691 51.5488C84.0868 51.7868 83.9597 52.0053 83.7952 52.1918C83.6307 52.3783 83.4321 52.529 83.2109 52.635C82.9896 52.741 82.7503 52.8003 82.5068 52.8094C82.2632 52.8185 82.0204 52.7773 81.7924 52.688C81.5654 52.6083 81.357 52.4801 81.1807 52.3117C81.0044 52.1434 80.864 51.9386 80.7687 51.7105C80.6733 51.4824 80.625 51.2362 80.6269 50.9876C80.6289 50.739 80.681 50.4936 80.78 50.2672Z" fill="#9A4A4D"/>
<path d="M81.7924 52.6879C82.0663 52.7932 82.3603 52.8298 82.6504 52.7947C82.573 52.4072 82.3642 52.0612 82.062 51.8195C81.7598 51.5779 81.3841 51.4566 81.003 51.4776H80.7628C80.8303 51.7492 80.9588 52.0004 81.1377 52.2108C81.3166 52.4211 81.541 52.5846 81.7924 52.6879Z" fill="#F28F8F"/>
<path d="M90.2866 41.741L88.236 40.6107C88.3006 40.4689 88.3924 40.3421 88.5057 40.2382C88.619 40.1343 88.7516 40.0554 88.8952 40.0063C89.0389 39.9572 89.1907 39.9389 89.3414 39.9525C89.492 39.9661 89.6385 40.0114 89.7718 40.0856C90.0456 40.2407 90.2516 40.4988 90.3474 40.8068C90.4432 41.1148 90.4214 41.4492 90.2866 41.741Z" fill="#263238"/>
<path d="M89.6345 43.7969C89.6519 43.9304 89.6425 44.0662 89.6069 44.1958C89.5713 44.3253 89.5104 44.4459 89.4279 44.5499C89.3453 44.6539 89.2429 44.7392 89.1272 44.8003C89.0114 44.8614 88.8848 44.897 88.7551 44.905C88.6255 44.913 88.4956 44.8931 88.3737 44.8467C88.2518 44.8002 88.1404 44.7281 88.0466 44.635C87.9528 44.5418 87.8785 44.4296 87.8284 44.3053C87.7783 44.181 87.7535 44.0473 87.7555 43.9126C87.7381 43.7791 87.7475 43.6433 87.7831 43.5137C87.8186 43.3841 87.8796 43.2635 87.9621 43.1595C88.0447 43.0555 88.1471 42.9703 88.2628 42.9092C88.3786 42.8481 88.5052 42.8124 88.6349 42.8045C88.7646 42.7965 88.8944 42.8163 89.0163 42.8628C89.1382 42.9093 89.2496 42.9813 89.3434 43.0745C89.4372 43.1676 89.5115 43.2799 89.5616 43.4042C89.6117 43.5285 89.6365 43.6622 89.6345 43.7969Z" fill="#263238"/>
<path d="M84.6495 43.5833L85.1386 49.8578L88.2703 48.6474L84.6495 43.5833Z" fill="#9A4A4D"/>
<path d="M83.045 64.9344C84.8125 63.724 86.254 66.7767 86.5543 66.3139C86.8546 65.8511 85.0614 58.5442 83.6885 58.1615L83.7915 60.5289C83.6288 62.0117 83.3796 63.4829 83.045 64.9344Z" fill="#FFC100"/>
<path opacity="0.7" d="M83.045 64.9344C84.8125 63.724 86.254 66.7767 86.5543 66.3139C86.8546 65.8511 85.0614 58.5442 83.6885 58.1615L83.7915 60.5289C83.6288 62.0117 83.3796 63.4829 83.045 64.9344Z" fill="white"/>
<path d="M73.5041 56.7642L73.5728 57.8322C73.7101 58.5353 75.3574 59.9326 78.7208 61.5079C82.0841 63.0832 83.0108 64.9344 83.0108 64.9344C82.0466 64.7105 81.0368 64.8593 80.1708 65.3527C78.7637 66.2427 77.3737 68.5478 76.6358 68.53C75.898 68.5122 74.2163 66.75 72.3458 64.2847C71.5383 63.2219 70.8369 62.0768 70.2523 60.8671C70.2523 60.8671 72.2171 56.782 73.5041 56.7642Z" fill="#FFC100"/>
<path opacity="0.7" d="M73.5041 56.7642L73.5728 57.8322C73.7101 58.5353 75.3574 59.9326 78.7208 61.5079C82.0841 63.0832 83.0108 64.9344 83.0108 64.9344C82.0466 64.7105 81.0368 64.8593 80.1708 65.3527C78.7637 66.2427 77.3737 68.5478 76.6358 68.53C75.898 68.5122 74.2163 66.75 72.3458 64.2847C71.5383 63.2219 70.8369 62.0768 70.2523 60.8671C70.2523 60.8671 72.2171 56.782 73.5041 56.7642Z" fill="white"/>
<path d="M59.5016 90.246C61.8025 86.4409 63.8992 82.5071 65.7821 78.4624C70.1322 72.4282 67.1549 65.4862 65.5676 62.8162C59.4501 63.7596 58.4462 66.2516 56.9876 69.6692C54.8855 74.4841 50.4239 84.5411 48.8109 88.7686L38.0173 81.791C35.7178 79.7173 35.2116 76.7981 33.813 74.9647C32.4145 73.1313 30.81 72.6062 29.2142 71.0487C27.6183 69.4912 27.0348 68.3787 26.3913 69.5535C25.7478 70.7283 27.4896 73.0601 27.7813 73.6119C28.073 74.1637 29.9091 75.5165 27.3866 75.2673C24.8641 75.0181 20.1794 71.7073 19.0383 71.0932C17.8971 70.4791 17.7856 71.9832 18.2747 72.9978C18.7637 74.0124 18.4548 76.7447 19.2871 78.4268C19.9902 80.1554 21.2908 81.5489 22.9336 82.3339C25.0357 83.5799 29.626 84.5144 31.8053 86.3122C33.9846 88.11 39.0897 92.8537 43.354 96.4849C47.9958 100.445 51.2133 102.439 54.0275 98.6565C56.1039 95.8174 57.6054 93.2542 59.5016 90.246Z" fill="#B16668"/>
<path d="M66.7517 62.1398C61.7238 63.6261 58.7723 64.2936 56.8418 68.6457C55.1258 72.446 48.6307 88.3058 48.6307 88.3058L43.8946 85.5735C43.9889 87.9676 41.9383 91.9726 39.2785 92.8804C39.2785 92.8804 44.4265 98.0691 47.155 99.6889C49.8834 101.309 51.3163 102.305 54.1906 98.7989C57.0649 95.2923 67.6097 77.2787 67.6097 77.2787C67.6097 77.2787 71.239 71.111 66.7517 62.1398Z" fill="#FFC100"/>
<path opacity="0.1" d="M66.7517 62.1398C61.7238 63.6261 58.7723 64.2936 56.8418 68.6457C55.1258 72.446 48.6307 88.3058 48.6307 88.3058L43.8946 85.5735C43.9889 87.9676 41.9383 91.9726 39.2785 92.8804C39.2785 92.8804 44.4265 98.0691 47.155 99.6889C49.8834 101.309 51.3163 102.305 54.1906 98.7989C57.0649 95.2923 67.6097 77.2787 67.6097 77.2787C67.6097 77.2787 71.239 71.111 66.7517 62.1398Z" fill="black"/>
<path opacity="0.1" d="M48.6221 88.3058C51.1961 90.0324 52.8263 92.204 53.2811 93.6458C53.2811 93.6458 53.324 90.6465 49.1798 86.9708L48.6221 88.3058Z" fill="black"/>
<path d="M44.6067 85.9829C44.6067 85.9829 44.6753 90.4329 40.025 93.6191L36.7903 90.691C36.7903 90.691 39.9134 89.1335 41.0202 83.7312L44.6067 85.9829Z" fill="#FFC100"/>
<path opacity="0.7" d="M44.6067 85.9829C44.6067 85.9829 44.6753 90.4329 40.025 93.6191L36.7903 90.691C36.7903 90.691 39.9134 89.1335 41.0202 83.7312L44.6067 85.9829Z" fill="white"/>
<path d="M103.057 316.098C102.824 317.489 102.906 318.919 103.298 320.272C104.044 322.47 105.623 323.467 106.549 324.339C107.591 325.341 108.499 326.481 109.252 327.73C109.992 329.1 110.942 330.336 112.066 331.388C112.924 332.18 115.43 332.278 116.622 331.726C117.815 331.174 118.218 330.738 118.15 328.762C118.081 326.787 112.281 326.092 112.281 326.092L103.057 316.098Z" fill="#455A64"/>
<path d="M117.403 322.853C117.901 323.049 118.021 324.028 118.098 325.968C118.158 327.436 118.75 329.581 116.803 330.507C115.932 330.864 114.978 330.946 114.063 330.744C113.147 330.541 112.309 330.062 111.655 329.368C110.325 327.65 109.432 326.128 107.545 324.028C105.897 322.248 104.19 321.58 103.461 317.931C102.997 315.581 103.358 314.611 104.885 313.935C106.978 313.045 110.273 316.035 111.912 316.516C113.353 316.916 116.914 322.657 117.403 322.853Z" fill="#FFC100"/>
<path opacity="0.2" d="M117.403 322.853C117.901 323.049 118.021 324.028 118.098 325.968C118.158 327.436 118.75 329.581 116.803 330.507C115.932 330.864 114.978 330.946 114.063 330.744C113.147 330.541 112.309 330.062 111.655 329.368C110.325 327.65 109.432 326.128 107.545 324.028C105.897 322.248 104.19 321.58 103.461 317.931C102.997 315.581 103.358 314.611 104.885 313.935C106.978 313.045 110.273 316.035 111.912 316.516C113.353 316.916 116.914 322.657 117.403 322.853Z" fill="black"/>
<path d="M111.912 316.507L111.637 316.4C110.685 316.454 109.764 316.768 108.967 317.31C108.17 317.853 107.525 318.604 107.098 319.488C106.815 320.129 107.682 320.628 108.188 320.129C108.647 319.273 109.3 318.546 110.091 318.01C110.882 317.475 111.787 317.149 112.727 317.059C112.495 316.818 112.218 316.63 111.912 316.507Z" fill="#FAFAFA"/>
<path d="M113.268 317.611C112.374 317.712 111.519 318.046 110.783 318.581C110.046 319.116 109.452 319.836 109.055 320.672C108.772 321.304 109.638 321.803 110.144 321.304C110.526 320.556 111.064 319.906 111.718 319.401C112.373 318.896 113.128 318.549 113.928 318.385C113.705 318.109 113.482 317.842 113.268 317.611Z" fill="#FAFAFA"/>
<path d="M104.422 320.628C104.422 320.628 104.585 316.275 110.256 315.67L110.582 315.866C109.951 314.789 108.958 313.993 107.794 313.632C107.028 313.344 106.194 313.315 105.411 313.548C104.628 313.782 103.936 314.266 103.435 314.932C102.44 316.258 103.443 319.782 104.422 320.628Z" fill="#FAFAFA"/>
<path d="M74.4688 341.952C74.245 342.709 74.2243 343.515 74.4087 344.284C74.6232 344.756 75.9789 346.304 78.6987 346.865C81.4186 347.426 85.2538 346.865 86.884 346.767C89.6898 346.866 92.4883 347.124 95.2667 347.541C97.8407 347.897 99.797 347.319 100.758 346.358C100.912 346.165 101.025 345.941 101.09 345.701C101.155 345.46 101.171 345.208 101.135 344.96C101.129 344.319 101.039 343.681 100.869 343.065L74.4688 341.952Z" fill="#455A64"/>
<path d="M100.483 340.288C100.535 340.501 100.586 340.724 100.621 340.946C100.872 342.078 100.953 343.243 100.861 344.4C100.656 344.785 100.375 345.121 100.036 345.386C99.6977 345.651 99.3093 345.84 98.8961 345.939C97.0966 346.504 95.1819 346.544 93.362 346.055C91.2151 345.726 89.0452 345.586 86.8755 345.637C84.9911 345.872 83.0932 345.97 81.1956 345.93C79.7662 345.864 78.356 345.564 77.0171 345.04C75.9017 344.542 74.752 343.901 74.4431 342.7C74.1085 340.181 75.1381 339.069 76.2878 338.365C77.4375 337.662 79.0763 337.716 80.8266 337.591C82.4139 337.484 83.5722 337.484 84.9793 337.369C86.1993 337.31 87.4114 337.134 88.6001 336.844C89.664 336.496 90.7537 335.064 91.1741 335.064C91.1741 335.064 98.2269 335.001 98.8961 335.064C99.5653 335.126 99.9171 337.636 100.012 338.179C100.106 338.721 100.097 339.069 100.209 339.469C100.32 339.87 100.415 340.012 100.483 340.288Z" fill="#FFC100"/>
<g opacity="0.2">
<path opacity="0.2" d="M100.483 340.288C100.535 340.501 100.586 340.724 100.621 340.946C100.872 342.078 100.953 343.243 100.861 344.4C100.656 344.785 100.375 345.121 100.036 345.386C99.6977 345.651 99.3093 345.84 98.8961 345.939C97.0966 346.504 95.1819 346.544 93.362 346.055C91.2151 345.726 89.0452 345.586 86.8755 345.637C84.9911 345.872 83.0932 345.97 81.1956 345.93C79.7662 345.864 78.356 345.564 77.0171 345.04C75.9017 344.542 74.752 343.901 74.4431 342.7C74.1085 340.181 75.1381 339.069 76.2878 338.365C77.4375 337.662 79.0763 337.716 80.8266 337.591C82.4139 337.484 83.5722 337.484 84.9793 337.369C86.1993 337.31 87.4114 337.134 88.6001 336.844C89.664 336.496 90.7537 335.064 91.1741 335.064C91.1741 335.064 98.2269 335.001 98.8961 335.064C99.5653 335.126 99.9171 337.636 100.012 338.179C100.106 338.721 100.097 339.069 100.209 339.469C100.32 339.87 100.415 340.012 100.483 340.288Z" fill="black"/>
</g>
<path d="M78.7417 345.592C78.5186 343.812 78.2269 339.843 81.4529 337.582H81.8648C80.4082 337.14 78.8598 337.14 77.4032 337.582C74.8292 338.294 73.6795 340.457 74.3144 342.735C74.3144 342.7 74.8892 344.916 78.7417 345.592Z" fill="#FAFAFA"/>
<path d="M88.1539 336.986C87.4176 337.881 86.931 338.967 86.7468 340.128C86.6095 340.946 85.1853 341.071 85.3225 340.279C85.5386 339.193 85.9584 338.162 86.5581 337.244C87.0456 336.97 87.6092 336.879 88.1539 336.986Z" fill="#FAFAFA"/>
<path d="M85.2281 337.36C84.4453 338.162 83.931 339.204 83.7609 340.332C83.6151 341.115 82.431 341.107 82.5083 340.332C82.5897 339.262 83.0335 338.257 83.7609 337.493C83.9769 337.35 84.2232 337.262 84.4787 337.239C84.7342 337.216 84.9914 337.257 85.2281 337.36Z" fill="#FAFAFA"/>
<path d="M99.1792 329.715C99.1792 329.715 99.0333 334.165 98.7845 335.669C98.6301 336.559 97.4289 337.849 94.5374 337.742C92.504 337.671 91.1054 336.95 90.9853 336.194L90.7021 330.685L99.1792 329.715Z" fill="#FFBDA7"/>
<path d="M117.841 318.714L117.403 323.44C116.542 324.012 115.547 324.33 114.525 324.358C113.502 324.386 112.492 324.124 111.603 323.6C111.5 323.378 111.217 319.72 111.217 319.72L117.841 318.714Z" fill="#FFBDA7"/>
<path d="M121.281 288.116C121.084 280.266 119.522 276.813 119.522 276.813C119.522 276.813 120.638 267.165 121.367 255.239C122.422 237.893 118.639 232.179 115.207 224.036C115.207 224.036 87.4761 222.318 86.7726 234.983C85.6143 255.711 86.7726 280.373 87.193 285.909C87.6134 291.445 87.8451 295.289 88.5572 306.708C89.1149 315.661 90.7194 333.408 90.7194 333.408C94.6147 335.589 99.1793 333.23 99.1793 333.23C99.1793 333.23 102.723 303.531 102.474 297.114C102.165 289.273 101.736 287.279 101.736 287.279C101.736 287.279 104.259 268.643 104.791 264.549C104.791 264.549 105.374 272.327 105.777 277.899C106.181 283.47 106.489 284.503 107.622 296.01C108.48 305.044 111.114 320.779 111.114 320.779C112.199 321.207 113.358 321.394 114.517 321.328C115.675 321.262 116.808 320.944 117.841 320.396C117.841 320.396 121.436 294.471 121.281 288.116Z" fill="#455A64"/>
<path d="M104.705 265.136L106.249 251.617C109.445 251.132 112.501 249.932 115.207 248.102C115.207 248.102 113.302 251.27 108.068 252.712L105.777 265.092V277.498L104.705 265.136Z" fill="#37474F"/>
<path d="M112.315 188.881C117.232 188.098 121.393 192.521 123.589 198.511C125.786 204.5 131.148 218.518 131.062 222.603C131.002 225.736 120.209 239.994 120.681 239.771C120.827 239.7 114.958 232.268 114.958 232.268L121.007 221.037L116.785 211.941L112.315 188.881Z" fill="#FFBDA7"/>
<path d="M111.509 188.792C115.258 188.276 117.352 188.658 120.38 192.245C123.409 195.832 126.301 204.705 126.301 204.705C126.301 204.705 125.168 208.514 115.859 211.416C115.816 211.042 110.565 199.071 110.565 199.071L111.509 188.792Z" fill="#455A64"/>
<path d="M98.141 183.817L99.531 197.327L109.467 196.036L108.66 182.953L98.141 183.817Z" fill="#FFBDA7"/>
<path d="M118.27 194.586C117.18 191.489 115.267 188.792 111.509 188.792H109.063C108.978 191.462 103.864 192.948 98.9561 191.302L90.1015 193.313C90.1015 193.313 85.7257 194.203 85.2281 207.224C84.6189 223.066 85.6571 251.724 85.6571 251.724C85.6571 251.724 88.2311 249.864 90.3246 240.421C91.5172 251.234 98.6215 254.429 109.286 253.726C119.505 253.05 121.513 246.411 122.156 241.569C121.685 237.769 120.123 228.7 116.356 221.321C118.295 208.239 119.9 199.178 118.27 194.586Z" fill="#FFC100"/>
<path opacity="0.5" d="M118.27 194.586C117.18 191.489 115.267 188.792 111.509 188.792H109.063C108.978 191.462 103.864 192.948 98.9561 191.302L90.1015 193.313C90.1015 193.313 85.7257 194.203 85.2281 207.224C84.6189 223.066 85.6571 251.724 85.6571 251.724C85.6571 251.724 88.2311 249.864 90.3246 240.421C91.5172 251.234 98.6215 254.429 109.286 253.726C119.505 253.05 121.513 246.411 122.156 241.569C121.685 237.769 120.123 228.7 116.356 221.321C118.295 208.239 119.9 199.178 118.27 194.586Z" fill="white"/>
<path d="M89.7755 194.239C89.7755 194.239 87.5705 193.607 81.8562 193.553C75.7386 193.491 62.9802 191.079 62.9802 191.079C62.9802 191.079 53.0874 178.664 52.7614 177.56C52.4354 176.456 53.465 174.952 54.0141 174.116C54.5632 173.279 55.67 171.375 56.0904 170.894C56.8369 170.004 55.3097 169.701 54.0999 170.271C52.8901 170.841 51.7919 172.505 51.2427 172.638C50.6936 172.772 49.0377 167.61 48.2312 165.118C47.4246 162.626 47.2101 161.042 45.8717 161.344C44.9107 161.576 44.9536 162.866 45.4341 164.904C45.687 165.781 45.8876 166.672 46.0347 167.574C46.0347 167.912 45.5542 167.966 45.3311 168.046C44.9193 168.197 44.2071 168.42 44.0012 168.838C43.9117 169.079 43.8026 169.311 43.6752 169.532C43.3234 169.986 42.6027 169.968 42.2166 170.422C41.8305 170.876 41.9163 171.205 41.6932 171.561C41.4701 171.917 41.3243 171.962 41.187 172.193C41.0717 172.434 41.0081 172.698 41.0007 172.967C40.9933 173.236 41.0422 173.504 41.1441 173.751C41.7105 175.396 42.5854 176.908 43.7181 178.201C44.6276 179.385 45.6743 180.479 46.5924 181.85C47.4504 183.078 52.4783 194.55 55.8674 199.098C56.5246 200.213 57.5633 201.03 58.776 201.385C62.6627 202.462 83.5979 206.165 83.5979 206.165C90.4362 206.298 92.6413 197.256 89.7755 194.239Z" fill="#FFBDA7"/>
<path d="M92.5383 192.752C88.2483 192.432 79.6683 193.313 73.6623 192.815C73.6623 192.815 74.812 194.292 74.4431 198.555C74.2675 200.555 73.6223 202.48 72.5641 204.162C72.5641 204.162 86.4036 207.081 88.6945 207.259C91.2256 206.788 92.7013 205.088 93.5679 202.738C96.1248 195.965 92.5383 192.752 92.5383 192.752Z" fill="#455A64"/>
<path d="M91.4572 169.71C90.1985 167.5 89.7737 164.884 90.2646 162.368C90.5469 160.964 91.1834 159.664 92.109 158.599C93.0345 157.534 94.216 156.743 95.5327 156.307C97.4055 155.898 99.3399 155.898 101.213 156.307C102.663 156.529 104.018 156.965 105.46 157.197C106.901 157.428 108.591 157.473 110.136 157.766C112.307 158.176 114.58 159.315 115.344 161.46C115.72 162.963 115.696 164.544 115.275 166.035C114.743 168.776 114.22 171.508 113.559 174.214C112.83 177.16 110.985 178.014 108.609 179.411C107.202 180.221 103.735 181.814 103.873 183.932C103.873 183.434 102.362 182.224 102.054 181.868L94.8206 173.635C93.8854 172.567 92.8129 171.535 91.9549 170.387C91.7759 170.172 91.6097 169.946 91.4572 169.71Z" fill="#263238"/>
<path d="M90.9853 171.962C90.9853 171.962 88.4113 176.092 88.7288 176.412C89.3209 176.833 89.9643 177.172 90.6421 177.418L90.9853 171.962Z" fill="#F0997A"/>
<path d="M97.7378 160.971C95.5842 162.119 91.8691 164.255 90.9167 172.469C89.9386 180.907 91.7747 183.835 92.8643 184.929C93.6108 185.677 97.4718 185.944 99.4881 185.294C102.002 184.484 107.467 181.681 110.024 177.329C113.027 172.202 113.654 165.376 110.17 162.706C105.28 158.95 99.5567 159.992 97.7378 160.971Z" fill="#FFBDA7"/>
<path d="M98.141 183.817L98.3212 185.552C96.5994 185.844 94.8356 185.71 93.1732 185.161C93.8126 185.165 94.4507 185.103 95.078 184.974C96.1449 184.734 97.1754 184.345 98.141 183.817Z" fill="#F0997A"/>
<path d="M97.5833 170.921C96.225 170.351 95.0422 169.407 94.1623 168.192C93.2824 166.976 92.7387 165.535 92.5898 164.023C91.9205 158.683 98.4413 156.547 98.4413 156.547L97.5833 170.921Z" fill="#263238"/>
<path d="M97.1028 161.318C97.1028 161.318 95.2324 169.016 97.4804 173.875C97.4804 173.875 98.7931 170.876 101.281 171.739C103.77 172.603 103.933 176.189 101.848 177.854C101.382 178.24 100.802 178.447 100.205 178.439C99.6092 178.431 99.0342 178.208 98.5786 177.809C99.3349 180.149 100.56 182.297 102.174 184.11C102.174 184.11 107.802 188.329 114.04 180.622C119.54 173.831 120.749 162.51 113.036 161.095C100.089 155.675 97.1028 161.318 97.1028 161.318Z" fill="#263238"/>
<path d="M115.164 162.119C120.432 159.449 125.546 162.644 125.94 169.995C126.266 176.056 123.075 186.202 123.615 189.664C123.831 191.168 124.387 192.599 125.237 193.838C125.331 193.964 125.391 194.113 125.411 194.271C125.431 194.429 125.409 194.59 125.349 194.736C125.288 194.882 125.191 195.009 125.067 195.103C124.943 195.198 124.797 195.255 124.645 195.271C124.154 195.318 123.66 195.263 123.19 195.11C122.72 194.958 122.285 194.71 121.908 194.381C122.038 195.934 122.705 197.385 123.787 198.466C123.946 198.596 124.067 198.77 124.134 198.968C124.202 199.167 124.213 199.381 124.167 199.586C124.121 199.79 124.02 199.977 123.875 200.124C123.73 200.271 123.547 200.372 123.349 200.415C121.767 200.717 120.134 200.483 118.69 199.748C114.606 197.63 112.247 192.975 114.203 186.3C116.159 179.625 120.518 172.354 119.54 168.055C118.561 163.756 115.49 164.78 115.49 164.78L115.164 162.119Z" fill="#263238"/>
<path d="M32.7261 309.819C32.7025 309.793 32.6724 309.775 32.6393 309.767C32.6062 309.758 32.5714 309.76 32.5391 309.771C32.5067 309.782 32.4781 309.803 32.4565 309.83C32.4349 309.857 32.4213 309.891 32.4172 309.926C32.2307 311.165 32.3247 312.433 32.6917 313.628C33.4211 315.791 34.9826 316.779 35.8921 317.633C36.9195 318.62 37.8141 319.745 38.5519 320.98C39.2834 322.33 40.2224 323.547 41.3318 324.584C42.1898 325.367 44.6437 325.43 45.8192 324.922C46.9946 324.415 47.3979 323.943 47.3207 321.994C47.252 320.214 42.1727 319.467 41.6064 319.386C41.5677 319.38 41.5319 319.361 41.5034 319.333L32.7261 309.819Z" fill="#37474F"/>
<path d="M46.5828 316.173C47.0718 316.369 47.192 317.33 47.2692 319.235C47.3207 320.686 47.9127 322.795 45.9908 323.685C45.1338 324.038 44.1956 324.12 43.2936 323.922C42.3915 323.725 41.5659 323.255 40.92 322.573C39.6073 320.864 38.7235 319.369 36.8616 317.295C35.2486 315.515 33.5583 314.883 32.8462 311.287C32.3829 308.973 32.7433 308.012 34.2448 307.354C36.3125 306.464 39.5558 309.418 41.1688 309.89C42.5673 310.317 46.1023 315.969 46.5828 316.173Z" fill="#455A64"/>
<path d="M33.524 313.682C33.546 313.709 33.5753 313.73 33.6084 313.741C33.6415 313.752 33.677 313.753 33.7105 313.744C33.7441 313.734 33.7743 313.715 33.7975 313.688C33.8208 313.661 33.836 313.628 33.8415 313.593C34.0302 312.533 34.9741 309.579 39.5386 309.098L39.8561 309.285C39.2354 308.224 38.2569 307.441 37.1105 307.087C36.3568 306.801 35.535 306.771 34.7638 307.001C33.9927 307.232 33.3121 307.71 32.8205 308.368C31.9281 309.543 32.6574 312.516 33.524 313.682Z" fill="#FAFAFA"/>
<path d="M46.5828 313.299L46.6257 317.108C46.6261 317.138 46.6192 317.168 46.6057 317.194C46.5922 317.22 46.5725 317.243 46.5484 317.259C45.7027 317.816 44.7316 318.135 43.7309 318.183C42.7302 318.231 41.7347 318.008 40.8427 317.535C40.8154 317.524 40.791 317.506 40.7716 317.482C40.7523 317.459 40.7384 317.432 40.7312 317.402C40.6368 316.877 39.9933 313.904 39.9333 313.219C39.9307 313.193 39.9336 313.167 39.9417 313.143C39.9497 313.119 39.9627 313.096 39.9799 313.078C39.997 313.059 40.0178 313.045 40.0408 313.035C40.0639 313.026 40.0887 313.022 40.1134 313.023L46.4026 313.121C46.4258 313.12 46.4491 313.123 46.4709 313.132C46.4927 313.14 46.5127 313.153 46.5295 313.17C46.5464 313.186 46.5598 313.206 46.5689 313.229C46.5781 313.251 46.5828 313.275 46.5828 313.299Z" fill="#FFA8A7"/>
<path d="M3.34815 336.982C3.3085 336.988 3.27166 337.007 3.24254 337.035C3.21341 337.064 3.19338 337.101 3.18513 337.142C2.93631 338.673 3.52834 339.5 5.476 340.702C8.12339 342.064 11.1818 342.288 13.9874 341.325C17.3164 340.319 18.9037 338.815 20.2851 338.45C21.6664 338.085 25.0899 338.067 26.4541 337.649C27.8183 337.231 27.8011 336.563 27.8011 334.979C27.8 334.953 27.7941 334.928 27.7835 334.905C27.773 334.881 27.7582 334.861 27.7398 334.843C27.7215 334.826 27.7001 334.812 27.6767 334.804C27.6534 334.795 27.6286 334.791 27.6038 334.792L3.34815 336.982Z" fill="#37474F"/>
<path d="M26.3254 326.551C26.364 326.551 26.4016 326.564 26.4324 326.588C26.4633 326.612 26.486 326.646 26.497 326.685C26.6429 327.156 27.1577 328.856 27.458 330.378C27.7583 331.9 28.1358 334.169 27.6553 335.237C27.1748 336.305 25.3044 337.017 22.4129 336.964C20.5339 336.964 17.6081 338.272 15.609 339.429C13.5983 340.461 11.3194 340.789 9.11393 340.364C6.53993 340.052 3.86297 338.504 3.44255 337.4C3.02213 336.297 2.91917 335.46 8.99381 332.772C9.05387 332.772 15.9693 330.102 18.938 326.765C18.9527 326.747 18.9712 326.732 18.992 326.723C19.0129 326.714 19.0355 326.71 19.0581 326.711L26.3254 326.551Z" fill="#455A64"/>
<path d="M14.648 339.901C14.6857 339.887 14.7175 339.86 14.7379 339.824C14.7582 339.788 14.7659 339.746 14.7596 339.705C14.6394 338.815 13.8501 334.285 10.0148 332.888C6.17956 331.491 2.84193 334.436 3.21087 337C3.45969 338.708 8.06716 342.58 14.648 339.901Z" fill="#FAFAFA"/>
<path d="M26.2739 323.979C26.3217 323.979 26.3675 323.998 26.4013 324.033C26.4351 324.069 26.4541 324.116 26.4541 324.166V326.711C26.4541 327.708 25.3301 329.194 22.3957 329.087C20.3365 329.007 18.9037 328.438 18.9637 326.675V324.317C18.9637 324.267 18.9827 324.22 19.0165 324.185C19.0503 324.15 19.0961 324.13 19.1439 324.13L26.2739 323.979Z" fill="#FFA8A7"/>
<path d="M48.6248 292.918C48.3417 285.798 47.6124 285.638 46.5227 280.12V280.022C46.6514 279.203 46.3854 279.052 46.5999 272.101C46.7372 267.695 47.2348 262.053 47.1834 256.401C47.1834 251.844 46.5313 247.332 46.394 243.096C38.0113 242.508 18.8436 236.358 16.2181 250.038C16.2181 263.334 16.0465 273.026 16.1667 288.076C16.2868 303.126 17.1963 310.611 18.2345 326.551C18.578 326.88 18.9483 327.178 19.3413 327.441C21.7179 328.331 24.8582 328.438 27.1748 326.871C27.1946 326.858 27.2116 326.842 27.2249 326.822C27.2382 326.802 27.2474 326.779 27.252 326.756C28.968 316.663 29.826 312.16 30.2979 305.894C30.8814 297.884 29.4399 296.549 29.8346 290.542C30.2293 284.534 32.2027 269.466 32.2027 269.466C33.1122 276.809 35.1542 286.884 36.6643 295.107C38.0285 302.539 38.7836 307.104 40.1563 316.209C40.16 316.24 40.1714 316.27 40.1894 316.295C40.2075 316.32 40.2316 316.339 40.2593 316.352C42.2241 317.304 45.1842 317.446 47.0547 315.826C47.0896 315.801 47.114 315.763 47.1233 315.72C48.3512 308.189 48.8542 300.551 48.6248 292.918Z" fill="#FFC100"/>
<path opacity="0.2" d="M48.6248 292.918C48.3417 285.798 47.6124 285.638 46.5227 280.12V280.022C46.6514 279.203 46.3854 279.052 46.5999 272.101C46.7372 267.695 47.2348 262.053 47.1834 256.401C47.1834 251.844 46.5313 247.332 46.394 243.096C38.0113 242.508 18.8436 236.358 16.2181 250.038C16.2181 263.334 16.0465 273.026 16.1667 288.076C16.2868 303.126 17.1963 310.611 18.2345 326.551C18.578 326.88 18.9483 327.178 19.3413 327.441C21.7179 328.331 24.8582 328.438 27.1748 326.871C27.1946 326.858 27.2116 326.842 27.2249 326.822C27.2382 326.802 27.2474 326.779 27.252 326.756C28.968 316.663 29.826 312.16 30.2979 305.894C30.8814 297.884 29.4399 296.549 29.8346 290.542C30.2293 284.534 32.2027 269.466 32.2027 269.466C33.1122 276.809 35.1542 286.884 36.6643 295.107C38.0285 302.539 38.7836 307.104 40.1563 316.209C40.16 316.24 40.1714 316.27 40.1894 316.295C40.2075 316.32 40.2316 316.339 40.2593 316.352C42.2241 317.304 45.1842 317.446 47.0547 315.826C47.0896 315.801 47.114 315.763 47.1233 315.72C48.3512 308.189 48.8542 300.551 48.6248 292.918Z" fill="black"/>
<path opacity="0.1" d="M41.4519 258.475C40.3904 259.666 39.1053 260.619 37.6755 261.276C36.2457 261.932 34.7015 262.278 33.1379 262.293L32.2027 269.502C32.7947 274.281 33.8672 280.182 34.9655 286.056L33.524 270.312L35.0598 263.877C41.186 261.545 41.4519 258.475 41.4519 258.475Z" fill="black"/>
<path d="M40.8256 206.623C44.1718 206.125 47.4236 209.151 48.702 212.159C49.9804 215.167 52.8376 227.405 53.095 229.808C53.3867 232.478 53.6183 233.822 51.6621 235.397C49.4558 237.075 47.0249 238.409 44.4463 239.357L40.8256 206.623Z" fill="#37474F"/>
<path d="M46.1709 211.892C45.2271 208.937 41.6063 205.715 37.9856 206.41C31.3275 207.691 27.0118 208.715 23.0821 210.174C19.7617 211.403 16.1237 210.788 15.8492 222.109C15.8492 222.109 15.8492 245.89 15.8492 250.99C24.1804 254.407 31.2245 254.381 36.0122 253.295C45.9821 251.034 46.6342 246.362 46.6342 246.362C46.6342 246.362 47.4493 234.24 47.1576 226.043C46.8659 219.083 46.7801 213.93 46.1709 211.892Z" fill="#455A64"/>
<path d="M25.21 202.529L26.2825 213.102L35.4202 213.111L34.3563 201.141L25.21 202.529Z" fill="#FFA8A7"/>
<path d="M23.0479 210.174C23.7085 208.742 24.2233 206.819 25.5103 206.57C25.5103 206.57 29.9976 207.264 32.2027 206.312C34.4078 205.36 35.0169 204.274 35.0169 204.274C35.5623 204.038 36.1616 203.971 36.7429 204.08C37.3243 204.189 37.863 204.469 38.2945 204.888C39.633 206.356 43.6141 208.795 44.6609 213.111C45.7076 217.428 46.5571 225.402 41.7523 226.942C34.7081 229.203 29.6888 225.767 28.0243 219.724C26.1796 213.103 26.6858 211.367 23.0479 210.174Z" fill="#37474F"/>
<path d="M28.5562 210.717C29.7059 212.364 30.9243 219.484 33.6613 222.287C36.3983 225.091 42.3271 224.397 43.4082 221.557C43.4082 221.557 43.2023 225.18 39.0152 225.607C36.9855 225.741 34.9758 225.123 33.3446 223.863C31.7134 222.603 30.5667 220.783 30.1092 218.727C29.0624 214.509 29.2083 212.64 28.5562 210.717Z" fill="#263238"/>
<path d="M18.8951 190.256C18.8951 190.256 16.3211 193.87 16.5442 194.252C16.7672 194.635 18.5347 195.08 18.5347 195.08L18.8951 190.256Z" fill="#F28F8F"/>
<path d="M25.9908 182.015C21.2718 181.774 19.2812 183.937 18.4404 190.915C17.5824 198.204 18.5776 201.105 19.5815 202.155C20.2507 202.867 24.1975 203.25 26.2224 202.876C28.7449 202.414 34.485 200.954 37.3335 197.447C40.6797 193.318 41.8209 187.506 38.6291 184.881C34.1589 181.169 27.9899 182.122 25.9908 182.015Z" fill="#FFA8A7"/>
<path d="M21.8466 185.504C21.6321 185.504 21.2117 186.732 22.0954 187.613C22.4058 187.863 22.7772 188.019 23.1682 188.063C23.5591 188.107 23.9541 188.038 24.3091 187.862C23.8118 188.766 23.6045 189.81 23.7171 190.844C23.923 191.591 24.4292 191.974 25.2872 192.383C25.2872 192.383 26.2053 189.713 28.7192 190.23C31.2331 190.746 31.3876 193.683 29.7059 195.356C28.0242 197.029 26.5828 196.246 26.5828 196.246C26.5828 196.246 26.4455 200.117 28.2044 202.431C30.1893 202.959 32.2592 203.047 34.279 202.69C36.7157 202.378 38.8951 200.02 40.6111 197.296C44.1889 191.582 45.7591 185.513 41.5549 183.563C42.104 181.178 41.3318 179.158 39.101 177.645C38.2232 177.075 37.2257 176.734 36.1934 176.65C35.1611 176.567 34.1247 176.743 33.1722 177.164C33.0349 177.227 32.5201 176.052 32.4686 175.963C32.0708 175.403 31.5463 174.954 30.9414 174.655C30.0706 174.224 29.1176 174.002 28.1529 174.005C27.0493 173.962 25.9527 174.204 24.9612 174.708C24.4831 174.937 24.0599 175.273 23.7217 175.691C23.3835 176.11 23.1387 176.601 23.0049 177.129C23.0478 176.888 21.2031 176.808 21.0487 176.791C20.5542 176.737 20.0549 176.817 19.5987 177.022C18.5851 177.432 17.7496 178.21 17.2477 179.211C16.8152 180.137 16.6857 181.184 16.8788 182.193C16.9743 182.71 17.1604 183.205 17.4279 183.652C17.9618 184.313 18.644 184.827 19.4146 185.15C20.1851 185.473 21.0202 185.594 21.8466 185.504Z" fill="#263238"/>
<path d="M41.5892 183.955L44.5836 182.371C44.516 182.116 44.3946 181.88 44.2282 181.68C44.0618 181.48 43.8546 181.321 43.6215 181.214C43.3884 181.108 43.1354 181.056 42.8808 181.064C42.6262 181.071 42.3763 181.137 42.1494 181.257C41.9225 181.377 41.7242 181.548 41.5689 181.758C41.4136 181.967 41.3052 182.21 41.2515 182.468C41.1979 182.726 41.2004 182.994 41.2588 183.251C41.3172 183.508 41.4301 183.749 41.5892 183.955Z" fill="#263238"/>
<path d="M1.83807 260.878C3.10791 259.694 3.64844 258.902 5.11562 257.736C5.88691 257.126 6.60471 256.447 7.26062 255.707C8.45324 254.381 9.57723 249.779 10.0577 248.542L16.4241 252.316C15.6605 254.639 13.3696 261.065 12.074 263.352C8.79644 269.137 6.67719 271.362 3.91443 271.077C-0.504272 270.685 -0.959012 268.514 1.43481 265.906C2.45266 264.824 3.3191 263.598 4.00881 262.266C3.39459 262.657 2.73025 262.957 2.03541 263.156C1.67054 263.281 1.27357 263.259 0.923695 263.094C0.573821 262.929 0.296766 262.634 0.147808 262.266C0.0448484 261.99 0.84279 261.803 1.83807 260.878Z" fill="#FFA8A7"/>
<path d="M19.0753 211.696C20.4326 213.461 21.4387 215.488 22.0353 217.659C22.6445 220.516 22.0353 222.875 21.7694 228.339C21.6552 232.91 21.2077 237.465 20.4309 241.965C19.8303 244.973 15.2829 255.707 15.2829 255.707C12.7728 255.762 10.3033 255.044 8.18726 253.642L11.8337 239.936C11.8337 239.936 12.0397 227.859 12.0139 222.83C12.0139 217.036 12.8033 212.889 19.0753 211.696Z" fill="#37474F"/>
</svg>
