<svg width="1366" height="682" viewBox="0 0 1366 682" fill="none" xmlns="http://www.w3.org/2000/svg">
<rect width="1366" height="576" fill="#263B58"/>
<path d="M0 626.528C63.1529 610.204 90.2398 620.31 138.432 638.614C222.24 647.427 264.847 646.365 327.759 626.528C392.447 605.335 427.29 604.734 486.548 626.528C657.681 694.946 750.507 698.844 909.988 638.614C988.352 595.591 1034.35 591.617 1119.67 616.457C1255.55 644.503 1306.37 642.303 1366 616.457V552H0V626.528Z" fill="#F7D8A4" stroke="#F7D8A4"/>
<path d="M0 416.007C207.424 338.948 340.682 358.566 596.48 460.661C730.455 510.342 807.225 508.48 946.632 460.661C1110.41 406.19 1202.23 411.707 1366 460.661V552H0V416.007Z" fill="#F7D8A4" stroke="#F7D8A4"/>
</svg>
