<svg width="56" height="56" viewBox="0 0 56 56" fill="none" xmlns="http://www.w3.org/2000/svg">
<path d="M55.8468 16.4642C55.7156 13.4887 55.2345 11.443 54.5452 9.67047C53.8341 7.78894 52.7401 6.1044 51.3069 4.70404C49.9065 3.28189 48.2109 2.17682 46.3511 1.47685C44.5683 0.787569 42.5334 0.306395 39.5579 0.175205C36.5602 0.0329044 35.6085 0 28.0055 0C20.4024 0 19.4508 0.0329044 16.4641 0.164095C13.4887 0.295285 11.443 0.776885 9.67089 1.46574C7.78893 2.17682 6.1044 3.27078 4.70404 4.70404C3.28189 6.1044 2.17724 7.80005 1.47685 9.65979C0.787568 11.443 0.306395 13.4775 0.175205 16.453C0.0329043 19.4508 0 20.4024 0 28.0055C0 35.6085 0.0329043 36.5602 0.164095 39.5468C0.295285 42.5223 0.776885 44.5679 1.46617 46.3405C2.17724 48.222 3.28189 49.9065 4.70404 51.3069C6.1044 52.7291 7.80004 53.8341 9.65978 54.5341C11.443 55.2234 13.4775 55.7045 16.4535 55.8357C19.4396 55.9674 20.3917 55.9998 27.9948 55.9998C35.5978 55.9998 36.5495 55.9674 39.5361 55.8357C42.5116 55.7045 44.5572 55.2234 46.3293 54.5341C50.0928 53.079 53.0683 50.1035 54.5234 46.3405C55.2122 44.5572 55.6938 42.5223 55.825 39.5468C55.9562 36.5602 55.9891 35.6085 55.9891 28.0055C55.9891 20.4024 55.978 19.4508 55.8468 16.4642ZM50.8039 39.328C50.6834 42.0629 50.224 43.5398 49.8411 44.5243C48.9002 46.964 46.9639 48.9002 44.5243 49.8412C43.5397 50.224 42.0522 50.6834 39.328 50.8035C36.3743 50.9351 35.4884 50.9676 28.0166 50.9676C20.5447 50.9676 19.6478 50.9351 16.7047 50.8035C13.9698 50.6834 12.493 50.224 11.5084 49.8412C10.2944 49.3925 9.18929 48.6814 8.29233 47.7515C7.36246 46.8434 6.65138 45.7495 6.20269 44.5354C5.8198 43.5509 5.36042 42.0629 5.24034 39.3391C5.10872 36.3854 5.07625 35.4991 5.07625 28.0273C5.07625 20.5554 5.10872 19.6584 5.24034 16.7159C5.36042 13.9809 5.8198 12.5041 6.20269 11.5195C6.65138 10.3051 7.36246 9.20041 8.30344 8.30301C9.21109 7.37314 10.305 6.66207 11.5195 6.2138C12.5041 5.83091 13.992 5.37153 16.7158 5.25103C19.6695 5.11984 20.5558 5.08693 28.0273 5.08693C35.5102 5.08693 36.3961 5.11984 39.3391 5.25103C42.074 5.37153 43.5509 5.83091 44.5354 6.2138C45.7495 6.66207 46.8545 7.37314 47.7515 8.30301C48.6814 9.21109 49.3924 10.3051 49.8411 11.5195C50.224 12.5041 50.6834 13.9916 50.8039 16.7159C50.9351 19.6696 50.968 20.5554 50.968 28.0273C50.968 35.4991 50.9351 36.3743 50.8039 39.328Z" fill="white"/>
<path d="M28.3856 14C20.4437 14 14 20.4433 14 28.3856C14 36.328 20.4437 42.7712 28.3856 42.7712C36.328 42.7712 42.7712 36.328 42.7712 28.3856C42.7712 20.4433 36.328 14 28.3856 14ZM28.3856 37.7172C23.2333 37.7172 19.054 33.5384 19.054 28.3856C19.054 23.2329 23.2333 19.054 28.3856 19.054C33.5384 19.054 37.7172 23.2329 37.7172 28.3856C37.7172 33.5384 33.5384 37.7172 28.3856 37.7172Z" fill="white"/>
</svg>
