<svg width="500" height="500" viewBox="0 0 500 500" fill="none" xmlns="http://www.w3.org/2000/svg">
<path d="M312.958 133.608L314.208 133.238L315.558 132.828C316.458 132.548 317.348 132.228 318.238 131.908C320.032 131.242 321.768 130.525 323.448 129.758C325.109 128.995 326.716 128.12 328.258 127.138C328.648 126.908 328.988 126.638 329.358 126.398C329.724 126.16 330.075 125.9 330.408 125.618L330.918 125.218C331.068 125.108 331.358 124.838 331.138 125.088C330.918 125.338 330.918 125.568 330.948 125.548C331.053 125.071 331.053 124.576 330.948 124.098C330.821 123.275 330.631 122.462 330.378 121.668C329.819 119.863 329.151 118.093 328.378 116.368C326.798 112.808 324.968 109.168 323.098 105.658L326.778 103.048C329.573 106.237 332.099 109.652 334.328 113.258C335.495 115.129 336.528 117.081 337.418 119.098C337.892 120.215 338.283 121.365 338.588 122.538C339.009 124.048 339.105 125.629 338.868 127.178C338.658 128.357 338.156 129.463 337.408 130.398C337.128 130.72 336.831 131.028 336.518 131.318L335.878 131.928C335.463 132.342 335.026 132.733 334.568 133.098C334.118 133.468 333.678 133.868 333.208 134.188C331.398 135.548 329.478 136.755 327.468 137.798C325.53 138.839 323.526 139.751 321.468 140.528C320.468 140.908 319.408 141.268 318.358 141.588C317.308 141.908 316.298 142.208 315.068 142.488L312.958 133.608Z" fill="#FFC3BD"/>
<path d="M324.588 106.628L317.928 103.098L325.048 97.8984C325.048 97.8984 328.698 101.478 327.778 106.268L324.588 106.628Z" fill="#FFC3BD"/>
<path d="M314.968 96.2884L320.978 93.4084L325.048 97.8984L317.928 103.098L314.968 96.2884Z" fill="#FFC3BD"/>
<path d="M279.908 359.558L288.208 360.348L293.268 340.938L284.968 340.138L279.908 359.558Z" fill="#FFC3BD"/>
<path d="M239.728 340.458L247.018 344.638L256.528 327.438L249.238 323.258L239.728 340.458Z" fill="#FFC3BD"/>
<path d="M248.098 343.258L241.698 336.258C241.591 336.134 241.442 336.054 241.279 336.034C241.117 336.013 240.952 336.054 240.818 336.148L234.548 340.408C234.396 340.521 234.27 340.665 234.177 340.829C234.083 340.994 234.026 341.176 234.007 341.364C233.988 341.552 234.009 341.743 234.067 341.922C234.126 342.102 234.222 342.268 234.348 342.408C236.628 344.818 237.838 345.858 240.658 348.938C242.388 350.838 245.928 355.278 248.318 357.938C250.708 360.598 253.428 358.338 252.668 357.028C249.258 351.188 248.778 347.588 248.668 344.688C248.65 344.16 248.448 343.655 248.098 343.258Z" fill="#263238"/>
<path d="M289.918 357.828H279.918C279.739 357.832 279.565 357.894 279.423 358.003C279.281 358.113 279.177 358.266 279.128 358.438L276.948 366.368C276.895 366.555 276.886 366.752 276.923 366.943C276.96 367.133 277.04 367.313 277.159 367.467C277.278 367.62 277.431 367.744 277.606 367.828C277.782 367.911 277.974 367.953 278.168 367.948C281.698 367.948 283.378 367.948 287.778 367.948H301.238C304.898 367.948 305.668 364.248 304.158 363.948C297.368 362.448 293.448 360.378 291.358 358.398C290.968 358.032 290.453 357.828 289.918 357.828Z" fill="#263238"/>
<path opacity="0.2" d="M293.258 340.948L290.658 350.948H282.148L284.958 340.148L293.258 340.948Z" fill="black"/>
<path opacity="0.2" d="M249.238 323.258L256.528 327.448L251.618 336.308L244.328 332.128L249.238 323.258Z" fill="black"/>
<path d="M288.738 111.798C297.746 111.798 305.048 104.496 305.048 95.4883C305.048 86.4806 297.746 79.1783 288.738 79.1783C279.73 79.1783 272.428 86.4806 272.428 95.4883C272.428 104.496 279.73 111.798 288.738 111.798Z" fill="#FFC100"/>
<path opacity="0.2" d="M288.738 111.798C297.746 111.798 305.048 104.496 305.048 95.4883C305.048 86.4806 297.746 79.1783 288.738 79.1783C279.73 79.1783 272.428 86.4806 272.428 95.4883C272.428 104.496 279.73 111.798 288.738 111.798Z" fill="black"/>
<path d="M296.138 110.888C283.138 116.788 263.798 124.708 252.918 115.608C236.788 102.118 269.218 102.018 290.748 84.6984C306.948 71.6984 326.008 69.7584 328.928 77.7584C333.718 90.8684 319.578 100.258 296.138 110.888Z" fill="#FFC100"/>
<path opacity="0.2" d="M304.888 90.0984C298.888 88.2484 281.208 94.1984 281.208 94.1984C278.128 96.1284 267.868 109.538 267.108 119.708C276.778 119.318 287.768 114.708 296.108 110.888C302.248 108.108 307.758 105.408 312.448 102.698C312.578 97.6784 309.198 91.4284 304.888 90.0984Z" fill="black"/>
<path d="M293.498 89.1984C293.498 89.1984 278.648 89.0484 275.498 101.328C272.348 113.608 279.558 114.428 275.168 120.328C270.778 126.228 266.558 128.768 267.668 133.658C268.778 138.548 257.478 139.488 258.498 146.728C261.718 169.498 312.158 162.988 312.638 146.648C313.118 130.308 300.558 131.208 305.998 125.768C311.438 120.328 312.718 114.988 308.388 110.938C304.058 106.888 319.428 82.8684 293.498 89.1984Z" fill="#263238"/>
<path d="M314.428 133.038C314.428 133.038 321.428 134.798 314.778 184.548L280.508 185.548C282.728 168.498 279.838 156.498 274.418 140.168C274.21 139.429 274.161 138.654 274.274 137.894C274.388 137.134 274.662 136.407 275.078 135.761C275.494 135.115 276.043 134.565 276.688 134.148C277.332 133.73 278.059 133.454 278.818 133.338C281.318 132.898 284.368 132.448 287.468 132.208C292.638 131.691 297.838 131.544 303.028 131.768C306.848 131.985 310.654 132.409 314.428 133.038Z" fill="#FFC100"/>
<path opacity="0.2" d="M281.178 139.318L275.428 143.198C276.658 147.008 277.728 150.598 278.608 154.108C280.248 148.838 281.288 141.038 281.178 139.318Z" fill="black"/>
<path d="M288.538 114.618C289.658 119.618 290.898 128.748 287.538 132.188C287.538 132.188 291.478 139.978 304.148 145.188C309.048 136.628 303.098 131.788 303.098 131.788C297.478 130.608 297.498 126.468 298.358 122.548L288.538 114.618Z" fill="#FFC3BD"/>
<path opacity="0.2" d="M292.528 117.838L298.318 122.498C298.103 123.411 297.969 124.342 297.918 125.278C295.778 125.028 292.508 123.208 292.218 120.988C292.13 119.928 292.235 118.861 292.528 117.838Z" fill="black"/>
<path d="M283.188 107.258C286.188 115.068 287.338 118.438 292.668 121.258C300.668 125.478 309.618 120.048 308.978 111.488C308.408 103.778 303.538 92.2984 294.728 91.6184C292.789 91.463 290.842 91.8049 289.071 92.6118C287.3 93.4187 285.765 94.6639 284.609 96.2296C283.454 97.7954 282.717 99.6299 282.469 101.56C282.22 103.49 282.468 105.451 283.188 107.258Z" fill="#FFC3BD"/>
<path d="M293.368 93.9484C293.988 99.3684 289.758 107.698 285.098 111.258C285.268 115.978 276.868 111.908 278.208 104.198C279.548 96.4884 292.308 84.6784 293.368 93.9484Z" fill="#263238"/>
<path d="M293.558 106.828L278.658 113.078C278.61 113.1 278.559 113.111 278.507 113.112C278.454 113.113 278.402 113.103 278.354 113.084C278.305 113.064 278.261 113.035 278.224 112.998C278.187 112.961 278.158 112.917 278.138 112.868C278.098 112.771 278.098 112.663 278.137 112.565C278.176 112.468 278.252 112.39 278.348 112.348L293.258 106.098C293.355 106.058 293.464 106.058 293.561 106.097C293.658 106.136 293.736 106.212 293.778 106.308C293.815 106.407 293.813 106.516 293.772 106.612C293.731 106.709 293.655 106.786 293.558 106.828Z" fill="#263238"/>
<path d="M289.428 94.8184C291.888 97.5584 308.048 98.9684 305.978 94.4784C302.998 88.0384 283.298 87.9884 289.428 94.8184Z" fill="#263238"/>
<path d="M283.308 114.158C283.761 114.822 284.341 115.389 285.013 115.829C285.686 116.268 286.439 116.57 287.228 116.718C289.348 117.098 290.228 115.158 289.438 113.268C288.758 111.568 286.838 109.318 284.798 109.798C284.355 109.911 283.946 110.132 283.61 110.442C283.274 110.753 283.02 111.142 282.872 111.575C282.724 112.008 282.686 112.471 282.763 112.922C282.839 113.373 283.026 113.798 283.308 114.158Z" fill="#FFC3BD"/>
<path d="M314.808 184.548C314.808 184.548 324.118 235.428 316.408 271.478C311.238 295.628 294.208 348.048 294.208 348.048L281.208 347.718C281.208 347.718 292.808 290.038 298.288 272.868C303.288 238.438 292.288 185.198 292.288 185.198L314.808 184.548Z" fill="#263238"/>
<path opacity="0.2" d="M302.318 209.698C300.558 202.308 298.258 205.058 296.578 211.768C297.808 221.098 298.918 231.978 299.358 242.878C301.848 235.858 305.428 222.568 302.318 209.698Z" fill="black"/>
<path d="M295.398 349.688L280.008 347.998L280.788 342.618L296.498 344.728L295.398 349.688Z" fill="#FFC100"/>
<path d="M307.328 184.868C307.328 184.868 299.928 241.638 285.228 271.238C273.358 295.158 254.858 335.148 254.858 335.148L245.058 328.908C245.058 328.908 260.838 279.138 266.868 266.298C285.818 225.978 269.998 201.148 280.538 185.528L307.328 184.868Z" fill="#263238"/>
<path d="M255.918 336.048L243.398 328.548L245.678 323.158L259.018 331.358L255.918 336.048Z" fill="#FFC100"/>
<path d="M279.968 183.538L278.508 186.648C278.398 186.888 278.678 187.128 279.078 187.108L315.078 186.108C315.388 186.108 315.638 185.948 315.648 185.748L315.868 182.678C315.868 182.458 315.618 182.288 315.278 182.298L280.568 183.298C280.456 183.278 280.34 183.29 280.234 183.332C280.128 183.375 280.036 183.446 279.968 183.538Z" fill="#FFC100"/>
<path opacity="0.5" d="M279.968 183.538L278.508 186.648C278.398 186.888 278.678 187.128 279.078 187.108L315.078 186.108C315.388 186.108 315.638 185.948 315.648 185.748L315.868 182.678C315.868 182.458 315.618 182.288 315.278 182.298L280.568 183.298C280.456 183.278 280.34 183.29 280.234 183.332C280.128 183.375 280.036 183.446 279.968 183.538Z" fill="white"/>
<path d="M284.738 187.258H283.808C283.618 187.258 283.478 187.178 283.488 187.058L283.808 183.058C283.808 182.938 283.978 182.838 284.168 182.838H285.098C285.278 182.838 285.418 182.928 285.408 183.038L285.088 187.038C285.078 187.178 284.918 187.258 284.738 187.258Z" fill="#263238"/>
<path d="M312.428 186.488H311.498C311.318 186.488 311.178 186.398 311.188 186.288L311.508 182.288C311.508 182.168 311.678 182.068 311.858 182.058H312.788C312.978 182.058 313.118 182.138 313.108 182.258L312.788 186.258C312.768 186.388 312.608 186.488 312.428 186.488Z" fill="#263238"/>
<path d="M298.578 186.888H297.648C297.468 186.888 297.318 186.798 297.328 186.678L297.648 182.678C297.648 182.568 297.818 182.468 298.008 182.458H298.938C299.118 182.458 299.268 182.548 299.258 182.668L298.938 186.668C298.928 186.778 298.768 186.878 298.578 186.888Z" fill="#263238"/>
<path d="M296.788 105.408C296.998 106.058 297.508 106.468 297.938 106.338C298.368 106.208 298.538 105.568 298.328 104.918C298.118 104.268 297.608 103.848 297.188 103.988C296.768 104.128 296.588 104.758 296.788 105.408Z" fill="#263238"/>
<path d="M304.128 103.068C304.328 103.708 304.838 104.128 305.268 103.998C305.698 103.868 305.868 103.218 305.658 102.578C305.448 101.938 304.938 101.508 304.518 101.648C304.098 101.788 303.918 102.418 304.128 103.068Z" fill="#263238"/>
<path d="M304.338 101.738L305.758 100.788C305.758 100.788 305.348 102.258 304.338 101.738Z" fill="#263238"/>
<path d="M301.738 105.018C302.787 106.313 304.008 107.457 305.368 108.418C305.113 108.759 304.787 109.041 304.412 109.243C304.038 109.445 303.623 109.563 303.198 109.588L301.738 105.018Z" fill="#ED847E"/>
<path d="M300.488 113.108C299.095 113.289 297.686 112.932 296.548 112.108C296.531 112.093 296.518 112.075 296.508 112.054C296.499 112.034 296.494 112.011 296.494 111.988C296.494 111.966 296.499 111.943 296.508 111.923C296.518 111.902 296.531 111.883 296.548 111.868C296.58 111.837 296.623 111.819 296.668 111.819C296.713 111.819 296.756 111.837 296.788 111.868C297.488 112.356 298.292 112.672 299.137 112.79C299.981 112.908 300.842 112.825 301.648 112.548C301.669 112.541 301.692 112.537 301.714 112.539C301.736 112.54 301.758 112.546 301.778 112.557C301.797 112.567 301.815 112.582 301.829 112.599C301.843 112.617 301.853 112.637 301.858 112.658C301.866 112.679 301.869 112.7 301.868 112.722C301.866 112.744 301.86 112.765 301.849 112.784C301.839 112.803 301.824 112.819 301.807 112.832C301.79 112.845 301.77 112.854 301.748 112.858C301.339 112.987 300.916 113.071 300.488 113.108Z" fill="#263238"/>
<path d="M291.018 102.058C290.959 102.072 290.897 102.072 290.838 102.058C290.762 102.013 290.707 101.939 290.684 101.853C290.662 101.767 290.674 101.676 290.718 101.598C291.018 101.047 291.448 100.576 291.971 100.228C292.494 99.8792 293.093 99.6632 293.718 99.5984C293.762 99.5957 293.805 99.6015 293.846 99.6157C293.887 99.6298 293.925 99.6519 293.958 99.6807C293.99 99.7095 294.017 99.7444 294.036 99.7835C294.055 99.8226 294.066 99.865 294.068 99.9084C294.071 99.9517 294.065 99.9952 294.051 100.036C294.037 100.077 294.015 100.115 293.986 100.148C293.957 100.18 293.922 100.207 293.883 100.226C293.844 100.245 293.802 100.256 293.758 100.258C293.251 100.331 292.768 100.523 292.349 100.818C291.93 101.114 291.587 101.505 291.348 101.958C291.309 102.005 291.256 102.039 291.198 102.057C291.139 102.074 291.077 102.075 291.018 102.058Z" fill="#263238"/>
<path d="M305.258 97.3884C305.205 97.3989 305.151 97.3989 305.098 97.3884C304.587 97.3351 304.071 97.4033 303.591 97.5875C303.112 97.7717 302.682 98.0667 302.338 98.4484C302.285 98.5169 302.207 98.5616 302.121 98.5728C302.034 98.5841 301.947 98.5609 301.878 98.5084C301.843 98.4819 301.813 98.4485 301.791 98.4104C301.769 98.3722 301.754 98.3299 301.749 98.2861C301.743 98.2422 301.746 98.1977 301.758 98.1552C301.77 98.1126 301.791 98.0729 301.818 98.0384C302.227 97.5681 302.743 97.2034 303.323 96.9754C303.902 96.7473 304.529 96.6626 305.148 96.7284C305.221 96.734 305.29 96.7638 305.345 96.8131C305.399 96.8624 305.435 96.9284 305.448 97.0006C305.461 97.0729 305.449 97.1473 305.414 97.212C305.38 97.2768 305.325 97.3283 305.258 97.3584V97.3884Z" fill="#263238"/>
<path d="M302.858 102.258C302.803 102.278 302.743 102.278 302.688 102.258C302.182 102.199 301.669 102.259 301.19 102.432C300.711 102.606 300.279 102.889 299.928 103.258C299.904 103.298 299.872 103.332 299.834 103.358C299.796 103.385 299.752 103.403 299.707 103.411C299.661 103.42 299.614 103.419 299.569 103.408C299.524 103.397 299.482 103.377 299.445 103.349C299.408 103.32 299.378 103.285 299.356 103.244C299.334 103.203 299.321 103.158 299.317 103.112C299.314 103.065 299.32 103.019 299.336 102.975C299.351 102.932 299.376 102.892 299.408 102.858C299.815 102.386 300.331 102.019 300.911 101.789C301.491 101.559 302.118 101.473 302.738 101.538C302.827 101.546 302.909 101.588 302.967 101.655C303.024 101.723 303.054 101.81 303.048 101.898C303.06 101.971 303.047 102.045 303.013 102.11C302.979 102.175 302.924 102.227 302.858 102.258Z" fill="#263238"/>
<path d="M281.608 131.258L281.688 133.258C293.188 132.838 302.938 143.958 303.458 158.098C303.978 172.238 295.058 184.038 283.548 184.458L283.628 186.508C296.048 186.058 305.678 173.308 305.128 158.038C304.578 142.768 294.028 130.758 281.608 131.258Z" fill="#FFC100"/>
<path opacity="0.5" d="M281.608 131.258L281.688 133.258C293.188 132.838 302.938 143.958 303.458 158.098C303.978 172.238 295.058 184.038 283.548 184.458L283.628 186.508C296.048 186.058 305.678 173.308 305.128 158.038C304.578 142.768 294.038 130.758 281.608 131.258Z" fill="white"/>
<path d="M281.608 131.258L281.688 133.258C270.188 133.668 261.268 145.478 261.778 159.618C262.288 173.758 272.048 184.878 283.548 184.458L283.628 186.508C271.208 186.958 260.628 174.948 260.108 159.678C259.588 144.408 269.188 131.668 281.608 131.258Z" fill="#FFC100"/>
<path opacity="0.5" d="M281.608 131.258L281.688 133.258C270.188 133.668 261.268 145.478 261.778 159.618C262.288 173.758 272.048 184.878 283.548 184.458L283.628 186.508C271.208 186.958 260.628 174.948 260.108 159.678C259.588 144.408 269.188 131.668 281.608 131.258Z" fill="white"/>
<path d="M302.058 196.748L265.788 198.068C264.094 198.131 262.407 197.831 260.838 197.191C259.268 196.55 257.854 195.583 256.687 194.353C255.521 193.123 254.63 191.659 254.073 190.058C253.516 188.458 253.307 186.756 253.458 185.068L254.018 178.858L255.078 167.088L255.468 162.828C255.529 162.032 255.881 161.287 256.456 160.733C257.032 160.18 257.791 159.858 258.588 159.828L306.588 158.078C307.383 158.049 308.162 158.311 308.777 158.816C309.392 159.32 309.802 160.033 309.928 160.818L310.688 165.578L312.688 178.238L313.428 182.908C313.701 184.581 313.613 186.293 313.172 187.929C312.732 189.565 311.947 191.089 310.871 192.398C309.796 193.708 308.453 194.773 306.934 195.523C305.414 196.273 303.752 196.691 302.058 196.748Z" fill="#FFC100"/>
<path opacity="0.3" d="M302.058 196.748L265.788 198.068C264.094 198.131 262.407 197.831 260.838 197.191C259.268 196.55 257.854 195.583 256.687 194.353C255.521 193.123 254.63 191.659 254.073 190.058C253.516 188.458 253.307 186.756 253.458 185.068L254.018 178.858L255.078 167.088L255.468 162.828C255.529 162.032 255.881 161.287 256.456 160.733C257.032 160.18 257.791 159.858 258.588 159.828L306.588 158.078C307.383 158.049 308.162 158.311 308.777 158.816C309.392 159.32 309.802 160.033 309.928 160.818L310.688 165.578L312.688 178.238L313.428 182.908C313.701 184.581 313.613 186.293 313.172 187.929C312.732 189.565 311.947 191.089 310.871 192.398C309.796 193.708 308.453 194.773 306.934 195.523C305.414 196.273 303.752 196.691 302.058 196.748Z" fill="white"/>
<g opacity="0.2">
<path opacity="0.2" d="M312.678 178.258C310.048 177.568 308.348 175.918 303.808 176.078C297.058 176.328 297.158 179.028 290.388 179.268C283.618 179.508 283.538 176.818 276.768 177.068C269.998 177.318 270.098 180.008 263.338 180.258C258.338 180.438 257.068 179.628 254.018 178.838L255.078 167.068C257.198 167.858 258.998 169.068 262.928 168.938C269.678 168.688 269.578 165.938 276.348 165.728C283.118 165.518 283.198 168.198 289.968 167.948C296.738 167.698 296.638 164.948 303.398 164.748C305.857 164.559 308.329 164.848 310.678 165.598L312.678 178.258Z" fill="white"/>
</g>
<path d="M281.188 141.618C278.188 145.238 275.128 149.088 272.338 152.918C270.958 154.848 269.638 156.808 268.448 158.758C267.328 160.529 266.406 162.417 265.698 164.388C265.46 165.072 265.372 165.798 265.438 166.518C265.514 167.422 265.706 168.313 266.008 169.168C266.766 171.217 267.749 173.176 268.938 175.008C270.198 176.998 271.559 178.92 273.018 180.768C274.468 182.648 276.018 184.518 277.608 186.268L277.688 186.358C278.036 186.777 278.222 187.306 278.211 187.85C278.2 188.394 277.993 188.916 277.628 189.319C277.263 189.723 276.765 189.982 276.225 190.048C275.685 190.114 275.139 189.982 274.688 189.678C270.474 186.633 266.661 183.068 263.338 179.068C261.568 176.93 260.073 174.579 258.888 172.068C258.227 170.639 257.756 169.13 257.488 167.578C257.202 165.84 257.263 164.063 257.668 162.348C258.386 159.581 259.469 156.921 260.888 154.438C262.133 152.141 263.498 149.911 264.978 147.758C267.85 143.524 270.982 139.473 274.358 135.628C275.142 134.709 276.259 134.139 277.463 134.044C278.667 133.948 279.859 134.335 280.778 135.118C281.697 135.902 282.267 137.019 282.363 138.223C282.458 139.427 282.072 140.619 281.288 141.538L281.188 141.618Z" fill="#FFC3BD"/>
<path d="M275.848 184.728L282.848 187.628L277.268 192.538C277.268 192.538 273.008 190.008 272.928 186.538L275.848 184.728Z" fill="#FFC3BD"/>
<path d="M285.418 192.538L279.688 195.948L277.228 192.538L282.808 187.628L285.418 192.538Z" fill="#FFC3BD"/>
<path d="M250.698 347.258C250.589 347.273 250.478 347.273 250.368 347.258C249.318 347.158 248.248 345.508 247.708 344.528C247.689 344.502 247.678 344.471 247.678 344.438C247.678 344.406 247.689 344.374 247.708 344.348C247.729 344.324 247.755 344.306 247.785 344.296C247.815 344.285 247.847 344.283 247.878 344.288C248.218 344.378 251.148 345.148 251.478 346.158C251.515 346.268 251.521 346.385 251.496 346.498C251.472 346.61 251.417 346.714 251.338 346.798C251.179 347.015 250.955 347.176 250.698 347.258ZM248.198 344.738C248.988 346.078 249.798 346.888 250.398 346.948C250.533 346.955 250.667 346.928 250.787 346.868C250.908 346.809 251.012 346.719 251.088 346.608C251.132 346.567 251.163 346.514 251.177 346.455C251.192 346.397 251.188 346.335 251.168 346.278C250.968 345.648 249.208 345.028 248.198 344.728V344.738Z" fill="#FFC100"/>
<path d="M250.498 344.608C249.61 344.814 248.687 344.814 247.798 344.608C247.77 344.601 247.745 344.586 247.726 344.565C247.706 344.543 247.693 344.517 247.688 344.488C247.683 344.46 247.685 344.43 247.694 344.402C247.702 344.374 247.718 344.349 247.738 344.328C247.808 344.258 249.608 342.638 250.808 342.768C250.957 342.779 251.102 342.824 251.232 342.898C251.362 342.973 251.473 343.075 251.558 343.198C251.652 343.317 251.702 343.463 251.702 343.613C251.702 343.764 251.652 343.91 251.558 344.028C251.278 344.332 250.906 344.536 250.498 344.608ZM248.208 344.378C249.208 344.538 250.938 344.378 251.328 343.848C251.388 343.758 251.448 343.628 251.278 343.398C251.222 343.316 251.148 343.247 251.061 343.197C250.975 343.146 250.878 343.116 250.778 343.108C249.958 343.018 248.718 343.948 248.208 344.378Z" fill="#FFC100"/>
<path d="M294.358 359.448C293.439 359.429 292.524 359.315 291.628 359.108C291.594 359.099 291.564 359.08 291.541 359.053C291.518 359.026 291.503 358.993 291.498 358.958C291.496 358.924 291.503 358.89 291.519 358.86C291.535 358.83 291.559 358.805 291.588 358.788C291.998 358.598 295.638 356.918 296.588 357.538C296.673 357.594 296.74 357.672 296.783 357.764C296.825 357.856 296.841 357.958 296.828 358.058C296.822 358.24 296.775 358.419 296.69 358.58C296.606 358.741 296.485 358.881 296.338 358.988C295.744 359.348 295.05 359.509 294.358 359.448ZM292.198 358.878C293.278 359.088 295.268 359.348 296.098 358.728C296.206 358.647 296.293 358.543 296.356 358.424C296.418 358.304 296.453 358.173 296.458 358.038C296.466 357.997 296.461 357.954 296.446 357.915C296.43 357.876 296.403 357.843 296.368 357.818C295.858 357.468 293.708 358.258 292.198 358.878Z" fill="#FFC100"/>
<path d="M291.658 359.108C291.626 359.121 291.59 359.121 291.558 359.108C291.535 359.089 291.517 359.065 291.507 359.036C291.496 359.008 291.493 358.978 291.498 358.948C291.498 358.798 292.358 355.208 294.328 355.438C294.828 355.498 294.958 355.738 294.988 355.938C295.108 356.848 292.818 358.688 291.728 359.138L291.658 359.108ZM294.148 355.718C292.888 355.718 292.148 357.808 291.918 358.638C293.098 358.018 294.738 356.528 294.658 355.938C294.658 355.938 294.658 355.768 294.288 355.728L294.148 355.718Z" fill="#FFC100"/>
<path d="M297.008 104.078L298.418 103.138C298.418 103.138 298.008 104.608 297.008 104.078Z" fill="#263238"/>
<path d="M301.188 105.018C301.186 105.892 300.925 106.746 300.438 107.471C299.952 108.197 299.261 108.762 298.453 109.095C297.645 109.428 296.757 109.514 295.9 109.342C295.043 109.171 294.256 108.749 293.639 108.13C293.022 107.512 292.602 106.724 292.432 105.867C292.263 105.01 292.351 104.122 292.686 103.315C293.021 102.508 293.587 101.818 294.314 101.333C295.04 100.847 295.894 100.588 296.768 100.588C297.35 100.588 297.925 100.703 298.462 100.926C298.999 101.149 299.487 101.475 299.897 101.887C300.308 102.298 300.633 102.786 300.855 103.324C301.076 103.861 301.19 104.437 301.188 105.018Z" fill="#263238"/>
<g opacity="0.3">
<path opacity="0.3" d="M296.768 100.598H296.698L295.218 109.148C295.711 109.347 296.237 109.445 296.768 109.438C296.986 109.442 297.204 109.426 297.418 109.388L298.848 101.108C298.205 100.775 297.492 100.6 296.768 100.598Z" fill="white"/>
<path opacity="0.3" d="M299.298 101.398L297.938 109.258C298.428 109.12 298.891 108.9 299.308 108.608L300.368 102.418C300.076 102.017 299.714 101.671 299.298 101.398Z" fill="white"/>
</g>
<path d="M310.988 101.688C310.99 102.565 310.732 103.422 310.246 104.152C309.761 104.882 309.07 105.451 308.26 105.788C307.451 106.125 306.56 106.214 305.7 106.044C304.84 105.875 304.05 105.454 303.429 104.834C302.809 104.215 302.386 103.426 302.214 102.566C302.042 101.707 302.129 100.815 302.464 100.005C302.799 99.1953 303.367 98.5029 304.096 98.0157C304.825 97.5284 305.682 97.2684 306.558 97.2684C307.14 97.267 307.715 97.3804 308.253 97.6019C308.79 97.8235 309.279 98.1488 309.69 98.5594C310.102 98.97 310.428 99.4577 310.651 99.9946C310.874 100.531 310.988 101.107 310.988 101.688Z" fill="#263238"/>
<g opacity="0.3">
<path opacity="0.3" d="M306.568 97.2584H306.488L305.018 105.818C305.513 106.008 306.039 106.103 306.568 106.098C306.785 106.113 307.002 106.113 307.218 106.098L308.648 97.8084C308.008 97.4632 307.295 97.2747 306.568 97.2584Z" fill="white"/>
<path opacity="0.3" d="M309.088 98.0684L307.728 105.958C308.22 105.826 308.685 105.606 309.098 105.308L310.158 99.1184C309.869 98.7057 309.506 98.3498 309.088 98.0684Z" fill="white"/>
</g>
<path opacity="0.25" d="M273.6 381.32C324.189 381.32 365.2 375.204 365.2 367.66C365.2 360.116 324.189 354 273.6 354C223.011 354 182 360.116 182 367.66C182 375.204 223.011 381.32 273.6 381.32Z" fill="black"/>
</svg>
