<svg width="218" height="208" viewBox="0 0 218 208" fill="none" xmlns="http://www.w3.org/2000/svg">
<ellipse cx="109" cy="104" rx="109" ry="104" fill="#F4A936"/>
<path d="M134.833 75.3686C135.393 75.8651 136.128 76.1133 136.863 76.1133C137.598 76.1133 138.333 75.8651 138.893 75.3686C140.014 74.3758 140.014 72.766 138.893 71.7729L138.854 71.7386C137.733 70.7458 135.915 70.7458 134.794 71.7386C133.672 72.7314 133.672 74.3412 134.794 75.3343L134.833 75.3686Z" fill="white"/>
<path d="M181.152 99.4237L191.159 90.5623C191.98 89.8352 192.226 88.7414 191.781 87.7916C191.337 86.8415 190.29 86.2222 189.128 86.2222H168.385C165.673 76.3934 159.982 67.4374 151.847 60.2333C140.026 49.7651 124.308 44 107.59 44C90.8714 44 75.1536 49.7651 63.3322 60.2333C51.5105 70.7015 45 84.6195 45 99.4237C45 114.228 51.5105 128.146 63.3322 138.614C66.8476 141.727 70.7095 144.42 74.8378 146.673L66.1881 160.205C65.6851 160.992 65.692 161.957 66.2065 162.738C66.7207 163.52 67.665 164 68.6865 164H83.4726C84.5071 164 85.4617 163.507 85.9713 162.71L92.0873 153.142C97.0931 154.266 102.291 154.847 107.59 154.847C112.889 154.847 118.086 154.266 123.092 153.142L129.208 162.71C129.718 163.507 130.672 164 131.707 164H146.493C147.515 164 148.459 163.519 148.973 162.738C149.488 161.957 149.495 160.992 148.992 160.206L140.342 146.674C144.47 144.42 148.332 141.727 151.848 138.614C159.98 131.413 165.673 122.454 168.385 112.626H189.129C190.29 112.626 191.337 112.006 191.781 111.056C192.226 110.106 191.98 109.013 191.159 108.285L181.152 99.4237ZM175.902 96.8814H155.865L162.16 91.307H182.197L175.902 96.8814ZM81.7985 158.915H73.6107L79.8599 149.139C82.0046 150.079 84.2065 150.911 86.4591 151.624L81.7985 158.915ZM141.569 158.915H133.381L128.72 151.624C130.973 150.911 133.175 150.079 135.32 149.139L141.569 158.915ZM147.787 135.019C143.994 138.377 139.758 141.2 135.198 143.45C135.142 143.474 135.085 143.497 135.03 143.524C134.995 143.542 134.964 143.562 134.93 143.581C131.432 145.285 127.746 146.653 123.922 147.663C123.771 147.689 123.623 147.729 123.476 147.777C118.378 149.084 113.043 149.763 107.59 149.763C102.136 149.763 96.8011 149.084 91.7037 147.778C91.5567 147.729 91.408 147.69 91.2573 147.663C87.433 146.653 83.7471 145.285 80.2495 143.581C80.2159 143.562 80.1844 143.542 80.1496 143.525C80.0942 143.497 80.0376 143.474 79.9814 143.45C75.4215 141.2 71.1855 138.377 67.3928 135.019C56.6555 125.511 50.7422 112.87 50.7422 99.4237C50.7422 85.9776 56.6555 73.3364 67.3925 63.8287C78.1295 54.321 92.4052 49.0847 107.59 49.0847C122.774 49.0847 137.05 54.321 147.787 63.8287C154.842 70.0761 159.874 77.7721 162.458 86.2222H160.971C160.21 86.2222 159.479 86.4902 158.941 86.9669L151.321 93.7146C150.552 89.0923 148.864 84.5979 146.316 80.5105C145.55 79.2813 143.803 78.8353 142.415 79.5136C141.027 80.1922 140.523 81.739 141.289 82.9682C144.014 87.3396 145.537 92.0923 145.927 96.8816H133.267C132.628 91.7318 130.058 86.961 125.861 83.2446C120.981 78.9225 114.492 76.5424 107.59 76.5424C100.688 76.5424 94.1987 78.9225 89.3184 83.2441C84.4379 87.5661 81.75 93.3119 81.75 99.4237C81.75 105.536 84.4379 111.282 89.3182 115.603C94.1987 119.925 100.688 122.305 107.59 122.305C114.492 122.305 120.981 119.925 125.861 115.603C130.058 111.887 132.628 107.116 133.267 101.966H145.914C145.229 109.914 141.442 117.626 134.794 123.513C127.527 129.948 117.866 133.492 107.59 133.492C97.3136 133.492 87.6521 129.948 80.3856 123.513C73.1189 117.079 69.1172 108.524 69.1172 99.4237C69.1172 90.3238 73.1189 81.7687 80.3856 75.3342C92.439 64.6608 111.268 62.2959 126.173 69.5831C127.561 70.2614 129.308 69.8155 130.074 68.5863C130.841 67.357 130.337 65.8105 128.949 65.1317C120.724 61.1109 111.041 59.5085 101.682 60.6205C92.0104 61.7692 83.2421 65.6137 76.3253 71.7388C67.9742 79.1338 63.375 88.9657 63.375 99.4237C63.375 109.882 67.9742 119.714 76.325 127.109C84.6762 134.504 95.7795 138.576 107.59 138.576C119.4 138.576 130.503 134.504 138.854 127.109C145.64 121.1 149.945 113.514 151.331 105.142L158.941 111.881C159.479 112.358 160.209 112.626 160.971 112.626H162.457C159.873 121.075 154.839 128.774 147.787 135.019ZM116.967 94.6298C116.174 93.4136 114.418 92.9971 113.045 93.6993L106.154 97.222C105.266 97.6761 104.719 98.5153 104.719 99.4237C104.719 100.332 105.266 101.171 106.154 101.625L113.045 105.148C113.497 105.379 113.991 105.489 114.478 105.489C115.47 105.489 116.435 105.033 116.967 104.218C117.433 103.503 117.459 102.673 117.126 101.966H127.483C126.874 105.755 124.911 109.254 121.801 112.008C118.005 115.369 112.958 117.22 107.59 117.22C102.221 117.22 97.1746 115.369 93.3785 112.008C89.5826 108.646 87.4921 104.177 87.4921 99.4237C87.4921 94.67 89.5826 90.201 93.3787 86.8395C97.1746 83.4782 102.221 81.6271 107.59 81.6271C112.958 81.6271 118.005 83.4782 121.801 86.8397C124.911 89.5939 126.875 93.0925 127.483 96.8814H117.126C117.459 96.1746 117.433 95.3442 116.967 94.6298ZM162.16 107.541L155.865 101.966H175.902L182.197 107.541H162.16Z" fill="white"/>
</svg>
