<svg width="218" height="208" viewBox="0 0 218 208" fill="none" xmlns="http://www.w3.org/2000/svg">
<ellipse cx="109" cy="104" rx="109" ry="104" fill="#F4A936"/>
<path d="M174.652 155.182L142.777 96.12C142.416 95.4526 141.68 95.0312 140.875 95.0312H119.852L120.12 93.9583C128.65 91.2591 134.5 83.768 134.5 75.3438C134.5 64.4881 124.967 55.6562 113.25 55.6562C101.533 55.6562 92 64.4881 92 75.3438C92 83.768 97.8501 91.2591 106.38 93.9583L106.648 95.0312H77.125C76.3196 95.0312 75.5844 95.4526 75.2231 96.12L43.3481 155.182C43.0188 155.793 43.0528 156.517 43.4416 157.098C43.8305 157.677 44.5126 158.031 45.25 158.031H172.75C173.487 158.031 174.169 157.677 174.558 157.098C174.945 156.517 174.981 155.793 174.652 155.182ZM105.373 145.642L114.495 154.094H107.755L91.3774 138.921C90.5465 138.151 89.2035 138.151 88.3726 138.921L71.9952 154.094H65.2547L85.0024 135.798C85.8332 135.028 85.8332 133.784 85.0024 133.014L68.3764 117.611L70.6225 113.447L79.8705 122.015C80.287 122.401 80.831 122.594 81.375 122.594C81.919 122.594 82.463 122.401 82.8774 122.017L93.5024 112.173C93.9019 111.805 94.125 111.303 94.125 110.781V98.9688H98.375V113.904L86.2476 125.139C85.4167 125.909 85.4167 127.153 86.2476 127.923L98.9976 139.736C99.412 140.12 99.956 140.312 100.5 140.312C101.044 140.312 101.588 140.12 102.002 139.736L120.505 122.594H152.312L154.437 126.531H123.875C123.31 126.531 122.77 126.738 122.373 127.108L105.373 142.858C104.542 143.628 104.542 144.872 105.373 145.642ZM101.745 154.094H78.0047L89.875 143.096L101.745 154.094ZM96.25 75.3438C96.25 66.6596 103.877 59.5938 113.25 59.5938C122.623 59.5938 130.25 66.6596 130.25 75.3438C130.25 82.4017 125.114 88.6387 117.761 90.513C117.009 90.7059 116.431 91.2631 116.255 91.9679L113.25 104.011L110.245 91.9679C110.069 91.2631 109.491 90.7039 108.739 90.513C101.386 88.6387 96.25 82.4017 96.25 75.3438ZM111.178 113.193C111.403 114.087 112.26 114.719 113.25 114.719C114.24 114.719 115.097 114.087 115.322 113.193L118.871 98.9688H139.562L150.187 118.656H119.625C119.06 118.656 118.52 118.863 118.123 119.233L100.5 135.56L90.7547 126.531L102.002 116.111C102.402 115.743 102.625 115.24 102.625 114.719V98.9688H107.629L111.178 113.193ZM78.4382 98.9688H89.875V109.966L81.375 117.841L72.6264 109.736L78.4382 98.9688ZM66.3746 121.324L80.4952 134.406L59.2453 154.094H48.6883L66.3746 121.324ZM120.505 154.094L109.88 144.25L124.755 130.469H156.562L165.062 146.219H154.762L146.893 135.282C146.54 134.79 145.966 134.473 145.335 134.416C144.694 134.355 144.073 134.568 143.623 134.983L139.6 138.708L136.344 133.428C135.59 132.201 133.41 132.201 132.655 133.428L124.767 146.219H119.625V150.156H167.187L169.312 154.094H120.505ZM139.339 146.219H129.661L134.5 138.375L139.339 146.219ZM144.232 146.219L141.787 142.252L144.796 139.466L149.655 146.219H144.232Z" fill="white"/>
<path d="M121.75 75.3438H126C126 68.8292 120.282 63.5312 113.25 63.5312V67.4688C117.938 67.4688 121.75 71.0007 121.75 75.3438Z" fill="white"/>
<path d="M118.348 81.6438L120.9 84.7938C122.664 83.5653 124.058 81.9332 124.935 80.0688L121.042 78.4938C120.46 79.7361 119.527 80.8248 118.348 81.6438Z" fill="white"/>
<path d="M49.5006 63.5312C48.7908 63.5312 48.1278 63.86 47.7326 64.4073L43.4826 70.3136C43.0066 70.9751 43.0066 71.8354 43.4826 72.4969L47.7326 78.4032C48.1278 78.9525 48.7908 79.2812 49.5006 79.2812H60.1256V97C60.1256 98.0868 61.0755 98.9688 62.2506 98.9688H70.7506C71.9257 98.9688 72.8756 98.0868 72.8756 97V79.2812H87.7506C88.5347 79.2812 89.2551 78.8816 89.6248 78.2417C89.9946 77.6019 89.9521 76.8242 89.5186 76.2218L86.0548 71.4062L89.5186 66.5927C89.9521 65.9883 89.9946 65.2126 89.6248 64.5727C89.2551 63.9329 88.5347 63.5312 87.7506 63.5312H72.8756V59.5938H83.5006C84.2103 59.5938 84.8733 59.265 85.2686 58.7177L89.5186 52.8114C89.9946 52.1499 89.9946 51.2896 89.5186 50.6281L85.2686 44.7218C84.8733 44.1725 84.2103 43.8438 83.5006 43.8438H72.8756V37.9375C72.8756 36.8508 71.9257 35.9688 70.7506 35.9688H62.2506C61.0755 35.9688 60.1256 36.8508 60.1256 37.9375V43.8438H45.2506C44.4665 43.8438 43.7461 44.2434 43.3763 44.8832C43.0066 45.5231 43.0491 46.3007 43.4826 46.9032L46.9463 51.7188L43.4826 56.5323C43.0491 57.1367 43.0066 57.9124 43.3763 58.5523C43.7461 59.1921 44.4665 59.5938 45.2506 59.5938H60.1256V63.5312H49.5006ZM68.6256 95.0312H64.3756V79.2812H68.6256V95.0312ZM81.7326 72.4989L83.7811 75.3438H50.6375L47.8048 71.4062L50.6375 67.4688H83.7811L81.7326 70.3136C81.2566 70.9751 81.2566 71.8374 81.7326 72.4989ZM64.3756 39.9062H68.6256V43.8438H64.3756V39.9062ZM51.2686 50.6261L49.2201 47.7812H82.3637L85.1963 51.7188L82.3637 55.6562H49.2201L51.2686 52.8114C51.7446 52.1499 51.7446 51.2876 51.2686 50.6261ZM64.3756 59.5938H68.6256V63.5312H64.3756V59.5938Z" fill="white"/>
<path d="M51.625 69.4375H55.875V73.375H51.625V69.4375Z" fill="white"/>
<path d="M60.125 69.4375H64.375V73.375H60.125V69.4375Z" fill="white"/>
<path d="M77.125 49.75H81.375V53.6875H77.125V49.75Z" fill="white"/>
<path d="M68.625 49.75H72.875V53.6875H68.625V49.75Z" fill="white"/>
</svg>
