<svg width="218" height="208" viewBox="0 0 218 208" fill="none" xmlns="http://www.w3.org/2000/svg">
<ellipse cx="109" cy="104" rx="109" ry="104" fill="#F4A936"/>
<path d="M108.5 74.6671L124.53 63.3871H145.516V45H93.2581V63.3871H108.5V74.6671ZM97.6129 59.7097V48.6774H141.161V59.7097H122.954L112.855 66.8167V59.7097H97.6129Z" fill="white"/>
<path d="M101.968 52.3548H106.323V56.0322H101.968V52.3548Z" fill="white"/>
<path d="M110.677 52.3548H128.097V56.0322H110.677V52.3548Z" fill="white"/>
<path d="M132.452 52.3548H136.806V56.0322H132.452V52.3548Z" fill="white"/>
<path d="M151.841 155.323L150.08 140.438C157.351 139.467 162.935 134.151 162.935 127.742V103.839H154.226V101.298C154.226 98.7984 152.599 96.5539 149.984 95.4029C152.584 93.3855 154.226 90.5009 154.226 87.2903V83.6129C154.226 77.5284 148.367 72.5806 141.161 72.5806C133.956 72.5806 128.097 77.5284 128.097 83.6129V87.2903C128.097 92.0505 131.691 96.1032 136.704 97.6474L125.018 107.516H112.807C112.564 104.451 110.07 101.779 106.538 100.926L97.6129 98.7751V95.4909C100.278 93.4699 101.968 90.5484 101.968 87.2903V83.6129C101.968 77.5284 96.1085 72.5806 88.9032 72.5806C81.698 72.5806 75.8387 77.5284 75.8387 83.6129V87.2903C75.8387 90.5467 77.5281 93.4681 80.1936 95.4909V98.7769L71.2681 100.928C67.549 101.823 64.9516 104.732 64.9516 108V114.871H56.2419V125.903H60.5968V155.323H41V159H176V155.323H151.841ZM132.452 125.903V117.471L147.881 104.442C148.996 103.5 149.659 102.235 149.808 100.915C149.827 101.044 149.871 101.165 149.871 101.298V124.064C149.871 127.105 146.94 129.581 143.339 129.581H125.919V125.903H132.452ZM125.919 140.613H137.014L138.755 155.323H125.919V140.613ZM141.39 140.613H145.723L147.465 155.323H143.131L141.39 140.613ZM154.226 124.064V107.516H158.581V127.742C158.581 132.811 153.696 136.935 147.694 136.935H125.919V133.258H143.339C149.342 133.258 154.226 129.134 154.226 124.064ZM132.452 87.2903V83.6129C132.452 79.5566 136.358 76.258 141.161 76.258C145.965 76.258 149.871 79.5566 149.871 83.6129V87.2903C149.871 91.3466 145.965 94.6451 141.161 94.6451C136.358 94.6451 132.452 91.3466 132.452 87.2903ZM126.821 111.194L141.348 98.9259C141.803 98.5416 142.433 98.3226 143.075 98.3226C144.421 98.3226 145.516 99.2473 145.516 100.384C145.516 100.926 145.257 101.458 144.802 101.842L129.373 114.871H106.323C105.121 114.871 104.145 114.047 104.145 113.032C104.145 112.018 105.121 111.194 106.323 111.194H126.821ZM80.1936 83.6129C80.1936 79.5566 84.0997 76.258 88.9032 76.258C93.7067 76.258 97.6129 79.5566 97.6129 83.6129V87.2903C97.6129 91.3466 93.7067 94.6451 88.9032 94.6451C84.0997 94.6451 80.1936 91.3466 80.1936 87.2903V83.6129ZM88.9032 98.3226C90.4321 98.3226 91.8929 98.0873 93.2581 97.6788V99.654C92.718 100.358 91.2178 102 88.9032 102C86.5887 102 85.0885 100.358 84.5484 99.654V97.6788C85.9135 98.0873 87.3744 98.3226 88.9032 98.3226ZM69.3065 108C69.3065 106.365 70.6067 104.912 72.4641 104.464L81.4343 102.3C82.6974 103.69 85.1555 105.677 88.9032 105.677C92.651 105.677 95.1091 103.69 96.3722 102.298L105.342 104.462C107.01 104.865 108.174 106.089 108.406 107.514H106.323C102.722 107.514 99.7903 109.99 99.7903 113.03C99.7903 113.678 99.9466 114.292 100.191 114.869H69.3065V108ZM60.5968 118.548H128.097V122.226H60.5968V118.548ZM64.9516 133.258H71.4839V129.581H64.9516V125.903H121.565V129.581H75.8387V133.258H121.565V155.323H116.378L112.023 147.968H74.4927L70.1379 155.323H64.9516V133.258ZM111.509 155.323H75.0073L77.1847 151.645H109.331L111.509 155.323Z" fill="white"/>
</svg>
