<svg width="110" height="82" viewBox="0 0 110 82" fill="none" xmlns="http://www.w3.org/2000/svg">
<path d="M109.593 39.3366C108.726 37.7258 87.9086 0 54.9998 0C26.7613 0 1.59841 37.5092 0.539643 39.1082C-0.179881 40.1976 -0.179881 41.7966 0.539643 42.8918C1.59841 44.4908 26.7613 82 54.9998 82C83.2383 82 108.401 44.4908 109.46 42.8918C110.124 41.8845 110.184 40.426 109.593 39.3366ZM54.9998 76.143C32.3624 76.143 10.8386 48.5558 5.3707 41.0001C10.8295 33.4387 32.3304 5.85732 54.9998 5.85732C81.4873 5.85732 100.183 33.4035 104.748 40.842C99.4771 48.1575 77.8297 76.143 54.9998 76.143Z" fill="#F7D8A4"/>
<path d="M54.9998 17.5714C44.8889 17.5714 36.6663 28.0791 36.6663 40.9999C36.6663 53.9206 44.8889 64.4283 54.9998 64.4283C65.1108 64.4283 73.3334 53.9206 73.3334 40.9999C73.3334 28.0791 65.1108 17.5714 54.9998 17.5714ZM54.9998 58.5715C47.4189 58.5715 41.2496 50.6878 41.2496 41.0001C41.2496 31.3125 47.4189 23.4287 54.9998 23.4287C62.5807 23.4287 68.7501 31.3125 68.7501 41.0001C68.7501 50.6878 62.5807 58.5715 54.9998 58.5715Z" fill="#F7D8A4"/>
</svg>
